<svg xmlns="http://www.w3.org/2000/svg" width="192.292" height="253.949" viewBox="0 0 192.292 253.949"><g transform="translate(-306 -4068.051)"><g transform="translate(335.655 4068.051)"><g transform="translate(0 13.742)"><g transform="translate(0.158 0.157)"><rect width="162.337" height="224.413" rx="10.737" fill="#e0e0e0"/></g><path d="M273.618,298s.169-.013.5-.032a7.3,7.3,0,0,0,1.461-.276,6.824,6.824,0,0,0,2.145-1.134,6.419,6.419,0,0,0,1.969-2.641,5.939,5.939,0,0,0,.426-1.931c.038-.7.009-1.439.016-2.213q0-2.325-.007-5.081c0-3.673-.009-7.91-.015-12.68-.012-19.082-.029-46.691-.05-80.805-.005-17.058-.012-35.743-.019-55.8q0-15.043-.008-31.086,0-8.013,0-16.256-.006-4.118-.012-8.291A6.167,6.167,0,0,0,278.576,76a6.5,6.5,0,0,0-3.538-2.124,9.286,9.286,0,0,0-2.13-.159H257.5l-17.985,0-37.1,0-78.007,0a6.512,6.512,0,0,0-4.427,1.721,6.143,6.143,0,0,0-1.977,4.206c-.032,3.219-.009,6.455-.016,9.665q0,9.641,0,19.151,0,19.016,0,37.443c0,24.548-.006,48.226-.009,70.783s-.01,43.991-.015,64.05q0,3.761,0,7.457c.006,1.23-.015,2.464.013,3.674a6.1,6.1,0,0,0,1.164,3.338,6.475,6.475,0,0,0,2.8,2.185,7.064,7.064,0,0,0,1.744.435c.594.051,1.208.039,1.818.04l7.242,0,27.49.01,82.959.048,22.555.029,5.865.015c1.322.005,2,.015,2,.015s-.677.011-2,.016l-5.865.015-22.555.029-82.959.049-27.49.01-7.242,0c-.608,0-1.218.012-1.845-.041a7.282,7.282,0,0,1-1.812-.45,6.727,6.727,0,0,1-2.912-2.268,6.344,6.344,0,0,1-1.212-3.468c-.029-1.231-.009-2.45-.015-3.684q0-3.7,0-7.457c0-20.06-.009-41.494-.014-64.05s-.006-46.235-.009-70.783q0-18.411,0-37.443,0-9.508,0-19.151c.007-3.217-.017-6.431.016-9.68a6.446,6.446,0,0,1,2.074-4.412,6.83,6.83,0,0,1,4.643-1.806l78.007,0,37.1,0,17.985,0h15.4a9.582,9.582,0,0,1,2.193.167,6.8,6.8,0,0,1,3.7,2.221,6.441,6.441,0,0,1,1.511,3.937q0,4.177.009,8.3,0,8.241,0,16.256,0,16.027-.008,31.086c-.007,20.059-.013,38.743-.019,55.8-.021,34.114-.038,61.723-.05,80.805-.006,4.77-.01,9.007-.015,12.68q0,2.754-.007,5.081c-.01.776.017,1.512-.023,2.217a6.009,6.009,0,0,1-.437,1.95,6.471,6.471,0,0,1-2,2.655,6.816,6.816,0,0,1-2.166,1.127,7.031,7.031,0,0,1-1.47.262C273.787,298,273.618,298,273.618,298Z" transform="translate(-117.681 -73.427)" fill="#263238"/><g transform="translate(14.321 175.941)" opacity="0.3"><path d="M142.365,414.2l136.125-.744,1.56-26.3-4.171-15.862L141.128,392.35Z" transform="translate(-141.128 -371.295)"/></g><g transform="translate(121.894 0.627)" opacity="0.3"><path d="M317.637,74.454l3.1,9.182v4.5h-3.491Z" transform="translate(-317.242 -74.454)"/></g><g transform="translate(7.126 9.431)"><g transform="translate(0.145 0.129)"><path d="M129.584,89.077V294.735H277.44V89.077Z" transform="translate(-129.584 -89.077)" fill="#fff"/></g><path d="M129.492,88.992l147.856-.125h.128v.125c.009,57.156.02,128.483.031,205.648v.172h-.159L129.492,294.8h-.145v-.141c.086-121.432.144-204.413.145-205.665,0,1.252.059,84.233.145,205.665l-.145-.141,147.856-.014-.159.154v-.017c.012-77.165.022-148.492.031-205.648l.128.125Z" transform="translate(-129.347 -88.867)" fill="#263238"/></g></g><g transform="translate(47.478)"><g transform="translate(0 8.16)"><path d="M6.326,0h62.16a6.326,6.326,0,0,1,6.326,6.326V21.7a0,0,0,0,1,0,0H0a0,0,0,0,1,0,0V6.326A6.326,6.326,0,0,1,6.326,0Z" fill="#263238"/></g><g transform="translate(27.885)"><path d="M260.1,50.928H241.063l2.225,16.321h14.342Z" transform="translate(-241.063 -50.928)" fill="#263238"/></g><g transform="translate(4.806 8.003)"><path d="M268.478,64.188c0,.087-14.6.157-32.6.157s-32.6-.07-32.6-.157,14.594-.157,32.6-.157S268.478,64.1,268.478,64.188Z" transform="translate(-203.279 -64.031)" fill="#455a64"/></g><g transform="translate(1.517 12.648)"><path d="M198.052,85.346c-.087,0-.157-3.069-.157-6.855s.07-6.855.157-6.855.157,3.068.157,6.855S198.139,85.346,198.052,85.346Z" transform="translate(-197.895 -71.636)" fill="#455a64"/></g><g transform="translate(72.232 12.287)"><path d="M313.824,83.492a61.811,61.811,0,0,1-.157-6.224,61.8,61.8,0,0,1,.157-6.224,61.8,61.8,0,0,1,.157,6.224A61.811,61.811,0,0,1,313.824,83.492Z" transform="translate(-313.667 -71.045)" fill="#455a64"/></g><g transform="translate(1.855 27.464)"><path d="M265.374,96.048c0,.087-14.983.158-33.461.158s-33.465-.07-33.465-.158,14.98-.156,33.465-.156S265.374,95.962,265.374,96.048Z" transform="translate(-198.447 -95.892)" fill="#455a64"/></g></g><g transform="translate(52.099 40.259)"><g transform="translate(38.608 8.722)"><path d="M274.7,138.1c0,3.566-2.136,5.555-5.261,5.555a5.509,5.509,0,0,1-2.858-.707l.884-1.753a3.338,3.338,0,0,0,1.93.516c1.71,0,2.829-1.017,2.9-3.006a3.523,3.523,0,0,1-2.564.928,3.272,3.272,0,0,1-3.552-3.212c0-2.107,1.724-3.433,3.9-3.433C272.945,132.99,274.7,134.774,274.7,138.1Zm-2.667-1.8c0-.884-.663-1.532-1.8-1.532a1.551,1.551,0,1,0,.03,3.08A1.6,1.6,0,0,0,272.032,136.305Z" transform="translate(-266.182 -132.99)" fill="#0540b7"/><path d="M282.011,138.325c0-3.4,1.886-5.335,4.421-5.335s4.42,1.931,4.42,5.335-1.872,5.334-4.42,5.334S282.011,141.728,282.011,138.325Zm6.44,0c0-2.343-.825-3.316-2.019-3.316s-2,.973-2,3.316.825,3.315,2,3.315S288.451,140.667,288.451,138.325Z" transform="translate(-272.342 -132.99)" fill="#0540b7"/><path d="M298.395,138.325c0-3.4,1.886-5.335,4.42-5.335,2.55,0,4.421,1.931,4.421,5.335s-1.872,5.334-4.421,5.334C300.281,143.658,298.395,141.728,298.395,138.325Zm6.44,0c0-2.343-.825-3.316-2.019-3.316-1.178,0-2,.973-2,3.316s.825,3.315,2,3.315C304.01,141.64,304.835,140.667,304.835,138.325Z" transform="translate(-278.719 -132.99)" fill="#0540b7"/><path d="M318.313,133.28v10.315h-2.387v-8.4h-2.063V133.28Z" transform="translate(-284.739 -133.103)" fill="#0540b7"/></g><path d="M279.6,145.857H202.975V118.711H279.6Zm-76.015-.611h75.4V119.322h-75.4Z" transform="translate(-202.975 -118.711)" fill="#0540b7"/><g transform="translate(0.305 0.305)"><rect width="34.387" height="26.536" fill="#0540b7"/></g><g transform="translate(6.285 9.166)"><path d="M213.264,133.995h2.286v9.878h-2.286Z" transform="translate(-213.264 -133.826)" fill="#fff"/><path d="M219.57,142.792l.776-1.722a5.808,5.808,0,0,0,3.26,1.03c1.355,0,1.9-.451,1.9-1.059,0-1.848-5.743-.578-5.743-4.247,0-1.68,1.355-3.077,4.163-3.077a6.622,6.622,0,0,1,3.429.875l-.705,1.735a5.585,5.585,0,0,0-2.738-.776c-1.355,0-1.877.508-1.877,1.129,0,1.82,5.743.564,5.743,4.191,0,1.651-1.369,3.062-4.191,3.062A7.038,7.038,0,0,1,219.57,142.792Z" transform="translate(-215.718 -133.718)" fill="#fff"/><path d="M234.561,138.826a5.413,5.413,0,1,1,5.4,5.108A5.112,5.112,0,0,1,234.561,138.826Zm8.5,0a3.091,3.091,0,1,0-3.091,3.161A3.013,3.013,0,0,0,243.056,138.826Z" transform="translate(-221.553 -133.718)" fill="#fff"/></g></g><g transform="translate(23.692 91.746)"><path d="M201.63,205.076c0,.087-10.111.159-22.58.159s-22.582-.071-22.582-.159,10.108-.159,22.582-.159S201.63,204.988,201.63,205.076Z" transform="translate(-156.468 -204.917)" fill="#263238"/></g><g transform="translate(24.456 99.456)"><path d="M275.613,218.016c0,.088-26.394.159-58.944.159s-58.949-.071-58.949-.159,26.388-.159,58.949-.159S275.613,217.928,275.613,218.016Z" transform="translate(-157.72 -217.857)" fill="#263238"/></g><g transform="translate(24.456 106.551)"><path d="M275.613,229.925c0,.088-26.394.159-58.944.159s-58.949-.071-58.949-.159,26.388-.159,58.949-.159S275.613,229.837,275.613,229.925Z" transform="translate(-157.72 -229.766)" fill="#263238"/></g><g transform="translate(24.456 113.646)"><path d="M275.613,241.833c0,.088-26.394.159-58.944.159s-58.949-.071-58.949-.159,26.388-.159,58.949-.159S275.613,241.745,275.613,241.833Z" transform="translate(-157.72 -241.674)" fill="#263238"/></g><g transform="translate(24.456 120.741)"><path d="M275.613,253.742c0,.088-26.394.159-58.944.159s-58.949-.071-58.949-.159,26.388-.159,58.949-.159S275.613,253.654,275.613,253.742Z" transform="translate(-157.72 -253.583)" fill="#263238"/></g><g transform="translate(24.456 127.837)"><path d="M275.613,265.651c0,.088-26.394.159-58.944.159s-58.949-.071-58.949-.159,26.388-.159,58.949-.159S275.613,265.563,275.613,265.651Z" transform="translate(-157.72 -265.492)" fill="#263238"/></g><g transform="translate(26.182 138.274)"><path d="M173.5,296.258a1.755,1.755,0,0,1-.015-.25c0-.182-.009-.412-.016-.7-.009-.633-.021-1.509-.036-2.609-.017-2.254-.042-5.421-.07-9.209l.137.138-12.762.021c-.036.034.3-.3.158-.157v3.441c0,1.126,0,2.228,0,3.3-.006,2.142-.011,4.163-.016,6.021l-.137-.137,9.209.07,2.609.036.7.016a1.665,1.665,0,0,1,.249.016,1.067,1.067,0,0,1-.219.015l-.669.016-2.578.036-9.3.07H160.6v-.139c0-1.857-.01-3.879-.016-6.021,0-1.072,0-2.174,0-3.3q0-.845,0-1.707V283.5c-.142.141.194-.2.161-.161l12.762.021h.139v.137c-.029,3.825-.053,7.022-.07,9.3-.015,1.087-.027,1.952-.036,2.578-.007.274-.012.495-.016.67A1.045,1.045,0,0,1,173.5,296.258Z" transform="translate(-160.546 -283.333)" fill="#263238"/></g><g transform="translate(47.166 141.367)"><rect width="89.029" height="7.427" fill="#e0e0e0"/></g><g transform="translate(26.182 159.84)"><path d="M173.5,332.5a1.731,1.731,0,0,1-.015-.249c0-.182-.009-.412-.016-.7-.009-.632-.021-1.509-.036-2.609-.017-2.254-.042-5.42-.07-9.209l.137.137-12.762.021c-.036.034.3-.3.158-.157v3.441q0,1.69,0,3.3c-.006,2.142-.011,4.163-.016,6.021l-.137-.137,9.209.07,2.609.036.7.016a1.727,1.727,0,0,1,.249.015,1.034,1.034,0,0,1-.219.016l-.669.016-2.578.036-9.3.07H160.6V332.5c0-1.857-.01-3.879-.016-6.021q0-1.608,0-3.3,0-.844,0-1.706v-1.735c-.142.141.194-.2.161-.161l12.762.022h.139v.137c-.029,3.824-.053,7.021-.07,9.3-.015,1.087-.027,1.953-.036,2.578-.007.274-.012.5-.016.67A1.032,1.032,0,0,1,173.5,332.5Z" transform="translate(-160.546 -319.579)" fill="#263238"/></g><g transform="translate(47.166 162.947)"><rect width="89.029" height="7.427" fill="#e0e0e0"/></g><g transform="translate(26.182 181.405)"><path d="M173.5,368.751a1.756,1.756,0,0,1-.015-.25c0-.182-.009-.412-.016-.7-.009-.633-.021-1.509-.036-2.609-.017-2.254-.042-5.421-.07-9.209l.137.138-12.762.021c-.036.034.3-.3.158-.157v3.441c0,1.126,0,2.228,0,3.3-.006,2.142-.011,4.163-.016,6.021l-.137-.137,9.209.07,2.609.036.7.016a1.665,1.665,0,0,1,.249.016,1.069,1.069,0,0,1-.219.015l-.669.016-2.578.036-9.3.07H160.6v-.139c0-1.857-.01-3.879-.016-6.021,0-1.072,0-2.174,0-3.3q0-.845,0-1.707V355.99c-.142.141.194-.2.161-.161l12.762.021h.139v.137c-.029,3.825-.053,7.022-.07,9.3-.015,1.087-.027,1.952-.036,2.578-.007.274-.012.495-.016.67A1.046,1.046,0,0,1,173.5,368.751Z" transform="translate(-160.546 -355.826)" fill="#263238"/></g><g transform="translate(47.166 184.526)"><rect width="89.029" height="7.427" fill="#e0e0e0"/></g><g transform="translate(28.431 139.231)"><path d="M164.227,289.887l1.72-1.72,3.318,2.949,6.512-6.267,1.6,1.72-8.356,7.864Z" transform="translate(-164.227 -284.849)" fill="#0540b7"/></g><g transform="translate(28.431 160.084)"><path d="M164.227,324.921l1.72-1.72,3.318,2.949,6.512-6.267,1.6,1.72-8.356,7.864Z" transform="translate(-164.227 -319.883)" fill="#0540b7"/></g><g transform="translate(28.431 181.464)"><path d="M164.227,360.842l1.72-1.72,3.318,2.949,6.512-6.267,1.6,1.72-8.356,7.864Z" transform="translate(-164.227 -355.804)" fill="#0540b7"/></g><g transform="translate(26.377 208.624)"><path d="M194.511,402.462c0,.088-7.533.159-16.822.159s-16.824-.071-16.824-.159,7.531-.159,16.824-.159S194.511,402.374,194.511,402.462Z" transform="translate(-160.864 -402.303)" fill="#263238"/></g><g transform="translate(64.423 208.365)"><path d="M235.575,402.038a60.675,60.675,0,0,1-6.211.159,60.682,60.682,0,0,1-6.212-.159,61.01,61.01,0,0,1,6.212-.159A61,61,0,0,1,235.575,402.038Z" transform="translate(-223.152 -401.879)" fill="#263238"/></g><g transform="translate(103.161 203.505)"><path d="M316.854,394.081c0,.088-6.779.159-15.14.159s-15.142-.071-15.142-.159,6.778-.159,15.142-.159S316.854,393.993,316.854,394.081Z" transform="translate(-286.572 -393.922)" fill="#263238"/></g><g transform="translate(99.141 208.66)"><path d="M303.058,415.346c-.017-.01.108-.189.273-.558a4.016,4.016,0,0,0,.292-1.732,16.074,16.074,0,0,0-.456-2.78,8.774,8.774,0,0,1-.227-3.761,5.58,5.58,0,0,1,2.769-3.571,5.287,5.287,0,0,1,5.131.18,5.141,5.141,0,0,1,2,2.063,2.468,2.468,0,0,1,.247,1.511,1.326,1.326,0,0,1-1.148,1.059,11.267,11.267,0,0,1-1.54.036l-1.54-.024c-1.035-.025-2.087-.069-3.148-.164a22.8,22.8,0,0,1-6.073-1.317,3.793,3.793,0,0,0-2.759-.159,9.532,9.532,0,0,0-2.088,1.809,2.646,2.646,0,0,1-1.24.693,1.939,1.939,0,0,1-1.372-.246,12.38,12.38,0,0,1-1.886-1.729,2.708,2.708,0,0,0-.955-.627,1.519,1.519,0,0,0-1.049.029,5.936,5.936,0,0,0-1.623,1.366,4.013,4.013,0,0,1-3.532,1.108,3.776,3.776,0,0,1-2.391-1.5,3.877,3.877,0,0,1-.709-1.651,2.437,2.437,0,0,1-.037-.626c.017,0,.016.216.1.614a3.99,3.99,0,0,0,.745,1.589,3.669,3.669,0,0,0,2.321,1.4,3.829,3.829,0,0,0,3.346-1.093,6.006,6.006,0,0,1,1.688-1.432,1.771,1.771,0,0,1,1.222-.044,2.956,2.956,0,0,1,1.052.674,12.525,12.525,0,0,0,1.846,1.68,1.655,1.655,0,0,0,1.177.208,2.37,2.37,0,0,0,1.1-.63,9.52,9.52,0,0,1,2.159-1.868,2.85,2.85,0,0,1,1.505-.213,7.174,7.174,0,0,1,1.476.354,22.632,22.632,0,0,0,6,1.3c1.052.094,2.1.139,3.128.164l1.536.026a11.287,11.287,0,0,0,1.484-.029,1.007,1.007,0,0,0,.9-.814,2.181,2.181,0,0,0-.22-1.319,4.862,4.862,0,0,0-1.875-1.939,5.019,5.019,0,0,0-4.86-.2,5.357,5.357,0,0,0-2.673,3.391,8.7,8.7,0,0,0,.183,3.672,15.341,15.341,0,0,1,.406,2.815,3.889,3.889,0,0,1-.357,1.76A2.8,2.8,0,0,1,303.058,415.346Z" transform="translate(-279.991 -402.363)" fill="#263238"/></g><g transform="translate(99.095 215.423)"><path d="M320.47,413.58a1.986,1.986,0,0,1-.412.029l-1.183.021-4.348.037c-3.672.031-8.742.1-14.341.263s-10.667.39-14.333.573l-4.343.216-1.181.048a.207.207,0,1,1,0-.064l1.178-.107c1.023-.089,2.5-.2,4.338-.318,3.665-.24,8.733-.5,14.337-.666s10.676-.2,14.349-.17c1.837.013,3.322.035,4.349.064l1.183.039A2.028,2.028,0,0,1,320.47,413.58Z" transform="translate(-279.916 -413.434)" fill="#263238"/></g></g><g transform="translate(306 4099.67)"><g transform="translate(36.38 144.96)"><path d="M129.686,351.94l-4.618,10.436s12.157,4.823,12.255,7.116l-23.659-.434.029-2,5.218-17.214Z" transform="translate(-113.664 -349.841)" fill="#afafaf"/><g transform="translate(3.766 10.624)"><path d="M120.535,367.272a.981.981,0,0,0-.688,1.106.93.93,0,0,0,1.075.7,1.034,1.034,0,0,0,.723-1.175.961.961,0,0,0-1.2-.6" transform="translate(-119.83 -367.235)" fill="#e0e0e0"/></g><g transform="translate(0 17.215)"><path d="M113.664,380.026l.029-2,22.717,1.2s1.045.483.913,1.233Z" transform="translate(-113.664 -378.024)" fill="#263238"/></g><g transform="translate(9.61 12.305)"><path d="M131.576,370.1c-.006.117-.585.159-1.159.526-.585.351-.887.852-.993.8-.106-.024.079-.721.783-1.152S131.6,369.995,131.576,370.1Z" transform="translate(-129.396 -369.987)" fill="#263238"/></g><g transform="translate(12.656 13.456)"><path d="M135.98,371.921c.024.114-.479.3-.881.792s-.523,1.01-.639,1c-.109.016-.177-.671.334-1.268S135.979,371.809,135.98,371.921Z" transform="translate(-134.383 -371.871)" fill="#263238"/></g><g transform="translate(15.477 14.538)"><path d="M139.133,375.645c-.106.023-.256-.564.052-1.2s.853-.881.9-.782c.064.1-.293.435-.539.961S139.248,375.636,139.133,375.645Z" transform="translate(-139.002 -373.641)" fill="#263238"/></g><g transform="translate(10.189 9.258)"><path d="M132.807,365.439c-.05.106-.577-.065-1.231-.032s-1.167.232-1.225.131c-.065-.086.439-.51,1.209-.538S132.866,365.348,132.807,365.439Z" transform="translate(-130.346 -364.998)" fill="#263238"/></g></g><g transform="translate(11.04 181.236)"><g transform="translate(0 0.065)"><path d="M72.7,409.337l-.527,19.9,10.327-.029.553-19.418Z" transform="translate(-72.177 -409.337)" fill="#afafaf"/></g><g transform="translate(5.056)"><path d="M80.526,428.188c.086,0,.216-4.241.29-9.476s.064-9.48-.022-9.482-.216,4.241-.29,9.477S80.44,428.187,80.526,428.188Z" transform="translate(-80.454 -409.231)" fill="#263238"/></g><g transform="translate(0.295 10.49)"><path d="M82.868,429.645a1.409,1.409,0,0,0-.255-.43,7.257,7.257,0,0,0-.9-1.018,7,7,0,0,0-1.641-1.172,5.441,5.441,0,0,0-6.457,1.06,4.8,4.8,0,0,0-.781,1.12,1.348,1.348,0,0,0-.175.47,10.907,10.907,0,0,1,1.112-1.432,5.461,5.461,0,0,1,3.9-1.52,6.279,6.279,0,0,1,3.891,1.642C82.417,429.1,82.824,429.681,82.868,429.645Z" transform="translate(-72.66 -426.405)" fill="#263238"/></g><g transform="translate(0.028 17.584)"><path d="M72.233,440.419l10.279-.048.076-2.352-10.366.048Z" transform="translate(-72.222 -438.019)" fill="#263238"/></g></g><g transform="translate(1.841 86.048)"><g transform="translate(6.68)"><path d="M69.512,257.346,92.1,253.393l.089,2.457c5.453,4.428,19.984,17.087,28.76,25.757,0,0,3.257,4.371,1.965,8.4l-13.545,33.981-13.454-2.444,9.38-29.921-26.22-12.409c-5.1-1.911-9.691-8.432-10.775-12.17C67.37,263.852,69.374,261.44,69.512,257.346Z" transform="translate(-68.054 -253.393)" fill="#263238"/></g><g transform="translate(5.687 19.544)"><path d="M86.86,294.91l-5.377,73.082-13.347.343s-1.14-19.925-1.363-34.992c-.2-13.787-.344-47.954-.344-47.954Z" transform="translate(-66.428 -285.39)" fill="#263238"/></g><g transform="translate(1.014 3.953)"><path d="M65.9,259.865l-7.058,1.293s-.255,17.533.242,19.3,4.709,6.8,4.709,6.8l19.586,3.793V275.362Z" transform="translate(-58.779 -259.865)" fill="#263238"/></g><g transform="translate(0.163 13.26)"><path d="M63.253,275.1l-.508,4.935H57.384L58.3,275.1Z" transform="translate(-57.384 -275.102)" fill="#263238"/></g><g transform="translate(9.947 18.195)"><path d="M73.4,283.182a2.232,2.232,0,0,0,.169.374,10.313,10.313,0,0,0,.562,1.035,14.539,14.539,0,0,0,2.736,3.344,24.633,24.633,0,0,0,5.276,3.593c2.123,1.129,4.545,2.165,7.042,3.343l12.834,5.958,3.9,1.776,1.067.469a2.17,2.17,0,0,0,.381.146,2.127,2.127,0,0,0-.355-.2l-1.045-.519-3.865-1.859-12.8-6.037c-2.5-1.179-4.923-2.207-7.038-3.316a25.171,25.171,0,0,1-5.262-3.508,15.28,15.28,0,0,1-2.777-3.251C73.682,283.675,73.433,283.166,73.4,283.182Z" transform="translate(-73.404 -283.181)" fill="#455a64"/></g><g transform="translate(5.382 30.364)"><path d="M65.931,303.107a44.156,44.156,0,0,0,4.18,2.817,43.723,43.723,0,0,0,4.332,2.57,44.2,44.2,0,0,0-4.18-2.816A43.9,43.9,0,0,0,65.931,303.107Z" transform="translate(-65.93 -303.104)" fill="#455a64"/></g><g transform="translate(0 13.26)"><path d="M58.193,275.1a8.581,8.581,0,0,0-.337,1.369c-.184.869-.431,2.1-.707,3.54l-.031.161h.162l2.651.009,2.71-.009h.122l.012-.122c.138-1.446.247-2.681.314-3.557a8.523,8.523,0,0,0,.06-1.392,8.523,8.523,0,0,0-.224,1.375c-.113.87-.258,2.1-.417,3.546l.133-.121-2.71-.01-2.651.009.132.161c.257-1.445.467-2.682.605-3.559A8.783,8.783,0,0,0,58.193,275.1Z" transform="translate(-57.118 -275.102)" fill="#455a64"/></g><g transform="translate(13.582 9.914)"><path d="M92.381,269.625a1.033,1.033,0,0,0-.236.027l-.706.121-2.67.488-9.286,1.771-.129.025.02.133c.227,1.546.473,3.212.727,4.936l.023.155.151-.035.15-.035c5.355-1.242,10.15-2.375,13.338-3.146l.1-.024-.032-.1c-.442-1.344-.8-2.427-1.056-3.208l-.286-.838a1.575,1.575,0,0,0-.107-.273,2.318,2.318,0,0,0,.078.318c.065.225.147.514.249.871.23.776.549,1.852.945,3.188l.068-.122c-3.2.711-8.005,1.806-13.36,3.048l-.151.035.173.12c-.258-1.723-.507-3.389-.738-4.935l-.11.158,9.176-1.878,2.685-.571.726-.162A1.752,1.752,0,0,0,92.381,269.625Z" transform="translate(-79.354 -269.623)" fill="#455a64"/></g><g transform="translate(42.978 36.636)"><path d="M137.511,313.769a5.669,5.669,0,0,0-1.48-.29,16.037,16.037,0,0,0-3.641,0,14.858,14.858,0,0,0-3.547.84,5.686,5.686,0,0,0-1.363.655,12.461,12.461,0,0,0,1.428-.461,18.65,18.65,0,0,1,3.513-.746,20.632,20.632,0,0,1,3.592-.08A12.223,12.223,0,0,0,137.511,313.769Z" transform="translate(-127.48 -313.373)" fill="#455a64"/></g><g transform="translate(26.684 1.003)"><path d="M101.131,256.711c.078-.013.082-.4.009-.86s-.2-.828-.275-.815-.082.4-.009.861S101.053,256.723,101.131,256.711Z" transform="translate(-100.804 -255.035)" fill="#455a64"/></g><g transform="translate(25.516 1.075)"><path d="M99.287,257.1c.078-.014.064-.462-.031-1s-.235-.964-.313-.95-.064.462.031,1S99.209,257.119,99.287,257.1Z" transform="translate(-98.893 -255.152)" fill="#455a64"/></g><g transform="translate(16.45 2.744)"><path d="M84.375,259.7c.079-.012.083-.427.01-.928s-.2-.9-.274-.886-.082.428-.01.928S84.3,259.712,84.375,259.7Z" transform="translate(-84.049 -257.886)" fill="#455a64"/></g><g transform="translate(15.402 2.887)"><path d="M82.668,260.281c.078-.01.081-.5.006-1.1s-.2-1.073-.279-1.062-.081.5-.005,1.1S82.589,260.29,82.668,260.281Z" transform="translate(-82.334 -258.119)" fill="#455a64"/></g><g transform="translate(6.643 4.491)"><path d="M68.275,262.837c.079-.008.1-.483.038-1.06s-.167-1.039-.246-1.031-.1.483-.038,1.06S68.2,262.845,68.275,262.837Z" transform="translate(-67.994 -260.746)" fill="#455a64"/></g><g transform="translate(5.363 4.563)"><path d="M66.125,263.234a4.993,4.993,0,0,0-.137-2.371,4.974,4.974,0,0,0,.137,2.371Z" transform="translate(-65.898 -260.863)" fill="#455a64"/></g></g><g transform="translate(2.59)"><path d="M90.283,125.626c-.9-1.035-1.994-2.022-2.272-3.364-.255-1.234.227-2.619-.38-3.722-.747-1.358-2.73-1.542-3.642-2.8-.442-.607-.575-1.4-1.012-2.006a3.727,3.727,0,0,0-3.46-1.192c-1.272.13-2.5.582-3.775.665-1.751.115-3.555-.464-5.238.032-1.857.547-3,2.183-4.212,3.767l-1.581,1.835a6.907,6.907,0,0,1-1.052.846,12.509,12.509,0,0,0-1.994,1.261,3.1,3.1,0,0,0,.185,4.465,3.313,3.313,0,0,0-2.247,3.24,9.516,9.516,0,0,0,.591,2.251,3.313,3.313,0,0,1,.054,2.284,1.455,1.455,0,0,1-1.9.813,3.484,3.484,0,0,0,1.891,2.33,2.083,2.083,0,0,1-1.4.618c1.407,3.34,5.263,5.106,8.888,5.138s7.1-1.332,10.464-2.674l9.767-2.506c.857-.193,1.217-1.234,1.208-2.113a7.015,7.015,0,0,1,.087-2.614c.434-1.125,1.744-1.718,2.2-2.835C91.957,128.081,91.181,126.661,90.283,125.626Z" transform="translate(-58.343 -112.518)" fill="#263238"/><g transform="translate(4.999 0.962)"><g transform="translate(0 0.739)"><g transform="translate(1.96 4.174)"><path d="M71.6,138.2a40.247,40.247,0,0,1-1.7-6.726,14.046,14.046,0,0,1,.6-6.848c.125-.328,1.183-2.528,1.532-2.492.249.026-.407,2.081-.283,2.3a11.911,11.911,0,0,1,1.291,6.953A31.364,31.364,0,0,1,71.6,138.2" transform="translate(-69.735 -122.135)" fill="#263238"/></g><g transform="translate(3.348 0.686)"><path d="M72.321,127.143c-.147-5.806,3.108-10.731,8.915-10.717l.537.032a10.382,10.382,0,0,1,9.753,10.155c.1,5.032.146,10.595-.05,13.28-.406,5.558-6.022,6.085-6.022,6.085s.137,9.145.137,9.145l-13.583-8.545Z" transform="translate(-72.008 -116.426)" fill="#e49384"/></g><g transform="translate(9.681 27.658)"><path d="M89.489,163.163a13.46,13.46,0,0,1-7.112-2.58,7.017,7.017,0,0,0,7.086,4.457Z" transform="translate(-82.377 -160.583)" fill="#a86b62"/></g><g transform="translate(19.37 14.831)"><path d="M99.83,140.351a.8.8,0,0,1-.815.755.761.761,0,0,1-.775-.766.8.8,0,0,1,.814-.756A.762.762,0,0,1,99.83,140.351Z" transform="translate(-98.24 -139.584)" fill="#263238"/></g><g transform="translate(18.4 12.177)"><path d="M99.787,136.171c-.1.1-.679-.384-1.534-.434s-1.507.34-1.594.23c-.043-.049.069-.23.354-.412a2.184,2.184,0,0,1,1.283-.312,2.1,2.1,0,0,1,1.214.475C99.761,135.935,99.839,136.127,99.787,136.171Z" transform="translate(-96.651 -135.238)" fill="#263238"/></g><g transform="translate(12.078 14.815)"><path d="M87.891,140.324a.8.8,0,0,1-.814.755.76.76,0,0,1-.775-.766.8.8,0,0,1,.814-.756A.761.761,0,0,1,87.891,140.324Z" transform="translate(-86.302 -139.557)" fill="#263238"/></g><g transform="translate(10.006 12.015)"><path d="M86.046,135.906c-.105.1-.68-.384-1.535-.434s-1.507.34-1.594.23c-.043-.049.068-.23.354-.412a2.184,2.184,0,0,1,1.283-.312,2.1,2.1,0,0,1,1.214.475C86.018,135.67,86.1,135.862,86.046,135.906Z" transform="translate(-82.908 -134.973)" fill="#263238"/></g><g transform="translate(15.811 12.556)"><path d="M92.412,143a5.656,5.656,0,0,1,1.4-.167c.219-.009.429-.04.475-.186a1.117,1.117,0,0,0-.106-.656q-.26-.811-.545-1.7a28.572,28.572,0,0,1-1.186-4.436,28.713,28.713,0,0,1,1.54,4.329q.27.9.517,1.71a1.268,1.268,0,0,1,.061.864.549.549,0,0,1-.378.3,1.457,1.457,0,0,1-.374.029A5.555,5.555,0,0,1,92.412,143Z" transform="translate(-92.412 -135.858)" fill="#263238"/></g><g transform="translate(13.09 20.14)"><path d="M88.127,148.276c.139,0,.085.928.839,1.635s1.748.664,1.748.795c.009.059-.231.167-.65.153a2.319,2.319,0,0,1-1.462-.611,2.016,2.016,0,0,1-.644-1.368C87.946,148.49,88.064,148.267,88.127,148.276Z" transform="translate(-87.958 -148.276)" fill="#263238"/></g><g transform="translate(9.383 8.729)"><path d="M85.812,130.341c-.1.227-.945.065-1.955.125-1.011.04-1.838.284-1.958.068-.053-.1.1-.313.442-.519a3.4,3.4,0,0,1,2.981-.147C85.681,130.039,85.855,130.233,85.812,130.341Z" transform="translate(-81.888 -129.593)" fill="#263238"/></g><g transform="translate(18.455 9.268)"><path d="M99.642,131.455c-.162.185-.738-.053-1.446-.1-.705-.078-1.315.051-1.441-.161-.054-.1.052-.291.325-.459a2.1,2.1,0,0,1,2.327.214C99.644,131.159,99.714,131.364,99.642,131.455Z" transform="translate(-96.74 -130.475)" fill="#263238"/></g><g transform="translate(0 15.293)"><path d="M70.392,140.6c-.092-.047-3.753-1.362-3.863,2.448s3.739,3.134,3.749,3.025S70.392,140.6,70.392,140.6Z" transform="translate(-66.527 -140.34)" fill="#e49384"/></g><g transform="translate(0.967 16.511)"><path d="M69.771,145.368c-.016-.013-.068.044-.181.092a.664.664,0,0,1-.5,0,1.643,1.643,0,0,1-.718-1.5,2.2,2.2,0,0,1,.213-.945.769.769,0,0,1,.514-.5.338.338,0,0,1,.387.193c.048.108.022.184.042.191s.083-.061.057-.219a.427.427,0,0,0-.144-.243.5.5,0,0,0-.364-.108.932.932,0,0,0-.71.571,2.258,2.258,0,0,0-.261,1.055,1.724,1.724,0,0,0,.921,1.673.713.713,0,0,0,.61-.083C69.762,145.46,69.784,145.375,69.771,145.368Z" transform="translate(-68.11 -142.333)" fill="#a86b62"/></g><g transform="translate(2.104)"><path d="M88.393,119.814c.623-.329-1.188-2.362-2.69-3.08-2.27-1.085-5.755-1.794-7.879-1.237a9.183,9.183,0,0,0-6.017,4.183,14.985,14.985,0,0,0-1.834,7.62,4.546,4.546,0,0,0,.49,2.339c.516.853,1.526,1.4,1.459,2.565a1.592,1.592,0,0,0,.373,1.171c.682.756,1.549.076,1.955-.615a11.032,11.032,0,0,0,1.1-4.965,11.148,11.148,0,0,0-.169-3.629c-.173-.64-.461-1.245-.6-1.893a2.291,2.291,0,0,1,.308-1.9,2.436,2.436,0,0,1,.316-.307,3.975,3.975,0,0,1,3.958-.672c2.131.8,5.773,2.008,6.745,1.3a5.881,5.881,0,0,0,1.741-1.7Z" transform="translate(-69.972 -115.302)" fill="#263238"/></g></g><g transform="translate(4.722)"><path d="M79.7,114.513a8.372,8.372,0,0,1,6.431.481,4.358,4.358,0,0,1,2.247,2.576,2.5,2.5,0,0,1-1.309,2.934L87,120.55a5.8,5.8,0,0,1-4.3-.317c-1.354-.5-2.551-1.365-3.908-1.858a7.747,7.747,0,0,0-4.53-.222A12.639,12.639,0,0,1,79.7,114.513Z" transform="translate(-74.258 -114.093)" fill="#263238"/></g></g></g><g transform="translate(14.306 9.629)"><g transform="translate(0 24.224)"><g transform="translate(0 9.427)"><path d="M88.656,187.5l.846,2.815,16.039-6.939,3.466,5.324s-12.592,9.348-16.537,12.334A7.659,7.659,0,0,1,81.3,199.484a24.915,24.915,0,0,1-3.78-8.724Z" transform="translate(-77.525 -183.374)" fill="#e49384"/></g><g transform="translate(10.244 16.377)"><path d="M94.321,198.251c.084.016.275-.844.753-1.8s1.034-1.637.971-1.694a4.858,4.858,0,0,0-1.723,3.5Z" transform="translate(-94.297 -194.752)" fill="#a86b62"/></g><g transform="translate(25.521)"><path d="M119.307,178.647l2.119-1.464c1.128-3.348,3.222-9.421,3.841-9.239.682.2.965.8.77,2.09-.468,3.091.3,4.453,2.1,4.045.621-.14,6.021-1,6.021-1s1.49.854-.007,2.313a1.7,1.7,0,0,1-1.26,2.364s-.248,2.157-1.741,2.246a39,39,0,0,1-4.949,2.131l-2.69,1.614Z" transform="translate(-119.307 -167.94)" fill="#e49384"/></g><g transform="translate(36.279 7.398)"><path d="M136.92,181.291a6.738,6.738,0,0,0,2.3-.558c.443-.145.855-.282,1.194-.365l-.043-.238-.205.044.046.218a2.485,2.485,0,0,0,.831-.324,2.452,2.452,0,0,0-.886.108l.046.218.208-.026-.042-.238a8.581,8.581,0,0,0-1.238.33A18.229,18.229,0,0,0,136.92,181.291Z" transform="translate(-136.92 -180.051)" fill="#a86b62"/></g><g transform="translate(35.873 9.784)"><path d="M136.256,185.246a7.5,7.5,0,0,0,3.251-1.278,18.931,18.931,0,0,0-3.251,1.278Z" transform="translate(-136.255 -183.958)" fill="#a86b62"/></g></g><g transform="translate(25.679)"><g transform="translate(17.446 36.49)"><path d="M159.375,188.021l4.608,25.183-8.412-5.051-7.443,6.676,2.292-26.5Z" transform="translate(-148.128 -188.021)" fill="#455a64"/></g><g transform="translate(24.005 40.255)"><path d="M158.872,194.186a.587.587,0,0,0,0,.168c.008.124.019.282.032.476.035.431.083,1.023.142,1.746.121,1.475.274,3.513.4,5.772s.2,4.311.231,5.8c.016.73.03,1.327.04,1.761l.016.479a.529.529,0,0,0,.018.165.583.583,0,0,0,.02-.17c0-.126.012-.285.02-.483.014-.419.021-1.024.021-1.77,0-1.493-.05-3.549-.175-5.81s-.3-4.3-.456-5.766c-.078-.735-.147-1.329-.2-1.737-.028-.192-.051-.348-.068-.47A.528.528,0,0,0,158.872,194.186Z" transform="translate(-158.867 -194.186)" fill="#263238"/></g><g transform="translate(29.382 32.052)"><path d="M167.669,185.884l11.42,22.913,3.7-9.087,9.959.876-17.733-19.83Z" transform="translate(-167.669 -180.755)" fill="#455a64"/></g><g transform="translate(35.386 37.384)"><path d="M177.5,189.486c.006,0,.042.043.1.133l.26.4.935,1.482c.788,1.252,1.888,2.976,3.142,4.858s2.43,3.567,3.294,4.778l1.024,1.433.274.393a.558.558,0,0,1,.084.144.614.614,0,0,1-.118-.124l-.305-.374c-.263-.327-.632-.806-1.078-1.4-.895-1.194-2.089-2.869-3.345-4.753s-2.336-3.618-3.094-4.887c-.379-.634-.679-1.151-.88-1.511l-.227-.417A.574.574,0,0,1,177.5,189.486Z" transform="translate(-177.499 -189.486)" fill="#263238"/></g><g transform="translate(32.304 36.479)" opacity="0.3"><path d="M174.5,198.672s2.131.125,3.066-1.076,1.077-2,1.719-2.51,2.236.031,3.8-.806,1.667-1.9,1.667-1.9L180.837,188l-8.384,6.568Z" transform="translate(-172.453 -188.004)"/></g><g transform="translate(18.797 42.347)" opacity="0.3"><path d="M150.34,203.068s1.717,1.269,3.155.775,1.994-1.086,2.812-1.163,1.856,1.247,3.624,1.4a2.765,2.765,0,0,0,2.433-.679l-1.057-5.791-10.652.838Z" transform="translate(-150.34 -197.611)"/></g><g transform="translate(16.294 3.827)"><path d="M146.285,134.566l-.042-.02c.028.05.064.12.106.209C146.328,134.692,146.306,134.629,146.285,134.566Z" transform="translate(-146.243 -134.546)" fill="#ff725e"/></g><g transform="translate(24.275 26.479)"><path d="M179.987,173.56c-.839-.181-1.858-.41-2.958-.667-1.42-.332-2.7-.646-3.626-.885-.659-.171-1.131-.3-1.348-.376-.076.281-.161.558-.255.834a13.776,13.776,0,0,1-1.43,2.986c-.164.258-.335.512-.517.759a13.622,13.622,0,0,1-5.112,4.226c-.084.04-.169.078-.254.117a1.346,1.346,0,0,1,.635.319c.022.02.038.046.059.067a2.994,2.994,0,0,1,.652,1.329l.487,1.814c.224.851.428,1.649.6,2.339.087.353.167.68.234.968a7.875,7.875,0,0,1,.274,1.388,7.952,7.952,0,0,1-.445-1.343c-.244-.839-.564-2-.9-3.289-.165-.64-.322-1.25-.469-1.818A2.809,2.809,0,0,0,165,181a1.266,1.266,0,0,0-.715-.359c-.089.038-.175.08-.264.117-.147.06-.3.114-.444.169a13.638,13.638,0,0,1-4.269.85,1.429,1.429,0,0,1,.163.1c.025.018.053.043.079.064a2.21,2.21,0,0,1,.591.764,2.556,2.556,0,0,1,.115.282,4.114,4.114,0,0,1,.211,1.261c.014.592-.029,1.23-.073,1.9a32.47,32.47,0,0,1-.432,3.422c-.1.517-.184.91-.247,1.145a2.258,2.258,0,0,1,.523-.078c1.442-.023,2.855,1.506,4.118.809.039-.022.075-.047.111-.072.839-.57.972-1.934,1.9-2.383a1.9,1.9,0,0,1,1.343-.04,6.4,6.4,0,0,0,1.975.418,2.84,2.84,0,0,0,2.093-1.665,12.389,12.389,0,0,1,1.554-2.319,2.6,2.6,0,0,1,.919-.616c.8-.3,1.815-.172,2.6-.379a1.436,1.436,0,0,0,.939-.658c.544-.933-.305-2.075-.426-3.14l-.3-.214c-.737-.539-1.744-1.3-2.847-2.148l-1.55-1.206a5.526,5.526,0,0,0-1.288-.886.915.915,0,0,0-.94.159c-.178.166-.179.324-.2.318-.007.007-.047-.168.133-.385a1,1,0,0,1,.969-.283c.032.007.064.012.1.023a5.15,5.15,0,0,1,1.376.872l1.561,1.191.052.04c1.082.834,2.052,1.6,2.75,2.166l.173.141c0-.027,0-.054,0-.081a1.5,1.5,0,0,1,.1-.509c.531-1.346,2.8-1.174,3.408-2.487a1.535,1.535,0,0,0,.12-.411c.136-.867-.381-1.84-.158-2.726a1.839,1.839,0,0,1,.128-.336c.01-.021.015-.045.026-.067l-.3-.062Zm-11.638,11.064a14.259,14.259,0,0,1-1.1-2.474,5,5,0,0,1,1.1,2.474Zm4.086-.453a5.3,5.3,0,0,1,.636,1,5.819,5.819,0,0,1-.778-.9l-1.78-2.233-1.791-2.226c-.254-.318-.45-.567-.571-.733-.1-.131-.146-.211-.134-.221a5.322,5.322,0,0,1,.841.839c.492.543,1.152,1.311,1.851,2.184.195.243.38.479.558.709C171.728,183.195,172.131,183.74,172.435,184.172ZM175,175.638a6.063,6.063,0,0,1-1.623-1.35,509.868,509.868,0,0,1,3.514,2.285A6.041,6.041,0,0,1,175,175.638Z" transform="translate(-159.308 -171.632)" fill="#455a64"/></g><g transform="translate(16.336)"><path d="M176.721,147.117a1.489,1.489,0,0,0-.086-.646c-.409-1.079-2.024-1.366-2.383-2.425l0-.014-1.025.334-1.881.613-3.075,1a7.414,7.414,0,0,1-1.292.362,4.861,4.861,0,0,1,.967-.427l.268-.1c.775-.294,1.853-.677,3.056-1.068,1.126-.366,2.157-.673,2.941-.889-.159-.917.709-1.765.679-2.707a1.854,1.854,0,0,0-.613-1.244,4.061,4.061,0,0,0-.882-.652,6.461,6.461,0,0,1-2.09-1.388,3.083,3.083,0,0,1-.4-.694c-.4-.923-.526-2.021-1.321-2.615a2.075,2.075,0,0,0-.674-.315c-.983-.29-2.189-.065-3.047-.657-.006,0-.012-.005-.017-.01-1.291-.91-1.041-3.193-2.428-3.948a1.73,1.73,0,0,0-.2-.087,2.153,2.153,0,0,0-.908-.134H162.3c-.855.047-1.775.436-2.637.448a2.138,2.138,0,0,1-.877-.156c-.791-.337-1.3-1.23-2.143-1.389a1.6,1.6,0,0,0-.791.062c-.842.266-1.614,1.059-2.531,1.14a6.56,6.56,0,0,1-.658.031c.054.8.111,2.03.153,3.419a37.909,37.909,0,0,1,.009,4.362,37.992,37.992,0,0,1-.26-4.354c-.043-1.394-.062-2.634-.057-3.432-.042,0-.082-.008-.122-.013a2.283,2.283,0,0,1-1.128-.476,2.714,2.714,0,0,0-2.649-.27,2.021,2.021,0,0,0-.692.553c-.531.66-.685,2.661-1.116,2.846a.617.617,0,0,1-.489-.046c.022.063.043.126.065.189.253.53.743,1.706,1.282,3.086.509,1.3.927,2.448,1.117,3.044q.459-.18.924-.325a13.632,13.632,0,0,1,2.985-.578c.263-.021.525-.032.787-.038a13.673,13.673,0,0,1,3.427.363l.049.012a.587.587,0,0,1-.02-.117v0a1.406,1.406,0,0,1,.1-.549c.106-.315.236-.686.377-1.085.195-.55.415-1.159.657-1.811.417-1.126.808-2.14,1.1-2.87a6.453,6.453,0,0,1,.525-1.164,6.372,6.372,0,0,1-.359,1.225c-.252.746-.616,1.77-1.033,2.9s-.809,2.141-1.1,2.87a.98.98,0,0,0-.1.643c.112.028.224.059.335.09a13.785,13.785,0,0,1,3.959,1.813c.118.079.233.161.348.244a1.336,1.336,0,0,1-.092-.451,1.45,1.45,0,0,1,.039-.363,2.639,2.639,0,0,1,.351-.825c.249-.395.542-.8.855-1.224.625-.85,1.233-1.589,1.69-2.108.312-.354.55-.6.68-.721.06-.055.1-.084.108-.077a5.546,5.546,0,0,1-.651.911c-.42.546-1,1.3-1.625,2.144-.6.85-1.267,1.594-1.27,2.264a1.268,1.268,0,0,0,.12.6c.1.075.2.154.3.232a13.666,13.666,0,0,1,3.194,3.584,13.78,13.78,0,0,1,1.008,1.982c.052.126.1.254.145.381.14.373.264.748.37,1.125a13.659,13.659,0,0,1,.079,7.1c-.008.029-.017.059-.024.089.21.027.636.107,1.219.227l.156.032c.935.195,2.222.481,3.64.812s2.7.645,3.623.884l.352.092c.3-.5.765-.922,1.115-1.39a2.056,2.056,0,0,0,.437-.955c.158-1.2-1.083-2.074-1.647-3.144-.833-.058-2.105-.171-3.53-.319-1.164-.121-2.221-.242-3.021-.346a8.613,8.613,0,0,1-1.5-.249,41.488,41.488,0,0,1,4.544.345c1.112.115,2.127.231,2.914.332.183.023.352.045.509.067l-.025-.059a1.993,1.993,0,0,1-.161-.657C175.575,149.234,176.642,148.181,176.721,147.117Zm-22.54-12.879a12.359,12.359,0,0,1,.67-2.1,13.489,13.489,0,0,1-1.2,4.229A12.343,12.343,0,0,1,154.182,134.238Zm5.925.511a6.594,6.594,0,0,1-1.382,1.6,63.441,63.441,0,0,1,2.408-3.445A6.588,6.588,0,0,1,160.107,134.75Zm4.6,2.668a3.892,3.892,0,0,1,1.15-.952,5.321,5.321,0,0,1-.969,1.126A5.377,5.377,0,0,1,163.8,138.6,3.87,3.87,0,0,1,164.709,137.418Zm.185,5.1s0-.01,0-.02a6.53,6.53,0,0,1,.707-.751c.461-.451,1.109-1.062,1.834-1.726s1.393-1.253,1.884-1.671a4.34,4.34,0,0,1,.832-.64c.014.015-.078.125-.25.3-.118.124-.272.279-.46.464-.461.451-1.11,1.063-1.837,1.727s-1.4,1.255-1.887,1.674A4.33,4.33,0,0,1,164.894,142.516Z" transform="translate(-146.311 -128.281)" fill="#455a64"/></g><g transform="translate(0 2.669)"><path d="M144.677,170.963c.045-.668.093-1.308.093-1.881a3.819,3.819,0,0,0-.257-1.473,2.341,2.341,0,0,0-.545-.8,2.472,2.472,0,0,0-.24-.2,13.66,13.66,0,0,1-2.807-.216l-.051-.01c-.031.163-.111.464-.233.867l-.037.115c-.183.6-.447,1.379-.77,2.233-.343.908-.685,1.717-.949,2.295a4.032,4.032,0,0,1-.482.912c-.016-.007.007-.1.06-.261.163-.5.619-1.664,1.137-3.035.564-1.49,1.023-2.752,1.206-3.139q-.552-.105-1.095-.255a15,15,0,0,1-.727,1.4,6.6,6.6,0,0,1-1.01,1.5,6.644,6.644,0,0,1,.792-1.63c.256-.445.5-.837.683-1.11.051-.076.1-.14.138-.2a13.785,13.785,0,0,1-3.186-1.366c-.225-.133-.447-.27-.665-.415a13.674,13.674,0,0,1-2.61-2.273q-.264-.3-.511-.61a13.677,13.677,0,0,1-1.743-2.868c-.066-.146-.133-.291-.194-.44-.087-.211-.166-.422-.242-.634a13.67,13.67,0,0,1-.7-3.091c-.012-.114-.026-.227-.035-.34a1.079,1.079,0,0,1-.446.306c-.12.036-.26.067-.392.1a14.159,14.159,0,0,1-2.969.355,27.558,27.558,0,0,1-3.375-.16c-.6-.064-1.029-.122-1.239-.162-.092-.018-.146-.033-.145-.043a8.231,8.231,0,0,1,1.4.029c.32.015.7.034,1.1.051.675.029,1.437.053,2.259.035.231-.005.456-.015.679-.027a14.876,14.876,0,0,0,2.628-.344.924.924,0,0,0,.448-.277.5.5,0,0,0,.043-.081c-.02-.3-.031-.6-.031-.9-.493-.035-1.254-.116-2.117-.231a14.512,14.512,0,0,1-2.655-.479,14.592,14.592,0,0,1,2.688.23q.476.063.9.127c.473.07.88.139,1.184.2a13.706,13.706,0,0,1,.351-2.922l-.244-.046a24.4,24.4,0,0,1-5.409-1.76l-.042-.02a4.54,4.54,0,0,1-1-.544,6.412,6.412,0,0,1,1.107.4c.674.266,1.611.62,2.661.963s2.016.605,2.717.787l.241.063c.067-.277.14-.552.224-.824l0-.009-.047-.025c-.35-.183-.8-.439-1.29-.745a8.383,8.383,0,0,1-1.783-1.319,4.289,4.289,0,0,1,1.019.55c.269.164.572.352.9.556.49.308.933.588,1.262.806a13.787,13.787,0,0,1,1.478-3.137c.037-.058.073-.117.11-.175a4.658,4.658,0,0,1-.968-.4c-.186-.088-.4-.193-.625-.306-.481-.241-1.033-.531-1.621-.861-.862-.483-1.627-.95-2.169-1.3a4.183,4.183,0,0,1-.847-.623,1.6,1.6,0,0,1,.478.219c.552.3,1.532.859,2.661,1.49,1.7.951,3.089,1.7,3.095,1.777q.221-.336.462-.661a13.635,13.635,0,0,1,1.865-2.033c-.067-.081-.136-.168-.213-.264-.42-.531-.972-1.286-1.54-2.149s-1.041-1.671-1.363-2.267a7.821,7.821,0,0,1-.457-.942c-.009-.029-.013-.049-.007-.053a5.193,5.193,0,0,1,.618.9c.36.571.855,1.359,1.42,2.218.493.749.951,1.42,1.314,1.95l.159.233.184.27.058-.05c.206-.178.418-.352.637-.518a12.284,12.284,0,0,1-.829-1.383,7.891,7.891,0,0,1-.772-1.444,4.207,4.207,0,0,1,.99,1.319c.161.28.294.548.4.78.055.123.1.233.137.332a1.738,1.738,0,0,1,.111.369l.034-.026a13.705,13.705,0,0,1,2.968-1.694l.071-.031c.034-.014.067-.025.1-.038-.23-.5-.616-1.417-1.049-2.51-.063-.159-.126-.32-.191-.485-.663-1.7-1.169-3.12-1.222-3.418-.7-.364-1.629-1.348-2.637-1.081-.833.221-1.2.5-1.4.949a16.208,16.208,0,0,0-.484,2.359,1.318,1.318,0,0,1-.707.885,2.438,2.438,0,0,1-1.881.142,3.093,3.093,0,0,0-3.012,1.049,4,4,0,0,0-.376.438c-.552.767-.407,1.817-.488,2.773a2.56,2.56,0,0,1-.44,1.365,6.949,6.949,0,0,1-1.757,1.253,1.763,1.763,0,0,0-.756.919c-.247.8.321,1.672.375,2.487a1.4,1.4,0,0,1-.094.647c-.408.976-1.888,1.059-2.4,1.985a1.482,1.482,0,0,0-.122,1.085c.2.9.963,1.838,1.057,2.812a2.48,2.48,0,0,1-.028.628c-.115.71-.475,1.4-.616,2.115a2.214,2.214,0,0,0,.124,1.205,1.147,1.147,0,0,0,1.151.862l-.227-.377a1.816,1.816,0,0,1,1.52,1.75,5.781,5.781,0,0,1-.144,1.628c-.056.294-.113.588-.151.883a2.588,2.588,0,0,0,.65,2.341c.02.016.044.028.065.044.7.527,1.735.459,2.41,1.023a2.233,2.233,0,0,1,.7,1.423c.229,1.383-.109,3.109,1.08,3.758a1.547,1.547,0,0,0,.4.145c1.179.277,2.673-.665,3.658.1a1.488,1.488,0,0,1,.3.332c.415.6.5,1.46,1.055,1.956a2.155,2.155,0,0,0,2.007.261c.983-.214,2.038-.6,2.89-.16a1.712,1.712,0,0,1,.359.255c.908.818,1.048,2.5,2.209,2.992a1.547,1.547,0,0,0,.659.118c1.132-.032,2.218-1.214,3.427-1.562.025-.237.082-.65.154-1.191C144.436,173.5,144.58,172.3,144.677,170.963ZM130.845,143.8a4.7,4.7,0,0,1-1.144-1.33,8.976,8.976,0,0,1,1.314,1.145,9.089,9.089,0,0,1,1.253,1.21A4.691,4.691,0,0,1,130.845,143.8Zm-.488,14.268a10.62,10.62,0,0,1-3.184.693,10.671,10.671,0,0,1,3.184-.693Zm-7.6,3.413a6.315,6.315,0,0,1,1.127-.459c.7-.258,1.675-.613,2.742-1.024s2.025-.8,2.721-1.08a6.387,6.387,0,0,1,1.143-.417,5.445,5.445,0,0,1-1.073.579c-.446.212-1.018.466-1.656.731-.333.139-.678.279-1.045.42-1.071.412-2.056.743-2.776.958-.326.1-.594.172-.794.222A1.138,1.138,0,0,1,122.755,161.486Zm3.584,6.007a6.53,6.53,0,0,1,.966-.854c.247-.2.535-.431.852-.682.474-.375,1.014-.8,1.591-1.239l1.363-1.033c.42-.318.809-.586,1.095-.849a2.562,2.562,0,0,0,.7-1.027c.013,0,.022.131-.049.35a1.74,1.74,0,0,1-.237.451,2.66,2.66,0,0,1-.293.353,11.8,11.8,0,0,1-1.077.905l-1.35,1.049c-.963.739-1.843,1.4-2.488,1.862A6.583,6.583,0,0,1,126.338,167.493Zm6.4,3.039a5.866,5.866,0,0,1-.769.95,5.973,5.973,0,0,1,.623-1.052c.234-.359.528-.8.855-1.279q.372-.547.8-1.159c.647-.943,1.283-1.79,1.69-2.4a.809.809,0,0,0,.124-.438.545.545,0,0,0-.128-.313c-.13-.148-.263-.129-.26-.151s.141-.075.329.082a.62.62,0,0,1,.2.365.6.6,0,0,1,0,.088.991.991,0,0,1-.111.449c-.394.67-.989,1.505-1.641,2.457S133.189,169.927,132.741,170.533Z" transform="translate(-119.566 -132.651)" fill="#455a64"/></g><g transform="translate(11.769 10.908)"><path d="M139.736,162.716a12.015,12.015,0,1,0,6.558-15.676A12.016,12.016,0,0,0,139.736,162.716Z" transform="translate(-138.834 -146.139)" fill="#ff725e"/></g><g transform="translate(1.562 1.253)"><g transform="translate(33.355 8.174)"><path d="M177.562,147.885c.492-.418,1.16-1.009,1.887-1.674s1.376-1.276,1.837-1.727c.188-.184.342-.34.46-.464.172-.18.264-.29.25-.3a4.339,4.339,0,0,0-.832.64c-.492.418-1.158,1.008-1.884,1.671s-1.374,1.274-1.835,1.726a6.53,6.53,0,0,0-.707.751c-.006.01-.007.017,0,.02A4.33,4.33,0,0,0,177.562,147.885Z" transform="translate(-176.732 -143.714)" fill="#263238"/></g><g transform="translate(35.437 14.319)"><path d="M181.374,155.731l-.268.1a4.862,4.862,0,0,0-.967.427,7.414,7.414,0,0,0,1.292-.362l3.075-1,1.881-.613,1.025-.334c-.013-.04-.029-.08-.038-.123,0-.02,0-.038,0-.057-.783.216-1.814.523-2.94.889C183.228,155.054,182.149,155.437,181.374,155.731Z" transform="translate(-180.14 -153.774)" fill="#263238"/></g><g transform="translate(36.321 20.802)"><path d="M186.132,164.749a41.485,41.485,0,0,0-4.544-.344,8.543,8.543,0,0,0,1.5.249c.8.1,1.857.225,3.021.346,1.425.148,2.7.261,3.531.319-.03-.056-.056-.113-.082-.17l-.509-.067C188.259,164.981,187.243,164.864,186.132,164.749Z" transform="translate(-181.588 -164.388)" fill="#263238"/></g><g transform="translate(0 0.747)"><path d="M162.614,157.051c-1.418-.331-2.705-.618-3.64-.812l-.156-.032c-.583-.12-1.009-.2-1.219-.227.007-.03.016-.059.024-.089a13.672,13.672,0,0,0-.079-7.1c-.106-.377-.23-.752-.37-1.125-.048-.127-.093-.255-.145-.381a13.779,13.779,0,0,0-1.008-1.982,13.665,13.665,0,0,0-3.194-3.584c-.1-.078-.2-.157-.3-.232a1.268,1.268,0,0,1-.12-.6c0-.669.666-1.413,1.27-2.264.622-.846,1.2-1.6,1.625-2.144a5.546,5.546,0,0,0,.651-.911c-.009-.007-.048.022-.108.077-.13.118-.368.367-.68.721-.458.519-1.065,1.258-1.69,2.108-.312.428-.605.829-.855,1.224a2.639,2.639,0,0,0-.351.825,1.452,1.452,0,0,0-.039.363,1.335,1.335,0,0,0,.092.451c-.115-.082-.23-.165-.348-.244a13.785,13.785,0,0,0-3.959-1.813c-.112-.031-.223-.062-.335-.09a.979.979,0,0,1,.1-.643c.294-.729.686-1.744,1.1-2.87s.781-2.15,1.033-2.9a6.375,6.375,0,0,0,.359-1.225,6.451,6.451,0,0,0-.525,1.164c-.3.73-.686,1.744-1.1,2.87-.242.652-.462,1.261-.657,1.811-.142.4-.271.771-.377,1.085a1.407,1.407,0,0,0-.1.549v0a.588.588,0,0,0,.02.117l-.049-.012a13.672,13.672,0,0,0-3.427-.363c-.262.005-.524.017-.787.038a13.631,13.631,0,0,0-2.985.578q-.465.145-.924.325c-.191-.595-.608-1.74-1.117-3.044-.539-1.38-1.029-2.556-1.282-3.086-.043-.089-.078-.159-.106-.209l-.067-.032c.053.3.559,1.721,1.222,3.418.065.165.128.326.191.485.433,1.093.819,2.015,1.049,2.51-.034.013-.067.024-.1.038l-.071.031a13.73,13.73,0,0,0-2.968,1.694l-.034.026a1.762,1.762,0,0,0-.11-.369q-.056-.147-.138-.332c-.1-.232-.237-.5-.4-.78a4.207,4.207,0,0,0-.99-1.319,7.868,7.868,0,0,0,.772,1.444,12.283,12.283,0,0,0,.829,1.383c-.219.166-.431.34-.637.518l-.058.05-.184-.27-.159-.233c-.363-.53-.822-1.2-1.314-1.95-.564-.859-1.06-1.647-1.42-2.218a5.191,5.191,0,0,0-.618-.9c-.006,0,0,.024.007.053a7.764,7.764,0,0,0,.458.942c.321.6.8,1.4,1.363,2.267s1.121,1.618,1.54,2.149c.076.1.146.183.213.264a13.635,13.635,0,0,0-1.865,2.033q-.242.324-.462.661c-.005-.081-1.4-.826-3.095-1.777-1.129-.631-2.109-1.194-2.661-1.49a1.6,1.6,0,0,0-.478-.219,4.184,4.184,0,0,0,.847.623c.542.355,1.307.822,2.169,1.305.588.329,1.14.619,1.621.86.224.113.439.218.625.306a4.655,4.655,0,0,0,.968.4c-.037.057-.073.117-.11.175a13.787,13.787,0,0,0-1.478,3.137c-.329-.218-.771-.5-1.262-.806-.326-.2-.629-.392-.9-.556a4.289,4.289,0,0,0-1.019-.55,8.383,8.383,0,0,0,1.783,1.319c.488.307.94.563,1.289.745l.048.025,0,.009c-.084.272-.156.547-.224.824l-.241-.062c-.7-.183-1.667-.447-2.717-.788s-1.986-.7-2.661-.963a6.438,6.438,0,0,0-1.107-.4,4.623,4.623,0,0,0,1,.544l.042.02a24.49,24.49,0,0,0,5.409,1.76l.244.046a13.707,13.707,0,0,0-.351,2.922c-.3-.059-.71-.127-1.184-.2-.281-.042-.581-.085-.9-.127a14.6,14.6,0,0,0-2.689-.23,14.513,14.513,0,0,0,2.655.479c.863.115,1.625.2,2.117.231,0,.3.011.6.031.9a.521.521,0,0,1-.043.081.923.923,0,0,1-.448.277,14.875,14.875,0,0,1-2.628.344c-.223.012-.448.021-.68.027-.821.018-1.583-.005-2.258-.035-.4-.017-.777-.036-1.1-.051a8.232,8.232,0,0,0-1.4-.029c0,.01.053.026.145.043.21.041.642.1,1.239.162a27.555,27.555,0,0,0,3.375.16,14.159,14.159,0,0,0,2.969-.355c.133-.032.272-.062.392-.1a1.083,1.083,0,0,0,.446-.306c.009.113.023.227.035.34a13.67,13.67,0,0,0,.7,3.091c.076.212.155.423.242.634.061.149.128.294.194.44a13.678,13.678,0,0,0,1.743,2.868q.248.313.511.61a13.674,13.674,0,0,0,2.61,2.273c.218.145.44.283.665.415a13.786,13.786,0,0,0,3.186,1.366c-.041.056-.087.12-.138.2-.184.273-.427.665-.683,1.11a6.644,6.644,0,0,0-.792,1.63,6.6,6.6,0,0,0,1.01-1.5,14.926,14.926,0,0,0,.727-1.4q.541.149,1.095.255c-.183.387-.641,1.649-1.206,3.139-.517,1.37-.974,2.536-1.137,3.035-.053.16-.076.254-.06.261a4.03,4.03,0,0,0,.482-.912c.264-.578.606-1.387.949-2.295.323-.855.587-1.636.77-2.233l.037-.115c.122-.4.2-.7.233-.867l.051.01a13.661,13.661,0,0,0,2.807.216,2.472,2.472,0,0,1,.24.2,2.332,2.332,0,0,1,.544.8,3.807,3.807,0,0,1,.257,1.473c0,.572-.048,1.213-.093,1.881-.1,1.336-.241,2.541-.357,3.413-.071.541-.129.954-.154,1.191.027-.008.055-.012.082-.02.063-.235.151-.627.247-1.144a32.312,32.312,0,0,0,.432-3.422c.045-.673.087-1.311.073-1.9a4.117,4.117,0,0,0-.211-1.261,2.555,2.555,0,0,0-.115-.282,2.21,2.21,0,0,0-.591-.764c-.026-.021-.054-.046-.079-.064a1.429,1.429,0,0,0-.163-.1,13.62,13.62,0,0,0,4.269-.85c.148-.055.3-.108.444-.169.09-.037.176-.078.264-.117a1.263,1.263,0,0,1,.715.359,2.8,2.8,0,0,1,.61,1.327c.147.567.3,1.178.468,1.818.339,1.288.659,2.45.9,3.289a7.953,7.953,0,0,0,.445,1.343,7.875,7.875,0,0,0-.274-1.388c-.067-.288-.147-.615-.234-.968-.17-.69-.374-1.488-.6-2.339l-.487-1.814a2.993,2.993,0,0,0-.652-1.329c-.021-.021-.037-.048-.059-.067a1.346,1.346,0,0,0-.635-.319c.085-.038.17-.076.254-.117a13.622,13.622,0,0,0,5.112-4.226c.182-.247.352-.5.517-.759a13.775,13.775,0,0,0,1.43-2.986c.093-.275.179-.553.255-.834.217.074.689.206,1.348.376.925.239,2.206.553,3.626.885,1.1.257,2.119.486,2.958.667l.684.146.3.062c.025-.049.06-.1.089-.143l-.352-.092C165.313,157.7,164.032,157.382,162.614,157.051ZM148.908,163.6a12.015,12.015,0,1,1,6.558-15.676A12.016,12.016,0,0,1,148.908,163.6Z" transform="translate(-122.124 -131.555)" fill="#263238"/></g><g transform="translate(36.777 27.879)"><path d="M185.851,178.263a508.889,508.889,0,0,0-3.514-2.285,9.017,9.017,0,0,0,3.514,2.285Z" transform="translate(-182.335 -175.974)" fill="#263238"/></g><g transform="translate(33.635 29.518)"><path d="M181.385,180.811l-.052-.04-1.561-1.191a5.151,5.151,0,0,0-1.376-.872c-.033-.011-.065-.016-.1-.023a1,1,0,0,0-.969.283c-.18.217-.14.392-.133.385.025.007.026-.151.2-.318a.915.915,0,0,1,.94-.159,5.526,5.526,0,0,1,1.288.886l1.55,1.206c1.1.85,2.11,1.609,2.847,2.148l.3.214a2.091,2.091,0,0,1-.013-.213l-.173-.141C183.438,182.411,182.467,181.645,181.385,180.811Z" transform="translate(-177.19 -178.658)" fill="#263238"/></g><g transform="translate(31.42 32.459)"><path d="M176.061,186.654l1.78,2.233a5.818,5.818,0,0,0,.778.9,5.329,5.329,0,0,0-.636-1c-.3-.432-.707-.977-1.168-1.574-.178-.23-.363-.466-.558-.709-.7-.873-1.358-1.641-1.851-2.184a5.324,5.324,0,0,0-.841-.839c-.012.01.038.09.134.221.121.166.317.415.571.734Z" transform="translate(-173.563 -183.473)" fill="#263238"/></g><g transform="translate(30.645 35.743)"><path d="M172.305,188.851a14.259,14.259,0,0,0,1.1,2.474,5,5,0,0,0-1.1-2.474Z" transform="translate(-172.296 -188.849)" fill="#263238"/></g><g transform="translate(10.841 33.44)"><path d="M143.9,185.181c-.188-.156-.34-.091-.329-.082s.131,0,.26.151a.548.548,0,0,1,.128.313.809.809,0,0,1-.124.438c-.407.605-1.043,1.453-1.69,2.4q-.424.611-.8,1.159c-.327.481-.621.92-.855,1.279a5.973,5.973,0,0,0-.623,1.052,5.867,5.867,0,0,0,.769-.95c.449-.605,1.054-1.452,1.711-2.4s1.247-1.787,1.641-2.457a.989.989,0,0,0,.111-.449.7.7,0,0,0,0-.088A.624.624,0,0,0,143.9,185.181Z" transform="translate(-139.872 -185.078)" fill="#263238"/></g><g transform="translate(5.209 30.576)"><path d="M137.172,180.74c.071-.219.062-.349.049-.35a2.562,2.562,0,0,1-.7,1.027c-.285.263-.674.531-1.095.849l-1.363,1.033c-.577.443-1.117.864-1.591,1.239-.317.25-.6.481-.852.682a6.531,6.531,0,0,0-.966.854,6.586,6.586,0,0,0,1.074-.713c.645-.466,1.525-1.123,2.488-1.862l1.351-1.049a11.889,11.889,0,0,0,1.077-.905,2.659,2.659,0,0,0,.293-.353A1.741,1.741,0,0,0,137.172,180.74Z" transform="translate(-130.652 -180.39)" fill="#263238"/></g><g transform="translate(1.626 27.269)"><path d="M132.519,174.979a6.389,6.389,0,0,0-1.143.417c-.7.28-1.654.669-2.721,1.08s-2.038.765-2.742,1.024a6.312,6.312,0,0,0-1.127.459,1.138,1.138,0,0,0,.389-.068c.2-.05.468-.124.794-.222.72-.216,1.705-.546,2.776-.958.367-.141.712-.282,1.045-.42.638-.265,1.21-.519,1.657-.731A5.449,5.449,0,0,0,132.519,174.979Z" transform="translate(-124.786 -174.976)" fill="#263238"/></g><g transform="translate(6.044 26.818)"><path d="M133.638,174.727a5.35,5.35,0,0,0,1.566-.469,10.647,10.647,0,0,0-3.184.693A5.376,5.376,0,0,0,133.638,174.727Z" transform="translate(-132.02 -174.237)" fill="#263238"/></g><g transform="translate(8.568 11.238)"><path d="M138.723,151.088a9.114,9.114,0,0,0-1.253-1.211,8.992,8.992,0,0,0-1.314-1.145,7.454,7.454,0,0,0,2.567,2.355Z" transform="translate(-136.152 -148.73)" fill="#263238"/></g><g transform="translate(20.968)"><path d="M156.77,138.119a37.913,37.913,0,0,0-.009-4.362c-.043-1.388-.1-2.621-.153-3.419-.053,0-.1,0-.155-.005,0,.8.015,2.038.057,3.432A37.988,37.988,0,0,0,156.77,138.119Z" transform="translate(-156.452 -130.332)" fill="#263238"/></g><g transform="translate(22.101 2.609)"><path d="M159.093,136.768a8.072,8.072,0,0,0,.428-2.164,34.007,34.007,0,0,0-1.2,4.229A8.034,8.034,0,0,0,159.093,136.768Z" transform="translate(-158.307 -134.604)" fill="#263238"/></g><g transform="translate(27.184 3.368)"><path d="M168.014,137.694a6.588,6.588,0,0,0,1.027-1.846,63.441,63.441,0,0,0-2.408,3.445A6.593,6.593,0,0,0,168.014,137.694Z" transform="translate(-166.629 -135.846)" fill="#263238"/></g><g transform="translate(32.255 6.928)"><path d="M175.847,142.63a3.891,3.891,0,0,0-.911,1.183A13.007,13.007,0,0,0,177,141.678,3.892,3.892,0,0,0,175.847,142.63Z" transform="translate(-174.931 -141.674)" fill="#263238"/></g></g><g transform="translate(0.049 0.087)" opacity="0.3"><g transform="translate(22.323)"><path d="M156.436,137.123a1.28,1.28,0,0,0,.095.477c.263-.021.525-.032.787-.038a1.644,1.644,0,0,0,.21-.45l2.19-7.54a1.427,1.427,0,0,0,.016-1.1c-.01-.017-.024-.029-.035-.045-.842.266-1.614,1.059-2.531,1.14a6.56,6.56,0,0,1-.658.031c.054.8.111,2.03.153,3.419a37.909,37.909,0,0,1,.009,4.362,37.992,37.992,0,0,1-.26-4.354c-.043-1.394-.062-2.634-.057-3.432-.042,0-.082-.008-.122-.013l-.037.074Zm1.592-2.829a12.359,12.359,0,0,1,.67-2.1,13.489,13.489,0,0,1-1.2,4.229A12.4,12.4,0,0,1,158.028,134.294Z" transform="translate(-156.194 -128.424)"/></g><g transform="translate(27.048 1.03)"><path d="M164.915,135.026c.417-1.126.808-2.14,1.1-2.87a6.453,6.453,0,0,1,.525-1.164,6.373,6.373,0,0,1-.359,1.225c-.252.746-.616,1.77-1.033,2.9s-.809,2.141-1.1,2.87a.979.979,0,0,0-.1.643c.112.028.224.06.335.09,1.976-2.612,4.171-5.795,5.79-8.47a2.162,2.162,0,0,0-.908-.134h-.012c-.854.047-1.775.436-2.637.448-.718,1.871-1.589,4.124-2.26,6.275C164.453,136.288,164.673,135.679,164.915,135.026Z" transform="translate(-163.928 -130.109)"/></g><g transform="translate(31.796 5.211)"><path d="M175.248,137.669a5.546,5.546,0,0,1-.651.911c-.42.546-1,1.3-1.625,2.144-.6.85-1.267,1.594-1.27,2.264a1.268,1.268,0,0,0,.12.6c.1.075.2.154.3.232,1.95-1.321,4.638-4.227,6.666-6.205-.983-.29-2.189-.065-3.047-.657q-.29.395-.6.791C175.2,137.691,175.24,137.662,175.248,137.669Zm-.477,3.3a5.351,5.351,0,0,1-1.092,1.008,6.71,6.71,0,0,1,2.061-2.134A5.32,5.32,0,0,1,174.771,140.967Z" transform="translate(-171.702 -136.955)"/></g><g transform="translate(34.57 8.798)"><path d="M181.1,144.139c-.461.451-1.11,1.063-1.837,1.727s-1.4,1.255-1.887,1.674a4.33,4.33,0,0,1-.829.637s0-.01,0-.02c-.107.107-.2.21-.3.316a13.578,13.578,0,0,1,.84,1.214c.114-.039.228-.086.338-.134,2.249-.986,5.837-2.719,8.5-3.991a4.076,4.076,0,0,0-.882-.652,6.461,6.461,0,0,1-2.09-1.388,3.086,3.086,0,0,1-.4-.694c-.316.272-.649.556-.993.848C181.438,143.8,181.283,143.955,181.1,144.139Z" transform="translate(-176.243 -142.827)"/></g><g transform="translate(36.563 15.678)"><path d="M184.262,155.025l-3.075,1a7.414,7.414,0,0,1-1.292.362,4.862,4.862,0,0,1,.967-.427c-.382.125-.764.255-1.142.393-.071.026-.142.054-.211.083.14.373.264.748.37,1.125,2.7-.086,6.666-.277,9.764-.4a1.491,1.491,0,0,0-.086-.646c-.409-1.079-2.023-1.366-2.383-2.425q-.513.166-1.029.32Z" transform="translate(-179.507 -154.092)"/></g><g transform="translate(37.421 22.072)"><path d="M182.822,164.72c-.5-.048-1-.095-1.493-.137-.138-.012-.278-.023-.417-.023a13.714,13.714,0,0,1,0,1.461c2.709.734,6.55,2.394,9.667,3.462a2.056,2.056,0,0,0,.437-.955c.158-1.2-1.083-2.074-1.647-3.144-.833-.058-2.105-.171-3.53-.319C184.679,164.945,183.622,164.823,182.822,164.72Z" transform="translate(-180.912 -164.56)"/></g><g transform="translate(36.718 26.392)"><path d="M184.989,172.893c-1.42-.332-2.7-.646-3.626-.885-.659-.17-1.131-.3-1.348-.376-.076.28-.161.558-.255.834a4.345,4.345,0,0,0,.832.453c2.192.982,5.732,2.752,8.344,3.978.136-.867-.381-1.84-.158-2.726a1.84,1.84,0,0,1,.128-.336c-.3-.089-.624-.181-.958-.274C187.107,173.38,186.089,173.15,184.989,172.893Z" transform="translate(-179.76 -171.632)"/></g><g transform="translate(34.771 30.211)"><path d="M180.94,180.668l-1.55-1.206a5.526,5.526,0,0,0-1.288-.886.915.915,0,0,0-.94.159c-.178.166-.179.324-.2.318-.007.007-.047-.168.133-.385a1,1,0,0,1,.969-.283,7.812,7.812,0,0,0-.971-.5c-.164.258-.335.512-.517.759a62.95,62.95,0,0,0,7,8.184,1.436,1.436,0,0,0,.939-.658c.544-.933-.305-2.075-.426-3.14l-.3-.214C183.051,182.277,182.043,181.519,180.94,180.668Z" transform="translate(-176.573 -177.885)"/></g><g transform="translate(32.809 33.589)"><path d="M177.9,188.758a5.327,5.327,0,0,1,.636,1,5.818,5.818,0,0,1-.778-.9l-1.78-2.233-1.791-2.225c-.254-.319-.45-.568-.571-.734-.087-.087-.175-.175-.26-.258.928,2.591,2.543,6.092,3.888,8.879a12.393,12.393,0,0,1,1.554-2.318c-.613-.907-1.323-1.863-2.066-2.793C177.2,187.78,177.6,188.325,177.9,188.758Z" transform="translate(-173.36 -183.415)"/></g><g transform="translate(28.336 35.402)"><path d="M169.772,193.131a7.877,7.877,0,0,1,.274,1.388,7.95,7.95,0,0,1-.445-1.343c-.244-.839-.564-2-.9-3.289-.165-.64-.322-1.25-.468-1.818a2.8,2.8,0,0,0-.61-1.327,1.263,1.263,0,0,0-.715-.359c-.089.038-.175.08-.264.117-.147.06-.3.114-.444.169-.01.021-.022.042-.031.063a2.8,2.8,0,0,0-.108,1.239c.165,2.614.793,6.358,1.03,9.149.839-.57.972-1.934,1.9-2.383a1.9,1.9,0,0,1,1.343-.04c-.235-.786-.51-1.652-.792-2.534C169.626,192.516,169.705,192.842,169.772,193.131Z" transform="translate(-166.038 -186.383)"/></g><g transform="translate(21.124 36.74)"><path d="M158.168,192.728c.045-.668.093-1.308.093-1.881a3.807,3.807,0,0,0-.257-1.473,2.332,2.332,0,0,0-.544-.8.79.79,0,0,0-.329.468c-.942,2.63-2.109,6.731-2.9,9.851,1.132-.032,2.218-1.214,3.427-1.562.025-.237.082-.65.154-1.191C157.927,195.268,158.07,194.064,158.168,192.728Z" transform="translate(-154.23 -188.574)"/></g><g transform="translate(15.006 36.046)"><path d="M148.052,193.867c.163-.5.619-1.664,1.137-3.035.564-1.49,1.023-2.752,1.206-3.139q-.553-.105-1.095-.255a14.926,14.926,0,0,1-.727,1.4,6.6,6.6,0,0,1-1.01,1.5,6.644,6.644,0,0,1,.792-1.63c.256-.445.5-.837.683-1.11a7.087,7.087,0,0,0-1.135,1.529l-3.687,6.118c.983-.214,2.038-.6,2.89-.16a1.735,1.735,0,0,1,.359.255C147.639,194.877,147.838,194.382,148.052,193.867Z" transform="translate(-144.215 -187.438)"/></g><g transform="translate(7.986 34.23)"><path d="M139.365,188.158c.647-.943,1.283-1.79,1.69-2.4a.809.809,0,0,0,.124-.438.548.548,0,0,0-.128-.313c-.13-.148-.263-.129-.26-.151s.141-.075.329.082a.624.624,0,0,1,.2.365.7.7,0,0,1,0,.088,1.145,1.145,0,0,0,.194-.516c-.225-.133-.447-.27-.665-.415a1.664,1.664,0,0,0-.506.29c-2.129,1.608-5.216,4.466-7.625,6.684,1.179.277,2.673-.665,3.658.1a1.488,1.488,0,0,1,.3.332c.584-.8,1.241-1.677,1.89-2.554Q138.941,188.771,139.365,188.158Z" transform="translate(-132.721 -184.464)"/></g><g transform="translate(3.4 31.346)"><path d="M131.945,183.047l1.363-1.033c.42-.318.809-.586,1.095-.849a2.561,2.561,0,0,0,.7-1.027c.013,0,.022.131-.049.35a1.741,1.741,0,0,1-.237.451c.054-.048.112-.1.164-.143a1.16,1.16,0,0,0,.338-.442q-.264-.3-.511-.61a1.658,1.658,0,0,0-.64.14q-4.488,1.656-8.954,3.368c.7.527,1.735.459,2.41,1.023a2.234,2.234,0,0,1,.7,1.423c.636-.445,1.328-.923,2.03-1.412C130.829,183.91,131.369,183.49,131.945,183.047Z" transform="translate(-125.214 -179.742)"/></g><g transform="translate(0.536 27.189)"><path d="M123.128,177.165a6.314,6.314,0,0,1,1.127-.459c.7-.258,1.675-.613,2.742-1.024s2.025-.8,2.721-1.08a6.387,6.387,0,0,1,1.143-.417,5.451,5.451,0,0,1-1.072.579c-.447.212-1.018.466-1.657.731,1.116-.408,2.173-.825,3.037-1.233l.072-.036c-.066-.146-.133-.291-.194-.44-.087-.211-.166-.422-.242-.634l-.079-.013a41.558,41.558,0,0,0-10.2.333,1.147,1.147,0,0,0,1.151.862l-.227-.377a1.816,1.816,0,0,1,1.52,1.75,5.781,5.781,0,0,1-.144,1.628l.691-.239A1.138,1.138,0,0,1,123.128,177.165Zm5.984-3.189a5.459,5.459,0,0,1,1.619-.224,10.656,10.656,0,0,1-3.184.693A5.425,5.425,0,0,1,129.111,173.976Z" transform="translate(-120.525 -172.938)"/></g><g transform="translate(0 20.964)"><path d="M121.16,166.151a8.232,8.232,0,0,1,1.4.029c.32.015.7.034,1.1.051.967.013,1.966.02,2.938.008a14.875,14.875,0,0,0,2.628-.344.922.922,0,0,0,.448-.277.521.521,0,0,0,.043-.081c-.02-.3-.031-.6-.031-.9-.492-.035-1.254-.116-2.117-.231a14.51,14.51,0,0,1-2.655-.479,14.6,14.6,0,0,1,2.689.23c.316.042.616.085.9.127a83.337,83.337,0,0,0-8.847-1.542c.2.9.963,1.838,1.057,2.812a2.48,2.48,0,0,1-.028.628l.629.008C121.213,166.176,121.159,166.161,121.16,166.151Z" transform="translate(-119.647 -162.746)"/></g><g transform="translate(2.179 13.841)"><path d="M124.727,154.655a6.438,6.438,0,0,1,1.107.4c.674.266,1.611.621,2.661.963s2.016.605,2.717.788l.241.062c.067-.277.14-.552.224-.824l-.045-.034c-.349-.183-.8-.439-1.289-.745a8.382,8.382,0,0,1-1.783-1.319,4.289,4.289,0,0,1,1.019.55,51.625,51.625,0,0,0-5.547-3.413,1.763,1.763,0,0,0-.756.919c-.247.8.322,1.672.375,2.487.629.22,1.332.461,2.07.709A4.624,4.624,0,0,1,124.727,154.655Z" transform="translate(-123.215 -151.084)"/></g><g transform="translate(5.193 8.011)"><path d="M132.155,147.051c1.7.951,3.089,1.7,3.095,1.777q.221-.336.462-.661l-.069-.073c-1.717-1.792-4.614-4.524-6.631-6.555a4,4,0,0,0-.376.438c-.552.767-.407,1.817-.488,2.774.4.233.854.508,1.346.809C130.047,145.858,131.027,146.42,132.155,147.051Zm.886-1.117a8.993,8.993,0,0,1,1.314,1.145,9.114,9.114,0,0,1,1.253,1.211,7.453,7.453,0,0,1-2.567-2.355Z" transform="translate(-128.149 -141.54)"/></g><g transform="translate(10.95 3.576)"><path d="M137.664,137.634a5.191,5.191,0,0,1,.618.9c.36.571.855,1.359,1.42,2.218.493.749.951,1.42,1.314,1.95.14.169.272.317.4.453.206-.178.418-.352.637-.518a12.282,12.282,0,0,1-.829-1.383,7.868,7.868,0,0,1-.772-1.444,4.207,4.207,0,0,1,.99,1.319c.161.28.294.548.4.78-.953-2.3-2.112-5.291-3.077-7.634a16.212,16.212,0,0,0-.484,2.359,1.318,1.318,0,0,1-.707.885l.1.163C137.663,137.657,137.658,137.637,137.664,137.634Z" transform="translate(-137.574 -134.279)"/></g><g transform="translate(16.287 0.407)"><path d="M147.658,135.718c.509,1.3.927,2.449,1.117,3.044q.459-.18.924-.325a7.536,7.536,0,0,0-.033-2.866c-.249-1.727-.74-4.465-1.059-6.481a2.021,2.021,0,0,0-.692.553c-.531.66-.685,2.661-1.116,2.846a.617.617,0,0,1-.489-.046c.021.064.043.126.065.189C146.629,133.162,147.119,134.337,147.658,135.718Z" transform="translate(-146.311 -129.09)"/></g></g><g transform="translate(11.48 10.763)"><path d="M162.4,154.648a12.278,12.278,0,1,1-15.294-8.222A12.278,12.278,0,0,1,162.4,154.648Z" transform="translate(-138.361 -145.902)" fill="#fff"/></g><g transform="translate(17.88 16.323)"><path d="M148.84,163.848l1.141-2.282,4.279,1.834,4.4-8.4,2.16,1.182-5.706,10.6Z" transform="translate(-148.84 -155.005)" fill="#263238"/></g><g transform="translate(15.771 22.304)"><path d="M163.649,164.8a.87.87,0,0,1,.06.264,5.46,5.46,0,0,1,.092.773,8.959,8.959,0,0,1-.288,2.849,10.688,10.688,0,0,1-1.874,3.812,10.5,10.5,0,0,1-4.081,3.216,10.613,10.613,0,0,1-5.14.767,10.83,10.83,0,0,1-4.069-1.218,9.1,9.1,0,0,1-2.3-1.71,5.674,5.674,0,0,1-.51-.588c-.11-.14-.164-.216-.155-.223a11.892,11.892,0,0,0,3.065,2.322,10.964,10.964,0,0,0,3.993,1.126,10.524,10.524,0,0,0,4.987-.768,10.4,10.4,0,0,0,3.975-3.1,10.791,10.791,0,0,0,1.888-3.692A11.65,11.65,0,0,0,163.649,164.8Z" transform="translate(-145.387 -164.796)" fill="#263238"/></g><g transform="translate(13.039 12.047)"><path d="M141.081,159.812a.883.883,0,0,1-.06-.268,5.416,5.416,0,0,1-.089-.782,8.873,8.873,0,0,1,.317-2.877,10.858,10.858,0,0,1,1.941-3.83,11.648,11.648,0,0,1,1.8-1.808,10.947,10.947,0,0,1,11.67-1.008A9.1,9.1,0,0,1,159,150.945a5.51,5.51,0,0,1,.52.591c.112.14.167.217.158.224a11.8,11.8,0,0,0-3.118-2.319,11.2,11.2,0,0,0-4.048-1.1,10.264,10.264,0,0,0-7.327,2.152,11.617,11.617,0,0,0-1.764,1.746,10.961,10.961,0,0,0-1.953,3.709,9.563,9.563,0,0,0-.41,2.812C141.062,159.434,141.112,159.808,141.081,159.812Z" transform="translate(-140.913 -148.005)" fill="#263238"/></g></g></g><g transform="translate(0 31.489)"><path d="M83.822,171.667l5.268,42.655a4.139,4.139,0,0,1-3.053,4.529l-27.179,4.77A2.672,2.672,0,0,1,55.741,221c-.067-5.875-.305-18.584-1.128-26.5-.908-8.731-.869-16.907,2.346-21.069a24.653,24.653,0,0,1,6.477-6.02l.906-3.333s11.417.756,13.44,2.533l1.245,2.186Z" transform="translate(-54.103 -164.071)" fill="#80cab6"/><g transform="translate(9.333 3.268)"><path d="M69.383,169.487a2.58,2.58,0,0,0,.613.062l1.672.084c1.412.07,3.359.194,5.505.395s4.087.429,5.492.594l1.664.19a2.551,2.551,0,0,0,.616.034,2.5,2.5,0,0,0-.6-.146c-.389-.075-.954-.172-1.653-.281-1.4-.217-3.339-.48-5.492-.679s-4.108-.294-5.525-.312c-.709-.01-1.281-.005-1.678.009A2.5,2.5,0,0,0,69.383,169.487Z" transform="translate(-69.383 -169.421)" fill="#263238"/></g><g transform="translate(19.655 22.787)" opacity="0.3"><path d="M86.281,201.377l2.411,16.306,3.051-.519s2.165,9.283,9.4,7.908l-4.474-8.68-2.244-8.9Z" transform="translate(-86.281 -201.377)"/></g><g transform="translate(18.53 6.977)"><path d="M105.538,199.358l-16.766,4.908s-2.557-9.585-3.785-15.236c-1.344-6.186-.266-9.4,3.8-12.269a6.838,6.838,0,0,1,3.092-1.209,7.347,7.347,0,0,1,7.589,4.482,67.077,67.077,0,0,1,2.71,7.8C103.782,193.325,105.538,199.358,105.538,199.358Z" transform="translate(-84.439 -175.494)" fill="#80cab6"/><g transform="translate(0.546 4.54)"><path d="M85.335,191.923a1.589,1.589,0,0,0,.043.291l.166.839c.154.731.387,1.8.7,3.147.629,2.694,1.57,6.505,2.748,10.993l.034.129.128-.037,10.555-3.076,6.213-1.824.135-.039-.04-.136c-1.654-5.594-3.047-10.464-4.14-13.908-.558-1.718-1.064-3.068-1.438-3.984-.187-.458-.34-.807-.448-1.042a2.354,2.354,0,0,0-.177-.351,2.359,2.359,0,0,0,.132.371l.4,1.058c.345.925.823,2.282,1.357,4,1.044,3.449,2.4,8.336,4.043,13.932l.095-.175-6.215,1.815-10.548,3.1.162.092c-1.2-4.479-2.176-8.281-2.848-10.962l-.773-3.128c-.086-.346-.154-.621-.205-.829A1.489,1.489,0,0,0,85.335,191.923Z" transform="translate(-85.333 -182.926)" fill="#263238"/></g><g transform="translate(1.672 0.244)"><path d="M87.179,179.852c.04.029.374-.48,1.059-1.158a8.728,8.728,0,0,1,6.778-2.544c.956.062,1.536.228,1.548.18a1.118,1.118,0,0,0-.4-.158,6.7,6.7,0,0,0-1.135-.226,8.185,8.185,0,0,0-3.776.466,8.269,8.269,0,0,0-3.164,2.139,6.789,6.789,0,0,0-.716.92A1.148,1.148,0,0,0,87.179,179.852Z" transform="translate(-87.176 -175.893)" fill="#263238"/></g><g transform="translate(8.287 10.683)"><g transform="translate(0 9.553)"><path d="M109.136,212.8l.847,2.853,16.038-7.033,3.466,5.4s-12.592,9.473-16.537,12.5a7.6,7.6,0,0,1-11.165-1.569,25.442,25.442,0,0,1-3.779-8.84Z" transform="translate(-98.006 -208.623)" fill="#e49384"/></g><g transform="translate(10.244 16.596)"><path d="M114.8,223.7c.084.015.275-.856.753-1.826s1.034-1.659.971-1.717a3.691,3.691,0,0,0-1.228,1.589A3.746,3.746,0,0,0,114.8,223.7Z" transform="translate(-114.777 -220.154)" fill="#a86b62"/></g><g transform="translate(25.521)"><path d="M139.788,203.833l2.119-1.484c1.128-3.392,3.222-9.546,3.841-9.362.682.2.965.809.77,2.117-.468,3.133.3,4.513,2.1,4.1.621-.142,5.426-.705,5.426-.705s1.509.429.588,2.032a1.73,1.73,0,0,1-1.26,2.4s-.248,2.186-1.741,2.276a38.663,38.663,0,0,1-4.949,2.159L144,209Z" transform="translate(-139.788 -192.983)" fill="#e49384"/></g><g transform="translate(36.279 7.496)"><path d="M157.4,206.512a6.676,6.676,0,0,0,2.3-.565c.442-.147.854-.286,1.194-.37l-.042-.241-.205.044.045.221a2.453,2.453,0,0,0,.831-.329,2.419,2.419,0,0,0-.885.109l.046.221.208-.026-.043-.241a8.424,8.424,0,0,0-1.238.335A18.166,18.166,0,0,0,157.4,206.512Z" transform="translate(-157.4 -205.256)" fill="#a86b62"/></g><g transform="translate(35.873 9.915)"><path d="M156.736,210.52a7.458,7.458,0,0,0,3.252-1.295,18.9,18.9,0,0,0-3.252,1.295Z" transform="translate(-156.735 -209.215)" fill="#a86b62"/></g></g></g></g><g transform="translate(12.685 164.114)"><g transform="translate(3.127 4.423)"><path d="M104.04,388.44c0,1.27-17.15,53.793-17.15,53.793h-6.9l17.1-53.793Z" transform="translate(-79.99 -388.44)" fill="#455a64"/></g><g transform="translate(44.855 2.219)"><rect width="6.878" height="55.996" transform="translate(6.878 55.996) rotate(180)" fill="#455a64"/></g><g transform="translate(6.835 19.189)"><rect width="21.896" height="4.875" transform="translate(21.896 4.875) rotate(180)" fill="#455a64"/></g><g transform="translate(13.736)"><rect width="38.073" height="4.875" transform="translate(38.073 4.875) rotate(180)" fill="#455a64"/></g><g transform="translate(0 37.026)"><rect width="22.661" height="4.875" transform="translate(22.661 4.875) rotate(180)" fill="#455a64"/></g><g transform="translate(13.515 4.888)"><path d="M97,389.345c0,.079,8.589.143,19.181.143s19.183-.064,19.183-.143-8.587-.144-19.183-.144S97,389.265,97,389.345Z" transform="translate(-96.997 -389.201)" fill="#263238"/></g><g transform="translate(44.576 6.981)"><path d="M147.993,443.863c.079,0,.144-11.47.144-25.616s-.064-25.618-.144-25.618-.143,11.468-.143,25.618S147.914,443.863,147.993,443.863Z" transform="translate(-147.85 -392.629)" fill="#263238"/></g><g transform="translate(10.025 6.418)"><path d="M91.285,443.5c.075.031,3.855-11.539,8.443-25.84s8.248-25.925,8.174-25.957-3.854,11.536-8.443,25.843S91.211,443.473,91.285,443.5Z" transform="translate(-91.284 -391.707)" fill="#263238"/></g><g transform="translate(3.019 6.418)"><path d="M79.815,443.5c.074.031,3.854-11.539,8.442-25.84s8.248-25.925,8.174-25.957-3.854,11.536-8.443,25.843S79.741,443.473,79.815,443.5Z" transform="translate(-79.814 -391.707)" fill="#263238"/></g></g></g></g></svg>