<svg xmlns="http://www.w3.org/2000/svg" width="224.292" height="260.649" viewBox="0 0 224.292 260.649"><g transform="translate(5465.635 7062)"><g transform="translate(-5403.979 -7062)"><g transform="translate(0 13.742)"><g transform="translate(0.158 0.157)"><rect width="162.337" height="224.413" rx="10.737" fill="#e0e0e0"/></g><path d="M273.618,298s.169-.013.5-.032a7.3,7.3,0,0,0,1.461-.276,6.824,6.824,0,0,0,2.145-1.134,6.419,6.419,0,0,0,1.969-2.641,5.939,5.939,0,0,0,.426-1.931c.038-.7.009-1.439.016-2.213q0-2.325-.007-5.081c0-3.673-.009-7.91-.015-12.68-.012-19.082-.029-46.691-.05-80.805-.005-17.058-.012-35.743-.019-55.8q0-15.043-.008-31.086,0-8.013,0-16.256-.006-4.118-.012-8.291A6.167,6.167,0,0,0,278.576,76a6.5,6.5,0,0,0-3.538-2.124,9.286,9.286,0,0,0-2.13-.159H257.5l-17.985,0-37.1,0-78.007,0a6.512,6.512,0,0,0-4.427,1.721,6.143,6.143,0,0,0-1.977,4.206c-.032,3.219-.009,6.455-.016,9.665q0,9.641,0,19.151,0,19.016,0,37.443c0,24.548-.006,48.226-.009,70.783s-.01,43.991-.015,64.05q0,3.761,0,7.457c.006,1.23-.015,2.464.013,3.674a6.1,6.1,0,0,0,1.164,3.338,6.475,6.475,0,0,0,2.8,2.185,7.064,7.064,0,0,0,1.744.435c.594.051,1.208.039,1.818.04l7.242,0,27.49.01,82.959.048,22.555.029,5.865.015c1.322.005,2,.015,2,.015s-.677.011-2,.016l-5.865.015-22.555.029-82.959.049-27.49.01-7.242,0c-.608,0-1.218.012-1.845-.041a7.282,7.282,0,0,1-1.812-.45,6.727,6.727,0,0,1-2.912-2.268,6.344,6.344,0,0,1-1.212-3.468c-.029-1.231-.009-2.45-.015-3.684q0-3.7,0-7.457c0-20.06-.009-41.494-.014-64.05s-.006-46.235-.009-70.783q0-18.411,0-37.443,0-9.508,0-19.151c.007-3.217-.017-6.431.016-9.68a6.446,6.446,0,0,1,2.074-4.412,6.83,6.83,0,0,1,4.643-1.806l78.007,0,37.1,0,17.985,0h15.4a9.582,9.582,0,0,1,2.193.167,6.8,6.8,0,0,1,3.7,2.221,6.441,6.441,0,0,1,1.511,3.937q0,4.177.009,8.3,0,8.241,0,16.256,0,16.027-.008,31.086c-.007,20.059-.013,38.743-.019,55.8-.021,34.114-.038,61.723-.05,80.805-.006,4.77-.01,9.007-.015,12.68q0,2.754-.007,5.081c-.01.776.017,1.512-.023,2.217a6.009,6.009,0,0,1-.437,1.95,6.471,6.471,0,0,1-2,2.655,6.816,6.816,0,0,1-2.166,1.127,7.031,7.031,0,0,1-1.47.262C273.787,298,273.618,298,273.618,298Z" transform="translate(-117.681 -73.427)" fill="#263238"/><g transform="translate(14.321 175.941)" opacity="0.3"><path d="M142.365,414.2l136.125-.744,1.56-26.3-4.171-15.862L141.128,392.35Z" transform="translate(-141.128 -371.295)"/></g><g transform="translate(121.894 0.627)" opacity="0.3"><path d="M317.637,74.454l3.1,9.182v4.5h-3.491Z" transform="translate(-317.242 -74.454)"/></g><g transform="translate(7.126 9.431)"><g transform="translate(0.145 0.129)"><path d="M129.584,89.077V294.735H277.44V89.077Z" transform="translate(-129.584 -89.077)" fill="#fff"/></g><path d="M129.492,88.992l147.856-.125h.128v.125c.009,57.156.02,128.483.031,205.648v.172h-.159L129.492,294.8h-.145v-.141c.086-121.432.144-204.413.145-205.665,0,1.252.059,84.233.145,205.665l-.145-.141,147.856-.014-.159.154v-.017c.012-77.165.022-148.492.031-205.648l.128.125Z" transform="translate(-129.347 -88.867)" fill="#263238"/></g></g><g transform="translate(47.478)"><g transform="translate(0 8.16)"><path d="M6.326,0h62.16a6.326,6.326,0,0,1,6.326,6.326V21.7a0,0,0,0,1,0,0H0a0,0,0,0,1,0,0V6.326A6.326,6.326,0,0,1,6.326,0Z" fill="#263238"/></g><g transform="translate(27.885)"><path d="M260.1,50.928H241.063l2.225,16.321h14.342Z" transform="translate(-241.063 -50.928)" fill="#263238"/></g><g transform="translate(4.806 8.003)"><path d="M268.478,64.188c0,.087-14.6.157-32.6.157s-32.6-.07-32.6-.157,14.594-.157,32.6-.157S268.478,64.1,268.478,64.188Z" transform="translate(-203.279 -64.031)" fill="#455a64"/></g><g transform="translate(1.517 12.648)"><path d="M198.052,85.346c-.087,0-.157-3.069-.157-6.855s.07-6.855.157-6.855.157,3.068.157,6.855S198.139,85.346,198.052,85.346Z" transform="translate(-197.895 -71.636)" fill="#455a64"/></g><g transform="translate(72.232 12.287)"><path d="M313.824,83.492a61.811,61.811,0,0,1-.157-6.224,61.8,61.8,0,0,1,.157-6.224,61.8,61.8,0,0,1,.157,6.224A61.811,61.811,0,0,1,313.824,83.492Z" transform="translate(-313.667 -71.045)" fill="#455a64"/></g><g transform="translate(1.855 27.464)"><path d="M265.374,96.048c0,.087-14.983.158-33.461.158s-33.465-.07-33.465-.158,14.98-.156,33.465-.156S265.374,95.962,265.374,96.048Z" transform="translate(-198.447 -95.892)" fill="#455a64"/></g></g><g transform="translate(52.099 40.259)"><g transform="translate(38.608 8.722)"><path d="M274.7,138.1c0,3.566-2.136,5.555-5.261,5.555a5.509,5.509,0,0,1-2.858-.707l.884-1.753a3.338,3.338,0,0,0,1.93.516c1.71,0,2.829-1.017,2.9-3.006a3.523,3.523,0,0,1-2.564.928,3.272,3.272,0,0,1-3.552-3.212c0-2.107,1.724-3.433,3.9-3.433C272.945,132.99,274.7,134.774,274.7,138.1Zm-2.667-1.8c0-.884-.663-1.532-1.8-1.532a1.551,1.551,0,1,0,.03,3.08A1.6,1.6,0,0,0,272.032,136.305Z" transform="translate(-266.182 -132.99)" fill="#0540b7"/><path d="M282.011,138.325c0-3.4,1.886-5.335,4.421-5.335s4.42,1.931,4.42,5.335-1.872,5.334-4.42,5.334S282.011,141.728,282.011,138.325Zm6.44,0c0-2.343-.825-3.316-2.019-3.316s-2,.973-2,3.316.825,3.315,2,3.315S288.451,140.667,288.451,138.325Z" transform="translate(-272.342 -132.99)" fill="#0540b7"/><path d="M298.395,138.325c0-3.4,1.886-5.335,4.42-5.335,2.55,0,4.421,1.931,4.421,5.335s-1.872,5.334-4.421,5.334C300.281,143.658,298.395,141.728,298.395,138.325Zm6.44,0c0-2.343-.825-3.316-2.019-3.316-1.178,0-2,.973-2,3.316s.825,3.315,2,3.315C304.01,141.64,304.835,140.667,304.835,138.325Z" transform="translate(-278.719 -132.99)" fill="#0540b7"/><path d="M318.313,133.28v10.315h-2.387v-8.4h-2.063V133.28Z" transform="translate(-284.739 -133.103)" fill="#0540b7"/></g><path d="M279.6,145.857H202.975V118.711H279.6Zm-76.015-.611h75.4V119.322h-75.4Z" transform="translate(-202.975 -118.711)" fill="#0540b7"/><g transform="translate(0.305 0.305)"><rect width="34.387" height="26.536" fill="#0540b7"/></g><g transform="translate(6.285 9.166)"><path d="M213.264,133.995h2.286v9.878h-2.286Z" transform="translate(-213.264 -133.826)" fill="#fff"/><path d="M219.57,142.792l.776-1.722a5.808,5.808,0,0,0,3.26,1.03c1.355,0,1.9-.451,1.9-1.059,0-1.848-5.743-.578-5.743-4.247,0-1.68,1.355-3.077,4.163-3.077a6.622,6.622,0,0,1,3.429.875l-.705,1.735a5.585,5.585,0,0,0-2.738-.776c-1.355,0-1.877.508-1.877,1.129,0,1.82,5.743.564,5.743,4.191,0,1.651-1.369,3.062-4.191,3.062A7.038,7.038,0,0,1,219.57,142.792Z" transform="translate(-215.718 -133.718)" fill="#fff"/><path d="M234.561,138.826a5.413,5.413,0,1,1,5.4,5.108A5.112,5.112,0,0,1,234.561,138.826Zm8.5,0a3.091,3.091,0,1,0-3.091,3.161A3.013,3.013,0,0,0,243.056,138.826Z" transform="translate(-221.553 -133.718)" fill="#fff"/></g></g><g transform="translate(23.692 91.746)"><path d="M201.63,205.076c0,.087-10.111.159-22.58.159s-22.582-.071-22.582-.159,10.108-.159,22.582-.159S201.63,204.988,201.63,205.076Z" transform="translate(-156.468 -204.917)" fill="#263238"/></g><g transform="translate(24.456 99.456)"><path d="M275.613,218.016c0,.088-26.394.159-58.944.159s-58.949-.071-58.949-.159,26.388-.159,58.949-.159S275.613,217.928,275.613,218.016Z" transform="translate(-157.72 -217.857)" fill="#263238"/></g><g transform="translate(24.456 106.551)"><path d="M275.613,229.925c0,.088-26.394.159-58.944.159s-58.949-.071-58.949-.159,26.388-.159,58.949-.159S275.613,229.837,275.613,229.925Z" transform="translate(-157.72 -229.766)" fill="#263238"/></g><g transform="translate(24.456 113.646)"><path d="M275.613,241.833c0,.088-26.394.159-58.944.159s-58.949-.071-58.949-.159,26.388-.159,58.949-.159S275.613,241.745,275.613,241.833Z" transform="translate(-157.72 -241.674)" fill="#263238"/></g><g transform="translate(24.456 120.741)"><path d="M275.613,253.742c0,.088-26.394.159-58.944.159s-58.949-.071-58.949-.159,26.388-.159,58.949-.159S275.613,253.654,275.613,253.742Z" transform="translate(-157.72 -253.583)" fill="#263238"/></g><g transform="translate(24.456 127.837)"><path d="M275.613,265.651c0,.088-26.394.159-58.944.159s-58.949-.071-58.949-.159,26.388-.159,58.949-.159S275.613,265.563,275.613,265.651Z" transform="translate(-157.72 -265.492)" fill="#263238"/></g><g transform="translate(26.182 138.274)"><path d="M173.5,296.258a1.755,1.755,0,0,1-.015-.25c0-.182-.009-.412-.016-.7-.009-.633-.021-1.509-.036-2.609-.017-2.254-.042-5.421-.07-9.209l.137.138-12.762.021c-.036.034.3-.3.158-.157v3.441c0,1.126,0,2.228,0,3.3-.006,2.142-.011,4.163-.016,6.021l-.137-.137,9.209.07,2.609.036.7.016a1.665,1.665,0,0,1,.249.016,1.067,1.067,0,0,1-.219.015l-.669.016-2.578.036-9.3.07H160.6v-.139c0-1.857-.01-3.879-.016-6.021,0-1.072,0-2.174,0-3.3q0-.845,0-1.707V283.5c-.142.141.194-.2.161-.161l12.762.021h.139v.137c-.029,3.825-.053,7.022-.07,9.3-.015,1.087-.027,1.952-.036,2.578-.007.274-.012.495-.016.67A1.045,1.045,0,0,1,173.5,296.258Z" transform="translate(-160.546 -283.333)" fill="#263238"/></g><g transform="translate(47.166 141.367)"><rect width="89.029" height="7.427" fill="#e0e0e0"/></g><g transform="translate(26.182 159.84)"><path d="M173.5,332.5a1.731,1.731,0,0,1-.015-.249c0-.182-.009-.412-.016-.7-.009-.632-.021-1.509-.036-2.609-.017-2.254-.042-5.42-.07-9.209l.137.137-12.762.021c-.036.034.3-.3.158-.157v3.441q0,1.69,0,3.3c-.006,2.142-.011,4.163-.016,6.021l-.137-.137,9.209.07,2.609.036.7.016a1.727,1.727,0,0,1,.249.015,1.034,1.034,0,0,1-.219.016l-.669.016-2.578.036-9.3.07H160.6V332.5c0-1.857-.01-3.879-.016-6.021q0-1.608,0-3.3,0-.844,0-1.706v-1.735c-.142.141.194-.2.161-.161l12.762.022h.139v.137c-.029,3.824-.053,7.021-.07,9.3-.015,1.087-.027,1.953-.036,2.578-.007.274-.012.5-.016.67A1.032,1.032,0,0,1,173.5,332.5Z" transform="translate(-160.546 -319.579)" fill="#263238"/></g><g transform="translate(47.166 162.947)"><rect width="89.029" height="7.427" fill="#e0e0e0"/></g><g transform="translate(26.182 181.405)"><path d="M173.5,368.751a1.756,1.756,0,0,1-.015-.25c0-.182-.009-.412-.016-.7-.009-.633-.021-1.509-.036-2.609-.017-2.254-.042-5.421-.07-9.209l.137.138-12.762.021c-.036.034.3-.3.158-.157v3.441c0,1.126,0,2.228,0,3.3-.006,2.142-.011,4.163-.016,6.021l-.137-.137,9.209.07,2.609.036.7.016a1.665,1.665,0,0,1,.249.016,1.069,1.069,0,0,1-.219.015l-.669.016-2.578.036-9.3.07H160.6v-.139c0-1.857-.01-3.879-.016-6.021,0-1.072,0-2.174,0-3.3q0-.845,0-1.707V355.99c-.142.141.194-.2.161-.161l12.762.021h.139v.137c-.029,3.825-.053,7.022-.07,9.3-.015,1.087-.027,1.952-.036,2.578-.007.274-.012.495-.016.67A1.046,1.046,0,0,1,173.5,368.751Z" transform="translate(-160.546 -355.826)" fill="#263238"/></g><g transform="translate(47.166 184.526)"><rect width="89.029" height="7.427" fill="#e0e0e0"/></g><g transform="translate(28.431 139.231)"><path d="M164.227,289.887l1.72-1.72,3.318,2.949,6.512-6.267,1.6,1.72-8.356,7.864Z" transform="translate(-164.227 -284.849)" fill="#0540b7"/></g><g transform="translate(28.431 160.084)"><path d="M164.227,324.921l1.72-1.72,3.318,2.949,6.512-6.267,1.6,1.72-8.356,7.864Z" transform="translate(-164.227 -319.883)" fill="#0540b7"/></g><g transform="translate(28.431 181.464)"><path d="M164.227,360.842l1.72-1.72,3.318,2.949,6.512-6.267,1.6,1.72-8.356,7.864Z" transform="translate(-164.227 -355.804)" fill="#0540b7"/></g><g transform="translate(26.377 208.624)"><path d="M194.511,402.462c0,.088-7.533.159-16.822.159s-16.824-.071-16.824-.159,7.531-.159,16.824-.159S194.511,402.374,194.511,402.462Z" transform="translate(-160.864 -402.303)" fill="#263238"/></g><g transform="translate(64.423 208.365)"><path d="M235.575,402.038a60.675,60.675,0,0,1-6.211.159,60.682,60.682,0,0,1-6.212-.159,61.01,61.01,0,0,1,6.212-.159A61,61,0,0,1,235.575,402.038Z" transform="translate(-223.152 -401.879)" fill="#263238"/></g><g transform="translate(103.161 203.505)"><path d="M316.854,394.081c0,.088-6.779.159-15.14.159s-15.142-.071-15.142-.159,6.778-.159,15.142-.159S316.854,393.993,316.854,394.081Z" transform="translate(-286.572 -393.922)" fill="#263238"/></g><g transform="translate(99.141 208.66)"><path d="M303.058,415.346c-.017-.01.108-.189.273-.558a4.016,4.016,0,0,0,.292-1.732,16.074,16.074,0,0,0-.456-2.78,8.774,8.774,0,0,1-.227-3.761,5.58,5.58,0,0,1,2.769-3.571,5.287,5.287,0,0,1,5.131.18,5.141,5.141,0,0,1,2,2.063,2.468,2.468,0,0,1,.247,1.511,1.326,1.326,0,0,1-1.148,1.059,11.267,11.267,0,0,1-1.54.036l-1.54-.024c-1.035-.025-2.087-.069-3.148-.164a22.8,22.8,0,0,1-6.073-1.317,3.793,3.793,0,0,0-2.759-.159,9.532,9.532,0,0,0-2.088,1.809,2.646,2.646,0,0,1-1.24.693,1.939,1.939,0,0,1-1.372-.246,12.38,12.38,0,0,1-1.886-1.729,2.708,2.708,0,0,0-.955-.627,1.519,1.519,0,0,0-1.049.029,5.936,5.936,0,0,0-1.623,1.366,4.013,4.013,0,0,1-3.532,1.108,3.776,3.776,0,0,1-2.391-1.5,3.877,3.877,0,0,1-.709-1.651,2.437,2.437,0,0,1-.037-.626c.017,0,.016.216.1.614a3.99,3.99,0,0,0,.745,1.589,3.669,3.669,0,0,0,2.321,1.4,3.829,3.829,0,0,0,3.346-1.093,6.006,6.006,0,0,1,1.688-1.432,1.771,1.771,0,0,1,1.222-.044,2.956,2.956,0,0,1,1.052.674,12.525,12.525,0,0,0,1.846,1.68,1.655,1.655,0,0,0,1.177.208,2.37,2.37,0,0,0,1.1-.63,9.52,9.52,0,0,1,2.159-1.868,2.85,2.85,0,0,1,1.505-.213,7.174,7.174,0,0,1,1.476.354,22.632,22.632,0,0,0,6,1.3c1.052.094,2.1.139,3.128.164l1.536.026a11.287,11.287,0,0,0,1.484-.029,1.007,1.007,0,0,0,.9-.814,2.181,2.181,0,0,0-.22-1.319,4.862,4.862,0,0,0-1.875-1.939,5.019,5.019,0,0,0-4.86-.2,5.357,5.357,0,0,0-2.673,3.391,8.7,8.7,0,0,0,.183,3.672,15.341,15.341,0,0,1,.406,2.815,3.889,3.889,0,0,1-.357,1.76A2.8,2.8,0,0,1,303.058,415.346Z" transform="translate(-279.991 -402.363)" fill="#263238"/></g><g transform="translate(99.095 215.423)"><path d="M320.47,413.58a1.986,1.986,0,0,1-.412.029l-1.183.021-4.348.037c-3.672.031-8.742.1-14.341.263s-10.667.39-14.333.573l-4.343.216-1.181.048a.207.207,0,1,1,0-.064l1.178-.107c1.023-.089,2.5-.2,4.338-.318,3.665-.24,8.733-.5,14.337-.666s10.676-.2,14.349-.17c1.837.013,3.322.035,4.349.064l1.183.039A2.028,2.028,0,0,1,320.47,413.58Z" transform="translate(-279.916 -413.434)" fill="#263238"/></g></g><g transform="translate(-5494.988 -7121.958)"><g transform="translate(42.816 132.753)"><g transform="translate(0 0)"><path d="M106.555,168.716s-9.4,1.925-12.367,8.114c-3.2,6.665-14.316,20.1-14.316,20.1l-24.614-.645-3.384,6.431S67.945,211.907,75.352,213c9.913,1.467,15.708-6.177,15.708-6.177l9.094-10.549Z" transform="translate(-51.873 -168.716)" fill="#f5f5f5"/></g></g><g transform="translate(128.631 131.893)"><g transform="translate(42.403 13.359)"><path d="M268.34,198.6a29.9,29.9,0,0,1,1.819-4.321c.622-.862,3.044-3.25,3.541-4.652,0,0,1.194-.085.97,1.223a10.075,10.075,0,0,1-1.591,3.741c-.557.692,0,1.083.627.935s4.606-1.905,4.606-1.905,4.208-2.706,4.835-2.485a.964.964,0,0,1,.473,1.377c-.187.257-3.586,2.917-3.586,2.917l-1.979,1s6.406-2.718,7.058-2.422a.83.83,0,0,1,.418,1.218c-.174.384-3.014,1.553-3.014,1.553l-3.705,1.856,7.43-2.291s.732-.121.931.459-.5,1.21-.5,1.21l-7.446,3.074s4.2-1.51,4.512-1.271c.419.32.43.72.142.949a41.4,41.4,0,0,1-4.318,1.975l-7.216,2.492-3.412,1.419-2.589-7.126Z" transform="translate(-266.343 -189.624)" fill="#ae7461"/></g><path d="M195.416,167.307a12.335,12.335,0,0,1,11.067,5.449c4.021,6.2,13.506,20.85,13.506,20.85l18.7-3.943,4.007,7.718s-12.3,7.886-19.147,10.909-13.144-3.043-13.144-3.043l-8.841-11.46Z" transform="translate(-195.416 -167.278)" fill="#f5f5f5"/></g><g transform="translate(84.585 89.538)"><g transform="translate(15.523)"><g transform="translate(1.412 6.132)"><path d="M153.63,126.333a49.3,49.3,0,0,1-2.95-7.979,17.224,17.224,0,0,1-.161-8.429c.109-.416,1.113-3.236,1.544-3.237.308,0-.226,2.59-.045,2.84a14.6,14.6,0,0,1,2.479,8.311,38.422,38.422,0,0,1-.866,8.494" transform="translate(-150.067 -106.689)" fill="#263238"/></g><g transform="translate(3.469 0.754)"><path d="M172.421,136.8c-.178-2-.312-3.575-.3-3.577s6.779-1.373,6.551-8.2c-.11-3.3-.889-10.071-1.666-16.193A12.731,12.731,0,0,0,163.8,97.706l-.658.03c-7.083.74-10.412,7.168-9.476,14.227l2.485,24.8,5.38,5.253a6.432,6.432,0,0,0,10.895-5.217Z" transform="translate(-153.507 -97.692)" fill="#ae7461"/></g><g transform="translate(13.078 34.06)"><path d="M178.589,155.625a16.5,16.5,0,0,1-9.008-2.221s2.394,4.865,9.177,3.939Z" transform="translate(-169.581 -153.404)" fill="#6f4439"/></g><g transform="translate(22.297 17.228)"><path d="M186.945,126.087a.976.976,0,0,1-.895,1.026.933.933,0,0,1-1.045-.833.976.976,0,0,1,.894-1.027A.935.935,0,0,1,186.945,126.087Z" transform="translate(-185.002 -125.249)" fill="#263238"/></g><g transform="translate(21.786 13.839)"><path d="M188,120.521c-.115.132-.878-.38-1.927-.329-1.049.035-1.794.61-1.914.487-.058-.054.054-.29.378-.549a2.682,2.682,0,0,1,1.524-.547,2.578,2.578,0,0,1,1.541.421C187.939,120.237,188.059,120.461,188,120.521Z" transform="translate(-184.147 -119.58)" fill="#263238"/></g><g transform="translate(13.437 17.697)"><path d="M172.124,126.873a.976.976,0,0,1-.895,1.026.933.933,0,0,1-1.045-.833.977.977,0,0,1,.894-1.027A.934.934,0,0,1,172.124,126.873Z" transform="translate(-170.181 -126.034)" fill="#263238"/></g><g transform="translate(12.037 14.657)"><path d="M171.7,121.888c-.115.133-.879-.38-1.927-.329s-1.794.61-1.914.487c-.058-.054.053-.289.379-.548a2.673,2.673,0,0,1,1.524-.548,2.569,2.569,0,0,1,1.541.421C171.631,121.6,171.752,121.828,171.7,121.888Z" transform="translate(-167.839 -120.947)" fill="#263238"/></g><g transform="translate(18.628 14.844)"><path d="M179.754,129.979a6.954,6.954,0,0,1,1.689-.386c.267-.039.518-.1.554-.289a1.367,1.367,0,0,0-.215-.786l-.885-2a35.045,35.045,0,0,1-2.023-5.254,35.154,35.154,0,0,1,2.441,5.079q.446,1.055.853,2.017a1.554,1.554,0,0,1,.187,1.045.673.673,0,0,1-.423.411,1.8,1.8,0,0,1-.452.084A6.845,6.845,0,0,1,179.754,129.979Z" transform="translate(-178.864 -121.261)" fill="#263238"/></g><g transform="translate(10.827 11.004)"><path d="M170.63,115.9c-.138.271-1.162.008-2.4,0-1.241-.029-2.271.207-2.4-.067-.057-.131.148-.376.58-.6a4.178,4.178,0,0,1,3.66.048C170.492,115.522,170.691,115.772,170.63,115.9Z" transform="translate(-165.816 -114.838)" fill="#263238"/></g><g transform="translate(21.582 10.119)"><path d="M187.386,114.362c-.174.247-.908.032-1.777.06-.87,0-1.6.234-1.778-.008-.08-.118.025-.362.337-.6a2.574,2.574,0,0,1,2.864-.042C187.35,114,187.462,114.242,187.386,114.362Z" transform="translate(-183.805 -113.357)" fill="#263238"/></g><g transform="translate(0 19.902)"><path d="M152.117,129.873c-.119-.045-4.754-1.173-4.392,3.487s4.966,3.335,4.964,3.2S152.117,129.873,152.117,129.873Z" transform="translate(-147.705 -129.722)" fill="#ae7461"/></g><g transform="translate(1.199 21.466)"><path d="M151.936,135.957c-.022-.013-.077.063-.209.137a.815.815,0,0,1-.606.06,2.016,2.016,0,0,1-1.07-1.73,2.7,2.7,0,0,1,.137-1.18.942.942,0,0,1,.563-.671.415.415,0,0,1,.5.185c.073.126.05.221.076.227s.093-.085.041-.275a.519.519,0,0,0-.206-.278.612.612,0,0,0-.458-.084,1.144,1.144,0,0,0-.792.789,2.768,2.768,0,0,0-.181,1.321,2.115,2.115,0,0,0,1.341,1.92.874.874,0,0,0,.733-.181C151.936,136.071,151.952,135.965,151.936,135.957Z" transform="translate(-149.711 -132.337)" fill="#6f4439"/></g><g transform="translate(1.656)"><path d="M172.109,100.859c.717-.481-1.755-2.726-3.68-3.405-2.909-1.027-7.251-1.439-9.768-.484-3.031,1.15-5.478,2.92-6.793,5.883a18.381,18.381,0,0,0-1.245,9.529,5.582,5.582,0,0,0,.9,2.788c.74.973,2.043,1.513,2.112,2.938a1.956,1.956,0,0,0,.607,1.379c.93.833,1.9-.109,2.3-1a13.53,13.53,0,0,0,.7-6.2,13.664,13.664,0,0,0-.678-4.4c-.3-.756-.725-1.458-.977-2.229a2.807,2.807,0,0,1,.129-2.353,2.867,2.867,0,0,1,.345-.415,4.874,4.874,0,0,1,4.738-1.335c2.7.7,7.3,1.7,8.392.707a7.2,7.2,0,0,0,1.9-2.3Z" transform="translate(-150.475 -96.431)" fill="#263238"/></g><g transform="translate(17.491 25.509)"><path d="M180.649,140.153c.033.076-.151.257-.534.388a2.782,2.782,0,0,1-2.878-.818c-.256-.313-.317-.564-.249-.611.151-.1.748.555,1.745.821C179.721,140.231,180.575,139.986,180.649,140.153Z" transform="translate(-176.962 -139.101)" fill="#263238"/></g></g><g transform="translate(31.02 203.14)"><path d="M185.694,436.223l-.331,11.9s12.543,4.285,12.705,6.489l-24.16.277-.28-18.557Z" transform="translate(-173.628 -436.223)" fill="#263238"/><g transform="translate(3.561 10.942)"><path d="M180.279,454.567a.892.892,0,1,0,.445,1.727.9.9,0,1,0-.534-1.7" transform="translate(-179.584 -454.525)" fill="#e0e0e0"/></g><g transform="translate(0.28 16.793)"><path d="M174.1,466.184l.048-1.872,23.146.434s1.08.435.965,1.16Z" transform="translate(-174.097 -464.312)" fill="#455a64"/></g><g transform="translate(9.936 11.676)"><path d="M192.438,455.854c0,.113-.592.17-1.169.54s-.882.847-.991.8c-.109-.02.06-.7.767-1.132S192.463,455.75,192.438,455.854Z" transform="translate(-190.248 -455.753)" fill="#fff"/></g><g transform="translate(13.083 12.704)"><path d="M197.1,457.518c.028.109-.481.306-.877.788s-.506.987-.624.983c-.111.019-.2-.64.305-1.23S197.1,457.411,197.1,457.518Z" transform="translate(-195.512 -457.474)" fill="#fff"/></g><g transform="translate(15.991 13.675)"><path d="M200.523,461.053c-.107.025-.276-.536.02-1.157s.847-.873.9-.78c.068.092-.288.427-.523.94S200.64,461.041,200.523,461.053Z" transform="translate(-200.377 -459.097)" fill="#fff"/></g><g transform="translate(9.376 8.665)"><path d="M191.822,451.109c-.048.1-.591-.046-1.258,0s-1.184.258-1.246.162c-.069-.081.433-.5,1.219-.553S191.879,451.02,191.822,451.109Z" transform="translate(-189.311 -450.717)" fill="#fff"/></g></g><g transform="translate(2.721 202.831)"><path d="M137.387,435.707l-.885,14.377,2.73,11.555a1.486,1.486,0,0,1-1.269,1.786h0a1.575,1.575,0,0,1-1.34-.424c-2.219-2.179-10.338-10.234-10.212-11.284.146-1.214-.12-15.221-.12-15.221Z" transform="translate(-126.291 -435.707)" fill="#263238"/><g transform="translate(0.132 15.04)"><path d="M138.052,473.542l-11.516-12.678-.023.61a2.149,2.149,0,0,0,.5,1.456c.915,1.1,3.514,4.1,9.656,10.188a1.585,1.585,0,0,0,1.386.424Z" transform="translate(-126.511 -460.864)" fill="#455a64"/></g><g transform="translate(2.038 10.34)" opacity="0.6"><path d="M131.083,453.159a.865.865,0,0,1,.212,1.173.926.926,0,0,1-1.216.214.913.913,0,0,1-.217-1.244.962.962,0,0,1,1.29-.088" transform="translate(-129.7 -453.004)" fill="#fff"/></g><g transform="translate(8.454 19.743)"><path d="M140.445,470.308a4.66,4.66,0,0,1,1.362-1.077,4.9,4.9,0,0,1,1.745-.262c.014-.035-.172-.153-.523-.212a2.509,2.509,0,0,0-1.358.185,2.387,2.387,0,0,0-1.046.851C140.439,470.084,140.408,470.3,140.445,470.308Z" transform="translate(-140.431 -468.73)" fill="#fff"/></g><g transform="translate(9.459 22.319)"><path d="M142.121,474a12.911,12.911,0,0,1,1.356-.576,13.277,13.277,0,0,1,1.477-.135,1.772,1.772,0,0,0-1.56-.171C142.5,473.34,142.044,473.962,142.121,474Z" transform="translate(-142.113 -473.041)" fill="#fff"/></g><g transform="translate(6.559 17.205)"><path d="M137.267,466.068a15.763,15.763,0,0,1,2.031-1.025,16.062,16.062,0,0,1,2.252-.426,3.562,3.562,0,0,0-2.361.129A3.412,3.412,0,0,0,137.267,466.068Z" transform="translate(-137.262 -464.485)" fill="#fff"/></g><g transform="translate(6.449 13.859)"><path d="M137.08,459.426c.037.087.881-.218,1.965-.221s1.932.273,1.968.185a3.984,3.984,0,0,0-3.933.036Z" transform="translate(-137.078 -458.888)" fill="#fff"/></g><g transform="translate(6.597 9.565)"><path d="M137.327,452.312a5.1,5.1,0,0,1,4.018.26c.026-.029-.132-.215-.472-.418a3.5,3.5,0,0,0-3.017-.2C137.49,452.115,137.306,452.28,137.327,452.312Z" transform="translate(-137.325 -451.707)" fill="#fff"/></g><g transform="translate(6.594 6.215)"><path d="M139.368,448.971a1.182,1.182,0,0,0,.041-.543,3.644,3.644,0,0,0-.4-1.44,1.692,1.692,0,0,0-.722-.825.643.643,0,0,0-.7.11.945.945,0,0,0-.262.642,2.111,2.111,0,0,0,1.838,1.989,2.574,2.574,0,0,0,2.532-1.186.807.807,0,0,0,.068-.7.614.614,0,0,0-.625-.328,2.212,2.212,0,0,0-1.01.461,4.329,4.329,0,0,0-1.07,1.086,1.271,1.271,0,0,0-.25.49,6.886,6.886,0,0,1,1.455-1.393,2.057,2.057,0,0,1,.891-.381.325.325,0,0,1,.341.176.555.555,0,0,1-.072.456,2.3,2.3,0,0,1-2.207,1,1.837,1.837,0,0,1-1.587-1.667.681.681,0,0,1,.164-.456.348.348,0,0,1,.387-.066,1.535,1.535,0,0,1,.625.688A5.371,5.371,0,0,1,139.368,448.971Z" transform="translate(-137.321 -446.104)" fill="#fff"/></g></g><g transform="translate(0 106.706)"><path d="M170.424,275.531a43.469,43.469,0,0,1,2.013,14.251c-.091,3.058-6.882,87.9-6.882,87.9l-15.636.89-.106-79.372-1.266.319s-6.616,34.231-7,39.734c-.347,4.947-5.515,41.034-5.515,41.034l-14.289.96,1.881-47.451,2.737-45.584,1.249-13.295Z" transform="translate(-121.74 -274.918)" fill="#455a64"/><g transform="translate(27.206 4.974)"><path d="M167.248,294.6a2.845,2.845,0,0,0,.617.308,7.25,7.25,0,0,0,1.82.548,3.969,3.969,0,0,0,1.341-.03,2.808,2.808,0,0,0,1.383-.683,3.142,3.142,0,0,0,.808-1.443,17.1,17.1,0,0,0,.341-1.681c.4-2.3.649-4.4.788-5.917.069-.76.112-1.376.133-1.8a2.706,2.706,0,0,0,0-.664,2.8,2.8,0,0,0-.118.655l-.23,1.792c-.194,1.512-.479,3.6-.875,5.892a5.351,5.351,0,0,1-1.046,2.98,3.131,3.131,0,0,1-2.494.7,8.455,8.455,0,0,1-1.8-.448A3.348,3.348,0,0,0,167.248,294.6Z" transform="translate(-167.248 -283.238)" fill="#263238"/></g><g transform="translate(29.58 5.39)"><path d="M172.908,284.01c0-.013-.1-.07-.3-.076a1.347,1.347,0,0,0-.807.274,1.372,1.372,0,0,0-.581,1.09,1.3,1.3,0,0,0,.967,1.165,1.406,1.406,0,0,0,1.515-.358,1.338,1.338,0,0,0,.242-1.2,1.238,1.238,0,0,0-.462-.686c-.167-.114-.283-.129-.288-.115a1.555,1.555,0,0,1,.536.847,1.173,1.173,0,0,1-.248.982,1.131,1.131,0,0,1-1.2.252,1.051,1.051,0,0,1-.784-.9,1.194,1.194,0,0,1,.437-.921A1.7,1.7,0,0,1,172.908,284.01Z" transform="translate(-171.219 -283.934)" fill="#263238"/></g></g><g transform="translate(4.819 34.902)"><path d="M172.726,174.145l-2.507-11.975-6.672-.755-.787-3.505-3.557,3.367-13.827-6.464-1.273,5.172-12.175,5.388-.394,33.247-.066,13.791-1.582,14.076a9.176,9.176,0,0,0,.561,4.681l35.068.574a57.133,57.133,0,0,0,7.294-.823,3.672,3.672,0,0,0,3.064-3.347c.568-11.036.661-44.257.661-44.257Z" transform="translate(-129.8 -154.812)" fill="#f5f5f5"/><g transform="translate(30.853 10.848)"><path d="M187.011,237.754a.575.575,0,0,0,.02-.169c.006-.135.014-.3.023-.494q.019-.7.051-1.9c.025-1.689.06-4.071.1-7,.045-5.911.084-14.081-.274-23.1-.188-4.511-.466-8.811-1.013-12.7-.564-3.88-1.336-7.322-2.024-10.2s-1.326-5.181-1.764-6.774l-.518-1.83-.143-.473a.607.607,0,0,0-.061-.158.573.573,0,0,0,.025.168l.109.483q.167.682.451,1.849c.4,1.6.985,3.921,1.649,6.8s1.4,6.32,1.942,10.183c.525,3.864.793,8.157.981,12.66.359,9.009.36,17.176.381,23.086.006,2.929.01,5.312.014,7q.011,1.2.018,1.9c.005.2.01.361.014.5A.585.585,0,0,0,187.011,237.754Z" transform="translate(-181.407 -172.958)" fill="#263238"/></g><g transform="translate(14.181 25.131)"><path d="M165.362,196.853a6.267,6.267,0,0,0-.8.048l-2.343.209-8.533.837-.161.016.017.163c.411,3.91.9,8.587,1.434,13.641l.01.09.075.051c.409.279.85.56,1.3.835a25.12,25.12,0,0,0,2.446,1.322,7.075,7.075,0,0,0,2.631.762,5.194,5.194,0,0,0,2.567-.675,11.307,11.307,0,0,0,2.049-1.46q.46-.4.882-.821a1.752,1.752,0,0,0,.391-.5,2.567,2.567,0,0,0,.21-.581,8.811,8.811,0,0,0,.143-2.262,32.511,32.511,0,0,0-.479-3.982c-.424-2.411-.9-4.332-1.241-5.656-.172-.661-.316-1.172-.419-1.517a2.653,2.653,0,0,0-.179-.52,3.1,3.1,0,0,0,.1.54l.347,1.533c.294,1.332.728,3.259,1.115,5.664a33.518,33.518,0,0,1,.427,3.949,8.58,8.58,0,0,1-.153,2.165,1.671,1.671,0,0,1-.514.912c-.279.274-.57.54-.872.8a11.052,11.052,0,0,1-1.988,1.4,4.835,4.835,0,0,1-2.379.622,6.769,6.769,0,0,1-2.477-.732,25.127,25.127,0,0,1-2.405-1.3c-.446-.272-.887-.552-1.284-.822l.084.141c-.557-5.051-1.073-9.726-1.5-13.633l-.144.179,8.424-.989,2.366-.3.63-.087A1.244,1.244,0,0,0,165.362,196.853Z" transform="translate(-153.521 -196.848)" fill="#263238"/></g><g transform="translate(14.417 0.368)"><path d="M160.59,157.838a34.9,34.9,0,0,0-5.608-2.41l-1.068,5.444,15.14,7.05-.013-6.348S164.553,159.8,160.59,157.838Z" transform="translate(-153.915 -155.428)" fill="#f5f5f5"/></g><g transform="translate(14.555 28.577)"><path d="M154.147,203.97a48.908,48.908,0,0,0,6.189-.468,48.8,48.8,0,0,0,6.147-.861,48.929,48.929,0,0,0-6.189.468A48.712,48.712,0,0,0,154.147,203.97Z" transform="translate(-154.147 -202.612)" fill="#263238"/></g><g transform="translate(15.826 39.621)" opacity="0.3"><path d="M168.255,221.086a18.678,18.678,0,0,1-2.1,3.582,5.388,5.388,0,0,1-3.33,1.781,5.543,5.543,0,0,1-3.233-.858,8.476,8.476,0,0,1-3.319-4.1c-.1-.12,2.26,1.357,3.538,1.989a5.671,5.671,0,0,0,3.582.659c1.859-.206,3.483-1.791,4.86-3.056" transform="translate(-156.272 -221.086)"/></g><g transform="translate(15.918 6.326)" opacity="0.3"><path d="M170.046,166.254l1.244,7.737-14.863-8.6,13.638,6.536Z" transform="translate(-156.427 -165.394)"/></g><g transform="translate(30.204 14.592)"><path d="M182.485,179.22a217.99,217.99,0,0,1,5.9,32.145c.793,7.528,1.511,17.513,1.511,17.513l-3.241,4.267-5.292-4.411s-.4-21.246-.882-28.348c-.395-5.844.087-20.8.087-20.8Z" transform="translate(-180.323 -179.22)" fill="#adc46c"/></g><g transform="translate(29.586 8.73)"><path d="M179.289,170.195l1.232-.779,1.389,2.336.159,3.526-1.919.367-.855-2.04Z" transform="translate(-179.289 -169.415)" fill="#adc46c"/></g><g transform="translate(29.401 6.464)"><path d="M178.981,165.625c-.025.018.3.483.791,1.254s1.144,1.852,1.772,3.1l.149.3.1.2.088-.2a24.523,24.523,0,0,0,1.142-3.163c.116-.411.2-.745.247-.977a1.326,1.326,0,0,0,.056-.365c-.029-.007-.172.494-.438,1.3s-.662,1.917-1.2,3.121l.186,0-.149-.3a26.283,26.283,0,0,0-1.834-3.083c-.262-.377-.486-.674-.646-.875A1.453,1.453,0,0,0,178.981,165.625Z" transform="translate(-178.98 -165.624)" fill="#263238"/></g><g transform="translate(14.304 5.53)"><path d="M153.727,164.062a1.01,1.01,0,0,0,.206.115l.608.3,2.238,1.077c1.889.912,4.476,2.215,7.343,3.64,1.746.865,3.4,1.666,4.836,2.332l.132.062,0-.145c-.036-1.838-.067-3.386-.089-4.505-.017-.526-.03-.951-.04-1.27a2.767,2.767,0,0,0-.033-.45,2.6,2.6,0,0,0-.023.451c0,.319-.007.744-.011,1.27,0,1.12.008,2.668.014,4.506l.13-.083c-1.429-.68-3.077-1.487-4.822-2.352-2.865-1.425-5.466-2.708-7.371-3.588-.952-.441-1.728-.787-2.268-1.019l-.624-.26A1,1,0,0,0,153.727,164.062Z" transform="translate(-153.727 -164.061)" fill="#263238"/></g><g transform="translate(30.794 14.436)"><path d="M181.312,179.884c.032.047.362-.12.738-.373s.656-.5.624-.545-.362.12-.739.374S181.281,179.838,181.312,179.884Z" transform="translate(-181.31 -178.959)" fill="#263238"/></g><g transform="translate(30.444 10.597)"><path d="M180.731,176.24a19.462,19.462,0,0,0,1.5-3.7,19.506,19.506,0,0,0-1.5,3.7Z" transform="translate(-180.725 -172.537)" fill="#263238"/></g><g transform="translate(46.519 16.973)"><path d="M208.083,183.2a1.34,1.34,0,0,1,.039.341c.013.261.029.584.048.979.037.851.064,2.082.081,3.6.034,3.044-.027,7.248-.149,11.888s-.221,8.841-.246,11.881c-.01,1.484-.019,2.7-.025,3.6-.005.4-.01.719-.014.98a1.357,1.357,0,0,1-.027.342,1.339,1.339,0,0,1-.039-.341c-.013-.261-.029-.584-.048-.979-.037-.85-.064-2.082-.081-3.6-.034-3.044.027-7.249.149-11.89s.221-8.839.246-11.88c.01-1.485.019-2.7.025-3.6l.014-.98A1.357,1.357,0,0,1,208.083,183.2Z" transform="translate(-207.612 -183.202)" fill="#263238"/></g></g><path d="M150.167,119.4l6.888-1.056a14.407,14.407,0,0,0-.334-1.732c-.163-.483-6.654.818-6.654.818S150.15,119.155,150.167,119.4Z" transform="translate(-133.132 -104.503)" fill="#f5f5f5"/><g transform="translate(3.686 56.236)"><path d="M127.913,190.5c.084-.017.838,3.31,1.685,7.429s1.464,7.475,1.38,7.492-.838-3.308-1.685-7.429S127.829,190.515,127.913,190.5Z" transform="translate(-127.905 -190.498)" fill="#263238"/></g></g><g transform="translate(29.353 118.547)"><g transform="translate(11.836 171.828)"><g transform="translate(6.386)"><path d="M63.234,432.371l-3.4,18.191,8.49,1.043,5.314-17.329Z" transform="translate(-59.833 -432.371)" fill="#ffbf9d"/></g><g transform="translate(0 14.224)"><g transform="translate(0 0.501)"><path d="M64.984,458.154S58.3,461.084,56.128,457l-1.078,1.565L49.33,470.094a1.653,1.653,0,0,0,.563,2.139,1.683,1.683,0,0,0,1.778.014c2.862-1.776,13.356-8.359,13.488-9.5l.547-3a1.551,1.551,0,0,0-.722-1.593Z" transform="translate(-49.15 -457.001)" fill="#455a64"/></g><g transform="translate(1.015 5.204)" opacity="0.6"><path d="M50.849,475.535l15.2-10.667-.13.653c-.074.72-.446.939-.879,1.325-1.284,1.145-4.7,3.6-12.638,8.575a1.683,1.683,0,0,1-1.553.114Z" transform="translate(-50.849 -464.868)" fill="#fff"/></g><g transform="translate(14.165 2.823)" opacity="0.6"><path d="M73.419,460.96a.957.957,0,0,0-.516,1.194.977.977,0,0,0,1.214.521A.929.929,0,1,0,73.334,461" transform="translate(-72.845 -460.885)" fill="#fff"/></g><g transform="translate(3.065 7.581)"><path d="M57.181,471.121a4.987,4.987,0,0,0-1.149-1.474,5.167,5.167,0,0,0-1.754-.7c-.006-.041.218-.121.6-.1a2.638,2.638,0,0,1,1.369.526,2.553,2.553,0,0,1,.876,1.156C57.243,470.883,57.223,471.116,57.181,471.121Z" transform="translate(-54.278 -468.844)" fill="#263238"/></g><g transform="translate(1.656 10.148)"><path d="M54.7,474.687c-.088.052-.5-.55-1.27-.94a13.866,13.866,0,0,0-1.506-.5,1.873,1.873,0,0,1,1.67.2C54.469,473.892,54.786,474.662,54.7,474.687Z" transform="translate(-51.92 -473.139)" fill="#263238"/></g><g transform="translate(4.49 5.016)"><path d="M60.761,467.167a16.587,16.587,0,0,0-1.86-1.579,16.873,16.873,0,0,0-2.241-1,3.75,3.75,0,0,1,2.43.708A3.629,3.629,0,0,1,60.761,467.167Z" transform="translate(-56.661 -464.554)" fill="#263238"/></g><g transform="translate(5.5 2.793)"><path d="M62.443,462.019c-.061.084-.864-.445-1.993-.711-1.126-.281-2.083-.179-2.1-.281a4.2,4.2,0,0,1,4.092.992Z" transform="translate(-58.351 -460.836)" fill="#263238"/></g><g transform="translate(5.229)"><path d="M59.626,459.27a1.3,1.3,0,0,1,.2-.56,4.087,4.087,0,0,1,1.032-1.269,1.868,1.868,0,0,1,1.076-.519.673.673,0,0,1,.643.406,1.028,1.028,0,0,1-.027.751,2.329,2.329,0,0,1-2.69,1.211,2.7,2.7,0,0,1-1.962-2.25.893.893,0,0,1,.243-.723.661.661,0,0,1,.759-.065,2.3,2.3,0,0,1,.788.886,4.568,4.568,0,0,1,.569,1.533,1.359,1.359,0,0,1,.028.594,7.282,7.282,0,0,0-.811-2,2.146,2.146,0,0,0-.706-.756.354.354,0,0,0-.414.032.613.613,0,0,0-.131.485,2.406,2.406,0,0,0,1.724,1.931,2.024,2.024,0,0,0,2.3-1,.747.747,0,0,0,.042-.524.364.364,0,0,0-.352-.229,1.7,1.7,0,0,0-.919.423A6.03,6.03,0,0,0,59.626,459.27Z" transform="translate(-57.897 -456.164)" fill="#263238"/></g></g></g><g transform="translate(26.392 170.484)"><path d="M83.9,430.125l3.4,18.191-8.49,1.043L73.5,432.029Z" transform="translate(-73.499 -430.125)" fill="#ffbf9d"/><g transform="translate(3.611 14.224)"><g transform="translate(0 0.501)"><path d="M80.285,455.907s6.688,2.93,8.856-1.153l1.078,1.565,5.719,11.529a1.652,1.652,0,0,1-.564,2.138A1.682,1.682,0,0,1,93.6,470c-2.862-1.776-13.356-8.359-13.488-9.5l-.546-3a1.55,1.55,0,0,1,.722-1.593Z" transform="translate(-79.539 -454.754)" fill="#455a64"/></g><g transform="translate(0.365 5.204)" opacity="0.6"><path d="M95.348,473.288l-15.2-10.667.13.653c.074.72.446.939.879,1.325,1.284,1.145,4.7,3.6,12.638,8.575a1.682,1.682,0,0,0,1.552.115Z" transform="translate(-80.149 -462.621)" fill="#fff"/></g><g transform="translate(0.526 2.823)" opacity="0.6"><path d="M81.732,458.713a.958.958,0,0,1,.516,1.194.977.977,0,0,1-1.214.521.929.929,0,1,1,.783-1.673" transform="translate(-80.419 -458.638)" fill="#fff"/></g><g transform="translate(10.579 7.581)"><path d="M97.266,468.874a5,5,0,0,1,1.149-1.474,5.174,5.174,0,0,1,1.753-.7c.007-.04-.218-.12-.6-.1a2.642,2.642,0,0,0-1.37.526,2.547,2.547,0,0,0-.875,1.156C97.2,468.636,97.224,468.869,97.266,468.874Z" transform="translate(-97.234 -466.598)" fill="#263238"/></g><g transform="translate(12.133 10.148)"><path d="M99.848,472.44c.088.051.5-.55,1.27-.941a13.853,13.853,0,0,1,1.506-.5,1.876,1.876,0,0,0-1.67.2C100.075,471.645,99.758,472.415,99.848,472.44Z" transform="translate(-99.833 -470.892)" fill="#263238"/></g><g transform="translate(7.98 5.016)"><path d="M92.9,464.921a16.44,16.44,0,0,1,1.86-1.579,16.842,16.842,0,0,1,2.24-1,3.748,3.748,0,0,0-2.43.708A3.629,3.629,0,0,0,92.9,464.921Z" transform="translate(-92.887 -462.307)" fill="#263238"/></g><g transform="translate(6.983 2.793)"><path d="M91.223,459.772c.061.084.864-.445,1.993-.711,1.126-.281,2.083-.178,2.1-.281a4.2,4.2,0,0,0-4.092.992Z" transform="translate(-91.22 -458.589)" fill="#263238"/></g><g transform="translate(6.611)"><path d="M93.608,457.023a1.328,1.328,0,0,0-.2-.56,4.087,4.087,0,0,0-1.032-1.269,1.871,1.871,0,0,0-1.076-.519.673.673,0,0,0-.643.406,1.028,1.028,0,0,0,.028.751,2.329,2.329,0,0,0,2.69,1.211,2.694,2.694,0,0,0,1.962-2.249.891.891,0,0,0-.243-.723.661.661,0,0,0-.759-.065,2.3,2.3,0,0,0-.789.886,4.578,4.578,0,0,0-.569,1.533,1.382,1.382,0,0,0-.029.594,7.289,7.289,0,0,1,.811-2,2.155,2.155,0,0,1,.706-.756.354.354,0,0,1,.414.032.616.616,0,0,1,.131.485,2.406,2.406,0,0,1-1.724,1.93,2.023,2.023,0,0,1-2.3-1,.743.743,0,0,1-.042-.523.363.363,0,0,1,.352-.229,1.692,1.692,0,0,1,.919.423A6.03,6.03,0,0,1,93.608,457.023Z" transform="translate(-90.597 -453.917)" fill="#263238"/></g></g></g><g transform="translate(13.463)"><path d="M55.688,186.8l-3.815,1.737s3.378-21.056,4.194-26.328c1.312-8.477,4.921-18.173,17.043-17.179,0,0,9.131.714,11.761,7.34,1.423,3.587,1.52,13.211,1.765,24.264l.213,1.9c1.1,4.791,1.239,8.18,2.6,12.891,1.776,6.13,1.776,18.059.587,25.1l-10.19.989Z" transform="translate(-51.873 -144.955)" fill="#263238"/></g><g transform="translate(23.526 1.758)"><g transform="translate(0.951 0.451)"><path d="M82.013,149.4l-.774-.753-8.482,3.317a2.357,2.357,0,0,0-2.25,2.259l-.21,27.522a7.713,7.713,0,0,0,1.438,4.985l1.17,1.579a6.23,6.23,0,0,0,10.417-.55,3.005,3.005,0,0,0,.306-.708,5.638,5.638,0,0,0,.132-.615c.274-2.211.308-4.131.308-4.131.176-2.43.236-3.426.236-3.4,0,0,5.18-.542,6.647-7.168.73-3.3.646-7.84.5-12.314C91.241,153.231,86.987,149.448,82.013,149.4Z" transform="translate(-70.295 -148.65)" fill="#ffbf9d"/></g><g transform="translate(9.437 14.699)"><path d="M86.207,173.309a.86.86,0,0,1-.879.816.822.822,0,0,1-.838-.827.86.86,0,0,1,.878-.816A.823.823,0,0,1,86.207,173.309Z" transform="translate(-84.49 -172.482)" fill="#263238"/></g><g transform="translate(18.02 14.787)"><path d="M100.564,173.458a.859.859,0,0,1-.879.815.823.823,0,0,1-.838-.827.861.861,0,0,1,.879-.816A.823.823,0,0,1,100.564,173.458Z" transform="translate(-98.847 -172.63)" fill="#263238"/></g><g transform="translate(17.813 11.976)"><path d="M101.89,168.935c-.113.105-.734-.415-1.658-.469s-1.628.368-1.721.249c-.046-.053.075-.249.383-.446a2.361,2.361,0,0,1,1.386-.337,2.263,2.263,0,0,1,1.311.512C101.861,168.68,101.945,168.888,101.89,168.935Z" transform="translate(-98.501 -167.928)" fill="#263238"/></g><g transform="translate(8.48 11.786)"><path d="M86.235,168.806c-.124.093-.689-.488-1.6-.636s-1.657.2-1.738.07c-.04-.057.1-.24.426-.4a2.356,2.356,0,0,1,1.414-.193,2.266,2.266,0,0,1,1.251.644C86.232,168.549,86.3,168.765,86.235,168.806Z" transform="translate(-82.89 -167.61)" fill="#263238"/></g><g transform="translate(14.984 12.022)"><path d="M93.768,175.723a6.133,6.133,0,0,1,1.516-.18c.237-.01.463-.043.513-.2a1.2,1.2,0,0,0-.115-.708l-.589-1.838A31.042,31.042,0,0,1,93.811,168a30.88,30.88,0,0,1,1.665,4.676c.194.644.381,1.258.558,1.846a1.37,1.37,0,0,1,.066.933.594.594,0,0,1-.409.321,1.6,1.6,0,0,1-.4.032A6,6,0,0,1,93.768,175.723Z" transform="translate(-93.768 -168.004)" fill="#263238"/></g><g transform="translate(6.145 27.774)"><path d="M87.8,197.284a17.054,17.054,0,0,1-8.816-2.932s1.973,4.768,8.707,4.547Z" transform="translate(-78.983 -194.352)" fill="#ff9a6c"/></g><g transform="translate(11.668 21.233)"><path d="M91.012,184.121a1.666,1.666,0,0,0-1.455-.708,1.518,1.518,0,0,0-1.083.5.965.965,0,0,0-.14,1.1,1.119,1.119,0,0,0,1.192.379,3.5,3.5,0,0,0,1.223-.633,1.023,1.023,0,0,0,.28-.257.309.309,0,0,0,.019-.344" transform="translate(-88.221 -183.411)" fill="#ff9a6c"/></g><g transform="translate(12.045 20.215)"><path d="M89.035,181.709c.151,0,.092,1,.907,1.766s1.889.717,1.888.858c.01.064-.25.181-.7.165a2.5,2.5,0,0,1-1.579-.659,2.175,2.175,0,0,1-.7-1.477C88.84,181.94,88.967,181.7,89.035,181.709Z" transform="translate(-88.852 -181.708)" fill="#263238"/></g><g transform="translate(8.514 8.367)"><path d="M87.18,162.914c-.131.234-1.023-.033-2.115-.08-1.092-.068-2.006.1-2.112-.142-.045-.117.143-.326.531-.509a3.68,3.68,0,0,1,3.221.169C87.072,162.575,87.238,162.8,87.18,162.914Z" transform="translate(-82.946 -161.891)" fill="#263238"/></g><g transform="translate(17.976 7.955)"><path d="M101.907,162.259c-.175.2-.8-.056-1.562-.112-.762-.084-1.421.055-1.557-.173-.059-.11.056-.314.351-.5a2.269,2.269,0,0,1,2.513.23C101.909,161.94,101.985,162.161,101.907,162.259Z" transform="translate(-98.773 -161.202)" fill="#263238"/></g><path d="M69.915,165.669s4.716,1.521,7.514-10.129c.957-3.983,4.692-7.179,4.692-7.179l-1.5-.467s-9.357,2.532-9.516,2.648-2.4,4.8-2.4,4.8Z" transform="translate(-68.705 -147.895)" fill="#263238"/></g><path d="M46.243,334.592,58.1,387.207l6.668,19.878,10.482-2.96-5.174-69.049Z" transform="translate(-36.146 -221.22)" fill="#263238"/><path d="M53.847,244.606s-6.744,16.4-7.409,21.9-1.523,16.21-1.523,16.21l43.111,1.1s1.964-8.22,0-23.806a52.268,52.268,0,0,0-4.34-14.428c-.442-1.268,2.748-23.141,2.748-23.141l-.343-13.452-4.933-2.955H74.04c-3.914,4.84-8.856,2.476-14.008-.207-1.964-1.023-9.567,4.545-9.567,4.545s-.1,11.64,1.066,19.363C52.637,237.042,53.847,244.606,53.847,244.606Z" transform="translate(-35.611 -169.383)" fill="#80cab6"/><g transform="translate(0 39.229)"><g transform="translate(0.673 56.961)"><path d="M35.7,309.44a4.07,4.07,0,0,0,1.126,2.406,9.73,9.73,0,0,1,1.529,3.31s.81,4.585,1,6.072.194,2.847-.985,2.566-1.53-1.18-1.719-3.909l-.68-1.445-.645,1.1-.161,4.372s2.944,2.889,2.731,3.71-.776.681-.776.681l-.489.456-4.527-3.3-1.622-5.8.579-7.433.065-5.791,4.871-.583Z" transform="translate(-30.479 -305.852)" fill="#ffbf9d"/></g><path d="M47.287,210.574s-8.461,2.723-9.608,7.8-2.838,20.5-3.182,22.614-1.918,5.526-2.923,11.841c-1.164,7.318-2.22,17.377-2.22,17.377l6.692.451s3.64-8.773,5.538-15.552c1.851-6.613,2.786-9.107,3.721-12.674a46.334,46.334,0,0,0,1.459-9.94Z" transform="translate(-29.353 -210.574)" fill="#80cab6"/></g><path d="M47.826,217.156s1.107-1.058.515-1.594-2.792-.6-2.792-.6,2.21-.932,2.39-2.251-.423-1.706-.836-1.495-1.576,1.447-2.44,1.988a19.368,19.368,0,0,0-2.256,1.891,1.289,1.289,0,0,0-.247,1.949s-1.646,1.305-.762,2.241c0,0-1.385.854-.787,1.965l.41.745s-1.226.714.066,2.164l2.106-2.037s1.917.007,2.094-.778a4.215,4.215,0,0,0,.114-1.3s2.347-.394,2.614-1.224A2.361,2.361,0,0,0,47.826,217.156Z" transform="translate(-33.82 -171.583)" fill="#ae7461"/><g transform="translate(6.64 63.789)"><path d="M40.464,251.655c.111.175.228.347.356.514C40.563,252.175,40.437,251.9,40.464,251.655Z" transform="translate(-40.46 -251.655)" fill="#263238"/></g><g transform="translate(16.836 2.219)"><path d="M68.586,198.535c.893-3.359,2.26-6.675,2.191-10.151-.067-3.335-1.452-6.477-2.516-9.638s-1.813-6.666-.626-9.783a38.918,38.918,0,0,1,2.69-4.718c.876-1.588,7.377-13.885,6.73-15.579l-17.09,7.754c-1.979,10.8-2.995,28.5-2.152,38.231.258,2.983,2.483,16.84,4.01,19.415.453.763,4.749,1.652,4.749,1.652s.282-2.755.314-2.558a33.257,33.257,0,0,0,.908,3.692c1.214,1.036,3.075,2.376,4.373,2.157C70.287,216.086,67.693,201.894,68.586,198.535Z" transform="translate(-57.515 -148.666)" fill="#263238"/></g><g transform="translate(18.859 113.857)"><path d="M72.116,335.4c-.562,2.622-5.259,21.712-5,29.1s-3.668,27.932-4.184,30.988c-.652,3.866-1.741,11.72-1.741,11.72l9.015,1.031S81.5,380.236,82.545,372.251,84.9,359.5,86.729,356.4s7.844-20.426,7.844-20.426" transform="translate(-61.017 -335.403)" fill="#263238"/><path d="M94.453,335.974s-.033.129-.114.375-.207.618-.366,1.091c-.336.966-.826,2.373-1.457,4.184s-1.438,4.032-2.4,6.6c-.479,1.283-1,2.652-1.576,4.1q-.43,1.084-.918,2.217l-.517,1.139c-.195.376-.393.765-.6,1.134a23.824,23.824,0,0,0-1.97,5.009,56.192,56.192,0,0,0-1.266,5.727c-.177,1-.332,2.021-.483,3.06l-.215,1.573q-.14.793-.283,1.6c-.472,2.124-1.072,4.28-1.77,6.464-1.371,4.376-2.981,8.916-4.715,13.6s-3.6,9.523-5.569,14.458l-.044.11-.118-.013-2.643-.3-6.371-.729-.16-.019.023-.157q.563-3.783,1.11-7.457.274-1.837.542-3.641c.176-1.2.414-2.388.619-3.564.847-4.7,1.62-9.226,2.269-13.54.627-4.315,1.2-8.418,1.383-12.269.068-.966.016-1.9.038-2.839-.017-.938.071-1.85.129-2.746.176-1.785.391-3.49.655-5.1,1.041-6.466,2.222-11.606,3.023-15.15l.957-4.066c.111-.457.2-.806.256-1.054s.1-.356.1-.356-.017.124-.066.363l-.227,1.061c-.209.942-.512,2.312-.9,4.079-.766,3.549-1.915,8.7-2.928,15.156-.257,1.614-.464,3.316-.633,5.093-.054.89-.138,1.8-.118,2.724-.02.921.036,1.887-.029,2.85-.173,3.872-.737,7.978-1.356,12.3-.641,4.32-1.409,8.851-2.25,13.553-.2,1.177-.439,2.358-.615,3.561l-.539,3.639-1.105,7.452-.136-.176,6.372.728,2.643.3-.162.1c1.972-4.931,3.833-9.765,5.574-14.447s3.352-9.218,4.728-13.583c.7-2.178,1.3-4.328,1.776-6.434q.143-.8.283-1.579.111-.794.219-1.576c.154-1.041.312-2.064.493-3.066a56.041,56.041,0,0,1,1.29-5.748,23.956,23.956,0,0,1,2.008-5.049c.219-.38.409-.75.6-1.12l.518-1.13q.491-1.126.925-2.207c.583-1.439,1.11-2.8,1.6-4.083.972-2.559,1.783-4.771,2.444-6.578l1.511-4.164q.257-.7.4-1.081C94.4,336.1,94.453,335.974,94.453,335.974Z" transform="translate(-60.898 -335.403)" fill="#455a64"/></g><g transform="translate(48.817 44.667)"><path d="M111.017,219.669a2.318,2.318,0,0,1,.218.57c.124.372.277.918.444,1.6a33.842,33.842,0,0,1,.805,10.883c-.065.7-.136,1.26-.2,1.646a2.324,2.324,0,0,1-.132.6c-.049-.007.042-.866.115-2.257a42.305,42.305,0,0,0-.8-10.82C111.186,220.519,110.969,219.682,111.017,219.669Z" transform="translate(-111.01 -219.669)" fill="#263238"/></g><g transform="translate(14.071 49.818)"><path d="M52.9,228.285a5.366,5.366,0,0,1,.155.908c.1.641.223,1.475.374,2.48l1.311,8.169L56.125,248c.179,1,.328,1.83.443,2.468a5.4,5.4,0,0,1,.144.91,5.087,5.087,0,0,1-.263-.884c-.141-.576-.329-1.414-.54-2.452-.423-2.077-.948-4.958-1.476-8.149s-.954-6.087-1.221-8.19c-.134-1.052-.225-1.905-.277-2.5A5.069,5.069,0,0,1,52.9,228.285Z" transform="translate(-52.889 -228.285)" fill="#263238"/></g><g transform="translate(25.001 77.509)"><path d="M82.812,274.617a8.9,8.9,0,0,1-1.68.379c-1.046.189-2.5.414-4.106.609s-3.073.323-4.133.389a8.89,8.89,0,0,1-1.722.032,10.083,10.083,0,0,1,1.7-.252l4.116-.479,4.11-.517A9.968,9.968,0,0,1,82.812,274.617Z" transform="translate(-71.172 -274.605)" fill="#263238"/></g><g transform="translate(27.62 77.047)"><path d="M90.3,273.836c.033.08-3.243,1.511-7.315,3.2s-7.4,2.989-7.435,2.91,3.241-1.511,7.315-3.2S90.269,273.756,90.3,273.836Z" transform="translate(-75.553 -273.832)" fill="#263238"/></g></g><g transform="translate(64.773 79.291)"><g transform="translate(0.142 0.142)"><path d="M115.968,105l-1.135-4.21a14.032,14.032,0,1,0-3.334,3.763l0,.007Z" transform="translate(-88.837 -79.529)" fill="#fff"/></g><path d="M115.872,104.9s-.106-.017-.3-.041l-.863-.1-3.3-.365.045.1,0-.007a.065.065,0,0,0-.012-.091.066.066,0,0,0-.08,0,14.031,14.031,0,0,1-6.25,2.745,14.1,14.1,0,0,1-9.185-1.629,13.852,13.852,0,0,1-3.594-21.192l.572-.634.625-.576a14.762,14.762,0,0,1,1.316-1.053,14.062,14.062,0,0,1,9.223-2.421,13.936,13.936,0,0,1,10.61,21.015l-.006.051c.38,1.343.673,2.38.876,3.1l.234.81c.053.184.087.283.087.283a2.323,2.323,0,0,0-.06-.262l-.2-.8-.812-3.164-.007.05a13.948,13.948,0,0,0,2.046-6.586A14.162,14.162,0,0,0,104.1,79.351a14.334,14.334,0,0,0-9.425,2.462,15.021,15.021,0,0,0-1.346,1.076l-.638.589-.585.647a14.133,14.133,0,0,0,3.7,21.617,14.011,14.011,0,0,0,4.832,1.649,13.853,13.853,0,0,0,4.514-.045,14.028,14.028,0,0,0,6.3-2.841l-.092-.09,0,.006a.065.065,0,0,0,.012.091.073.073,0,0,0,.034.013l3.355.29.847.069C115.784,104.9,115.877,104.9,115.872,104.9Z" transform="translate(-88.599 -79.291)" fill="#263238"/><g transform="translate(6.516 8.598)"><path d="M106.863,106,99.5,101.072l1.719-2.57,4.939,3.3,6.145-8.132,2.467,1.864Z" transform="translate(-99.498 -93.673)" fill="#ff725e"/></g></g></g></g></svg>