<svg xmlns="http://www.w3.org/2000/svg" xmlns:xlink="http://www.w3.org/1999/xlink" width="247.811" height="258.666" viewBox="0 0 247.811 258.666"><defs><linearGradient id="a" x1="0.5" x2="0.5" y2="1" gradientUnits="objectBoundingBox"><stop offset="0" stop-color="#0540b7"/><stop offset="1" stop-color="#03205c"/></linearGradient></defs><g transform="translate(5484 6058)"><g transform="translate(-5532.126 -6090.44)"><g transform="translate(99.033 32.44)"><g transform="translate(0 11.126)"><g transform="translate(0.128 0.127)"><rect width="131.432" height="186.549" rx="9.235" fill="#e0e0e0"/></g><path d="M262.92,238.468s.137-.012.406-.027a5.727,5.727,0,0,0,1.183-.229,5.483,5.483,0,0,0,1.737-.942,5.326,5.326,0,0,0,1.594-2.2,5.05,5.05,0,0,0,.345-1.605c.03-.58.006-1.2.013-1.84q0-1.933-.006-4.223c0-3.053-.007-6.575-.012-10.54-.01-15.862-.024-38.812-.04-67.169-.005-14.18-.01-29.711-.016-46.384q0-12.5-.007-25.84,0-6.661,0-13.513-.005-3.423-.01-6.892a5.174,5.174,0,0,0-4.036-4.9,7.325,7.325,0,0,0-1.724-.132H249.873l-14.561,0-30.033,0-63.156,0a5.183,5.183,0,0,0-5.185,4.927c-.026,2.676-.007,5.365-.013,8.034q0,8.014,0,15.919,0,15.806,0,31.124c0,20.406-.005,40.088-.007,58.838s-.008,36.567-.012,53.242q0,3.127,0,6.2c0,1.022-.012,2.048.01,3.054a5.158,5.158,0,0,0,.942,2.774,5.267,5.267,0,0,0,2.269,1.816,5.6,5.6,0,0,0,1.412.361c.481.043.978.033,1.472.033l5.863,0,22.258.009,67.165.04,18.261.024,4.748.013c1.07,0,1.618.013,1.618.013s-.549.009-1.618.013l-4.748.013-18.261.024-67.165.04-22.258.008-5.863,0c-.493,0-.987.01-1.493-.034a5.757,5.757,0,0,1-1.468-.374,5.469,5.469,0,0,1-2.358-1.885,5.364,5.364,0,0,1-.981-2.883c-.024-1.023-.007-2.036-.013-3.063q0-3.072,0-6.2c0-16.674-.007-34.492-.012-53.242s0-38.432-.007-58.838q0-15.3,0-31.124,0-7.9,0-15.919c.006-2.674-.013-5.346.014-8.047a5.435,5.435,0,0,1,5.438-5.168l63.156,0,30.033,0,14.561,0h12.472a7.568,7.568,0,0,1,1.776.139,5.406,5.406,0,0,1,4.216,5.119q0,3.472.007,6.9,0,6.851,0,13.513,0,13.322-.006,25.84c-.005,16.673-.011,32.2-.016,46.384-.017,28.357-.03,51.307-.04,67.169,0,3.965-.008,7.487-.012,10.54q0,2.29-.006,4.223c-.008.645.014,1.257-.019,1.843a5.089,5.089,0,0,1-.354,1.62,5.359,5.359,0,0,1-1.617,2.207,5.467,5.467,0,0,1-1.753.937,5.59,5.59,0,0,1-1.19.218C263.057,238.465,262.92,238.468,262.92,238.468Z" transform="translate(-136.669 -51.792)" fill="#263238"/><g transform="translate(11.595 147.304)" opacity="0.3"><path d="M156.837,343.157H267.145l-1.21-22.943V308l-109.1,17.047Z" transform="translate(-156.837 -308.001)"/></g><g transform="translate(98.689 0.508)" opacity="0.3"><path d="M308.64,52.675l2.507,7.434v3.643h-2.826Z" transform="translate(-308.321 -52.675)"/></g><g transform="translate(5.863 7.474)"><path d="M147.088,65.013V236.376H266.8V65.013Z" transform="translate(-146.961 -64.886)" fill="#fff"/><path d="M266.7,205.64s-.006-.222-.009-.658-.005-1.09-.009-1.947c0-1.72-.01-4.268-.017-7.586-.007-6.641-.018-16.367-.032-28.712-.011-24.7-.027-59.876-.046-101.818l.113.113-119.708.014.127-.127v.152c-.012,65.875-.024,126.034-.032,171.211l-.1-.1,65.353.043,17.821.025,4.641.014c1.046,0,1.582.014,1.582.014s-.536.01-1.582.014l-4.641.014-17.821.025-65.353.042h-.1v-.1c-.009-45.177-.02-105.336-.032-171.211v-.279h.127l119.708.014h.113v.113c-.018,41.941-.035,77.12-.045,101.818-.014,12.346-.025,22.071-.032,28.712-.007,3.318-.013,5.866-.017,7.586,0,.857-.007,1.508-.009,1.947S266.7,205.64,266.7,205.64Z" transform="translate(-146.867 -64.792)" fill="#263238"/></g></g><g transform="translate(38.44)"><g transform="translate(0 6.607)"><path d="M6.325,0H54.243a6.326,6.326,0,0,1,6.326,6.326V17.568a0,0,0,0,1,0,0H0a0,0,0,0,1,0,0V6.325A6.325,6.325,0,0,1,6.325,0Z" fill="#263238"/></g><g transform="translate(22.577)"><path d="M258.212,32.44H242.8l1.8,13.214H256.21Z" transform="translate(-242.796 -32.44)" fill="#263238"/></g><g transform="translate(3.891 6.48)"><path d="M263.082,43.837c0,.071-11.818.128-26.393.128s-26.395-.057-26.395-.128,11.816-.127,26.395-.127S263.082,43.767,263.082,43.837Z" transform="translate(-210.295 -43.71)" fill="#455a64"/></g><g transform="translate(1.229 10.24)"><path d="M205.792,61.351c-.07,0-.127-2.485-.127-5.549s.057-5.55.127-5.55.127,2.484.127,5.55S205.862,61.351,205.792,61.351Z" transform="translate(-205.665 -50.251)" fill="#455a64"/></g><g transform="translate(58.481 9.948)"><path d="M305.372,59.821a50.081,50.081,0,0,1-.127-5.039,50.071,50.071,0,0,1,.127-5.039,50.071,50.071,0,0,1,.127,5.039A50.081,50.081,0,0,1,305.372,59.821Z" transform="translate(-305.245 -49.743)" fill="#455a64"/></g><g transform="translate(1.502 22.236)"><path d="M260.326,71.242c0,.07-12.131.127-27.092.127s-27.094-.057-27.094-.127,12.128-.127,27.094-.127S260.326,71.172,260.326,71.242Z" transform="translate(-206.14 -71.115)" fill="#455a64"/></g></g><g transform="translate(22.42 49.879)"><g transform="translate(22.012 1.735)"><rect width="66.11" height="4.063" fill="#e0e0e0"/></g><g transform="translate(22.012 10.036)"><rect width="29.992" height="4.035" fill="#e0e0e0"/></g><rect width="15.285" height="15.285" rx="3.863" fill="url(#a)"/><g transform="translate(3.141 4.001)"><path d="M185.411,133.438l-4.282-3.309,1.155-1.494,2.871,2.219,4.083-4.7,1.425,1.239Z" transform="translate(-181.129 -126.155)" fill="#fff"/></g></g><g transform="translate(44.432 76.775)"><rect width="66.11" height="4.063" fill="#e0e0e0"/></g><g transform="translate(44.432 85.076)"><rect width="29.992" height="4.036" fill="#e0e0e0"/></g><g transform="translate(22.42 75.04)"><rect width="15.285" height="15.285" rx="3.863" fill="url(#a)"/><g transform="translate(3.141 4.001)"><path d="M185.411,177.2l-4.282-3.309,1.155-1.494,2.871,2.219,4.083-4.7,1.425,1.239Z" transform="translate(-181.129 -169.917)" fill="#fff"/></g></g><g transform="translate(44.432 103.733)"><rect width="66.11" height="4.063" fill="#e0e0e0"/></g><g transform="translate(44.432 112.034)"><rect width="29.992" height="4.035" fill="#e0e0e0"/></g><g transform="translate(44.432 128.656)"><rect width="66.11" height="4.063" fill="#e0e0e0"/></g><g transform="translate(44.432 136.956)"><rect width="29.992" height="4.035" fill="#e0e0e0"/></g><g transform="translate(22.42 101.998)"><rect width="15.285" height="15.285" rx="3.863" fill="url(#a)"/><g transform="translate(3.141 4.001)"><path d="M185.411,224.089l-4.282-3.309,1.155-1.494,2.871,2.219,4.083-4.7,1.425,1.239Z" transform="translate(-181.129 -216.806)" fill="#fff"/></g></g><g transform="translate(22.161 127.371)"><path d="M188.756,269.781h-11.28a2.264,2.264,0,0,1-2.262-2.262v-11.28a2.264,2.264,0,0,1,2.262-2.261h11.28a2.264,2.264,0,0,1,2.262,2.261v11.28A2.264,2.264,0,0,1,188.756,269.781ZM177.476,254.5a1.745,1.745,0,0,0-1.743,1.743v11.28a1.746,1.746,0,0,0,1.743,1.744h11.28a1.746,1.746,0,0,0,1.743-1.744v-11.28a1.745,1.745,0,0,0-1.743-1.743Z" transform="translate(-175.214 -253.978)" fill="#0540b7"/></g><g transform="translate(44.432 157.164)"><rect width="66.11" height="4.063" fill="#e0e0e0"/></g><g transform="translate(44.432 165.465)"><rect width="29.992" height="4.035" fill="#e0e0e0"/></g><g transform="translate(22.161 155.879)"><path d="M188.756,319.366h-11.28a2.264,2.264,0,0,1-2.262-2.262v-11.28a2.264,2.264,0,0,1,2.262-2.261h11.28a2.264,2.264,0,0,1,2.262,2.261V317.1A2.264,2.264,0,0,1,188.756,319.366Zm-11.28-15.285a1.745,1.745,0,0,0-1.743,1.743V317.1a1.746,1.746,0,0,0,1.743,1.744h11.28A1.746,1.746,0,0,0,190.5,317.1v-11.28a1.745,1.745,0,0,0-1.743-1.743Z" transform="translate(-175.214 -303.563)" fill="#0540b7"/></g><rect width="65.913" height="5.643" transform="translate(36.475 35.88)" fill="url(#a)"/></g><g transform="translate(216.171 122.198)"><g transform="translate(0.125 0.125)"><path d="M364.167,206.49,363,203.717a11.474,11.474,0,1,0-1.936,3.627l0,.006Z" transform="translate(-340.627 -188.775)" fill="#fff"/></g><path d="M364.074,206.4a1.532,1.532,0,0,1-.189.063l-.586.175-2.316.674a.055.055,0,0,1-.068-.037.061.061,0,0,1,0-.038l0-.006.093.056a11.407,11.407,0,0,1-4.369,3.418,11.81,11.81,0,0,1-3.548.939,11.548,11.548,0,0,1-4.157-.356,11.8,11.8,0,0,1-4.112-2.086,11.316,11.316,0,0,1-3.17-3.849,11.83,11.83,0,0,1-1.245-5.157,11.612,11.612,0,0,1,5.034-9.608,11.788,11.788,0,0,1,5-1.922,11.278,11.278,0,0,1,5.012.452,11.807,11.807,0,0,1,4.063,2.257,11.589,11.589,0,0,1,2.637,3.267l.421.881c.131.292.223.593.333.881a10.4,10.4,0,0,1,.444,1.721,11.409,11.409,0,0,1-.4,5.516l0-.037c.362.9.646,1.594.845,2.085l.21.532a1.314,1.314,0,0,1,.064.177,1.969,1.969,0,0,1-.089-.187l-.239-.535-.889-2.03a.056.056,0,0,1,0-.037,11.446,11.446,0,0,0,.332-5.453,10.313,10.313,0,0,0-.452-1.691c-.11-.282-.2-.579-.333-.864l-.42-.862a11.431,11.431,0,0,0-2.606-3.193,11.613,11.613,0,0,0-3.991-2.195,11.056,11.056,0,0,0-4.9-.429,11.566,11.566,0,0,0-4.885,1.886,11.368,11.368,0,0,0-4.918,9.386,11.6,11.6,0,0,0,1.209,5.042,11.089,11.089,0,0,0,3.09,3.774A11.6,11.6,0,0,0,349,211.069a11.385,11.385,0,0,0,4.078.372,11.689,11.689,0,0,0,3.5-.9,11.443,11.443,0,0,0,4.353-3.325.055.055,0,0,1,.077-.01.057.057,0,0,1,.016.066l0,.006-.065-.075,2.3-.6.605-.154A1.993,1.993,0,0,1,364.074,206.4Z" transform="translate(-340.41 -188.558)" fill="#263238"/><g transform="translate(6.414 10.634)"><circle cx="1.253" cy="1.253" r="1.253" fill="#263238"/><g transform="translate(4.221)"><path d="M361.414,208.306a1.253,1.253,0,1,1-1.253-1.253A1.253,1.253,0,0,1,361.414,208.306Z" transform="translate(-358.908 -207.053)" fill="#263238"/></g><g transform="translate(8.33)"><circle cx="1.253" cy="1.253" r="1.253" fill="#263238"/></g></g></g><g transform="translate(86.717 96.843)"><path d="M116.257,164.1l.545-3.2a10.893,10.893,0,1,1,2.511,2.988l0,0Z" transform="translate(-115.302 -144.536)" fill="#fff"/><path d="M116.2,164.021a1.632,1.632,0,0,0,.191,0l.582-.029,2.291-.127a.045.045,0,0,0,.043-.048.051.051,0,0,0-.009-.024l0,0-.067.062a10.909,10.909,0,0,0,4.758,2.317,11.091,11.091,0,0,0,1.678.215c.293.02.592,0,.9,0,.152-.005.306,0,.459-.013l.464-.053a10.826,10.826,0,0,0,3.8-1.163,10.932,10.932,0,0,0,5.625-12.085,11.145,11.145,0,0,0-.868-2.5,11.373,11.373,0,0,0-3.461-4.064,11.065,11.065,0,0,0-2.305-1.25,10.852,10.852,0,0,0-4.963-.754,10.966,10.966,0,0,0-10.061,11.25,10.829,10.829,0,0,0,1.453,5.1l-.006-.03c-.164,1.039-.292,1.842-.38,2.4l-.093.608a1.945,1.945,0,0,0-.026.2s.018-.075.045-.215l.116-.616c.1-.547.244-1.337.43-2.359a.044.044,0,0,0-.005-.031,10.819,10.819,0,0,1,8.544-16.089,10.661,10.661,0,0,1,4.863.746,10.831,10.831,0,0,1,2.257,1.227,10.639,10.639,0,0,1,4.242,6.428,10.755,10.755,0,0,1-.06,4.959,10.854,10.854,0,0,1-5.435,6.911,10.691,10.691,0,0,1-3.736,1.161l-.457.056c-.151.016-.3.01-.452.016-.3,0-.593.024-.882.006a11.068,11.068,0,0,1-1.657-.2,10.936,10.936,0,0,1-4.728-2.245.046.046,0,0,0-.064.005.047.047,0,0,0,0,.056l0,0,.034-.072-2.257.179-.592.05C116.276,164.012,116.2,164.021,116.2,164.021Z" transform="translate(-115.248 -144.456)" fill="#263238"/><g transform="translate(6.249 8.215)"><path d="M126.116,162.26l1.2-1.2,2.315,2.058,4.544-4.373,1.115,1.2-5.831,5.488Z" transform="translate(-126.116 -158.745)" fill="#0540b7"/></g></g><g transform="translate(186.321 128.622)"><g transform="translate(0 0)"><g transform="translate(49.231 50.137)"><g transform="translate(10.361)"><path d="M431.97,342.119c.014-.135.027-.27.033-.4.116-2.587-.935-5.066-1.947-7.452-2.712-6.394-5.335-13.177-4.573-20.077,1.007-9.125,7.717-16.671,10.112-25.5a2.393,2.393,0,0,1,2.315-1.754h0a2.394,2.394,0,0,1,2.3,3.107c-2.668,8.253-8.753,15.489-9.71,24.144-.762,6.9,1.862,13.684,4.573,20.077,1.012,2.385,2.062,4.865,1.947,7.452s-1.779,5.306-4.343,5.721h-38.13a2.4,2.4,0,0,1-2.406-2.4v-.519a2.4,2.4,0,0,1,2.406-2.4Z" transform="translate(-392.141 -286.935)" fill="#455a64"/></g><g transform="translate(0 60.367)"><path d="M431.978,443.913H376.647a2.431,2.431,0,0,1-1.973-1.042,2.984,2.984,0,0,1-.4-2.673l15.75-48.265.822.268-15.75,48.264a2.118,2.118,0,0,0,.282,1.9,1.577,1.577,0,0,0,1.273.685h55.331a1.554,1.554,0,0,0,1.25-.654,2.119,2.119,0,0,0,.332-1.844l-13.536-48.368.832-.233,13.536,48.368a2.987,2.987,0,0,1-.475,2.6A2.432,2.432,0,0,1,431.978,443.913Z" transform="translate(-374.119 -391.932)" fill="#e0e0e0"/></g></g><g transform="translate(29.484 56.41)"><g transform="translate(0 10.836)"><path d="M339.773,324.325s2.015-4.9,4.006-5.933a25.446,25.446,0,0,1,4.526-1.7h8.862l.088,5.737a3.9,3.9,0,0,1-3.034,1.04c-1.754-.243-6.133-1.325-6.133-1.325l-2.162.118-1.992,2.555s-1.617.492-1.048-1.039.823-2.2.823-2.2-1.913,2.978-2.648,3.114A1.626,1.626,0,0,1,339.773,324.325Z" transform="translate(-339.773 -316.694)" fill="#6f4439"/></g><g transform="translate(17.227)"><path d="M389.137,297.846l-7.052,10.143-12.182.693-.166,5.565,9.178,1.807a14.8,14.8,0,0,0,13.175-3.911h0l1.343-12.269Z" transform="translate(-369.737 -297.846)" fill="#ae7461"/></g></g><g transform="translate(60.642 132.476)"><path d="M393.966,438.212l8.2,8.016s-5.918,11.425-4.557,13.061l17.111-16.1-12.227-13.039Z" transform="translate(-393.966 -430.149)" fill="#263238"/><g transform="translate(12.346 10.291)"><path d="M415.919,448.158a.91.91,0,0,1,1.2.3.923.923,0,0,1-.352,1.2.958.958,0,0,1-1.265-.322.97.97,0,0,1,.5-1.213" transform="translate(-415.439 -448.049)" fill="#e0e0e0"/></g><g transform="translate(3.36 11.776)"><path d="M417.2,451.895l-1.287-1.264-15.924,15.91s-.466,1.029.1,1.455Z" transform="translate(-399.81 -450.631)" fill="#455a64"/></g><g transform="translate(7.831 15.417)"><path d="M407.6,457.805c.078.076.529-.281,1.18-.415.649-.151,1.184-.009,1.232-.112.063-.087-.509-.442-1.3-.266S407.511,457.75,407.6,457.805Z" transform="translate(-407.586 -456.964)" fill="#fff"/></g><g transform="translate(6.705 18.206)"><path d="M405.633,462.256c.053.094.543-.112,1.142-.046.6.049,1.016.342,1.1.26.09-.061-.289-.577-1.038-.646S405.565,462.179,405.633,462.256Z" transform="translate(-405.627 -461.816)" fill="#fff"/></g><g transform="translate(5.672 20.736)"><path d="M405.772,467.111c.092-.055-.165-.558-.789-.787s-1.177-.034-1.15.065.488.1,1,.3S405.681,467.182,405.772,467.111Z" transform="translate(-403.831 -466.215)" fill="#fff"/></g><g transform="translate(6.161 12.596)"><path d="M404.711,453.675c.1.039.383-.431.884-.845s1-.62.981-.728-.641-.057-1.225.439S404.611,453.652,404.711,453.675Z" transform="translate(-404.683 -452.057)" fill="#fff"/></g></g><g transform="translate(12.735 83.404)"><path d="M359.511,344.8c-1.5,0-38.012,10.636-41.964,14.231s-6.907,48.088-6.907,48.088l15.31,5.249s3.227-21.73,5.182-28.747a35.882,35.882,0,0,0,1.2-10.788l30.314-13.2Z" transform="translate(-310.641 -344.798)" fill="#263238"/></g><g transform="translate(31.982 79.013)"><g transform="translate(0.078 0.047)"><path d="M374.719,343.939c-.681.3-27.21,11.626-29.7,19.214-2.032,6.184.33,11.629,3.168,15.884,3.2,4.8,26.7,26.245,26.7,26.245l13.262-9.482-22.736-23.48s11.929-7.364,12.338-7.364,12.81-.819,16.74-1.265c3.671-.415,5.679-5.679,5.679-5.679l3.274-15.092-24.6-5.678Z" transform="translate(-344.253 -337.242)" fill="#263238"/></g><path d="M374.662,343.9s.085-.152.259-.442l.78-1.287,3.047-4.99.016-.025.029.006,24.612,5.641.076.017-.017.076L400.2,358l0,.008,0,.005a13.223,13.223,0,0,1-2.336,3.784,6.745,6.745,0,0,1-1.8,1.432,2.794,2.794,0,0,1-.532.245,3.163,3.163,0,0,1-.562.179c-.194.036-.389.082-.583.11l-.581.062c-3.106.306-6.319.536-9.623.777l-5.024.343-1.279.077-.164.008c-.036,0-.031.011-.047.013a.63.63,0,0,0-.063.027c-.091.04-.187.094-.281.141l-.562.31c-.746.425-1.491.866-2.238,1.311-2.988,1.786-6.024,3.648-9.113,5.55l.021-.17,17.756,18.333,4.982,5.146.09.094-.106.076-13.263,9.481-.072.052-.066-.06q-7.123-6.528-13.638-12.75c-2.164-2.069-4.269-4.11-6.293-6.135s-3.988-4.013-5.759-6.085c-.232-.25-.423-.535-.633-.8a9.321,9.321,0,0,1-.59-.823c-.367-.562-.716-1.131-1.039-1.709a23.548,23.548,0,0,1-1.647-3.547,17.457,17.457,0,0,1-.914-3.678,15.374,15.374,0,0,1-.026-3.662,13.524,13.524,0,0,1,.827-3.432A9.95,9.95,0,0,1,347,359.938a32.747,32.747,0,0,1,4.893-4.03,94.853,94.853,0,0,1,9.283-5.561c2.8-1.493,5.242-2.688,7.242-3.637s3.563-1.649,4.623-2.115l1.207-.522c.273-.115.414-.168.414-.168s-.136.067-.406.187l-1.2.54c-1.054.478-2.611,1.189-4.606,2.149s-4.432,2.164-7.223,3.666a95.782,95.782,0,0,0-9.254,5.58,32.682,32.682,0,0,0-4.862,4.021,9.811,9.811,0,0,0-1.92,2.725,13.333,13.333,0,0,0-.808,3.389,15.207,15.207,0,0,0,.031,3.62,17.359,17.359,0,0,0,.91,3.639,23.444,23.444,0,0,0,1.64,3.517c.321.574.669,1.139,1.035,1.7a9.247,9.247,0,0,0,.585.814c.208.263.395.542.627.791,1.763,2.058,3.731,4.045,5.755,6.066s4.13,4.059,6.3,6.126c4.33,4.134,8.893,8.389,13.641,12.738l-.138-.008,13.26-9.485-.016.17-4.982-5.146-17.752-18.336-.095-.1.116-.071c3.09-1.9,6.127-3.762,9.118-5.548.749-.446,1.494-.887,2.243-1.312l.567-.313c.1-.049.189-.1.294-.147a.646.646,0,0,1,.085-.036.442.442,0,0,1,.109-.022l.156-.008,1.275-.076,5.023-.339c3.3-.237,6.517-.465,9.618-.767a5.15,5.15,0,0,0,2.187-.572,6.537,6.537,0,0,0,1.75-1.39,13.053,13.053,0,0,0,2.3-3.72l0,.013c1.189-5.458,2.3-10.554,3.287-15.089l.059.094-24.6-5.715.044-.018-3.086,4.977-.8,1.273C374.757,343.764,374.662,343.9,374.662,343.9Z" transform="translate(-344.119 -337.161)" fill="#455a64"/></g><g transform="translate(61.967)"><path d="M399.243,212.921a2.488,2.488,0,0,1-1.47-4.727,2.588,2.588,0,0,1,1.868-4.543,3.1,3.1,0,0,1,4.432-2.934,3.483,3.483,0,0,1,4.264-.459,2.477,2.477,0,0,1,2.544,4" transform="translate(-396.271 -199.732)" fill="#263238"/><g transform="translate(2.643 1.046)"><g transform="translate(0 1.21)"><g transform="translate(0 0.664)"><path d="M411.038,204.816l-.544.048a10.555,10.555,0,0,0-9.626,10.6c.04,5.116.149,10.768.423,13.49.569,5.637,6.29,6.015,6.29,6.015l.122,6.822,13.657-1.635-.962-24.694C420.386,209.553,416.94,204.64,411.038,204.816Z" transform="translate(-400.867 -204.811)" fill="#ae7461"/></g><g transform="translate(6.706 27.996)"><path d="M412.532,255.171a13.692,13.692,0,0,0,7.163-2.821s-1.453,4.317-7.129,4.307Z" transform="translate(-412.532 -252.35)" fill="#6f4439"/></g><g transform="translate(2.036 15.744)"><path d="M404.409,231.841a.809.809,0,0,0,.849.745.774.774,0,0,0,.766-.8.809.809,0,0,0-.848-.745A.774.774,0,0,0,404.409,231.841Z" transform="translate(-404.408 -231.04)" fill="#263238"/></g><g transform="translate(1.441 12.971)"><path d="M403.391,227.212c.109.1.68-.409,1.547-.484s1.541.3,1.626.189c.042-.051-.076-.232-.371-.409a2.225,2.225,0,0,0-1.313-.281,2.136,2.136,0,0,0-1.219.517C403.41,226.971,403.337,227.169,403.391,227.212Z" transform="translate(-403.374 -226.217)" fill="#263238"/></g><g transform="translate(9.832 15.295)"><path d="M417.97,231.061a.809.809,0,0,0,.849.744.774.774,0,0,0,.766-.8.809.809,0,0,0-.848-.745A.775.775,0,0,0,417.97,231.061Z" transform="translate(-417.969 -230.259)" fill="#263238"/></g><g transform="translate(9.979 12.38)"><path d="M418.241,226.182c.109.1.681-.409,1.547-.484s1.541.3,1.626.189c.042-.051-.075-.232-.371-.409a2.223,2.223,0,0,0-1.313-.281,2.132,2.132,0,0,0-1.22.516C418.262,225.941,418.187,226.139,418.241,226.182Z" transform="translate(-418.225 -225.187)" fill="#263238"/></g><g transform="translate(5.149 12.823)"><path d="M412.091,233.22a5.782,5.782,0,0,0-1.431-.129c-.223,0-.437-.029-.488-.177a1.134,1.134,0,0,1,.09-.67q.241-.83.506-1.744a29.092,29.092,0,0,0,1.081-4.54,29.062,29.062,0,0,0-1.444,4.443q-.25.917-.477,1.752a1.285,1.285,0,0,0-.038.879.556.556,0,0,0,.393.292,1.478,1.478,0,0,0,.381.019A5.674,5.674,0,0,0,412.091,233.22Z" transform="translate(-409.823 -225.96)" fill="#263238"/></g><g transform="translate(8.933 9.003)"><path d="M416.421,220.416c.133.21.856-.094,1.768-.2.91-.131,1.7-.026,1.759-.263.026-.112-.154-.295-.5-.442a2.758,2.758,0,0,0-1.4-.167,2.656,2.656,0,0,0-1.29.523C416.476,220.093,416.36,220.316,416.421,220.416Z" transform="translate(-416.405 -219.314)" fill="#263238"/></g><g transform="translate(1.065 9.324)"><path d="M402.754,220.943c.2.181.9-.087,1.757-.173.857-.111,1.6-.008,1.751-.229.065-.106-.067-.294-.4-.452a2.809,2.809,0,0,0-1.459-.2,2.768,2.768,0,0,0-1.368.52C402.747,220.642,402.665,220.854,402.754,220.943Z" transform="translate(-402.72 -219.872)" fill="#263238"/></g><g transform="translate(0.258)"><path d="M401.372,212.332s1.176-3.665,2.807-4.64c1.975-1.181,3.063,1,4.98.282s3.8-1.855,5.945-.513c2.346,1.469,1.419,2.727,1.776,5.219,1.449,10.1,3.556,12.809,3.661,7.981.012-.529,1.429-1.074,1.448-3.306.025-2.895-.172-6.389-.993-8.369a8.063,8.063,0,0,0-3.646-3.921c-2.953-1.819-6.762-1.527-9.324-1.038S400.745,207.928,401.372,212.332Z" transform="translate(-401.315 -203.655)" fill="#263238"/></g><g transform="translate(19.108 15.26)"><path d="M434.1,231.82a1.537,1.537,0,0,1,1.523-1.622c1.061.007,2.285.5,2.408,2.682.218,3.868-3.711,3.289-3.724,3.179C434.3,235.984,434.182,233.44,434.1,231.82Z" transform="translate(-434.103 -230.198)" fill="#ae7461"/></g><g transform="translate(20.074 16.516)"><path d="M435.786,235.484c.016-.013.07.044.187.089a.673.673,0,0,0,.5-.018,1.671,1.671,0,0,0,.688-1.54,2.233,2.233,0,0,0-.243-.954.779.779,0,0,0-.536-.489.343.343,0,0,0-.387.207c-.046.111-.017.187-.037.195s-.087-.06-.065-.222a.438.438,0,0,1,.139-.251.511.511,0,0,1,.367-.119.946.946,0,0,1,.738.56,2.288,2.288,0,0,1,.294,1.065,1.753,1.753,0,0,1-.889,1.727.723.723,0,0,1-.622-.068C435.8,235.577,435.772,235.492,435.786,235.484Z" transform="translate(-435.783 -232.382)" fill="#6f4439"/></g></g><g transform="translate(2.463)"><path d="M421.062,212.176a3.68,3.68,0,0,1-1.567.9,1.263,1.263,0,0,1-1.474-.761c-.07-.265-.031-.582-.226-.774-.233-.229-.615-.117-.935-.055a3.075,3.075,0,0,1-2.913-1.97,1.01,1.01,0,0,1-1.321.4,3.611,3.611,0,0,1-1-.744,1.594,1.594,0,0,0-1.383-.546,3.809,3.809,0,0,1-.823.259c-.511,0-.811-.571-.932-1.068s-.232-1.077-.686-1.313a2.026,2.026,0,0,0-1.383.083c-.46.11-1.072.054-1.232-.392a.919.919,0,0,1,.111-.715,2.508,2.508,0,0,1,2.866-1.206,3.4,3.4,0,0,1,6.164-1.207,3.451,3.451,0,0,1,5.605.768,2.5,2.5,0,0,1,3.129,3.375,2.377,2.377,0,0,1,1.468,1.769,1.36,1.36,0,0,1-1.412,1.52,1.385,1.385,0,0,1-2.265,1.587" transform="translate(-405.151 -201.551)" fill="#263238"/></g><g transform="translate(5.286 3.881)"><path d="M410.063,208.3s0,.025.007.071.018.116.043.2a2.426,2.426,0,0,0,.346.719,2.771,2.771,0,0,0,.936.837,2.583,2.583,0,0,0,1.62.311l-.073-.08a1.4,1.4,0,0,0,.172,1.058,4.024,4.024,0,0,0,.744.891,2.894,2.894,0,0,0,.471.4,1.355,1.355,0,0,0,.632.173,1.414,1.414,0,0,0,1.2-.555l-.148-.029a2.9,2.9,0,0,0,1.4,1.894,2.115,2.115,0,0,0,1.3.3,3.829,3.829,0,0,0,1.225-.384l-.108-.036a3.056,3.056,0,0,0,1.019,1.11,1.625,1.625,0,0,0,1.376.247,2.133,2.133,0,0,0,1.489-1.808l-.084.048a2,2,0,0,0,1.343.078,2.167,2.167,0,0,0,.888-.494,1.893,1.893,0,0,0,.39-.509.91.91,0,0,0,.08-.209,2.316,2.316,0,0,1-.513.669,2.151,2.151,0,0,1-.869.452,1.906,1.906,0,0,1-1.269-.095l-.076-.034-.008.083a2.011,2.011,0,0,1-1.412,1.678,1.477,1.477,0,0,1-1.25-.238,2.907,2.907,0,0,1-.958-1.054l-.037-.068-.071.032a3.684,3.684,0,0,1-1.171.366,1.955,1.955,0,0,1-1.2-.283,2.748,2.748,0,0,1-1.327-1.784l-.04-.18-.108.152a1.257,1.257,0,0,1-1.062.489,1.2,1.2,0,0,1-.559-.148,2.788,2.788,0,0,1-.444-.379,3.9,3.9,0,0,1-.726-.85,1.273,1.273,0,0,1-.169-.957l.024-.095-.1.015a2.485,2.485,0,0,1-1.55-.274,2.77,2.77,0,0,1-.927-.788A3.016,3.016,0,0,1,410.063,208.3Z" transform="translate(-410.061 -208.301)" fill="#455a64"/></g></g><g transform="translate(10.133 22.563)"><path d="M413.9,241.529c.009-.145.976-.031,1.761-.776s.8-1.786.939-1.778c.062-.006.16.252.12.688a2.422,2.422,0,0,1-.729,1.49,2.109,2.109,0,0,1-1.469.589C414.109,241.732,413.883,241.595,413.9,241.529Z" transform="translate(-413.896 -238.976)" fill="#263238"/></g></g><g transform="translate(0 139.998)"><path d="M304.707,443.232l-1.782,12.377s-13.87,2.143-14.434,4.394l25.19,4.7,3.612-19.158Z" transform="translate(-288.491 -443.232)" fill="#263238"/><g transform="translate(21.019 12.702)"><path d="M326.443,465.42a.991.991,0,0,1,.508,1.245,1.006,1.006,0,0,1-1.281.462,1.045,1.045,0,0,1-.531-1.321,1.057,1.057,0,0,1,1.392-.337" transform="translate(-325.051 -465.324)" fill="#e0e0e0"/></g><g transform="translate(0 15.746)"><path d="M313.681,476.349l.285-1.946-24.259-3.783s-1.206.253-1.216,1.025Z" transform="translate(-288.491 -470.62)" fill="#455a64"/></g><g transform="translate(14.047 12.122)"><path d="M312.924,464.373c-.017.117.588.285,1.125.772s.769,1.038.891,1.013c.117,0,.062-.732-.6-1.313S312.917,464.261,312.924,464.373Z" transform="translate(-312.923 -464.315)" fill="#fff"/></g><g transform="translate(11.213 12.691)"><path d="M308,465.336c-.049.108.448.405.776.976.345.562.353,1.115.476,1.133.112.04.323-.627-.1-1.329S308.02,465.225,308,465.336Z" transform="translate(-307.993 -465.306)" fill="#fff"/></g><g transform="translate(8.54 13.25)"><path d="M303.972,468.464c.107.045.385-.5.186-1.2s-.728-1.058-.8-.971c-.087.083.224.5.378,1.069S303.852,468.43,303.972,468.464Z" transform="translate(-303.345 -466.279)" fill="#fff"/></g><g transform="translate(14.782 9.17)"><path d="M314.2,459.42c.032.116.626.061,1.313.236s1.191.483,1.273.395c.086-.071-.363-.6-1.175-.8S314.16,459.317,314.2,459.42Z" transform="translate(-314.201 -459.181)" fill="#fff"/></g></g><g transform="translate(57.703 31.6)"><path d="M401.979,263.868l.517-2.342,13.759-6.832,1.2,1.873s5.149,4.19,7.121,7.827-.367,33.415-.7,37.761c-.662,8.757-3.935,20.219-3.935,20.219s-4.415-3.074-17.4-8.407-13.685-7.747-13.685-7.747l7.654-9.706Z" transform="translate(-388.855 -254.694)" fill="#adc46c"/><g transform="translate(7.036 9.994)"><path d="M407.388,272.076c-.077.432-6.3,15.366-6.3,15.366s3.231,1.8,3.682,1.893S407.388,272.076,407.388,272.076Z" transform="translate(-401.092 -272.076)" fill="#adc46c"/></g><g transform="translate(10.013 12.442)"><path d="M408.962,276.335c.062.01-.49,3.8-1.232,8.475s-1.393,8.45-1.455,8.44.49-3.8,1.232-8.476S408.9,276.325,408.962,276.335Z" transform="translate(-406.271 -276.335)" fill="#263238"/></g></g><g transform="translate(26.759 37.325)"><g transform="translate(0 28.684)"><path d="M335.033,322.452s3.706-5.469,5.915-6.429a27.281,27.281,0,0,1,4.972-1.48l9.319,1.246-.166,5.565a4.19,4.19,0,0,1-3.326.888c-1.861-.391-6.468-1.877-6.468-1.877l-2.323-.035-2.324,2.587s-1.768.405-1.045-1.19,1.046-2.3,1.046-2.3-2.271,3.045-3.067,3.137A16.069,16.069,0,0,1,335.033,322.452Z" transform="translate(-335.033 -314.543)" fill="#ae7461"/></g><g transform="translate(19.953 14.691)"><path d="M398.484,290.2l-6.461,15.014-22.121.216L369.737,311s21.331,7.521,27.011,6.06,15.1-21.548,15.1-21.548Z" transform="translate(-369.737 -290.204)" fill="#ae7461"/></g><g transform="translate(43.928)"><g transform="translate(0.14 0.053)"><path d="M421.545,266.714c-.6.548-2.6,2.9-4.736,8s-5.127,11.069-5.127,11.069l15.25,6.079s3.477-8,5.091-11.557c1.228-2.71,2.089-8.039.969-10.619S426.856,261.9,421.545,266.714Z" transform="translate(-411.681 -264.744)" fill="#adc46c"/></g><path d="M421.441,266.675s.045-.048.14-.134.233-.217.431-.371a7.585,7.585,0,0,1,1.88-1.111,5.733,5.733,0,0,1,3.421-.254,8.17,8.17,0,0,1,3.908,2.337,9.336,9.336,0,0,1,1.593,2.151,6.993,6.993,0,0,1,.664,2.823,20.167,20.167,0,0,1-.794,6.324,23.336,23.336,0,0,1-1.261,3.218l-1.446,3.29-3.045,6.92-.044.1-.1-.04-.221-.088-15.025-6-.1-.041.049-.1c1.425-2.855,2.686-5.514,3.766-7.9s1.911-4.527,2.812-6.2a25.584,25.584,0,0,1,2.326-3.754,11.183,11.183,0,0,1,.755-.895,2.937,2.937,0,0,1,.3-.274.478.478,0,0,1-.068.076l-.2.22c-.174.2-.425.5-.727.911a26.992,26.992,0,0,0-2.269,3.771c-.882,1.675-1.687,3.827-2.766,6.216s-2.32,5.057-3.739,7.92l-.053-.14,15.033,5.981.221.088-.145.06,3.05-6.92,1.452-3.289a23.31,23.31,0,0,0,1.259-3.187,20.1,20.1,0,0,0,.807-6.256,6.837,6.837,0,0,0-.632-2.755,9.207,9.207,0,0,0-1.552-2.119,8.076,8.076,0,0,0-3.823-2.325,5.674,5.674,0,0,0-3.361.213,7.877,7.877,0,0,0-1.884,1.065c-.2.147-.342.275-.443.352S421.441,266.675,421.441,266.675Z" transform="translate(-411.437 -264.652)" fill="#263238"/></g><g transform="translate(5.537 31.421)"><path d="M348.9,319.377a5.57,5.57,0,0,0-4.238,2.142,1.631,1.631,0,0,1,.38-.634,4.4,4.4,0,0,1,3.122-1.578A1.647,1.647,0,0,1,348.9,319.377Z" transform="translate(-344.664 -319.304)" fill="#6f4439"/></g><g transform="translate(20.118 21.73)"><path d="M395.578,302.448a.64.64,0,0,1-.049.155l-.172.438-.676,1.643c-.6,1.429-1.446,3.421-2.442,5.779l-.026.06h-.066l-6.719.077-10.892.073-3.3,0-.9-.013a1.668,1.668,0,0,1-.313-.02,1.585,1.585,0,0,1,.313-.026l.9-.03,3.3-.068,10.891-.139,6.719-.054-.092.061,2.517-5.746.728-1.621.2-.425A.6.6,0,0,1,395.578,302.448Z" transform="translate(-370.025 -302.448)" fill="#6f4439"/></g></g></g></g><g transform="translate(48.126 206.861)"><g transform="translate(10.638 0.821)"><rect width="4.258" height="83.315" fill="#455a64"/></g><g transform="translate(185.417 1.409)"><rect width="4.258" height="82.737" fill="#455a64"/></g><rect width="193.893" height="5.027" fill="#455a64"/><g transform="translate(90.961 4.916)"><g transform="translate(0)"><path d="M307.4,344.475c0,.063-22.626.113-50.53.113s-50.535-.05-50.535-.113,22.621-.112,50.535-.112S307.4,344.413,307.4,344.475Z" transform="translate(-206.337 -344.363)" fill="#263238"/></g></g></g><g transform="translate(183.577 177.436)"><path d="M284.484,284.651h0a.941.941,0,0,1,1.1.749l5.247,27.805h25.514a.691.691,0,0,1,.691.69h0a.691.691,0,0,1-.691.691H289.284v-.111l-.124.023-5.425-28.75A.94.94,0,0,1,284.484,284.651Z" transform="translate(-283.718 -284.634)" fill="#263238"/></g><g transform="translate(48.899 105.833)"><g transform="translate(1.467)"><path d="M61.147,167.121A13.851,13.851,0,0,1,71.36,160.85a14.863,14.863,0,0,1,5.264.474,7.694,7.694,0,0,1,4.626,2.5,12.9,12.9,0,0,1,3.036,5.641,18.513,18.513,0,0,1,.2,6.146,24.4,24.4,0,0,1-2.636,7.518l-3.686.785a35.42,35.42,0,0,1-9.294.325,11.927,11.927,0,0,1-8-4.3C58.295,176.468,58.719,170.695,61.147,167.121Z" transform="translate(-55.04 -160.381)" fill="#263238"/><path d="M69.983,168.291l7.208-3.636,1.972.053c4.394-.376,7.855,4.2,8.2,7.753a63.531,63.531,0,0,1,.329,11.756c-.741,5.97-5.7,6.9-5.7,6.9s.83,6.963,1.044,8.926L71.076,196.39l-2.89-25.916A2.089,2.089,0,0,1,69.983,168.291Z" transform="translate(-58.892 -162.032)" fill="#ffbf9d"/><path d="M86.62,196.773a1.251,1.251,0,0,1,.363-.807,1.278,1.278,0,0,1,1.538-.226,1.714,1.714,0,0,1,.792,1.544h0a1.562,1.562,0,0,1-1.053.743,1.943,1.943,0,0,1-.208.025,1.4,1.4,0,0,1-.972-.288A1.248,1.248,0,0,1,86.62,196.773Z" transform="translate(-66.728 -175.176)" fill="#ff9a6c"/><path d="M98.43,187.019a.762.762,0,0,1-.708.793.729.729,0,0,1-.808-.659.762.762,0,0,1,.707-.794A.73.73,0,0,1,98.43,187.019Z" transform="translate(-71.103 -171.256)" fill="#263238"/><path d="M97.295,181.321c-.091.1-.682-.3-1.5-.274s-1.406.46-1.5.363c-.045-.043.045-.225.3-.425a2.091,2.091,0,0,1,1.2-.414,2.01,2.01,0,0,1,1.2.343C97.248,181.1,97.34,181.275,97.295,181.321Z" transform="translate(-69.986 -168.797)" fill="#263238"/><path d="M90.943,188.774a5.439,5.439,0,0,1,1.322-.285c.209-.029.405-.077.436-.221a1.063,1.063,0,0,0-.161-.615l-.673-1.572a27.353,27.353,0,0,1-1.532-4.121,27.462,27.462,0,0,1,1.86,3.988q.339.828.647,1.582a1.214,1.214,0,0,1,.137.818.527.527,0,0,1-.334.317,1.424,1.424,0,0,1-.354.062A5.322,5.322,0,0,1,90.943,188.774Z" transform="translate(-68.304 -169.388)" fill="#263238"/><path d="M86.291,209.305a15.115,15.115,0,0,1-8.025-1.85s2.259,4.044,8.184,3.286Z" transform="translate(-63.177 -180.225)" fill="#ff9a6c"/><path d="M97.293,177.021c-.131.2-.763.093-1.494.178-.734.063-1.332.3-1.5.125-.075-.086,0-.283.246-.493a2.33,2.33,0,0,1,2.412-.245C97.24,176.743,97.349,176.922,97.293,177.021Z" transform="translate(-69.981 -167.007)" fill="#263238"/><path d="M84.921,188.03a.762.762,0,0,0,.788.714.729.729,0,0,0,.735-.741.762.762,0,0,0-.787-.715A.729.729,0,0,0,84.921,188.03Z" transform="translate(-66.006 -171.653)" fill="#263238"/><path d="M80.265,182.366c.1.092.647-.375,1.465-.432s1.447.31,1.528.2c.04-.047-.068-.219-.343-.391a2.1,2.1,0,0,0-1.232-.285,2.011,2.011,0,0,0-1.157.467C80.288,182.139,80.216,182.324,80.265,182.366Z" transform="translate(-64.021 -169.173)" fill="#263238"/><path d="M82.132,177.318c.171.177.793-.05,1.552-.1.757-.074,1.41.048,1.547-.154.06-.1-.052-.279-.342-.439a2.346,2.346,0,0,0-1.279-.236,2.316,2.316,0,0,0-1.218.442C82.134,177.034,82.057,177.231,82.132,177.318Z" transform="translate(-64.809 -167.016)" fill="#263238"/><path d="M68.393,190.74c-.016-.442-.563-1.467-1-1.521-1.172-.142-3.271.023-3.19,2.986.111,4.05,4.154,3.1,4.158,2.986C68.362,195.1,68.449,192.267,68.393,190.74Z" transform="translate(-57.198 -172.459)" fill="#ffbf9d"/><path d="M68.053,194.759c-.018-.013-.069.051-.187.109a.707.707,0,0,1-.527.026,1.746,1.746,0,0,1-.85-1.544,2.33,2.33,0,0,1,.169-1.015.816.816,0,0,1,.516-.556.359.359,0,0,1,.421.182c.057.112.034.193.056.2s.085-.07.048-.236a.45.45,0,0,0-.167-.25.532.532,0,0,0-.393-.093.993.993,0,0,0-.72.649,2.4,2.4,0,0,0-.213,1.136,1.831,1.831,0,0,0,1.077,1.72.756.756,0,0,0,.642-.125C68.048,194.857,68.067,194.766,68.053,194.759Z" transform="translate(-58.049 -173.475)" fill="#ff9a6c"/><path d="M67.359,178.34l1.118.97c6.446-4.24,13-15.782,11.308-15.31a12.917,12.917,0,0,0-6.374-.122c-3.236.853-9.321,3.053-8.88,6.919A20.293,20.293,0,0,0,67.359,178.34Z" transform="translate(-57.329 -161.553)" fill="#263238"/><path d="M60.158,160.691c1.57.917,2.968,3.592,2.326,5.292a5.332,5.332,0,0,1-6.814,5.959,5.127,5.127,0,0,1-2.89-2.229,6.171,6.171,0,0,1-.631-4.284,6.826,6.826,0,0,1,2.837-4.483A5.042,5.042,0,0,1,60.158,160.691Z" transform="translate(-52.022 -160.093)" fill="#263238"/><path d="M65.555,178.691a3.935,3.935,0,0,0,.738-.319c.465-.226,1.129-.57,1.932-1.029a29.24,29.24,0,0,0,5.807-4.294,19.417,19.417,0,0,0,4.2-5.868,14.052,14.052,0,0,0,.75-2.062,3.478,3.478,0,0,0,.163-.788c-.058-.018-.31,1.105-1.11,2.758a20.716,20.716,0,0,1-4.219,5.74,32.721,32.721,0,0,1-5.7,4.328c-.785.481-1.431.853-1.878,1.11A4.159,4.159,0,0,0,65.555,178.691Z" transform="translate(-57.774 -161.894)" fill="#455a64"/><path d="M59.387,175.568c.055,0,.079-.754.305-1.943a15.348,15.348,0,0,1,4.425-8.169c.872-.839,1.493-1.272,1.461-1.317a1.769,1.769,0,0,0-.462.266,10,10,0,0,0-1.146.892,13.947,13.947,0,0,0-4.491,8.292,9.926,9.926,0,0,0-.121,1.448A1.791,1.791,0,0,0,59.387,175.568Z" transform="translate(-55.139 -161.812)" fill="#455a64"/><path d="M66.89,199.236a1.517,1.517,0,1,0,1.517-1.517A1.517,1.517,0,0,0,66.89,199.236Z" transform="translate(-58.342 -176.087)" fill="#263238"/><path d="M89.582,197.02c-.017-.143-.964.021-1.778-.67s-.888-1.718-1.022-1.7c-.062,0-.144.257-.08.685a2.391,2.391,0,0,0,.8,1.43,2.084,2.084,0,0,0,1.48.5C89.383,197.23,89.6,197.084,89.582,197.02Z" transform="translate(-66.753 -174.781)" fill="#263238"/></g><g transform="translate(0 71.317)"><path d="M52.159,286.62s-4.522,15.956-1.836,24.619c1.612,5.2,24.231,33.824,25.321,35.056.758.857-9.672,27.9-11.58,33.534l11.992,5.813s15.006-31.909,15.924-37.5c1.177-7.182-15.7-37.9-15.083-38.314l6.068-12.656-5.036-13.034s-21.223.23-25.558.577Z" transform="translate(-49.471 -284.137)" fill="#263238"/><path d="M93.653,304.822s29.257,10.38,32.555,12.136c3.6,1.915,6.312,8.634,3.314,14.346s-29.3,22.064-29.3,22.064l-6.568-10,19.035-14.992-20.605-4.855-6.711-7.953Z" transform="translate(-64.731 -292.929)" fill="#263238"/><g transform="translate(27.299 15.236)"><path d="M112.164,359.223a10.758,10.758,0,0,0-.014-2.034,22.936,22.936,0,0,0-1.481-5.345c-.417-1.1-.916-2.288-1.443-3.57-.268-.638-.521-1.317-.785-2s-.569-1.38-.875-2.094c-1.248-2.852-2.668-5.968-4.162-9.238L96.971,320.96l-.018-.039.01-.04c.761-3.152,1.432-5.731,1.94-7.514.256-.892.473-1.584.642-2.048a4.791,4.791,0,0,1,.22-.52.762.762,0,0,1,.105-.162.8.8,0,0,1-.073.178c-.051.113-.106.295-.185.526-.146.469-.341,1.166-.577,2.061-.469,1.792-1.1,4.378-1.838,7.534l-.009-.079c1.821,3.861,4.08,8.7,6.487,13.957,1.494,3.271,2.907,6.391,4.142,9.254.3.719.608,1.413.869,2.111s.5,1.359.768,2c.515,1.284,1,2.481,1.411,3.589a21.783,21.783,0,0,1,1.4,5.408A5.986,5.986,0,0,1,112.164,359.223Z" transform="translate(-96.953 -310.637)" fill="#455a64"/></g><path d="M99.085,315.272c-.057.21,0,7.686,0,7.686l3.754,6.362-3-.706-2.667-5.553Z" transform="translate(-69.748 -297.371)" opacity="0.3"/></g><g transform="translate(23.636 75.577)"><path d="M125.391,308.146c-.845-.828-3.321-3.154-5.061-4.784a1.016,1.016,0,0,1,.676-1.758l20.035-.409a1.015,1.015,0,0,1,.78.34l4.188,4.7a1.017,1.017,0,0,1-.733,1.693l-19.148.5A1.014,1.014,0,0,1,125.391,308.146Z" transform="translate(-103.089 -295.648)" fill="#455a64"/><path d="M107.213,300.444a17.585,17.585,0,0,1,4.656-1.265c2.328-.232,3.493.748,4.74.632s4.657.216,4.657,1.131-4.74,1.248-4.74,1.248l4.157,1.33s4.74-.582,4.823,0-4.241,1.164-6.237,1.414-13.554.416-15.217,0-13.471-7.567-13.471-7.567l5.655-5.821Z" transform="translate(-90.582 -291.546)" fill="#ffbf9d"/></g><path d="M63.142,216.49a9.714,9.714,0,0,0-7.3,6.753c-1.546,4.923,1.4,25.156,2.657,28.808s14.756,15.409,15.942,14.41,7.766-6.82,7.766-6.82L71.646,247.156s.559-14.824-.14-17.621S66.078,216.21,63.142,216.49Z" transform="translate(-51.993 -184.063)" fill="#a7bce6"/><path d="M55.373,238.225c.773,7.027-.736,10.048-.736,10.048a5.458,5.458,0,0,0-1.966,3.6,1.027,1.027,0,0,0,1.058,1.143l25.558-.577s3.577.341,3.5-3.05c-.085-3.785.958-17.085-.416-22.314-.474-1.8-6.311-10.6-6.311-10.6l-12.184-6.908-1.29,3.32s-3.865,1.411-5.631,3.686a12.788,12.788,0,0,0-2.445,4.967C53.454,225.18,54.959,234.457,55.373,238.225Z" transform="translate(-50.828 -181.122)" fill="#a7bce6"/><g transform="translate(32.375 45.3)"><path d="M156.771,238.96s-.223-.2-1,.05-2.978,1.332-3.977,1.589-3.166,1.092-3.166,1.092a4.375,4.375,0,0,0-2.738.92c-1.532,1.059-5.855,3.915-5.855,3.915l1.485,4.2a8.788,8.788,0,0,1,2.145-.139,6.624,6.624,0,0,0,3.063-.125c1.175-.353,2.766-.989,2.766-.989s1.549.127,1.956-.435-.03-1.578-.03-1.578h0s1.521-1.395.867-2.179-1.466-1.652-1.466-1.652,4.51-2.391,5.362-3.024S157.2,239.468,156.771,238.96Z" transform="translate(-120.342 -238.884)" fill="#ffbf9d"/><path d="M125.476,252.175,111.449,256.9l-5.667,2.864,7.956,4.289,13.224-7.669Z" transform="translate(-105.781 -244.534)" fill="#ffbf9d"/><g transform="translate(27.623 4.175)"><path d="M154.4,246.146a6.977,6.977,0,0,1-.172,3.615l-.064.222-.117-.19c.93.167,1.759.331,2.356.465.613.122.937.381.906.412a8.156,8.156,0,0,0-.943-.21c-.6-.081-1.44-.21-2.37-.373l-.163-.029.046-.162.062-.216A18.388,18.388,0,0,0,154.4,246.146Z" transform="translate(-153.827 -246.146)" fill="#ff9a6c"/></g><g transform="translate(28.122 6.159)"><path d="M154.7,249.608c.01-.025.125-.013.289.094a1.13,1.13,0,0,1,.456.653l-.15-.1a5.082,5.082,0,0,1,.794-.078,3.077,3.077,0,0,1,1.789.367c-.023.084-.808-.09-1.783-.067-.274.006-.534.023-.762.045l-.128.013-.023-.117C155.072,249.87,154.657,249.659,154.7,249.608Z" transform="translate(-154.694 -249.597)" fill="#ff9a6c"/></g><g transform="translate(28.932 5.082)"><path d="M157.409,247.735c.048.072-.329.392-.669.878s-.523.944-.607.923-.021-.559.362-1.1S157.371,247.666,157.409,247.735Z" transform="translate(-156.103 -247.724)" fill="#ff9a6c"/></g></g><path d="M92.9,216.214,94.3,220c1.533,1.455,5.352,5.54,6.077,8.352.948,3.678,5.222,12.921,5.222,12.921s9.692-4.132,10.361-3.454,4.064,8.644,2.947,10.315-11.015,6.053-15.019,5.069-7.8-6.781-7.8-6.781Z" transform="translate(-67.929 -183.948)" fill="#a7bce6"/><g transform="translate(31.324 44.439)"><path d="M103.96,237.387a5.36,5.36,0,0,1,.317.863,8.125,8.125,0,0,1,.291,1.039,14.148,14.148,0,0,1,.287,1.4,26.12,26.12,0,0,1,.333,3.707c.023,1.4-.025,2.94-.126,4.549-.221,3.218-.449,6.121-.423,8.228-.011.527.021,1,.032,1.42s.033.778.059,1.071a5.483,5.483,0,0,1,.038.918,5.358,5.358,0,0,1-.154-.906c-.044-.293-.087-.653-.11-1.073s-.073-.9-.076-1.426c-.08-2.118.116-5.04.336-8.25.1-1.606.157-3.135.149-4.526a28.734,28.734,0,0,0-.266-3.679C104.348,238.641,103.895,237.406,103.96,237.387Z" transform="translate(-103.954 -237.387)" fill="#263238"/></g><g transform="translate(37.413 57.184)"><path d="M114.658,265.172a26.423,26.423,0,0,1,.081-5.618,26.423,26.423,0,0,1-.081,5.618Z" transform="translate(-114.544 -259.554)" fill="#263238"/></g><g transform="translate(19.294 43.781)"><path d="M83.179,236.242a1.474,1.474,0,0,1,.022.339c0,.255.007.577.011.973.012.884.029,2.1.048,3.575.036,3.017.193,7.194.069,11.8a6.636,6.636,0,0,0,.59,3.2,14.321,14.321,0,0,0,1.9,2.441l3.494,3.992,2.336,2.708.623.746a1.478,1.478,0,0,1,.2.274,1.444,1.444,0,0,1-.248-.234l-.666-.71L89.153,262.7l-3.542-3.95a14.237,14.237,0,0,1-1.951-2.484,6.871,6.871,0,0,1-.63-3.342c.124-4.606,0-8.776.018-11.8,0-1.51.018-2.733.047-3.578.013-.422.03-.75.045-.972A1.417,1.417,0,0,1,83.179,236.242Z" transform="translate(-83.03 -236.242)" fill="#263238"/></g><g transform="translate(3.252 32.425)"><path d="M62.542,216.493c.013.034-.58.2-1.544.722a10.67,10.67,0,0,0-3.45,3.028,10.209,10.209,0,0,0-1.478,2.807,9.561,9.561,0,0,0-.424,1.717c-.084.6-.133,1.237-.175,1.882a32.739,32.739,0,0,0,.007,4.064c.094,1.4.289,2.863.438,4.357.316,2.987.617,5.833.891,8.426a42.828,42.828,0,0,0,1.013,6.815,11.82,11.82,0,0,0,1.985,4.152,9.408,9.408,0,0,0,.835.944,2.926,2.926,0,0,1,.311.314s-.035-.017-.095-.062-.148-.111-.257-.208a7.694,7.694,0,0,1-.885-.916,11.49,11.49,0,0,1-2.1-4.167,41.042,41.042,0,0,1-1.084-6.843c-.281-2.592-.59-5.437-.914-8.423-.149-1.5-.341-2.947-.432-4.37a32.349,32.349,0,0,1,.01-4.1c.047-.654.1-1.284.19-1.9a9.755,9.755,0,0,1,.45-1.758,10.309,10.309,0,0,1,1.543-2.853,10.429,10.429,0,0,1,3.565-3,7.838,7.838,0,0,1,1.172-.5A2.344,2.344,0,0,1,62.542,216.493Z" transform="translate(-55.127 -216.491)" fill="#263238"/></g><g transform="translate(11.81 31.753)"><path d="M83.353,219.746a3.154,3.154,0,0,1-.592-.354L81.2,218.334l.166-.083c-.007.8-.016,1.728-.026,2.753l0,.219-.2-.1L77.916,219.5c-2.2-1.117-4.187-2.143-5.617-2.9l-1.687-.909a3.183,3.183,0,0,1-.6-.37,3.2,3.2,0,0,1,.653.266l1.729.824c1.455.708,3.455,1.7,5.657,2.82l3.217,1.646-.2.119c.033-1.025.064-1.957.09-2.752l.007-.2.159.12,1.5,1.135A3.04,3.04,0,0,1,83.353,219.746Z" transform="translate(-70.012 -215.321)" fill="#263238"/></g><g transform="translate(12.678 159.548)"><path d="M88.524,442.036l-4.726,9.9s9.073,8.316,8.388,10.233L71.522,453.33,78.215,437.6Z" transform="translate(-71.522 -437.598)" fill="#263238"/><g transform="translate(5.265 10.746)"><path d="M81.666,456.3a.87.87,0,0,0-.976.661.882.882,0,0,0,.709.961.916.916,0,0,0,1.03-.7.927.927,0,0,0-.851-.924" transform="translate(-80.68 -456.289)" fill="#e0e0e0"/></g><g transform="translate(0 14.174)"><path d="M71.522,463.809l.741-1.558L91.8,471.3s.757.772.389,1.34Z" transform="translate(-71.522 -462.251)" fill="#455a64"/></g><g transform="translate(10.302 14.013)"><path d="M91.792,462.336c-.045.094-.568-.079-1.2.016-.632.079-1.066.382-1.143.3-.085-.058.312-.564,1.076-.665S91.852,462.257,91.792,462.336Z" transform="translate(-89.441 -461.971)" fill="#fff"/></g><g transform="translate(12.488 15.994)"><path d="M95.209,465.574c-.017.1-.524.078-1.041.335-.525.241-.8.641-.9.593-.1-.025.07-.613.719-.921S95.247,465.482,95.209,465.574Z" transform="translate(-93.243 -465.417)" fill="#fff"/></g><g transform="translate(14.587 17.789)"><path d="M96.933,469.879c-.1-.019-.035-.555.449-.966s1.046-.418,1.055-.32-.4.252-.8.6S97.037,469.912,96.933,469.879Z" transform="translate(-96.893 -468.539)" fill="#fff"/></g></g></g></g></g></svg>