<svg xmlns="http://www.w3.org/2000/svg" xmlns:xlink="http://www.w3.org/1999/xlink" width="811" height="95" viewBox="0 0 811 95">
  <defs>
    <filter id="Rect치ngulo_340689" x="0" y="0" width="811" height="95" filterUnits="userSpaceOnUse">
      <feOffset dy="3" input="SourceAlpha"/>
      <feGaussianBlur stdDeviation="3" result="blur"/>
      <feFlood flood-opacity="0.161"/>
      <feComposite operator="in" in2="blur"/>
      <feComposite in="SourceGraphic"/>
    </filter>
  </defs>
  <g id="Grupo_964522" data-name="Grupo 964522" transform="translate(1921 7521)">
    <g transform="matrix(1, 0, 0, 1, -1921, -7521)" filter="url(#Rect치ngulo_340689)">
      <rect id="Rect치ngulo_340689-2" data-name="Rect치ngulo 340689" width="793" height="77" rx="20" transform="translate(9 6)" fill="#fff"/>
    </g>
    <path id="Trazado_728016" data-name="Trazado 728016" d="M1.025-11.484a2.885,2.885,0,0,1,.815-2.109,2.809,2.809,0,0,1,2.095-.83,2.792,2.792,0,0,1,2.1.835,2.985,2.985,0,0,1,.806,2.163v.693a2.848,2.848,0,0,1-.815,2.1,2.811,2.811,0,0,1-2.075.815,2.873,2.873,0,0,1-2.1-.815,2.908,2.908,0,0,1-.83-2.173Zm1.348.748A1.848,1.848,0,0,0,2.8-9.479a1.45,1.45,0,0,0,1.152.494,1.422,1.422,0,0,0,1.118-.48A1.908,1.908,0,0,0,5.5-10.776v-.715a1.894,1.894,0,0,0-.42-1.263,1.415,1.415,0,0,0-1.143-.5,1.415,1.415,0,0,0-1.143.5,1.954,1.954,0,0,0-.42,1.3Zm5.576,7.25a2.869,2.869,0,0,1,.815-2.1,2.818,2.818,0,0,1,2.095-.825,2.843,2.843,0,0,1,2.1.82,2.944,2.944,0,0,1,.82,2.178v.693a2.869,2.869,0,0,1-.815,2.1,2.806,2.806,0,0,1-2.085.825,2.873,2.873,0,0,1-2.1-.815,2.908,2.908,0,0,1-.83-2.173ZM9.3-2.729a1.862,1.862,0,0,0,.43,1.267,1.45,1.45,0,0,0,1.152.494A1.412,1.412,0,0,0,12-1.451a1.942,1.942,0,0,0,.42-1.317v-.724A1.857,1.857,0,0,0,12-4.755a1.431,1.431,0,0,0-1.138-.489,1.445,1.445,0,0,0-1.128.484A1.884,1.884,0,0,0,9.3-3.453ZM4.365-1.074,3.34-1.719l6.943-11.113,1.025.645ZM21.25,0V-14.219h4.014a6.461,6.461,0,0,1,3.281.82,5.548,5.548,0,0,1,2.2,2.334,7.6,7.6,0,0,1,.786,3.477v.908a7.624,7.624,0,0,1-.776,3.525A5.461,5.461,0,0,1,28.54-.83,6.873,6.873,0,0,1,25.186,0Zm1.875-12.686V-1.533H25.1a4.292,4.292,0,0,0,3.374-1.349,5.573,5.573,0,0,0,1.206-3.841v-.831a5.661,5.661,0,0,0-1.138-3.768,4.049,4.049,0,0,0-3.228-1.364ZM38.467.2a4.617,4.617,0,0,1-3.5-1.411A5.237,5.237,0,0,1,33.623-4.99v-.332a6.341,6.341,0,0,1,.6-2.808,4.685,4.685,0,0,1,1.68-1.934,4.223,4.223,0,0,1,2.339-.7,3.957,3.957,0,0,1,3.2,1.357,5.877,5.877,0,0,1,1.143,3.887v.752H35.43a3.756,3.756,0,0,0,.913,2.524,2.87,2.87,0,0,0,2.222.962,3.147,3.147,0,0,0,1.621-.391,4.073,4.073,0,0,0,1.162-1.035l1.1.859A4.437,4.437,0,0,1,38.467.2Zm-.225-9.473a2.41,2.41,0,0,0-1.836.8,3.868,3.868,0,0,0-.918,2.231h5.293v-.137a3.441,3.441,0,0,0-.742-2.134A2.269,2.269,0,0,0,38.242-9.277ZM50.83-2.8a1.33,1.33,0,0,0-.552-1.138,5.311,5.311,0,0,0-1.924-.7,9.1,9.1,0,0,1-2.178-.7,3.1,3.1,0,0,1-1.191-.977A2.336,2.336,0,0,1,44.6-7.666a2.741,2.741,0,0,1,1.1-2.2,4.291,4.291,0,0,1,2.808-.9,4.415,4.415,0,0,1,2.915.928,2.947,2.947,0,0,1,1.118,2.373H50.723a1.631,1.631,0,0,0-.63-1.279,2.36,2.36,0,0,0-1.587-.537,2.47,2.47,0,0,0-1.543.43,1.353,1.353,0,0,0-.557,1.123,1.1,1.1,0,0,0,.518.986,6.368,6.368,0,0,0,1.87.635,9.744,9.744,0,0,1,2.192.723A3.2,3.2,0,0,1,52.231-4.37a2.485,2.485,0,0,1,.405,1.44A2.7,2.7,0,0,1,51.5-.659,4.752,4.752,0,0,1,48.564.2a5.321,5.321,0,0,1-2.246-.449A3.653,3.653,0,0,1,44.79-1.509a3.025,3.025,0,0,1-.552-1.743h1.807a1.87,1.87,0,0,0,.728,1.44,2.822,2.822,0,0,0,1.792.532,2.913,2.913,0,0,0,1.646-.415A1.275,1.275,0,0,0,50.83-2.8Zm6.611-10.322v2.559h1.973v1.4H57.441v6.561a1.467,1.467,0,0,0,.264.953,1.11,1.11,0,0,0,.9.318,4.374,4.374,0,0,0,.859-.117V0A5.268,5.268,0,0,1,58.076.2,2.25,2.25,0,0,1,56.25-.537a3.147,3.147,0,0,1-.615-2.08V-9.17H53.711v-1.4h1.924v-2.559ZM63.486,0H61.68V-10.566h1.807ZM61.533-13.369a1.078,1.078,0,0,1,.269-.742,1.008,1.008,0,0,1,.8-.3,1.024,1.024,0,0,1,.8.3,1.067,1.067,0,0,1,.273.742,1.032,1.032,0,0,1-.273.732,1.043,1.043,0,0,1-.8.293,1.026,1.026,0,0,1-.8-.293A1.043,1.043,0,0,1,61.533-13.369Zm6.553,2.8.059,1.328a3.85,3.85,0,0,1,3.164-1.523q3.35,0,3.379,3.779V0H72.881V-6.992a2.432,2.432,0,0,0-.522-1.689,2.094,2.094,0,0,0-1.6-.547,2.607,2.607,0,0,0-1.543.469,3.183,3.183,0,0,0-1.035,1.23V0H66.377V-10.566ZM83.936,0a3.8,3.8,0,0,1-.254-1.113A4.031,4.031,0,0,1,80.674.2,3.73,3.73,0,0,1,78.11-.688a2.859,2.859,0,0,1-1-2.241,2.987,2.987,0,0,1,1.255-2.563,5.916,5.916,0,0,1,3.53-.913h1.758v-.83a2.029,2.029,0,0,0-.566-1.509,2.276,2.276,0,0,0-1.67-.562,2.634,2.634,0,0,0-1.621.488,1.439,1.439,0,0,0-.654,1.182H77.324a2.493,2.493,0,0,1,.562-1.528,3.832,3.832,0,0,1,1.523-1.167,5.125,5.125,0,0,1,2.114-.43,4.177,4.177,0,0,1,2.861.913,3.294,3.294,0,0,1,1.074,2.515v4.863A5.946,5.946,0,0,0,85.83-.156V0Zm-3-1.377a3.175,3.175,0,0,0,1.611-.439,2.658,2.658,0,0,0,1.1-1.143V-5.127H82.236q-3.32,0-3.32,1.943a1.645,1.645,0,0,0,.566,1.328A2.177,2.177,0,0,0,80.938-1.377Zm11.592.1a2.6,2.6,0,0,0,1.689-.586,2.061,2.061,0,0,0,.8-1.465h1.709A3.276,3.276,0,0,1,96.1-1.6,4.116,4.116,0,0,1,94.565-.293,4.438,4.438,0,0,1,92.529.2,4.353,4.353,0,0,1,89.1-1.245a5.737,5.737,0,0,1-1.274-3.94v-.3a6.361,6.361,0,0,1,.566-2.744A4.314,4.314,0,0,1,90.015-10.1a4.619,4.619,0,0,1,2.5-.664A4.238,4.238,0,0,1,95.474-9.7a3.8,3.8,0,0,1,1.255,2.764H95.02a2.49,2.49,0,0,0-.776-1.685,2.415,2.415,0,0,0-1.724-.659,2.529,2.529,0,0,0-2.134.991,4.655,4.655,0,0,0-.757,2.866v.342a4.562,4.562,0,0,0,.752,2.813A2.541,2.541,0,0,0,92.529-1.279ZM100.723,0H98.916V-10.566h1.807ZM98.77-13.369a1.078,1.078,0,0,1,.269-.742,1.008,1.008,0,0,1,.8-.3,1.024,1.024,0,0,1,.8.3,1.067,1.067,0,0,1,.273.742,1.032,1.032,0,0,1-.273.732,1.043,1.043,0,0,1-.8.293,1.026,1.026,0,0,1-.8-.293A1.043,1.043,0,0,1,98.77-13.369Zm4.365,7.988a6.241,6.241,0,0,1,.61-2.793,4.553,4.553,0,0,1,1.7-1.914,4.626,4.626,0,0,1,2.485-.674,4.456,4.456,0,0,1,3.491,1.494,5.748,5.748,0,0,1,1.333,3.975v.127a6.3,6.3,0,0,1-.591,2.769,4.486,4.486,0,0,1-1.689,1.909A4.679,4.679,0,0,1,107.949.2,4.445,4.445,0,0,1,104.468-1.3a5.719,5.719,0,0,1-1.333-3.955Zm1.816.215a4.52,4.52,0,0,0,.815,2.822,2.61,2.61,0,0,0,2.183,1.064,2.594,2.594,0,0,0,2.188-1.079,4.943,4.943,0,0,0,.811-3.022,4.513,4.513,0,0,0-.825-2.817,2.623,2.623,0,0,0-2.192-1.079,2.594,2.594,0,0,0-2.158,1.064A4.906,4.906,0,0,0,104.951-5.166ZM108.75-15h2.188l-2.617,2.871-1.455,0Zm7.979,4.434.059,1.328a3.85,3.85,0,0,1,3.164-1.523q3.35,0,3.379,3.779V0h-1.807V-6.992A2.432,2.432,0,0,0,121-8.682a2.094,2.094,0,0,0-1.6-.547,2.607,2.607,0,0,0-1.543.469,3.183,3.183,0,0,0-1.035,1.23V0H115.02V-10.566ZM132.969,0h-1.807V-10.566h1.807Zm-1.953-13.369a1.078,1.078,0,0,1,.269-.742,1.008,1.008,0,0,1,.8-.3,1.024,1.024,0,0,1,.8.3,1.067,1.067,0,0,1,.273.742,1.032,1.032,0,0,1-.273.732,1.043,1.043,0,0,1-.8.293,1.026,1.026,0,0,1-.8-.293A1.043,1.043,0,0,1,131.016-13.369Zm6.553,2.8.059,1.328a3.851,3.851,0,0,1,3.164-1.523q3.35,0,3.379,3.779V0h-1.807V-6.992a2.433,2.433,0,0,0-.522-1.689,2.094,2.094,0,0,0-1.6-.547,2.607,2.607,0,0,0-1.543.469,3.183,3.183,0,0,0-1.035,1.23V0h-1.807V-10.566Zm13.564,9.287a2.6,2.6,0,0,0,1.689-.586,2.061,2.061,0,0,0,.8-1.465h1.709a3.276,3.276,0,0,1-.625,1.729,4.116,4.116,0,0,1-1.538,1.309A4.438,4.438,0,0,1,151.133.2a4.353,4.353,0,0,1-3.433-1.44,5.737,5.737,0,0,1-1.274-3.94v-.3a6.361,6.361,0,0,1,.566-2.744,4.314,4.314,0,0,1,1.626-1.865,4.619,4.619,0,0,1,2.5-.664A4.238,4.238,0,0,1,154.077-9.7a3.8,3.8,0,0,1,1.255,2.764h-1.709a2.49,2.49,0,0,0-.776-1.685,2.415,2.415,0,0,0-1.724-.659,2.529,2.529,0,0,0-2.134.991,4.655,4.655,0,0,0-.757,2.866v.342a4.562,4.562,0,0,0,.752,2.813A2.541,2.541,0,0,0,151.133-1.279ZM159.326,0H157.52V-10.566h1.807Zm-1.953-13.369a1.078,1.078,0,0,1,.269-.742,1.008,1.008,0,0,1,.8-.3,1.024,1.024,0,0,1,.8.3,1.067,1.067,0,0,1,.273.742,1.032,1.032,0,0,1-.273.732,1.043,1.043,0,0,1-.8.293,1.026,1.026,0,0,1-.8-.293A1.043,1.043,0,0,1,157.373-13.369Zm6.553,2.8.059,1.328a3.851,3.851,0,0,1,3.164-1.523q3.35,0,3.379,3.779V0h-1.807V-6.992a2.433,2.433,0,0,0-.522-1.689,2.094,2.094,0,0,0-1.6-.547,2.607,2.607,0,0,0-1.543.469,3.183,3.183,0,0,0-1.035,1.23V0h-1.807V-10.566ZM177.637.2a4.617,4.617,0,0,1-3.5-1.411,5.237,5.237,0,0,1-1.348-3.774v-.332a6.341,6.341,0,0,1,.6-2.808,4.685,4.685,0,0,1,1.68-1.934,4.223,4.223,0,0,1,2.339-.7,3.957,3.957,0,0,1,3.2,1.357,5.877,5.877,0,0,1,1.143,3.887v.752H174.6a3.756,3.756,0,0,0,.913,2.524,2.87,2.87,0,0,0,2.222.962,3.147,3.147,0,0,0,1.621-.391,4.073,4.073,0,0,0,1.162-1.035l1.1.859A4.437,4.437,0,0,1,177.637.2Zm-.225-9.473a2.41,2.41,0,0,0-1.836.8,3.868,3.868,0,0,0-.918,2.231h5.293v-.137a3.441,3.441,0,0,0-.742-2.134A2.269,2.269,0,0,0,177.412-9.277Zm11.543.332a5.414,5.414,0,0,0-.889-.068A2.381,2.381,0,0,0,185.654-7.5V0h-1.807V-10.566h1.758l.029,1.221a2.813,2.813,0,0,1,2.52-1.416,1.846,1.846,0,0,1,.8.137ZM196.748,0a3.8,3.8,0,0,1-.254-1.113A4.031,4.031,0,0,1,193.486.2a3.73,3.73,0,0,1-2.563-.884,2.859,2.859,0,0,1-1-2.241,2.987,2.987,0,0,1,1.255-2.563,5.916,5.916,0,0,1,3.53-.913h1.758v-.83a2.029,2.029,0,0,0-.566-1.509,2.276,2.276,0,0,0-1.67-.562,2.634,2.634,0,0,0-1.621.488,1.439,1.439,0,0,0-.654,1.182h-1.816a2.493,2.493,0,0,1,.562-1.528,3.832,3.832,0,0,1,1.523-1.167,5.125,5.125,0,0,1,2.114-.43,4.177,4.177,0,0,1,2.861.913,3.294,3.294,0,0,1,1.074,2.515v4.863a5.946,5.946,0,0,0,.371,2.314V0Zm-3-1.377a3.175,3.175,0,0,0,1.611-.439,2.658,2.658,0,0,0,1.1-1.143V-5.127h-1.416q-3.32,0-3.32,1.943a1.645,1.645,0,0,0,.566,1.328A2.177,2.177,0,0,0,193.75-1.377Zm11.592.1a2.6,2.6,0,0,0,1.689-.586,2.061,2.061,0,0,0,.8-1.465h1.709a3.276,3.276,0,0,1-.625,1.729,4.116,4.116,0,0,1-1.538,1.309A4.438,4.438,0,0,1,205.342.2a4.353,4.353,0,0,1-3.433-1.44,5.737,5.737,0,0,1-1.274-3.94v-.3a6.361,6.361,0,0,1,.566-2.744,4.314,4.314,0,0,1,1.626-1.865,4.619,4.619,0,0,1,2.5-.664A4.238,4.238,0,0,1,208.286-9.7a3.8,3.8,0,0,1,1.255,2.764h-1.709a2.49,2.49,0,0,0-.776-1.685,2.415,2.415,0,0,0-1.724-.659,2.529,2.529,0,0,0-2.134.991,4.655,4.655,0,0,0-.757,2.866v.342a4.562,4.562,0,0,0,.752,2.813A2.541,2.541,0,0,0,205.342-1.279ZM213.535,0h-1.807V-10.566h1.807Zm-1.953-13.369a1.078,1.078,0,0,1,.269-.742,1.008,1.008,0,0,1,.8-.3,1.024,1.024,0,0,1,.8.3,1.067,1.067,0,0,1,.273.742,1.032,1.032,0,0,1-.273.732,1.043,1.043,0,0,1-.8.293,1.026,1.026,0,0,1-.8-.293A1.043,1.043,0,0,1,211.582-13.369Zm4.365,7.988a6.241,6.241,0,0,1,.61-2.793,4.553,4.553,0,0,1,1.7-1.914,4.626,4.626,0,0,1,2.485-.674,4.456,4.456,0,0,1,3.491,1.494,5.748,5.748,0,0,1,1.333,3.975v.127a6.3,6.3,0,0,1-.591,2.769,4.486,4.486,0,0,1-1.689,1.909A4.679,4.679,0,0,1,220.762.2,4.445,4.445,0,0,1,217.28-1.3a5.719,5.719,0,0,1-1.333-3.955Zm1.816.215a4.52,4.52,0,0,0,.815,2.822,2.61,2.61,0,0,0,2.183,1.064,2.594,2.594,0,0,0,2.188-1.079,4.943,4.943,0,0,0,.811-3.022,4.513,4.513,0,0,0-.825-2.817,2.623,2.623,0,0,0-2.192-1.079,2.594,2.594,0,0,0-2.158,1.064A4.906,4.906,0,0,0,217.764-5.166Zm3.8-9.834h2.188l-2.617,2.871-1.455,0Zm7.979,4.434.059,1.328a3.851,3.851,0,0,1,3.164-1.523q3.35,0,3.379,3.779V0h-1.807V-6.992a2.433,2.433,0,0,0-.522-1.689,2.094,2.094,0,0,0-1.6-.547,2.607,2.607,0,0,0-1.543.469,3.183,3.183,0,0,0-1.035,1.23V0h-1.807V-10.566ZM252.08-7.949h-8.145V-9.521h8.145Zm0,4.053h-8.145V-5.459h8.145Z" transform="translate(-1881 -7472)" fill="#12263f"/>
    <path id="Trazado_728019" data-name="Trazado 728019" d="M6.289-8.77,9.7-14.219H11.9L7.412-7.168,12.012,0H9.785l-3.5-5.547L2.773,0H.557L5.166-7.168l-4.5-7.051h2.2ZM24.609,0H22.793V-12.041L19.15-10.7v-1.641l5.176-1.943h.283ZM38.818-6.064a8.263,8.263,0,0,1-1.084,4.717A3.855,3.855,0,0,1,34.346.2a3.883,3.883,0,0,1-3.369-1.509A7.843,7.843,0,0,1,29.844-5.82V-8.232a8.079,8.079,0,0,1,1.084-4.658,3.885,3.885,0,0,1,3.4-1.523,3.92,3.92,0,0,1,3.379,1.47,7.8,7.8,0,0,1,1.113,4.536ZM37.012-8.535a6.62,6.62,0,0,0-.645-3.345,2.218,2.218,0,0,0-2.041-1.05A2.189,2.189,0,0,0,32.3-11.885a6.464,6.464,0,0,0-.654,3.213v2.891a6.726,6.726,0,0,0,.669,3.4,2.214,2.214,0,0,0,2.026,1.1,2.184,2.184,0,0,0,1.987-1.035,6.483,6.483,0,0,0,.679-3.262ZM50.049-6.064a8.263,8.263,0,0,1-1.084,4.717A3.855,3.855,0,0,1,45.576.2a3.883,3.883,0,0,1-3.369-1.509A7.843,7.843,0,0,1,41.074-5.82V-8.232a8.079,8.079,0,0,1,1.084-4.658,3.885,3.885,0,0,1,3.4-1.523,3.92,3.92,0,0,1,3.379,1.47,7.8,7.8,0,0,1,1.113,4.536ZM48.242-8.535A6.62,6.62,0,0,0,47.6-11.88a2.218,2.218,0,0,0-2.041-1.05,2.189,2.189,0,0,0-2.021,1.045,6.464,6.464,0,0,0-.654,3.213v2.891a6.726,6.726,0,0,0,.669,3.4,2.214,2.214,0,0,0,2.026,1.1,2.184,2.184,0,0,0,1.987-1.035,6.483,6.483,0,0,0,.679-3.262Z" transform="translate(-1250 -7476)" fill="#12263f"/>
    <g id="Grupo_964494" data-name="Grupo 964494" transform="translate(-2194 -11571)">
      <path id="Trazado_728017" data-name="Trazado 728017" d="M6.865-5.752H3.525V0H1.641V-14.219H6.348a5.571,5.571,0,0,1,3.7,1.094,3.935,3.935,0,0,1,1.294,3.184,3.828,3.828,0,0,1-.718,2.314,4.285,4.285,0,0,1-2,1.475l3.34,6.035V0H9.951ZM3.525-7.285H6.406a3.249,3.249,0,0,0,2.222-.724,2.448,2.448,0,0,0,.825-1.937,2.578,2.578,0,0,0-.786-2.025A3.329,3.329,0,0,0,6.4-12.686H3.525ZM18.066.2a4.617,4.617,0,0,1-3.5-1.411A5.237,5.237,0,0,1,13.223-4.99v-.332a6.341,6.341,0,0,1,.6-2.808,4.685,4.685,0,0,1,1.68-1.934,4.223,4.223,0,0,1,2.339-.7,3.957,3.957,0,0,1,3.2,1.357,5.877,5.877,0,0,1,1.143,3.887v.752H15.029a3.756,3.756,0,0,0,.913,2.524,2.87,2.87,0,0,0,2.222.962,3.147,3.147,0,0,0,1.621-.391,4.073,4.073,0,0,0,1.162-1.035l1.1.859A4.437,4.437,0,0,1,18.066.2Zm-.225-9.473a2.41,2.41,0,0,0-1.836.8,3.868,3.868,0,0,0-.918,2.231h5.293v-.137a3.441,3.441,0,0,0-.742-2.134A2.269,2.269,0,0,0,17.842-9.277ZM30.43-2.8a1.33,1.33,0,0,0-.552-1.138,5.311,5.311,0,0,0-1.924-.7,9.1,9.1,0,0,1-2.178-.7,3.1,3.1,0,0,1-1.191-.977A2.336,2.336,0,0,1,24.2-7.666a2.741,2.741,0,0,1,1.1-2.2,4.291,4.291,0,0,1,2.808-.9,4.415,4.415,0,0,1,2.915.928,2.947,2.947,0,0,1,1.118,2.373H30.322a1.631,1.631,0,0,0-.63-1.279,2.36,2.36,0,0,0-1.587-.537,2.47,2.47,0,0,0-1.543.43,1.353,1.353,0,0,0-.557,1.123,1.1,1.1,0,0,0,.518.986,6.368,6.368,0,0,0,1.87.635,9.744,9.744,0,0,1,2.192.723A3.2,3.2,0,0,1,31.831-4.37a2.485,2.485,0,0,1,.405,1.44A2.7,2.7,0,0,1,31.1-.659,4.752,4.752,0,0,1,28.164.2a5.321,5.321,0,0,1-2.246-.449A3.653,3.653,0,0,1,24.39-1.509a3.025,3.025,0,0,1-.552-1.743h1.807a1.87,1.87,0,0,0,.728,1.44,2.822,2.822,0,0,0,1.792.532,2.913,2.913,0,0,0,1.646-.415A1.275,1.275,0,0,0,30.43-2.8ZM36.553,0H34.746V-10.566h1.807ZM34.6-13.369a1.078,1.078,0,0,1,.269-.742,1.008,1.008,0,0,1,.8-.3,1.024,1.024,0,0,1,.8.3,1.067,1.067,0,0,1,.273.742,1.032,1.032,0,0,1-.273.732,1.043,1.043,0,0,1-.8.293,1.026,1.026,0,0,1-.8-.293A1.043,1.043,0,0,1,34.6-13.369Zm4.4,8a6.19,6.19,0,0,1,1.152-3.911,3.644,3.644,0,0,1,3.018-1.479,3.665,3.665,0,0,1,2.939,1.27V-15H47.92V0H46.26l-.088-1.133A3.679,3.679,0,0,1,43.154.2a3.609,3.609,0,0,1-2.993-1.5A6.26,6.26,0,0,1,39-5.234Zm1.807.205a4.687,4.687,0,0,0,.742,2.813A2.4,2.4,0,0,0,43.6-1.338a2.636,2.636,0,0,0,2.51-1.543V-7.734a2.656,2.656,0,0,0-2.49-1.494A2.411,2.411,0,0,0,41.553-8.2,5.16,5.16,0,0,0,40.811-5.166ZM57.246-1.045A3.837,3.837,0,0,1,54.15.2a3.285,3.285,0,0,1-2.573-.981,4.248,4.248,0,0,1-.894-2.905v-6.875H52.49V-3.74q0,2.4,1.953,2.4A2.7,2.7,0,0,0,57.2-2.881v-7.686H59V0H57.285ZM61.27-5.381a6.241,6.241,0,0,1,.61-2.793,4.553,4.553,0,0,1,1.7-1.914,4.626,4.626,0,0,1,2.485-.674,4.456,4.456,0,0,1,3.491,1.494,5.748,5.748,0,0,1,1.333,3.975v.127A6.3,6.3,0,0,1,70.3-2.4,4.486,4.486,0,0,1,68.608-.488,4.679,4.679,0,0,1,66.084.2,4.445,4.445,0,0,1,62.6-1.3,5.719,5.719,0,0,1,61.27-5.254Zm1.816.215A4.52,4.52,0,0,0,63.9-2.344a2.61,2.61,0,0,0,2.183,1.064,2.594,2.594,0,0,0,2.188-1.079,4.943,4.943,0,0,0,.811-3.022A4.513,4.513,0,0,0,68.257-8.2a2.623,2.623,0,0,0-2.192-1.079,2.594,2.594,0,0,0-2.158,1.064A4.906,4.906,0,0,0,63.086-5.166ZM79.307-2.8a1.33,1.33,0,0,0-.552-1.138,5.311,5.311,0,0,0-1.924-.7,9.1,9.1,0,0,1-2.178-.7,3.1,3.1,0,0,1-1.191-.977,2.336,2.336,0,0,1-.386-1.348,2.741,2.741,0,0,1,1.1-2.2,4.291,4.291,0,0,1,2.808-.9,4.415,4.415,0,0,1,2.915.928,2.947,2.947,0,0,1,1.118,2.373H79.2a1.631,1.631,0,0,0-.63-1.279,2.36,2.36,0,0,0-1.587-.537,2.47,2.47,0,0,0-1.543.43,1.353,1.353,0,0,0-.557,1.123,1.1,1.1,0,0,0,.518.986,6.368,6.368,0,0,0,1.87.635,9.744,9.744,0,0,1,2.192.723A3.2,3.2,0,0,1,80.708-4.37a2.485,2.485,0,0,1,.405,1.44A2.7,2.7,0,0,1,79.98-.659,4.752,4.752,0,0,1,77.041.2a5.321,5.321,0,0,1-2.246-.449,3.653,3.653,0,0,1-1.528-1.255,3.025,3.025,0,0,1-.552-1.743h1.807a1.87,1.87,0,0,0,.728,1.44,2.822,2.822,0,0,0,1.792.532,2.913,2.913,0,0,0,1.646-.415A1.275,1.275,0,0,0,79.307-2.8ZM97.344-5.166a6.327,6.327,0,0,1-1.1,3.887A3.537,3.537,0,0,1,93.252.2a3.875,3.875,0,0,1-3.027-1.221V4.063H88.418V-10.566h1.65l.088,1.172a3.722,3.722,0,0,1,3.066-1.367,3.6,3.6,0,0,1,3.013,1.436,6.4,6.4,0,0,1,1.108,3.994Zm-1.807-.205a4.669,4.669,0,0,0-.762-2.822,2.454,2.454,0,0,0-2.09-1.035,2.656,2.656,0,0,0-2.461,1.455v5.049a2.661,2.661,0,0,0,2.48,1.445,2.442,2.442,0,0,0,2.065-1.03A5.1,5.1,0,0,0,95.537-5.371ZM104.023.2a4.617,4.617,0,0,1-3.5-1.411A5.237,5.237,0,0,1,99.18-4.99v-.332a6.341,6.341,0,0,1,.6-2.808,4.685,4.685,0,0,1,1.68-1.934,4.223,4.223,0,0,1,2.339-.7A3.957,3.957,0,0,1,107-9.4a5.877,5.877,0,0,1,1.143,3.887v.752h-7.158a3.756,3.756,0,0,0,.913,2.524,2.87,2.87,0,0,0,2.222.962,3.147,3.147,0,0,0,1.621-.391A4.073,4.073,0,0,0,106.9-2.705l1.1.859A4.437,4.437,0,0,1,104.023.2ZM103.8-9.277a2.41,2.41,0,0,0-1.836.8,3.869,3.869,0,0,0-.918,2.231h5.293v-.137a3.441,3.441,0,0,0-.742-2.134A2.269,2.269,0,0,0,103.8-9.277ZM112.2,0h-1.807V-15H112.2Zm4.854,0h-1.807V-10.566h1.807ZM115.1-13.369a1.078,1.078,0,0,1,.269-.742,1.008,1.008,0,0,1,.8-.3,1.024,1.024,0,0,1,.8.3,1.067,1.067,0,0,1,.273.742,1.032,1.032,0,0,1-.273.732,1.043,1.043,0,0,1-.8.293,1.026,1.026,0,0,1-.8-.293A1.043,1.043,0,0,1,115.1-13.369Zm4.414,8A6.21,6.21,0,0,1,120.654-9.3a3.654,3.654,0,0,1,3.027-1.46A3.635,3.635,0,0,1,126.7-9.395l.088-1.172h1.65V-.254a4.3,4.3,0,0,1-1.216,3.232,4.487,4.487,0,0,1-3.267,1.182,5.435,5.435,0,0,1-2.236-.488,3.85,3.85,0,0,1-1.67-1.338l.938-1.084a3.533,3.533,0,0,0,2.842,1.436,2.768,2.768,0,0,0,2.056-.742,2.837,2.837,0,0,0,.737-2.09v-.908A3.713,3.713,0,0,1,123.662.2a3.609,3.609,0,0,1-3-1.494A6.529,6.529,0,0,1,119.512-5.371Zm1.816.205a4.738,4.738,0,0,0,.732,2.808,2.38,2.38,0,0,0,2.051,1.021,2.646,2.646,0,0,0,2.51-1.553V-7.715a2.677,2.677,0,0,0-2.49-1.514A2.4,2.4,0,0,0,122.07-8.2,5.16,5.16,0,0,0,121.328-5.166ZM136.27-8.945a5.414,5.414,0,0,0-.889-.068A2.381,2.381,0,0,0,132.969-7.5V0h-1.807V-10.566h1.758l.029,1.221a2.813,2.813,0,0,1,2.52-1.416,1.846,1.846,0,0,1,.8.137Zm.986,3.564a6.241,6.241,0,0,1,.61-2.793,4.553,4.553,0,0,1,1.7-1.914,4.626,4.626,0,0,1,2.485-.674,4.456,4.456,0,0,1,3.491,1.494,5.748,5.748,0,0,1,1.333,3.975v.127a6.3,6.3,0,0,1-.591,2.769,4.486,4.486,0,0,1-1.689,1.909A4.679,4.679,0,0,1,142.07.2,4.445,4.445,0,0,1,138.589-1.3a5.719,5.719,0,0,1-1.333-3.955Zm1.816.215a4.52,4.52,0,0,0,.815,2.822,2.61,2.61,0,0,0,2.183,1.064,2.594,2.594,0,0,0,2.188-1.079,4.943,4.943,0,0,0,.811-3.022,4.513,4.513,0,0,0-.825-2.817,2.623,2.623,0,0,0-2.192-1.079,2.594,2.594,0,0,0-2.158,1.064A4.906,4.906,0,0,0,139.072-5.166ZM155.293-2.8a1.33,1.33,0,0,0-.552-1.138,5.311,5.311,0,0,0-1.924-.7,9.1,9.1,0,0,1-2.178-.7,3.1,3.1,0,0,1-1.191-.977,2.336,2.336,0,0,1-.386-1.348,2.741,2.741,0,0,1,1.1-2.2,4.291,4.291,0,0,1,2.808-.9,4.415,4.415,0,0,1,2.915.928A2.947,2.947,0,0,1,157-7.461h-1.816a1.631,1.631,0,0,0-.63-1.279,2.36,2.36,0,0,0-1.587-.537,2.47,2.47,0,0,0-1.543.43,1.353,1.353,0,0,0-.557,1.123,1.1,1.1,0,0,0,.518.986,6.368,6.368,0,0,0,1.87.635,9.744,9.744,0,0,1,2.192.723,3.2,3.2,0,0,1,1.245,1.011,2.485,2.485,0,0,1,.405,1.44,2.7,2.7,0,0,1-1.133,2.271A4.752,4.752,0,0,1,153.027.2a5.321,5.321,0,0,1-2.246-.449,3.653,3.653,0,0,1-1.528-1.255,3.025,3.025,0,0,1-.552-1.743h1.807a1.87,1.87,0,0,0,.728,1.44,2.822,2.822,0,0,0,1.792.532,2.913,2.913,0,0,0,1.646-.415A1.275,1.275,0,0,0,155.293-2.8Zm3.682-2.578a6.241,6.241,0,0,1,.61-2.793,4.553,4.553,0,0,1,1.7-1.914,4.626,4.626,0,0,1,2.485-.674,4.456,4.456,0,0,1,3.491,1.494,5.748,5.748,0,0,1,1.333,3.975v.127A6.3,6.3,0,0,1,168-2.4a4.486,4.486,0,0,1-1.689,1.909A4.679,4.679,0,0,1,163.789.2,4.445,4.445,0,0,1,160.308-1.3a5.719,5.719,0,0,1-1.333-3.955Zm1.816.215a4.52,4.52,0,0,0,.815,2.822,2.61,2.61,0,0,0,2.183,1.064,2.594,2.594,0,0,0,2.188-1.079,4.943,4.943,0,0,0,.811-3.022,4.513,4.513,0,0,0-.825-2.817,2.623,2.623,0,0,0-2.192-1.079,2.594,2.594,0,0,0-2.158,1.064A4.906,4.906,0,0,0,160.791-5.166ZM177.012-2.8a1.33,1.33,0,0,0-.552-1.138,5.311,5.311,0,0,0-1.924-.7,9.1,9.1,0,0,1-2.178-.7,3.1,3.1,0,0,1-1.191-.977,2.336,2.336,0,0,1-.386-1.348,2.741,2.741,0,0,1,1.1-2.2,4.291,4.291,0,0,1,2.808-.9,4.415,4.415,0,0,1,2.915.928,2.947,2.947,0,0,1,1.118,2.373H176.9a1.631,1.631,0,0,0-.63-1.279,2.36,2.36,0,0,0-1.587-.537,2.47,2.47,0,0,0-1.543.43,1.353,1.353,0,0,0-.557,1.123,1.1,1.1,0,0,0,.518.986,6.368,6.368,0,0,0,1.87.635,9.744,9.744,0,0,1,2.192.723,3.2,3.2,0,0,1,1.245,1.011,2.485,2.485,0,0,1,.405,1.44,2.7,2.7,0,0,1-1.133,2.271A4.752,4.752,0,0,1,174.746.2,5.321,5.321,0,0,1,172.5-.254a3.653,3.653,0,0,1-1.528-1.255,3.025,3.025,0,0,1-.552-1.743h1.807a1.87,1.87,0,0,0,.728,1.44,2.822,2.822,0,0,0,1.792.532,2.913,2.913,0,0,0,1.646-.415A1.275,1.275,0,0,0,177.012-2.8Zm9.043-2.969a15.1,15.1,0,0,1,.591-4.238,12.312,12.312,0,0,1,1.763-3.691,7.5,7.5,0,0,1,2.432-2.344l.371,1.191a7.778,7.778,0,0,0-2.339,3.34,14.479,14.479,0,0,0-1,5.029l-.01.83A14.554,14.554,0,0,0,189.238.889a7.815,7.815,0,0,0,1.973,2.6l-.371,1.1a7.74,7.74,0,0,1-2.48-2.422A13.574,13.574,0,0,1,186.055-5.771Zm9.355-7.354v2.559h1.973v1.4H195.41v6.561a1.467,1.467,0,0,0,.264.953,1.11,1.11,0,0,0,.9.318,4.374,4.374,0,0,0,.859-.117V0A5.268,5.268,0,0,1,196.045.2a2.25,2.25,0,0,1-1.826-.732,3.147,3.147,0,0,1-.615-2.08V-9.17H191.68v-1.4H193.6v-2.559Zm3.408,7.744a6.241,6.241,0,0,1,.61-2.793,4.553,4.553,0,0,1,1.7-1.914,4.626,4.626,0,0,1,2.485-.674A4.456,4.456,0,0,1,207.1-9.268a5.748,5.748,0,0,1,1.333,3.975v.127a6.3,6.3,0,0,1-.591,2.769,4.486,4.486,0,0,1-1.689,1.909A4.679,4.679,0,0,1,203.633.2,4.445,4.445,0,0,1,200.151-1.3a5.719,5.719,0,0,1-1.333-3.955Zm1.816.215a4.52,4.52,0,0,0,.815,2.822,2.61,2.61,0,0,0,2.183,1.064,2.594,2.594,0,0,0,2.188-1.079,4.943,4.943,0,0,0,.811-3.022,4.513,4.513,0,0,0-.825-2.817,2.623,2.623,0,0,0-2.192-1.079,2.594,2.594,0,0,0-2.158,1.064A4.906,4.906,0,0,0,200.635-5.166Zm11.777-5.4.059,1.328a3.851,3.851,0,0,1,3.164-1.523q3.35,0,3.379,3.779V0h-1.807V-6.992a2.433,2.433,0,0,0-.522-1.689,2.094,2.094,0,0,0-1.6-.547,2.607,2.607,0,0,0-1.543.469,3.183,3.183,0,0,0-1.035,1.23V0H210.7V-10.566ZM222.1,1.221h-1.553l5.938-15.439h1.543Zm9.58-11.787.049,1.172a3.9,3.9,0,0,1,3.135-1.367,3.021,3.021,0,0,1,3.018,1.7,4,4,0,0,1,1.372-1.23,4.052,4.052,0,0,1,2-.469q3.477,0,3.535,3.682V0h-1.807V-6.973a2.426,2.426,0,0,0-.518-1.694,2.279,2.279,0,0,0-1.738-.562,2.4,2.4,0,0,0-1.67.6,2.436,2.436,0,0,0-.771,1.616V0h-1.816V-6.924a2.016,2.016,0,0,0-2.256-2.3,2.417,2.417,0,0,0-2.432,1.514V0h-1.807V-10.566ZM251.895.2a4.617,4.617,0,0,1-3.5-1.411,5.237,5.237,0,0,1-1.348-3.774v-.332a6.341,6.341,0,0,1,.6-2.808,4.685,4.685,0,0,1,1.68-1.934,4.223,4.223,0,0,1,2.339-.7,3.957,3.957,0,0,1,3.2,1.357,5.877,5.877,0,0,1,1.143,3.887v.752h-7.158a3.756,3.756,0,0,0,.913,2.524,2.87,2.87,0,0,0,2.222.962,3.147,3.147,0,0,0,1.621-.391,4.073,4.073,0,0,0,1.162-1.035l1.1.859A4.437,4.437,0,0,1,251.895.2Zm-.225-9.473a2.41,2.41,0,0,0-1.836.8,3.868,3.868,0,0,0-.918,2.231h5.293v-.137a3.441,3.441,0,0,0-.742-2.134A2.269,2.269,0,0,0,251.67-9.277ZM264.258-2.8a1.33,1.33,0,0,0-.552-1.138,5.311,5.311,0,0,0-1.924-.7,9.1,9.1,0,0,1-2.178-.7,3.1,3.1,0,0,1-1.191-.977,2.336,2.336,0,0,1-.386-1.348,2.741,2.741,0,0,1,1.1-2.2,4.291,4.291,0,0,1,2.808-.9,4.415,4.415,0,0,1,2.915.928,2.947,2.947,0,0,1,1.118,2.373H264.15a1.631,1.631,0,0,0-.63-1.279,2.36,2.36,0,0,0-1.587-.537,2.47,2.47,0,0,0-1.543.43,1.353,1.353,0,0,0-.557,1.123,1.1,1.1,0,0,0,.518.986,6.368,6.368,0,0,0,1.87.635,9.744,9.744,0,0,1,2.192.723,3.2,3.2,0,0,1,1.245,1.011,2.485,2.485,0,0,1,.405,1.44,2.7,2.7,0,0,1-1.133,2.271A4.752,4.752,0,0,1,261.992.2a5.321,5.321,0,0,1-2.246-.449,3.653,3.653,0,0,1-1.528-1.255,3.025,3.025,0,0,1-.552-1.743h1.807a1.87,1.87,0,0,0,.728,1.44,2.822,2.822,0,0,0,1.792.532,2.914,2.914,0,0,0,1.646-.415A1.275,1.275,0,0,0,264.258-2.8Zm8.33-2.871a15.106,15.106,0,0,1-.571,4.175,12.345,12.345,0,0,1-1.748,3.687,7.659,7.659,0,0,1-2.466,2.4l-.381-1.1a7.851,7.851,0,0,0,2.417-3.579,15.484,15.484,0,0,0,.933-5.386v-.312a16.076,16.076,0,0,0-.43-3.813,12.87,12.87,0,0,0-1.2-3.159,7.3,7.3,0,0,0-1.724-2.178l.381-1.1a7.629,7.629,0,0,1,2.456,2.383,12.371,12.371,0,0,1,1.748,3.682A15.455,15.455,0,0,1,272.588-5.674Z" transform="translate(618 4085)" fill="#12263f"/>
      <path id="Trazado_728018" data-name="Trazado 728018" d="M11.475-12.686H6.9V0H5.039V-12.686H.479v-1.533h11Zm.381,7.3a6.241,6.241,0,0,1,.61-2.793,4.553,4.553,0,0,1,1.7-1.914,4.626,4.626,0,0,1,2.485-.674,4.456,4.456,0,0,1,3.491,1.494,5.748,5.748,0,0,1,1.333,3.975v.127A6.3,6.3,0,0,1,20.884-2.4,4.486,4.486,0,0,1,19.194-.488,4.679,4.679,0,0,1,16.67.2,4.445,4.445,0,0,1,13.188-1.3a5.719,5.719,0,0,1-1.333-3.955Zm1.816.215a4.52,4.52,0,0,0,.815,2.822A2.61,2.61,0,0,0,16.67-1.279a2.594,2.594,0,0,0,2.188-1.079,4.943,4.943,0,0,0,.811-3.022A4.513,4.513,0,0,0,18.843-8.2,2.623,2.623,0,0,0,16.65-9.277a2.594,2.594,0,0,0-2.158,1.064A4.906,4.906,0,0,0,13.672-5.166Zm12.52-7.959v2.559h1.973v1.4H26.191v6.561a1.467,1.467,0,0,0,.264.953,1.11,1.11,0,0,0,.9.318,4.374,4.374,0,0,0,.859-.117V0A5.268,5.268,0,0,1,26.826.2,2.25,2.25,0,0,1,25-.537a3.147,3.147,0,0,1-.615-2.08V-9.17H22.461v-1.4h1.924v-2.559ZM36.8,0a3.8,3.8,0,0,1-.254-1.113A4.031,4.031,0,0,1,33.535.2a3.73,3.73,0,0,1-2.563-.884,2.859,2.859,0,0,1-1-2.241,2.987,2.987,0,0,1,1.255-2.563,5.916,5.916,0,0,1,3.53-.913h1.758v-.83a2.029,2.029,0,0,0-.566-1.509,2.276,2.276,0,0,0-1.67-.562,2.634,2.634,0,0,0-1.621.488A1.439,1.439,0,0,0,32-7.637H30.186a2.493,2.493,0,0,1,.562-1.528,3.832,3.832,0,0,1,1.523-1.167,5.125,5.125,0,0,1,2.114-.43,4.177,4.177,0,0,1,2.861.913A3.294,3.294,0,0,1,38.32-7.334v4.863a5.946,5.946,0,0,0,.371,2.314V0Zm-3-1.377a3.175,3.175,0,0,0,1.611-.439,2.658,2.658,0,0,0,1.1-1.143V-5.127H35.1q-3.32,0-3.32,1.943a1.645,1.645,0,0,0,.566,1.328A2.177,2.177,0,0,0,33.8-1.377ZM43.115,0H41.309V-15h1.807Zm7.4-5.371A6.19,6.19,0,0,1,51.67-9.282a3.644,3.644,0,0,1,3.018-1.479,3.665,3.665,0,0,1,2.939,1.27V-15h1.807V0h-1.66l-.088-1.133A3.679,3.679,0,0,1,54.668.2a3.609,3.609,0,0,1-2.993-1.5,6.26,6.26,0,0,1-1.157-3.926Zm1.807.205a4.687,4.687,0,0,0,.742,2.813,2.4,2.4,0,0,0,2.051,1.016,2.636,2.636,0,0,0,2.51-1.543V-7.734a2.656,2.656,0,0,0-2.49-1.494A2.411,2.411,0,0,0,53.066-8.2,5.16,5.16,0,0,0,52.324-5.166ZM66.621.2a4.617,4.617,0,0,1-3.5-1.411A5.237,5.237,0,0,1,61.777-4.99v-.332a6.341,6.341,0,0,1,.6-2.808,4.685,4.685,0,0,1,1.68-1.934,4.223,4.223,0,0,1,2.339-.7A3.957,3.957,0,0,1,69.6-9.4a5.877,5.877,0,0,1,1.143,3.887v.752H63.584A3.756,3.756,0,0,0,64.5-2.241a2.87,2.87,0,0,0,2.222.962A3.147,3.147,0,0,0,68.34-1.67,4.073,4.073,0,0,0,69.5-2.705l1.1.859A4.437,4.437,0,0,1,66.621.2ZM66.4-9.277a2.41,2.41,0,0,0-1.836.8,3.869,3.869,0,0,0-.918,2.231h5.293v-.137a3.441,3.441,0,0,0-.742-2.134A2.269,2.269,0,0,0,66.4-9.277Zm16.494.332A5.414,5.414,0,0,0,82-9.014,2.381,2.381,0,0,0,79.59-7.5V0H77.783V-10.566h1.758l.029,1.221a2.813,2.813,0,0,1,2.52-1.416,1.846,1.846,0,0,1,.8.137ZM88.936.2a4.617,4.617,0,0,1-3.5-1.411A5.237,5.237,0,0,1,84.092-4.99v-.332a6.341,6.341,0,0,1,.6-2.808,4.685,4.685,0,0,1,1.68-1.934,4.223,4.223,0,0,1,2.339-.7,3.957,3.957,0,0,1,3.2,1.357,5.877,5.877,0,0,1,1.143,3.887v.752H85.9a3.756,3.756,0,0,0,.913,2.524,2.87,2.87,0,0,0,2.222.962,3.147,3.147,0,0,0,1.621-.391,4.073,4.073,0,0,0,1.162-1.035l1.1.859A4.437,4.437,0,0,1,88.936.2Zm-.225-9.473a2.41,2.41,0,0,0-1.836.8,3.869,3.869,0,0,0-.918,2.231H91.25v-.137a3.441,3.441,0,0,0-.742-2.134A2.269,2.269,0,0,0,88.711-9.277ZM101.3-2.8a1.33,1.33,0,0,0-.552-1.138,5.311,5.311,0,0,0-1.924-.7,9.1,9.1,0,0,1-2.178-.7,3.1,3.1,0,0,1-1.191-.977,2.336,2.336,0,0,1-.386-1.348,2.741,2.741,0,0,1,1.1-2.2,4.291,4.291,0,0,1,2.808-.9,4.415,4.415,0,0,1,2.915.928,2.947,2.947,0,0,1,1.118,2.373h-1.816a1.631,1.631,0,0,0-.63-1.279,2.36,2.36,0,0,0-1.587-.537,2.47,2.47,0,0,0-1.543.43,1.353,1.353,0,0,0-.557,1.123,1.1,1.1,0,0,0,.518.986,6.368,6.368,0,0,0,1.87.635,9.744,9.744,0,0,1,2.192.723A3.2,3.2,0,0,1,102.7-4.37a2.485,2.485,0,0,1,.405,1.44,2.7,2.7,0,0,1-1.133,2.271A4.752,4.752,0,0,1,99.033.2a5.321,5.321,0,0,1-2.246-.449,3.653,3.653,0,0,1-1.528-1.255,3.025,3.025,0,0,1-.552-1.743h1.807a1.87,1.87,0,0,0,.728,1.44,2.822,2.822,0,0,0,1.792.532,2.913,2.913,0,0,0,1.646-.415A1.275,1.275,0,0,0,101.3-2.8ZM107.422,0h-1.807V-10.566h1.807Zm-1.953-13.369a1.078,1.078,0,0,1,.269-.742,1.008,1.008,0,0,1,.8-.3,1.024,1.024,0,0,1,.8.3,1.067,1.067,0,0,1,.273.742,1.032,1.032,0,0,1-.273.732,1.043,1.043,0,0,1-.8.293,1.026,1.026,0,0,1-.8-.293A1.043,1.043,0,0,1,105.469-13.369Zm4.4,8a6.19,6.19,0,0,1,1.152-3.911,3.644,3.644,0,0,1,3.018-1.479,3.665,3.665,0,0,1,2.939,1.27V-15h1.807V0h-1.66l-.088-1.133A3.679,3.679,0,0,1,114.023.2a3.609,3.609,0,0,1-2.993-1.5,6.26,6.26,0,0,1-1.157-3.926Zm1.807.205a4.687,4.687,0,0,0,.742,2.813,2.4,2.4,0,0,0,2.051,1.016,2.636,2.636,0,0,0,2.51-1.543V-7.734a2.656,2.656,0,0,0-2.49-1.494,2.411,2.411,0,0,0-2.07,1.025A5.16,5.16,0,0,0,111.68-5.166Zm16.436,4.121A3.837,3.837,0,0,1,125.02.2a3.285,3.285,0,0,1-2.573-.981,4.248,4.248,0,0,1-.894-2.905v-6.875h1.807V-3.74q0,2.4,1.953,2.4a2.7,2.7,0,0,0,2.754-1.543v-7.686h1.807V0h-1.719Zm4.023-4.336a6.241,6.241,0,0,1,.61-2.793,4.553,4.553,0,0,1,1.7-1.914,4.626,4.626,0,0,1,2.485-.674,4.456,4.456,0,0,1,3.491,1.494,5.748,5.748,0,0,1,1.333,3.975v.127a6.3,6.3,0,0,1-.591,2.769,4.486,4.486,0,0,1-1.689,1.909A4.679,4.679,0,0,1,136.953.2,4.445,4.445,0,0,1,133.472-1.3a5.719,5.719,0,0,1-1.333-3.955Zm1.816.215a4.52,4.52,0,0,0,.815,2.822,2.61,2.61,0,0,0,2.183,1.064,2.594,2.594,0,0,0,2.188-1.079,4.943,4.943,0,0,0,.811-3.022,4.513,4.513,0,0,0-.825-2.817,2.623,2.623,0,0,0-2.192-1.079,2.594,2.594,0,0,0-2.158,1.064A4.906,4.906,0,0,0,133.955-5.166ZM150.176-2.8a1.33,1.33,0,0,0-.552-1.138,5.311,5.311,0,0,0-1.924-.7,9.1,9.1,0,0,1-2.178-.7,3.1,3.1,0,0,1-1.191-.977,2.336,2.336,0,0,1-.386-1.348,2.741,2.741,0,0,1,1.1-2.2,4.291,4.291,0,0,1,2.808-.9,4.415,4.415,0,0,1,2.915.928,2.947,2.947,0,0,1,1.118,2.373h-1.816a1.631,1.631,0,0,0-.63-1.279,2.36,2.36,0,0,0-1.587-.537,2.47,2.47,0,0,0-1.543.43,1.353,1.353,0,0,0-.557,1.123,1.1,1.1,0,0,0,.518.986,6.368,6.368,0,0,0,1.87.635,9.744,9.744,0,0,1,2.192.723,3.2,3.2,0,0,1,1.245,1.011,2.485,2.485,0,0,1,.405,1.44A2.7,2.7,0,0,1,150.85-.659,4.752,4.752,0,0,1,147.91.2a5.321,5.321,0,0,1-2.246-.449,3.653,3.653,0,0,1-1.528-1.255,3.025,3.025,0,0,1-.552-1.743h1.807a1.87,1.87,0,0,0,.728,1.44,2.822,2.822,0,0,0,1.792.532,2.913,2.913,0,0,0,1.646-.415A1.275,1.275,0,0,0,150.176-2.8Zm8.682-2.568A6.21,6.21,0,0,1,160-9.3a3.654,3.654,0,0,1,3.027-1.46,3.635,3.635,0,0,1,3.018,1.367l.088-1.172h1.65V-.254a4.3,4.3,0,0,1-1.216,3.232A4.487,4.487,0,0,1,163.3,4.16a5.435,5.435,0,0,1-2.236-.488,3.85,3.85,0,0,1-1.67-1.338l.938-1.084a3.533,3.533,0,0,0,2.842,1.436,2.768,2.768,0,0,0,2.056-.742,2.837,2.837,0,0,0,.737-2.09v-.908A3.713,3.713,0,0,1,163.008.2,3.609,3.609,0,0,1,160-1.3,6.529,6.529,0,0,1,158.857-5.371Zm1.816.205a4.738,4.738,0,0,0,.732,2.808,2.38,2.38,0,0,0,2.051,1.021,2.646,2.646,0,0,0,2.51-1.553V-7.715a2.677,2.677,0,0,0-2.49-1.514A2.4,2.4,0,0,0,161.416-8.2,5.16,5.16,0,0,0,160.674-5.166ZM174.893.2a4.617,4.617,0,0,1-3.5-1.411,5.237,5.237,0,0,1-1.348-3.774v-.332a6.341,6.341,0,0,1,.6-2.808,4.685,4.685,0,0,1,1.68-1.934,4.223,4.223,0,0,1,2.339-.7,3.957,3.957,0,0,1,3.2,1.357,5.877,5.877,0,0,1,1.143,3.887v.752h-7.158a3.756,3.756,0,0,0,.913,2.524,2.87,2.87,0,0,0,2.222.962,3.147,3.147,0,0,0,1.621-.391,4.073,4.073,0,0,0,1.162-1.035l1.1.859A4.437,4.437,0,0,1,174.893.2Zm-.225-9.473a2.41,2.41,0,0,0-1.836.8,3.868,3.868,0,0,0-.918,2.231h5.293v-.137a3.441,3.441,0,0,0-.742-2.134A2.269,2.269,0,0,0,174.668-9.277Zm8.145-1.289.059,1.328a3.851,3.851,0,0,1,3.164-1.523q3.35,0,3.379,3.779V0h-1.807V-6.992a2.433,2.433,0,0,0-.522-1.689,2.094,2.094,0,0,0-1.6-.547,2.607,2.607,0,0,0-1.543.469,3.183,3.183,0,0,0-1.035,1.23V0H181.1V-10.566ZM196.523.2a4.617,4.617,0,0,1-3.5-1.411A5.237,5.237,0,0,1,191.68-4.99v-.332a6.341,6.341,0,0,1,.6-2.808,4.685,4.685,0,0,1,1.68-1.934,4.223,4.223,0,0,1,2.339-.7A3.957,3.957,0,0,1,199.5-9.4a5.877,5.877,0,0,1,1.143,3.887v.752h-7.158a3.756,3.756,0,0,0,.913,2.524,2.87,2.87,0,0,0,2.222.962,3.147,3.147,0,0,0,1.621-.391A4.073,4.073,0,0,0,199.4-2.705l1.1.859A4.437,4.437,0,0,1,196.523.2ZM196.3-9.277a2.41,2.41,0,0,0-1.836.8,3.868,3.868,0,0,0-.918,2.231h5.293v-.137a3.441,3.441,0,0,0-.742-2.134A2.269,2.269,0,0,0,196.3-9.277Zm11.543.332a5.414,5.414,0,0,0-.889-.068A2.381,2.381,0,0,0,204.541-7.5V0h-1.807V-10.566h1.758l.029,1.221a2.813,2.813,0,0,1,2.52-1.416,1.846,1.846,0,0,1,.8.137ZM215.635,0a3.8,3.8,0,0,1-.254-1.113A4.031,4.031,0,0,1,212.373.2a3.73,3.73,0,0,1-2.563-.884,2.859,2.859,0,0,1-1-2.241,2.987,2.987,0,0,1,1.255-2.563,5.916,5.916,0,0,1,3.53-.913h1.758v-.83a2.029,2.029,0,0,0-.566-1.509,2.276,2.276,0,0,0-1.67-.562,2.634,2.634,0,0,0-1.621.488,1.439,1.439,0,0,0-.654,1.182h-1.816a2.493,2.493,0,0,1,.562-1.528,3.832,3.832,0,0,1,1.523-1.167,5.125,5.125,0,0,1,2.114-.43,4.177,4.177,0,0,1,2.861.913,3.294,3.294,0,0,1,1.074,2.515v4.863a5.946,5.946,0,0,0,.371,2.314V0Zm-3-1.377a3.175,3.175,0,0,0,1.611-.439,2.658,2.658,0,0,0,1.1-1.143V-5.127h-1.416q-3.32,0-3.32,1.943a1.645,1.645,0,0,0,.566,1.328A2.177,2.177,0,0,0,212.637-1.377Zm6.914-3.994A6.19,6.19,0,0,1,220.7-9.282a3.644,3.644,0,0,1,3.018-1.479,3.665,3.665,0,0,1,2.939,1.27V-15h1.807V0h-1.66l-.088-1.133A3.679,3.679,0,0,1,223.7.2a3.609,3.609,0,0,1-2.993-1.5,6.26,6.26,0,0,1-1.157-3.926Zm1.807.205a4.687,4.687,0,0,0,.742,2.813,2.4,2.4,0,0,0,2.051,1.016,2.636,2.636,0,0,0,2.51-1.543V-7.734a2.656,2.656,0,0,0-2.49-1.494A2.411,2.411,0,0,0,222.1-8.2,5.16,5.16,0,0,0,221.357-5.166Zm9.434-.215a6.241,6.241,0,0,1,.61-2.793,4.553,4.553,0,0,1,1.7-1.914,4.626,4.626,0,0,1,2.485-.674,4.456,4.456,0,0,1,3.491,1.494,5.748,5.748,0,0,1,1.333,3.975v.127a6.3,6.3,0,0,1-.591,2.769A4.486,4.486,0,0,1,238.13-.488,4.679,4.679,0,0,1,235.605.2,4.445,4.445,0,0,1,232.124-1.3a5.719,5.719,0,0,1-1.333-3.955Zm1.816.215a4.52,4.52,0,0,0,.815,2.822,2.61,2.61,0,0,0,2.183,1.064,2.594,2.594,0,0,0,2.188-1.079,4.943,4.943,0,0,0,.811-3.022,4.513,4.513,0,0,0-.825-2.817,2.623,2.623,0,0,0-2.192-1.079,2.594,2.594,0,0,0-2.158,1.064A4.906,4.906,0,0,0,232.607-5.166ZM248.828-2.8a1.33,1.33,0,0,0-.552-1.138,5.311,5.311,0,0,0-1.924-.7,9.1,9.1,0,0,1-2.178-.7,3.1,3.1,0,0,1-1.191-.977,2.336,2.336,0,0,1-.386-1.348,2.741,2.741,0,0,1,1.1-2.2,4.291,4.291,0,0,1,2.808-.9,4.415,4.415,0,0,1,2.915.928,2.947,2.947,0,0,1,1.118,2.373h-1.816a1.631,1.631,0,0,0-.63-1.279,2.36,2.36,0,0,0-1.587-.537,2.47,2.47,0,0,0-1.543.43,1.353,1.353,0,0,0-.557,1.123,1.1,1.1,0,0,0,.518.986,6.368,6.368,0,0,0,1.87.635,9.744,9.744,0,0,1,2.192.723,3.2,3.2,0,0,1,1.245,1.011,2.485,2.485,0,0,1,.405,1.44A2.7,2.7,0,0,1,249.5-.659,4.752,4.752,0,0,1,246.563.2a5.321,5.321,0,0,1-2.246-.449,3.653,3.653,0,0,1-1.528-1.255,3.025,3.025,0,0,1-.552-1.743h1.807a1.87,1.87,0,0,0,.728,1.44,2.822,2.822,0,0,0,1.792.532,2.913,2.913,0,0,0,1.646-.415A1.275,1.275,0,0,0,248.828-2.8Zm9.043-2.969a15.1,15.1,0,0,1,.591-4.238,12.312,12.312,0,0,1,1.763-3.691,7.5,7.5,0,0,1,2.432-2.344l.371,1.191a7.778,7.778,0,0,0-2.339,3.34,14.478,14.478,0,0,0-1,5.029l-.01.83A14.554,14.554,0,0,0,261.055.889a7.814,7.814,0,0,0,1.973,2.6l-.371,1.1a7.74,7.74,0,0,1-2.48-2.422A13.574,13.574,0,0,1,257.871-5.771Zm9.355-7.354v2.559H269.2v1.4h-1.973v6.561a1.467,1.467,0,0,0,.264.953,1.11,1.11,0,0,0,.9.318,4.374,4.374,0,0,0,.859-.117V0A5.268,5.268,0,0,1,267.861.2a2.25,2.25,0,0,1-1.826-.732,3.147,3.147,0,0,1-.615-2.08V-9.17H263.5v-1.4h1.924v-2.559Zm3.408,7.744a6.241,6.241,0,0,1,.61-2.793,4.553,4.553,0,0,1,1.7-1.914,4.626,4.626,0,0,1,2.485-.674,4.456,4.456,0,0,1,3.491,1.494,5.748,5.748,0,0,1,1.333,3.975v.127a6.3,6.3,0,0,1-.591,2.769,4.486,4.486,0,0,1-1.689,1.909A4.679,4.679,0,0,1,275.449.2,4.445,4.445,0,0,1,271.968-1.3a5.719,5.719,0,0,1-1.333-3.955Zm1.816.215a4.52,4.52,0,0,0,.815,2.822,2.61,2.61,0,0,0,2.183,1.064,2.594,2.594,0,0,0,2.188-1.079,4.943,4.943,0,0,0,.811-3.022,4.512,4.512,0,0,0-.825-2.817,2.623,2.623,0,0,0-2.192-1.079,2.594,2.594,0,0,0-2.158,1.064A4.906,4.906,0,0,0,272.451-5.166Zm11.777-5.4.059,1.328a3.85,3.85,0,0,1,3.164-1.523q3.35,0,3.379,3.779V0h-1.807V-6.992a2.432,2.432,0,0,0-.522-1.689,2.094,2.094,0,0,0-1.6-.547,2.607,2.607,0,0,0-1.543.469,3.183,3.183,0,0,0-1.035,1.23V0H282.52V-10.566Zm9.688,11.787h-1.553L298.3-14.219h1.543Zm9.58-11.787.049,1.172a3.9,3.9,0,0,1,3.135-1.367,3.021,3.021,0,0,1,3.018,1.7,4,4,0,0,1,1.372-1.23,4.052,4.052,0,0,1,2-.469q3.477,0,3.535,3.682V0h-1.807V-6.973a2.426,2.426,0,0,0-.518-1.694,2.279,2.279,0,0,0-1.738-.562,2.4,2.4,0,0,0-1.67.6,2.436,2.436,0,0,0-.771,1.616V0h-1.816V-6.924a2.016,2.016,0,0,0-2.256-2.3,2.417,2.417,0,0,0-2.432,1.514V0h-1.807V-10.566ZM323.711.2a4.617,4.617,0,0,1-3.5-1.411,5.237,5.237,0,0,1-1.348-3.774v-.332a6.341,6.341,0,0,1,.6-2.808,4.685,4.685,0,0,1,1.68-1.934,4.223,4.223,0,0,1,2.339-.7,3.957,3.957,0,0,1,3.2,1.357,5.877,5.877,0,0,1,1.143,3.887v.752h-7.158a3.756,3.756,0,0,0,.913,2.524,2.87,2.87,0,0,0,2.222.962,3.147,3.147,0,0,0,1.621-.391,4.073,4.073,0,0,0,1.162-1.035l1.1.859A4.437,4.437,0,0,1,323.711.2Zm-.225-9.473a2.41,2.41,0,0,0-1.836.8,3.869,3.869,0,0,0-.918,2.231h5.293v-.137a3.441,3.441,0,0,0-.742-2.134A2.269,2.269,0,0,0,323.486-9.277ZM336.074-2.8a1.33,1.33,0,0,0-.552-1.138,5.311,5.311,0,0,0-1.924-.7,9.1,9.1,0,0,1-2.178-.7,3.1,3.1,0,0,1-1.191-.977,2.336,2.336,0,0,1-.386-1.348,2.741,2.741,0,0,1,1.1-2.2,4.291,4.291,0,0,1,2.808-.9,4.415,4.415,0,0,1,2.915.928,2.947,2.947,0,0,1,1.118,2.373h-1.816a1.631,1.631,0,0,0-.63-1.279,2.36,2.36,0,0,0-1.587-.537,2.47,2.47,0,0,0-1.543.43,1.353,1.353,0,0,0-.557,1.123,1.1,1.1,0,0,0,.518.986,6.368,6.368,0,0,0,1.87.635,9.744,9.744,0,0,1,2.192.723,3.2,3.2,0,0,1,1.245,1.011,2.485,2.485,0,0,1,.405,1.44,2.7,2.7,0,0,1-1.133,2.271A4.752,4.752,0,0,1,333.809.2a5.321,5.321,0,0,1-2.246-.449,3.653,3.653,0,0,1-1.528-1.255,3.025,3.025,0,0,1-.552-1.743h1.807a1.87,1.87,0,0,0,.728,1.44,2.822,2.822,0,0,0,1.792.532,2.914,2.914,0,0,0,1.646-.415A1.275,1.275,0,0,0,336.074-2.8Zm8.33-2.871a15.106,15.106,0,0,1-.571,4.175,12.345,12.345,0,0,1-1.748,3.687,7.659,7.659,0,0,1-2.466,2.4l-.381-1.1a7.851,7.851,0,0,0,2.417-3.579,15.484,15.484,0,0,0,.933-5.386v-.312a16.076,16.076,0,0,0-.43-3.813,12.87,12.87,0,0,0-1.2-3.159,7.3,7.3,0,0,0-1.724-2.178l.381-1.1a7.629,7.629,0,0,1,2.456,2.383,12.371,12.371,0,0,1,1.748,3.682A15.455,15.455,0,0,1,344.4-5.674Z" transform="translate(582 4113)" fill="#12263f"/>
      <path id="Trazado_727950" data-name="Trazado 727950" d="M-1659-7649h346" transform="translate(2241 11741)" fill="none" stroke="#12263f" stroke-width="1"/>
    </g>
  </g>
</svg>
