<svg xmlns="http://www.w3.org/2000/svg" width="108" height="108" viewBox="0 0 108 108"><g transform="translate(2119 8148)"><g transform="translate(-2121 -8150)"><path d="M2,58.8A28.8,28.8,0,1,0,30.8,30,28.834,28.834,0,0,0,2,58.8ZM32.6,33.692a25.054,25.054,0,0,1,14.677,6.086l-3.749,3.749,2.545,2.545,3.749-3.749A25.058,25.058,0,0,1,55.908,57H50.6v3.6h5.308a25.171,25.171,0,0,1-50.216,0H11V57H5.692a25.054,25.054,0,0,1,6.086-14.677l3.749,3.749,2.545-2.545-3.749-3.749A25.058,25.058,0,0,1,29,33.692V39h3.6Z" transform="translate(0 22.4)" fill="#12263f"/><path d="M15.623,50.728a5.4,5.4,0,1,0,9.891.8l4.444-4.979a1.8,1.8,0,0,0,.446-1.386l-.673-6.455a1.8,1.8,0,0,0-2.65-1.4l-5.7,3.1a1.8,1.8,0,0,0-.887,1.154L18.917,48.06a5.375,5.375,0,0,0-3.294,2.668Zm8.177-7.52,2.628-1.433.311,2.977-3.5,3.924c-.11-.068-.207-.153-.324-.214s-.239-.092-.356-.144Zm-4.993,9.2A1.8,1.8,0,0,1,22,54.08h0a1.8,1.8,0,1,1-3.186-1.674Z" transform="translate(10.399 28.078)" fill="#12263f"/><path d="M13,53h3.6v3.6H13Z" transform="translate(8.8 40.8)" fill="#12263f"/><path d="M17,53h3.6v3.6H17Z" transform="translate(12 40.8)" fill="#12263f"/><path d="M21,53h3.6v3.6H21Z" transform="translate(15.2 40.8)" fill="#12263f"/><path d="M96.2,2H18.8A1.8,1.8,0,0,0,17,3.8v45h3.6V5.6H94.4V93.8h-45v3.6H96.2A1.8,1.8,0,0,0,98,95.6V3.8A1.8,1.8,0,0,0,96.2,2Z" transform="translate(12 0)" fill="#12263f"/><path d="M59.6,57.8A1.8,1.8,0,0,0,61.4,56V21.8A1.8,1.8,0,0,0,59.6,20H48.8A1.8,1.8,0,0,0,47,21.8V56a1.8,1.8,0,0,0,1.8,1.8Zm-9-34.2h7.2V54.2H50.6Z" transform="translate(36 14.4)" fill="#12263f"/><path d="M48.6,59.4a1.8,1.8,0,0,0,1.8-1.8V19.8A1.8,1.8,0,0,0,48.6,18H37.8A1.8,1.8,0,0,0,36,19.8V57.6a1.8,1.8,0,0,0,1.8,1.8Zm-9-37.8h7.2V55.8H39.6Z" transform="translate(27.2 12.8)" fill="#12263f"/><path d="M39.4,42.8v-18A1.8,1.8,0,0,0,37.6,23H26.8A1.8,1.8,0,0,0,25,24.8V35.6h3.6v-9h7.2V42.8Z" transform="translate(18.4 16.8)" fill="#12263f"/><path d="M36,43H75.6v3.6H36Z" transform="translate(27.2 32.8)" fill="#12263f"/><path d="M56.009,13.308a1.807,1.807,0,0,0-1.582.173L35.279,25.667,21.629,22.254l-.871,3.492,14.4,3.6a1.8,1.8,0,0,0,1.4-.227L55.611,16.995l18.967,6.9a1.8,1.8,0,0,0,2.02-.567L81.2,17.57,84.995,20.1a1.8,1.8,0,0,0,2.8-1.5V7.8a1.8,1.8,0,0,0-2.369-1.708l-10.8,3.6A1.8,1.8,0,0,0,74.2,12.9l4,2.669-3.6,4.5ZM84.194,10.3v4.939l-4.939-3.292Z" transform="translate(15.006 3.2)" fill="#12263f"/></g></g></svg>