<svg xmlns="http://www.w3.org/2000/svg" xmlns:xlink="http://www.w3.org/1999/xlink" width="151.435" height="222.748" viewBox="0 0 151.435 222.748">
  <defs>
    <clipPath id="clip-path">
      <rect id="Rectángulo_5568" data-name="Rectángulo 5568" width="203.186" height="102.333" fill="none"/>
    </clipPath>
  </defs>
  <g id="Grupo_56693" data-name="Grupo 56693" transform="matrix(0.259, 0.966, -0.966, 0.259, 98.846, 0)">
    <g id="Grupo_56691" data-name="Grupo 56691" transform="translate(0 0)" clip-path="url(#clip-path)">
      <path id="Trazado_104836" data-name="Trazado 104836" d="M201.02.4A203.318,203.318,0,0,1,157.281,36c-2.317-3.839-7.294-11.189-13.989-15.756-9.405-6.383-17.511-6.871-21.033-1.111-2.811,6.111,2.11,12.561,12.673,16.8,5.915,2.384,12.687,2.907,17.488,2.907a207.579,207.579,0,0,1-25.29,12.221c-1.5-3.738-5.562-12.59-12.072-18.5-8.438-7.633-16.4-9.228-20.677-4.017-3.621,5.678.362,12.75,10.235,18.4,6.338,3.637,14.122,5.027,18.86,5.538-3.5,1.34-7.044,2.606-10.617,3.756C106.4,58.315,99.8,60.064,93.165,61.553c-1.039-3.812-4.033-13.177-9.882-19.85-7.489-8.555-15.205-11.051-20.056-6.384-4.249,5.229-1.122,12.706,8.017,19.467,5.816,4.294,13.267,6.561,17.922,7.649a223.465,223.465,0,0,1-25.917,3.812c-.832-3.778-3.416-13.395-9-20.416C47.137,36.958,39.549,34.1,34.5,38.553c-4.5,5.028-1.7,12.644,7.127,19.811C46.932,62.68,53.794,65.23,58.42,66.6c-4.4.277-8.794.472-13.182.5-1.823,0-3.772-.01-5.706-.061C36.11,64.664,28.05,59.587,19.549,58.2,8.322,56.353.767,59.314,0,66.02c.034,6.738,7.217,10.512,18.566,9.922,8.294-.427,16.545-4.29,20.412-6.362a193.651,193.651,0,0,0,30.9-1.538C65.761,70.57,59.733,74.87,55.694,80.474c-6.65,9.228-7.367,17.312-1.7,20.978,6.05,2.989,12.639-1.767,17.16-12.2,3.484-8.049,3.517-17.783,3.362-21.8a233.708,233.708,0,0,0,31.227-6.5c-3.54,2.928-9.873,8.789-13.334,15.905-4.96,10.233-4.278,18.322,1.918,20.978,6.466,1.889,12.154-3.906,14.828-14.967,2.188-9.056.216-19.317-.573-22.728a221,221,0,0,0,28.983-10.816c-2.461,1.86-10.95,8.688-15.167,17.383-4.977,10.222-4.3,18.316,1.911,20.956,6.461,1.916,12.14-3.9,14.805-14.94,2.5-10.31-.387-22.166-.805-23.732q7.641-3.508,14.944-7.644c1.572-.872,3.111-1.806,4.644-2.723.512-.05.823-.094.823-.094s-.061-.11-.166-.295c3.527-2.139,7.006-4.383,10.388-6.738a46.834,46.834,0,0,0-7.728,14.034c-3.384,10.838-1.5,18.739,5.011,20.444,6.684.906,11.434-5.672,12.434-17,.772-8.778-2.285-18.044-3.717-21.784a206.892,206.892,0,0,0,27.91-25.1A1.247,1.247,0,0,0,201.02.4" transform="translate(0 0.001)" fill="#246b1a"/>
    </g>
  </g>
</svg>
