<svg xmlns="http://www.w3.org/2000/svg" xmlns:xlink="http://www.w3.org/1999/xlink" width="1320" height="506.835" viewBox="0 0 1320 506.835">
  <defs>
    <clipPath id="clip-path">
      <path id="Rectangle_652" data-name="Rectangle 652" d="M20.787,0H1299.213C1310.693,0,1320,8.4,1320,18.772V488.063c0,10.367-9.307,18.772-20.787,18.772H20.787C9.307,506.835,0,498.431,0,488.063V18.772C0,8.4,9.307,0,20.787,0Z" transform="translate(0 0)" fill="#80cab6" style="mix-blend-mode: multiply;isolation: isolate"/>
    </clipPath>
    <linearGradient id="linear-gradient" x1="0.5" x2="0.5" y2="1" gradientUnits="objectBoundingBox">
      <stop offset="0" stop-color="#3e24f2"/>
      <stop offset="1" stop-color="#1f1279"/>
    </linearGradient>
    <clipPath id="clip-path-2">
      <rect id="Rectángulo_5558" data-name="Rectángulo 5558" width="1398" height="561" transform="translate(0 0)" fill="none"/>
    </clipPath>
    <clipPath id="clip-path-3">
      <rect id="Rectángulo_5562" data-name="Rectángulo 5562" width="247.81" height="197.72" fill="none"/>
    </clipPath>
    <clipPath id="clip-path-5">
      <rect id="Rectángulo_5559" data-name="Rectángulo 5559" width="30.344" height="92.743" transform="translate(84.291 44.92)" fill="none"/>
    </clipPath>
    <clipPath id="clip-path-6">
      <rect id="Rectángulo_5560" data-name="Rectángulo 5560" width="93.61" height="69.504" transform="translate(82.871 43.704)" fill="none"/>
    </clipPath>
    <clipPath id="clip-path-7">
      <rect id="Rectángulo_5567" data-name="Rectángulo 5567" width="787.688" height="409.888" fill="none"/>
    </clipPath>
    <clipPath id="clip-path-9">
      <rect id="Rectángulo_5563" data-name="Rectángulo 5563" width="181.591" height="66.888" fill="none"/>
    </clipPath>
    <clipPath id="clip-path-10">
      <rect id="Rectángulo_5564" data-name="Rectángulo 5564" width="135.152" height="49.348" fill="none"/>
    </clipPath>
    <clipPath id="clip-path-11">
      <rect id="Rectángulo_5565" data-name="Rectángulo 5565" width="50.21" height="134.82" fill="none"/>
    </clipPath>
    <clipPath id="clip-path-12">
      <rect id="Rectángulo_5574" data-name="Rectángulo 5574" width="592.956" height="477.716" fill="none"/>
    </clipPath>
    <clipPath id="clip-path-14">
      <path id="Trazado_104848" data-name="Trazado 104848" d="M76.654,232.674A144.818,144.818,0,1,0,221.471,87.857,144.82,144.82,0,0,0,76.654,232.674" transform="translate(-76.654 -87.857)" fill="none"/>
    </clipPath>
    <clipPath id="clip-path-16">
      <rect id="Rectángulo_5570" data-name="Rectángulo 5570" width="269.722" height="284.073" fill="none"/>
    </clipPath>
    <clipPath id="clip-path-17">
      <rect id="Rectángulo_5571" data-name="Rectángulo 5571" width="149.974" height="130.965" fill="none"/>
    </clipPath>
    <clipPath id="clip-path-18">
      <path id="Trazado_104877" data-name="Trazado 104877" d="M106.03,99.843a5.375,5.375,0,0,0-4.811,4.259L97.8,120.135c-.508,2.354.846,4.273,3,4.273h36.165c2.149,0,3.5-1.92,3-4.273L136.536,104.1a5.346,5.346,0,0,0-4.807-4.259Z" transform="translate(-97.697 -99.843)" fill="none"/>
    </clipPath>
    <clipPath id="clip-path-20">
      <path id="Trazado_104882" data-name="Trazado 104882" d="M141.96,153.538c-2.936,0-5.906,2.634-6.59,5.837l-4.684,21.981c-.693,3.229,1.158,5.861,4.1,5.861h49.59c2.945,0,4.8-2.632,4.1-5.861l-4.689-21.981c-.669-3.2-3.65-5.837-6.595-5.837Z" transform="translate(-130.54 -153.538)" fill="none"/>
    </clipPath>
    <clipPath id="clip-path-21">
      <rect id="Rectángulo_5589" data-name="Rectángulo 5589" width="262.006" height="228.896" fill="none"/>
    </clipPath>
    <clipPath id="clip-path-23">
      <rect id="Rectángulo_5585" data-name="Rectángulo 5585" width="126.322" height="46.53" fill="none"/>
    </clipPath>
    <clipPath id="clip-path-24">
      <rect id="Rectángulo_5586" data-name="Rectángulo 5586" width="94.018" height="34.329" fill="none"/>
    </clipPath>
    <clipPath id="clip-path-25">
      <rect id="Rectángulo_5587" data-name="Rectángulo 5587" width="34.929" height="93.785" fill="none"/>
    </clipPath>
  </defs>
  <g id="Enmascarar_grupo_44" data-name="Enmascarar grupo 44" clip-path="url(#clip-path)">
    <g id="Grupo_53768" data-name="Grupo 53768" transform="translate(-435.496 -173.794)">
      <g id="Background" transform="translate(0 0)">
        <g id="BG_Image" data-name="BG Image">
          <path id="BG_Image-2" data-name="BG Image" d="M0,0H2042.362V723.614H0Z" fill="#fff"/>
        </g>
      </g>
      <g id="Grupo_53767" data-name="Grupo 53767" transform="translate(330.778 95.422)">
        <g id="Grupo_53766" data-name="Grupo 53766" transform="translate(1192.996 18.139)">
          <g id="Grupo_53754" data-name="Grupo 53754" transform="translate(2.253)">
            <path id="Trazado_100469" data-name="Trazado 100469" d="M656.1,72.929a2.122,2.122,0,1,0,2.146-2.005A2.072,2.072,0,0,0,656.1,72.929Z" transform="translate(-465.235 -68.723)" fill="url(#linear-gradient)"/>
            <path id="Trazado_100470" data-name="Trazado 100470" d="M646.707,72.814a2.123,2.123,0,1,0,2.147-2A2.074,2.074,0,0,0,646.707,72.814Z" transform="translate(-474.928 -68.829)" fill="url(#linear-gradient)"/>
            <path id="Trazado_100471" data-name="Trazado 100471" d="M637.313,72.7a2.122,2.122,0,1,0,2.146-2A2.074,2.074,0,0,0,637.313,72.7Z" transform="translate(-484.62 -68.936)" fill="url(#linear-gradient)"/>
            <path id="Trazado_100472" data-name="Trazado 100472" d="M627.919,72.589a2.122,2.122,0,1,0,2.145-2.005A2.072,2.072,0,0,0,627.919,72.589Z" transform="translate(-494.312 -69.043)" fill="url(#linear-gradient)"/>
            <path id="Trazado_100473" data-name="Trazado 100473" d="M618.524,72.474a2.123,2.123,0,1,0,2.148-2A2.074,2.074,0,0,0,618.524,72.474Z" transform="translate(-504.005 -69.15)" fill="url(#linear-gradient)"/>
            <path id="Trazado_100474" data-name="Trazado 100474" d="M609.13,72.361a2.122,2.122,0,1,0,2.146-2A2.072,2.072,0,0,0,609.13,72.361Z" transform="translate(-513.697 -69.256)" fill="url(#linear-gradient)"/>
            <path id="Trazado_100475" data-name="Trazado 100475" d="M599.735,72.247a2.123,2.123,0,1,0,2.147-2A2.075,2.075,0,0,0,599.735,72.247Z" transform="translate(-523.39 -69.364)" fill="url(#linear-gradient)"/>
            <path id="Trazado_100476" data-name="Trazado 100476" d="M590.341,72.134a2.123,2.123,0,1,0,2.145-2A2.074,2.074,0,0,0,590.341,72.134Z" transform="translate(-533.081 -69.47)" fill="url(#linear-gradient)"/>
            <path id="Trazado_100477" data-name="Trazado 100477" d="M580.947,72.022a2.122,2.122,0,1,0,2.145-2.005A2.072,2.072,0,0,0,580.947,72.022Z" transform="translate(-542.773 -69.578)" fill="url(#linear-gradient)"/>
            <path id="Trazado_100478" data-name="Trazado 100478" d="M571.552,71.907a2.123,2.123,0,1,0,2.148-2A2.074,2.074,0,0,0,571.552,71.907Z" transform="translate(-552.466 -69.684)" fill="url(#linear-gradient)"/>
            <path id="Trazado_100479" data-name="Trazado 100479" d="M562.158,71.794a2.122,2.122,0,1,0,2.145-2A2.072,2.072,0,0,0,562.158,71.794Z" transform="translate(-562.158 -69.791)" fill="url(#linear-gradient)"/>
          </g>
          <g id="Grupo_53755" data-name="Grupo 53755" transform="translate(2.048 16.224)">
            <path id="Trazado_100480" data-name="Trazado 100480" d="M656,81.278a2.123,2.123,0,1,0,2.146-2A2.074,2.074,0,0,0,656,81.278Z" transform="translate(-465.134 -77.072)" fill="url(#linear-gradient)"/>
            <path id="Trazado_100481" data-name="Trazado 100481" d="M646.606,81.165a2.123,2.123,0,1,0,2.147-2A2.075,2.075,0,0,0,646.606,81.165Z" transform="translate(-474.827 -77.178)" fill="url(#linear-gradient)"/>
            <path id="Trazado_100482" data-name="Trazado 100482" d="M637.212,81.051a2.123,2.123,0,1,0,2.146-2A2.074,2.074,0,0,0,637.212,81.051Z" transform="translate(-484.519 -77.286)" fill="url(#linear-gradient)"/>
            <path id="Trazado_100483" data-name="Trazado 100483" d="M627.818,80.938a2.122,2.122,0,1,0,2.146-2A2.072,2.072,0,0,0,627.818,80.938Z" transform="translate(-494.211 -77.392)" fill="url(#linear-gradient)"/>
            <path id="Trazado_100484" data-name="Trazado 100484" d="M618.423,80.826a2.123,2.123,0,1,0,2.148-2.005A2.074,2.074,0,0,0,618.423,80.826Z" transform="translate(-503.904 -77.5)" fill="url(#linear-gradient)"/>
            <path id="Trazado_100485" data-name="Trazado 100485" d="M609.029,80.711a2.123,2.123,0,1,0,2.145-2A2.074,2.074,0,0,0,609.029,80.711Z" transform="translate(-513.596 -77.606)" fill="url(#linear-gradient)"/>
            <path id="Trazado_100486" data-name="Trazado 100486" d="M599.635,80.6a2.122,2.122,0,1,0,2.145-2A2.072,2.072,0,0,0,599.635,80.6Z" transform="translate(-523.287 -77.713)" fill="url(#linear-gradient)"/>
            <path id="Trazado_100487" data-name="Trazado 100487" d="M590.24,80.484a2.123,2.123,0,1,0,2.148-2A2.074,2.074,0,0,0,590.24,80.484Z" transform="translate(-532.98 -77.82)" fill="url(#linear-gradient)"/>
            <path id="Trazado_100488" data-name="Trazado 100488" d="M580.846,80.371a2.122,2.122,0,1,0,2.145-2A2.074,2.074,0,0,0,580.846,80.371Z" transform="translate(-542.672 -77.927)" fill="url(#linear-gradient)"/>
            <path id="Trazado_100489" data-name="Trazado 100489" d="M571.451,80.259a2.123,2.123,0,1,0,2.148-2.005A2.074,2.074,0,0,0,571.451,80.259Z" transform="translate(-552.365 -78.034)" fill="url(#linear-gradient)"/>
            <path id="Trazado_100490" data-name="Trazado 100490" d="M562.057,80.144a2.123,2.123,0,1,0,2.146-2A2.074,2.074,0,0,0,562.057,80.144Z" transform="translate(-562.057 -78.141)" fill="url(#linear-gradient)"/>
          </g>
          <g id="Grupo_53756" data-name="Grupo 53756" transform="translate(1.843 32.45)">
            <path id="Trazado_100491" data-name="Trazado 100491" d="M655.9,89.629a2.123,2.123,0,1,0,2.147-2A2.073,2.073,0,0,0,655.9,89.629Z" transform="translate(-465.033 -85.423)" fill="url(#linear-gradient)"/>
            <path id="Trazado_100492" data-name="Trazado 100492" d="M646.506,89.515a2.122,2.122,0,1,0,2.146-2A2.073,2.073,0,0,0,646.506,89.515Z" transform="translate(-474.725 -85.53)" fill="url(#linear-gradient)"/>
            <path id="Trazado_100493" data-name="Trazado 100493" d="M637.111,89.4a2.123,2.123,0,1,0,2.148-2A2.074,2.074,0,0,0,637.111,89.4Z" transform="translate(-484.418 -85.637)" fill="url(#linear-gradient)"/>
            <path id="Trazado_100494" data-name="Trazado 100494" d="M627.717,89.29a2.123,2.123,0,1,0,2.145-2.005A2.074,2.074,0,0,0,627.717,89.29Z" transform="translate(-494.11 -85.744)" fill="url(#linear-gradient)"/>
            <path id="Trazado_100495" data-name="Trazado 100495" d="M618.323,89.175a2.122,2.122,0,1,0,2.146-2A2.073,2.073,0,0,0,618.323,89.175Z" transform="translate(-503.802 -85.851)" fill="url(#linear-gradient)"/>
            <path id="Trazado_100496" data-name="Trazado 100496" d="M608.928,89.062a2.123,2.123,0,1,0,2.148-2A2.074,2.074,0,0,0,608.928,89.062Z" transform="translate(-513.495 -85.957)" fill="url(#linear-gradient)"/>
            <path id="Trazado_100497" data-name="Trazado 100497" d="M599.534,88.948a2.122,2.122,0,1,0,2.146-2A2.074,2.074,0,0,0,599.534,88.948Z" transform="translate(-523.186 -86.065)" fill="url(#linear-gradient)"/>
            <path id="Trazado_100498" data-name="Trazado 100498" d="M590.139,88.835a2.123,2.123,0,1,0,2.147-2A2.072,2.072,0,0,0,590.139,88.835Z" transform="translate(-532.879 -86.171)" fill="url(#linear-gradient)"/>
            <path id="Trazado_100499" data-name="Trazado 100499" d="M580.745,88.723a2.123,2.123,0,1,0,2.146-2.005A2.074,2.074,0,0,0,580.745,88.723Z" transform="translate(-542.571 -86.279)" fill="url(#linear-gradient)"/>
            <path id="Trazado_100500" data-name="Trazado 100500" d="M571.351,88.608a2.122,2.122,0,1,0,2.145-2A2.073,2.073,0,0,0,571.351,88.608Z" transform="translate(-552.263 -86.385)" fill="url(#linear-gradient)"/>
            <path id="Trazado_100501" data-name="Trazado 100501" d="M561.956,88.5a2.123,2.123,0,1,0,2.148-2A2.074,2.074,0,0,0,561.956,88.5Z" transform="translate(-561.956 -86.492)" fill="url(#linear-gradient)"/>
          </g>
          <g id="Grupo_53757" data-name="Grupo 53757" transform="translate(1.637 48.673)">
            <path id="Trazado_100502" data-name="Trazado 100502" d="M655.8,97.979a2.123,2.123,0,1,0,2.148-2A2.075,2.075,0,0,0,655.8,97.979Z" transform="translate(-464.932 -93.773)" fill="url(#linear-gradient)"/>
            <path id="Trazado_100503" data-name="Trazado 100503" d="M646.4,97.866a2.123,2.123,0,1,0,2.145-2A2.074,2.074,0,0,0,646.4,97.866Z" transform="translate(-474.624 -93.879)" fill="url(#linear-gradient)"/>
            <path id="Trazado_100504" data-name="Trazado 100504" d="M637.01,97.754a2.123,2.123,0,1,0,2.147-2.005A2.075,2.075,0,0,0,637.01,97.754Z" transform="translate(-484.317 -93.987)" fill="url(#linear-gradient)"/>
            <path id="Trazado_100505" data-name="Trazado 100505" d="M627.616,97.639a2.123,2.123,0,1,0,2.147-2A2.074,2.074,0,0,0,627.616,97.639Z" transform="translate(-494.009 -94.093)" fill="url(#linear-gradient)"/>
            <path id="Trazado_100506" data-name="Trazado 100506" d="M618.222,97.526a2.122,2.122,0,1,0,2.146-2A2.074,2.074,0,0,0,618.222,97.526Z" transform="translate(-503.701 -94.2)" fill="url(#linear-gradient)"/>
            <path id="Trazado_100507" data-name="Trazado 100507" d="M608.827,97.412a2.123,2.123,0,1,0,2.147-2A2.074,2.074,0,0,0,608.827,97.412Z" transform="translate(-513.394 -94.307)" fill="url(#linear-gradient)"/>
            <path id="Trazado_100508" data-name="Trazado 100508" d="M599.433,97.3a2.123,2.123,0,1,0,2.146-2A2.072,2.072,0,0,0,599.433,97.3Z" transform="translate(-523.085 -94.414)" fill="url(#linear-gradient)"/>
            <path id="Trazado_100509" data-name="Trazado 100509" d="M590.039,97.187a2.122,2.122,0,1,0,2.145-2.005A2.072,2.072,0,0,0,590.039,97.187Z" transform="translate(-532.777 -94.521)" fill="url(#linear-gradient)"/>
            <path id="Trazado_100510" data-name="Trazado 100510" d="M580.644,97.072a2.123,2.123,0,1,0,2.147-2A2.074,2.074,0,0,0,580.644,97.072Z" transform="translate(-542.47 -94.628)" fill="url(#linear-gradient)"/>
            <path id="Trazado_100511" data-name="Trazado 100511" d="M571.25,96.959a2.122,2.122,0,1,0,2.146-2A2.074,2.074,0,0,0,571.25,96.959Z" transform="translate(-552.162 -94.734)" fill="url(#linear-gradient)"/>
            <path id="Trazado_100512" data-name="Trazado 100512" d="M561.855,96.845a2.123,2.123,0,1,0,2.147-2A2.074,2.074,0,0,0,561.855,96.845Z" transform="translate(-561.855 -94.842)" fill="url(#linear-gradient)"/>
          </g>
          <g id="Grupo_53758" data-name="Grupo 53758" transform="translate(1.434 64.899)">
            <path id="Trazado_100513" data-name="Trazado 100513" d="M655.7,106.33a2.122,2.122,0,1,0,2.146-2A2.072,2.072,0,0,0,655.7,106.33Z" transform="translate(-464.832 -102.124)" fill="url(#linear-gradient)"/>
            <path id="Trazado_100514" data-name="Trazado 100514" d="M646.3,106.218a2.123,2.123,0,1,0,2.148-2.005A2.074,2.074,0,0,0,646.3,106.218Z" transform="translate(-474.525 -102.231)" fill="url(#linear-gradient)"/>
            <path id="Trazado_100515" data-name="Trazado 100515" d="M636.91,106.1a2.122,2.122,0,1,0,2.146-2A2.07,2.07,0,0,0,636.91,106.1Z" transform="translate(-484.217 -102.338)" fill="url(#linear-gradient)"/>
            <path id="Trazado_100516" data-name="Trazado 100516" d="M627.515,105.991a2.123,2.123,0,1,0,2.147-2.005A2.074,2.074,0,0,0,627.515,105.991Z" transform="translate(-493.91 -102.445)" fill="url(#linear-gradient)"/>
            <path id="Trazado_100517" data-name="Trazado 100517" d="M618.121,105.876a2.123,2.123,0,1,0,2.145-2A2.074,2.074,0,0,0,618.121,105.876Z" transform="translate(-503.602 -102.552)" fill="url(#linear-gradient)"/>
            <path id="Trazado_100518" data-name="Trazado 100518" d="M608.727,105.763a2.122,2.122,0,1,0,2.146-2A2.072,2.072,0,0,0,608.727,105.763Z" transform="translate(-513.294 -102.658)" fill="url(#linear-gradient)"/>
            <path id="Trazado_100519" data-name="Trazado 100519" d="M599.332,105.651a2.123,2.123,0,1,0,2.148-2.005A2.074,2.074,0,0,0,599.332,105.651Z" transform="translate(-522.987 -102.766)" fill="url(#linear-gradient)"/>
            <path id="Trazado_100520" data-name="Trazado 100520" d="M589.938,105.536a2.122,2.122,0,1,0,2.146-2A2.074,2.074,0,0,0,589.938,105.536Z" transform="translate(-532.678 -102.872)" fill="url(#linear-gradient)"/>
            <path id="Trazado_100521" data-name="Trazado 100521" d="M580.543,105.423a2.123,2.123,0,1,0,2.147-2A2.074,2.074,0,0,0,580.543,105.423Z" transform="translate(-542.371 -102.979)" fill="url(#linear-gradient)"/>
            <path id="Trazado_100522" data-name="Trazado 100522" d="M571.149,105.311a2.123,2.123,0,1,0,2.146-2.005A2.074,2.074,0,0,0,571.149,105.311Z" transform="translate(-552.063 -103.086)" fill="url(#linear-gradient)"/>
            <path id="Trazado_100523" data-name="Trazado 100523" d="M561.755,105.2a2.122,2.122,0,1,0,2.146-2A2.071,2.071,0,0,0,561.755,105.2Z" transform="translate(-561.755 -103.193)" fill="url(#linear-gradient)"/>
          </g>
          <g id="Grupo_53759" data-name="Grupo 53759" transform="translate(1.229 81.123)">
            <path id="Trazado_100524" data-name="Trazado 100524" d="M655.6,114.68a2.122,2.122,0,1,0,2.145-2A2.074,2.074,0,0,0,655.6,114.68Z" transform="translate(-464.732 -110.474)" fill="url(#linear-gradient)"/>
            <path id="Trazado_100525" data-name="Trazado 100525" d="M646.2,114.567a2.123,2.123,0,1,0,2.148-2A2.074,2.074,0,0,0,646.2,114.567Z" transform="translate(-474.424 -110.58)" fill="url(#linear-gradient)"/>
            <path id="Trazado_100526" data-name="Trazado 100526" d="M636.809,114.455a2.123,2.123,0,1,0,2.145-2.005A2.073,2.073,0,0,0,636.809,114.455Z" transform="translate(-484.116 -110.688)" fill="url(#linear-gradient)"/>
            <path id="Trazado_100527" data-name="Trazado 100527" d="M627.415,114.34a2.122,2.122,0,1,0,2.146-2A2.073,2.073,0,0,0,627.415,114.34Z" transform="translate(-493.808 -110.794)" fill="url(#linear-gradient)"/>
            <path id="Trazado_100528" data-name="Trazado 100528" d="M618.02,114.227a2.123,2.123,0,1,0,2.148-2A2.074,2.074,0,0,0,618.02,114.227Z" transform="translate(-503.501 -110.901)" fill="url(#linear-gradient)"/>
            <path id="Trazado_100529" data-name="Trazado 100529" d="M608.626,114.115a2.122,2.122,0,1,0,2.146-2.005A2.074,2.074,0,0,0,608.626,114.115Z" transform="translate(-513.193 -111.008)" fill="url(#linear-gradient)"/>
            <path id="Trazado_100530" data-name="Trazado 100530" d="M599.231,114a2.123,2.123,0,1,0,2.148-2A2.076,2.076,0,0,0,599.231,114Z" transform="translate(-522.886 -111.115)" fill="url(#linear-gradient)"/>
            <path id="Trazado_100531" data-name="Trazado 100531" d="M589.837,113.887a2.123,2.123,0,1,0,2.146-2A2.074,2.074,0,0,0,589.837,113.887Z" transform="translate(-532.577 -111.221)" fill="url(#linear-gradient)"/>
            <path id="Trazado_100532" data-name="Trazado 100532" d="M580.443,113.773a2.122,2.122,0,1,0,2.146-2A2.072,2.072,0,0,0,580.443,113.773Z" transform="translate(-542.269 -111.329)" fill="url(#linear-gradient)"/>
            <path id="Trazado_100533" data-name="Trazado 100533" d="M571.048,113.66a2.123,2.123,0,1,0,2.147-2A2.074,2.074,0,0,0,571.048,113.66Z" transform="translate(-551.962 -111.435)" fill="url(#linear-gradient)"/>
            <path id="Trazado_100534" data-name="Trazado 100534" d="M561.654,113.548a2.122,2.122,0,1,0,2.146-2.005A2.074,2.074,0,0,0,561.654,113.548Z" transform="translate(-561.654 -111.543)" fill="url(#linear-gradient)"/>
          </g>
          <g id="Grupo_53760" data-name="Grupo 53760" transform="translate(1.024 97.349)">
            <path id="Trazado_100535" data-name="Trazado 100535" d="M655.5,123.031a2.123,2.123,0,1,0,2.145-2A2.073,2.073,0,0,0,655.5,123.031Z" transform="translate(-464.63 -118.825)" fill="url(#linear-gradient)"/>
            <path id="Trazado_100536" data-name="Trazado 100536" d="M646.1,122.919a2.122,2.122,0,1,0,2.146-2.005A2.072,2.072,0,0,0,646.1,122.919Z" transform="translate(-474.322 -118.932)" fill="url(#linear-gradient)"/>
            <path id="Trazado_100537" data-name="Trazado 100537" d="M636.708,122.8a2.123,2.123,0,1,0,2.148-2A2.074,2.074,0,0,0,636.708,122.8Z" transform="translate(-484.015 -119.039)" fill="url(#linear-gradient)"/>
            <path id="Trazado_100538" data-name="Trazado 100538" d="M627.314,122.691a2.122,2.122,0,1,0,2.145-2A2.072,2.072,0,0,0,627.314,122.691Z" transform="translate(-493.707 -119.145)" fill="url(#linear-gradient)"/>
            <path id="Trazado_100539" data-name="Trazado 100539" d="M617.919,122.577a2.123,2.123,0,1,0,2.148-2A2.074,2.074,0,0,0,617.919,122.577Z" transform="translate(-503.4 -119.253)" fill="url(#linear-gradient)"/>
            <path id="Trazado_100540" data-name="Trazado 100540" d="M608.525,122.464a2.123,2.123,0,1,0,2.145-2A2.071,2.071,0,0,0,608.525,122.464Z" transform="translate(-513.091 -119.359)" fill="url(#linear-gradient)"/>
            <path id="Trazado_100541" data-name="Trazado 100541" d="M599.131,122.351a2.122,2.122,0,1,0,2.146-2A2.072,2.072,0,0,0,599.131,122.351Z" transform="translate(-522.784 -119.466)" fill="url(#linear-gradient)"/>
            <path id="Trazado_100542" data-name="Trazado 100542" d="M589.736,122.237a2.123,2.123,0,1,0,2.148-2A2.074,2.074,0,0,0,589.736,122.237Z" transform="translate(-532.476 -119.573)" fill="url(#linear-gradient)"/>
            <path id="Trazado_100543" data-name="Trazado 100543" d="M580.342,122.124a2.122,2.122,0,1,0,2.146-2A2.074,2.074,0,0,0,580.342,122.124Z" transform="translate(-542.168 -119.68)" fill="url(#linear-gradient)"/>
            <path id="Trazado_100544" data-name="Trazado 100544" d="M570.947,122.012a2.123,2.123,0,1,0,2.148-2.005A2.074,2.074,0,0,0,570.947,122.012Z" transform="translate(-551.861 -119.787)" fill="url(#linear-gradient)"/>
            <path id="Trazado_100545" data-name="Trazado 100545" d="M561.553,121.9a2.123,2.123,0,1,0,2.146-2A2.074,2.074,0,0,0,561.553,121.9Z" transform="translate(-561.553 -119.894)" fill="url(#linear-gradient)"/>
          </g>
          <g id="Grupo_53761" data-name="Grupo 53761" transform="translate(0.819 113.574)">
            <path id="Trazado_100546" data-name="Trazado 100546" d="M655.4,131.383a2.123,2.123,0,1,0,2.148-2.005A2.074,2.074,0,0,0,655.4,131.383Z" transform="translate(-464.529 -127.177)" fill="url(#linear-gradient)"/>
            <path id="Trazado_100547" data-name="Trazado 100547" d="M646,131.268a2.122,2.122,0,1,0,2.145-2A2.074,2.074,0,0,0,646,131.268Z" transform="translate(-474.221 -127.283)" fill="url(#linear-gradient)"/>
            <path id="Trazado_100548" data-name="Trazado 100548" d="M636.607,131.155a2.123,2.123,0,1,0,2.148-2A2.074,2.074,0,0,0,636.607,131.155Z" transform="translate(-483.914 -127.39)" fill="url(#linear-gradient)"/>
            <path id="Trazado_100549" data-name="Trazado 100549" d="M627.213,131.041a2.123,2.123,0,1,0,2.145-2A2.074,2.074,0,0,0,627.213,131.041Z" transform="translate(-493.606 -127.497)" fill="url(#linear-gradient)"/>
            <path id="Trazado_100550" data-name="Trazado 100550" d="M617.819,130.928a2.122,2.122,0,1,0,2.145-2A2.073,2.073,0,0,0,617.819,130.928Z" transform="translate(-503.298 -127.604)" fill="url(#linear-gradient)"/>
            <path id="Trazado_100551" data-name="Trazado 100551" d="M608.424,130.816a2.123,2.123,0,1,0,2.148-2.005A2.073,2.073,0,0,0,608.424,130.816Z" transform="translate(-512.991 -127.711)" fill="url(#linear-gradient)"/>
            <path id="Trazado_100552" data-name="Trazado 100552" d="M599.03,130.7a2.123,2.123,0,1,0,2.146-2A2.074,2.074,0,0,0,599.03,130.7Z" transform="translate(-522.682 -127.818)" fill="url(#linear-gradient)"/>
            <path id="Trazado_100553" data-name="Trazado 100553" d="M589.635,130.588a2.123,2.123,0,1,0,2.148-2A2.076,2.076,0,0,0,589.635,130.588Z" transform="translate(-532.375 -127.924)" fill="url(#linear-gradient)"/>
            <path id="Trazado_100554" data-name="Trazado 100554" d="M580.241,130.474a2.123,2.123,0,1,0,2.145-2A2.074,2.074,0,0,0,580.241,130.474Z" transform="translate(-542.067 -128.032)" fill="url(#linear-gradient)"/>
            <path id="Trazado_100555" data-name="Trazado 100555" d="M570.847,130.361a2.122,2.122,0,1,0,2.146-2A2.073,2.073,0,0,0,570.847,130.361Z" transform="translate(-551.759 -128.138)" fill="url(#linear-gradient)"/>
            <path id="Trazado_100556" data-name="Trazado 100556" d="M561.452,130.248a2.123,2.123,0,1,0,2.147-2A2.074,2.074,0,0,0,561.452,130.248Z" transform="translate(-561.452 -128.245)" fill="url(#linear-gradient)"/>
          </g>
          <g id="Grupo_53762" data-name="Grupo 53762" transform="translate(0.614 129.798)">
            <path id="Trazado_100557" data-name="Trazado 100557" d="M655.295,139.732a2.123,2.123,0,1,0,2.148-2A2.072,2.072,0,0,0,655.295,139.732Z" transform="translate(-464.428 -135.526)" fill="url(#linear-gradient)"/>
            <path id="Trazado_100558" data-name="Trazado 100558" d="M645.9,139.619a2.123,2.123,0,1,0,2.145-2A2.074,2.074,0,0,0,645.9,139.619Z" transform="translate(-474.12 -135.632)" fill="url(#linear-gradient)"/>
            <path id="Trazado_100559" data-name="Trazado 100559" d="M636.507,139.505a2.122,2.122,0,1,0,2.145-2A2.073,2.073,0,0,0,636.507,139.505Z" transform="translate(-483.812 -135.74)" fill="url(#linear-gradient)"/>
            <path id="Trazado_100560" data-name="Trazado 100560" d="M627.112,139.392a2.123,2.123,0,1,0,2.148-2A2.072,2.072,0,0,0,627.112,139.392Z" transform="translate(-493.505 -135.846)" fill="url(#linear-gradient)"/>
            <path id="Trazado_100561" data-name="Trazado 100561" d="M617.718,139.28a2.122,2.122,0,1,0,2.145-2.005A2.073,2.073,0,0,0,617.718,139.28Z" transform="translate(-503.197 -135.954)" fill="url(#linear-gradient)"/>
            <path id="Trazado_100562" data-name="Trazado 100562" d="M608.323,139.165a2.123,2.123,0,1,0,2.148-2A2.074,2.074,0,0,0,608.323,139.165Z" transform="translate(-512.89 -136.06)" fill="url(#linear-gradient)"/>
            <path id="Trazado_100563" data-name="Trazado 100563" d="M598.929,139.052a2.123,2.123,0,1,0,2.148-2A2.074,2.074,0,0,0,598.929,139.052Z" transform="translate(-522.581 -136.167)" fill="url(#linear-gradient)"/>
            <path id="Trazado_100564" data-name="Trazado 100564" d="M589.535,138.94a2.122,2.122,0,1,0,2.146-2.005A2.072,2.072,0,0,0,589.535,138.94Z" transform="translate(-532.273 -136.274)" fill="url(#linear-gradient)"/>
            <path id="Trazado_100565" data-name="Trazado 100565" d="M580.14,138.825a2.123,2.123,0,1,0,2.147-2A2.071,2.071,0,0,0,580.14,138.825Z" transform="translate(-541.966 -136.381)" fill="url(#linear-gradient)"/>
            <path id="Trazado_100566" data-name="Trazado 100566" d="M570.746,138.712a2.123,2.123,0,1,0,2.146-2A2.074,2.074,0,0,0,570.746,138.712Z" transform="translate(-551.658 -136.487)" fill="url(#linear-gradient)"/>
            <path id="Trazado_100567" data-name="Trazado 100567" d="M561.351,138.6a2.123,2.123,0,1,0,2.148-2A2.074,2.074,0,0,0,561.351,138.6Z" transform="translate(-561.351 -136.595)" fill="url(#linear-gradient)"/>
          </g>
          <g id="Grupo_53763" data-name="Grupo 53763" transform="translate(0.41 146.024)">
            <path id="Trazado_100568" data-name="Trazado 100568" d="M655.2,148.084a2.122,2.122,0,1,0,2.145-2.005A2.072,2.072,0,0,0,655.2,148.084Z" transform="translate(-464.328 -143.877)" fill="url(#linear-gradient)"/>
            <path id="Trazado_100569" data-name="Trazado 100569" d="M645.8,147.969a2.123,2.123,0,1,0,2.148-2A2.074,2.074,0,0,0,645.8,147.969Z" transform="translate(-474.021 -143.984)" fill="url(#linear-gradient)"/>
            <path id="Trazado_100570" data-name="Trazado 100570" d="M636.406,147.856a2.122,2.122,0,1,0,2.145-2A2.073,2.073,0,0,0,636.406,147.856Z" transform="translate(-483.713 -144.091)" fill="url(#linear-gradient)"/>
            <path id="Trazado_100571" data-name="Trazado 100571" d="M627.011,147.744a2.123,2.123,0,1,0,2.148-2.005A2.075,2.075,0,0,0,627.011,147.744Z" transform="translate(-493.406 -144.198)" fill="url(#linear-gradient)"/>
            <path id="Trazado_100572" data-name="Trazado 100572" d="M617.617,147.629a2.123,2.123,0,1,0,2.146-2A2.074,2.074,0,0,0,617.617,147.629Z" transform="translate(-503.098 -144.305)" fill="url(#linear-gradient)"/>
            <path id="Trazado_100573" data-name="Trazado 100573" d="M608.223,147.516a2.122,2.122,0,1,0,2.145-2A2.072,2.072,0,0,0,608.223,147.516Z" transform="translate(-512.789 -144.411)" fill="url(#linear-gradient)"/>
            <path id="Trazado_100574" data-name="Trazado 100574" d="M598.828,147.4a2.123,2.123,0,1,0,2.148-2.005A2.074,2.074,0,0,0,598.828,147.4Z" transform="translate(-522.482 -144.519)" fill="url(#linear-gradient)"/>
            <path id="Trazado_100575" data-name="Trazado 100575" d="M589.434,147.289a2.123,2.123,0,1,0,2.145-2A2.074,2.074,0,0,0,589.434,147.289Z" transform="translate(-532.174 -144.625)" fill="url(#linear-gradient)"/>
            <path id="Trazado_100576" data-name="Trazado 100576" d="M580.039,147.177a2.123,2.123,0,1,0,2.147-2.005A2.075,2.075,0,0,0,580.039,147.177Z" transform="translate(-541.867 -144.733)" fill="url(#linear-gradient)"/>
            <path id="Trazado_100577" data-name="Trazado 100577" d="M570.645,147.062a2.123,2.123,0,1,0,2.148-2A2.074,2.074,0,0,0,570.645,147.062Z" transform="translate(-551.559 -144.839)" fill="url(#linear-gradient)"/>
            <path id="Trazado_100578" data-name="Trazado 100578" d="M561.251,146.949a2.122,2.122,0,1,0,2.146-2A2.072,2.072,0,0,0,561.251,146.949Z" transform="translate(-561.251 -144.946)" fill="url(#linear-gradient)"/>
          </g>
          <g id="Grupo_53764" data-name="Grupo 53764" transform="translate(0.205 162.248)">
            <path id="Trazado_100579" data-name="Trazado 100579" d="M655.094,156.433a2.122,2.122,0,1,0,2.145-2A2.074,2.074,0,0,0,655.094,156.433Z" transform="translate(-464.228 -152.227)" fill="url(#linear-gradient)"/>
            <path id="Trazado_100580" data-name="Trazado 100580" d="M645.7,156.32a2.123,2.123,0,1,0,2.148-2A2.074,2.074,0,0,0,645.7,156.32Z" transform="translate(-473.92 -152.333)" fill="url(#linear-gradient)"/>
            <path id="Trazado_100581" data-name="Trazado 100581" d="M636.305,156.208a2.123,2.123,0,1,0,2.146-2.005A2.074,2.074,0,0,0,636.305,156.208Z" transform="translate(-483.612 -152.441)" fill="url(#linear-gradient)"/>
            <path id="Trazado_100582" data-name="Trazado 100582" d="M626.911,156.093a2.122,2.122,0,1,0,2.145-2A2.073,2.073,0,0,0,626.911,156.093Z" transform="translate(-493.304 -152.547)" fill="url(#linear-gradient)"/>
            <path id="Trazado_100583" data-name="Trazado 100583" d="M617.516,155.98a2.123,2.123,0,1,0,2.148-2A2.074,2.074,0,0,0,617.516,155.98Z" transform="translate(-502.997 -152.654)" fill="url(#linear-gradient)"/>
            <path id="Trazado_100584" data-name="Trazado 100584" d="M608.122,155.866a2.123,2.123,0,1,0,2.145-2A2.074,2.074,0,0,0,608.122,155.866Z" transform="translate(-512.689 -152.761)" fill="url(#linear-gradient)"/>
            <path id="Trazado_100585" data-name="Trazado 100585" d="M598.728,155.753a2.122,2.122,0,1,0,2.145-2A2.072,2.072,0,0,0,598.728,155.753Z" transform="translate(-522.38 -152.868)" fill="url(#linear-gradient)"/>
            <path id="Trazado_100586" data-name="Trazado 100586" d="M589.333,155.641a2.123,2.123,0,1,0,2.148-2.005A2.074,2.074,0,0,0,589.333,155.641Z" transform="translate(-532.073 -152.975)" fill="url(#linear-gradient)"/>
            <path id="Trazado_100587" data-name="Trazado 100587" d="M579.939,155.526a2.122,2.122,0,1,0,2.145-2A2.073,2.073,0,0,0,579.939,155.526Z" transform="translate(-541.765 -153.082)" fill="url(#linear-gradient)"/>
            <path id="Trazado_100588" data-name="Trazado 100588" d="M570.544,155.413a2.123,2.123,0,1,0,2.148-2A2.074,2.074,0,0,0,570.544,155.413Z" transform="translate(-551.458 -153.188)" fill="url(#linear-gradient)"/>
            <path id="Trazado_100589" data-name="Trazado 100589" d="M561.15,155.3a2.123,2.123,0,1,0,2.145-2A2.074,2.074,0,0,0,561.15,155.3Z" transform="translate(-561.15 -153.296)" fill="url(#linear-gradient)"/>
          </g>
          <g id="Grupo_53765" data-name="Grupo 53765" transform="translate(0 178.474)">
            <path id="Trazado_100590" data-name="Trazado 100590" d="M654.993,164.784a2.123,2.123,0,1,0,2.146-2A2.074,2.074,0,0,0,654.993,164.784Z" transform="translate(-464.126 -160.578)" fill="url(#linear-gradient)"/>
            <path id="Trazado_100591" data-name="Trazado 100591" d="M645.6,164.67a2.122,2.122,0,1,0,2.146-2A2.073,2.073,0,0,0,645.6,164.67Z" transform="translate(-473.818 -160.685)" fill="url(#linear-gradient)"/>
            <path id="Trazado_100592" data-name="Trazado 100592" d="M636.2,164.557a2.123,2.123,0,1,0,2.148-2A2.074,2.074,0,0,0,636.2,164.557Z" transform="translate(-483.511 -160.792)" fill="url(#linear-gradient)"/>
            <path id="Trazado_100593" data-name="Trazado 100593" d="M626.81,164.445a2.122,2.122,0,1,0,2.146-2.005A2.074,2.074,0,0,0,626.81,164.445Z" transform="translate(-493.203 -160.899)" fill="url(#linear-gradient)"/>
            <path id="Trazado_100594" data-name="Trazado 100594" d="M617.415,164.33a2.123,2.123,0,1,0,2.147-2A2.076,2.076,0,0,0,617.415,164.33Z" transform="translate(-502.896 -161.006)" fill="url(#linear-gradient)"/>
            <path id="Trazado_100595" data-name="Trazado 100595" d="M608.021,164.217a2.123,2.123,0,1,0,2.146-2A2.074,2.074,0,0,0,608.021,164.217Z" transform="translate(-512.588 -161.112)" fill="url(#linear-gradient)"/>
            <path id="Trazado_100596" data-name="Trazado 100596" d="M598.627,164.105a2.122,2.122,0,1,0,2.145-2.005A2.074,2.074,0,0,0,598.627,164.105Z" transform="translate(-522.279 -161.22)" fill="url(#linear-gradient)"/>
            <path id="Trazado_100597" data-name="Trazado 100597" d="M589.232,163.99a2.123,2.123,0,1,0,2.148-2A2.074,2.074,0,0,0,589.232,163.99Z" transform="translate(-531.972 -161.326)" fill="url(#linear-gradient)"/>
            <path id="Trazado_100598" data-name="Trazado 100598" d="M579.838,163.878a2.123,2.123,0,1,0,2.145-2.005A2.074,2.074,0,0,0,579.838,163.878Z" transform="translate(-541.664 -161.434)" fill="url(#linear-gradient)"/>
            <path id="Trazado_100599" data-name="Trazado 100599" d="M570.444,163.763a2.122,2.122,0,1,0,2.146-2A2.073,2.073,0,0,0,570.444,163.763Z" transform="translate(-551.356 -161.54)" fill="url(#linear-gradient)"/>
            <path id="Trazado_100600" data-name="Trazado 100600" d="M561.049,163.65a2.123,2.123,0,1,0,2.148-2A2.072,2.072,0,0,0,561.049,163.65Z" transform="translate(-561.049 -161.647)" fill="url(#linear-gradient)"/>
          </g>
        </g>
      </g>
    </g>
    <g id="Grupo_56668" data-name="Grupo 56668" transform="translate(-38.242 -25.588)">
      <path id="Trazado_105136" data-name="Trazado 105136" d="M0,0H1398V561H0Z" transform="translate(-0.425 -0.201)" fill="#0540b7"/>
      <g id="Grupo_56667" data-name="Grupo 56667" transform="translate(-0.425 -0.201)">
        <g id="Grupo_56666" data-name="Grupo 56666" clip-path="url(#clip-path-2)">
          <path id="Trazado_104725" data-name="Trazado 104725" d="M125.964,290.788a1.621,1.621,0,1,0-1.619,1.709,1.665,1.665,0,0,0,1.619-1.709" transform="translate(86.805 230.584)" fill="#fff"/>
          <path id="Trazado_104726" data-name="Trazado 104726" d="M77.131,184.011a2.432,2.432,0,1,0-2.426,2.564,2.5,2.5,0,0,0,2.426-2.564" transform="translate(51.295 144.809)" fill="#fff"/>
          <path id="Trazado_104727" data-name="Trazado 104727" d="M340.861,212.167a1.621,1.621,0,1,0-1.619,1.709,1.664,1.664,0,0,0,1.619-1.709" transform="translate(238.059 167.93)" fill="#fff"/>
          <path id="Trazado_104728" data-name="Trazado 104728" d="M90.031,258.68a3.96,3.96,0,1,0-3.955,4.174,4.068,4.068,0,0,0,3.955-4.174" transform="translate(58.226 203.032)" fill="#fff"/>
          <path id="Trazado_104729" data-name="Trazado 104729" d="M421.316,151.4a2.432,2.432,0,1,0-2.426,2.564,2.5,2.5,0,0,0,2.426-2.564" transform="translate(293.547 118.819)" fill="#fff"/>
          <path id="Trazado_104730" data-name="Trazado 104730" d="M137.979,206.557a1.621,1.621,0,1,0-1.619,1.709,1.664,1.664,0,0,0,1.619-1.709" transform="translate(95.262 163.459)" fill="#fff"/>
          <path id="Trazado_104731" data-name="Trazado 104731" d="M635.544,26.389a1.621,1.621,0,1,0-1.619,1.709,1.664,1.664,0,0,0,1.619-1.709" transform="translate(445.469 19.88)" fill="#fff"/>
          <path id="Trazado_104732" data-name="Trazado 104732" d="M690.051,109.2a2.432,2.432,0,1,0-2.426,2.564,2.5,2.5,0,0,0,2.426-2.564" transform="translate(482.694 85.194)" fill="#fff"/>
          <path id="Trazado_104733" data-name="Trazado 104733" d="M554.357,107.4a2.432,2.432,0,1,0-2.426,2.564,2.5,2.5,0,0,0,2.426-2.564" transform="translate(387.187 83.756)" fill="#fff"/>
          <path id="Trazado_104734" data-name="Trazado 104734" d="M411.911,90.45a1.621,1.621,0,1,0-1.619,1.709,1.665,1.665,0,0,0,1.619-1.709" transform="translate(288.067 70.931)" fill="#fff"/>
          <path id="Trazado_104735" data-name="Trazado 104735" d="M308.033,281.684a1.621,1.621,0,1,0-1.619,1.709,1.664,1.664,0,0,0,1.619-1.709" transform="translate(214.953 223.329)" fill="#fff"/>
          <path id="Trazado_104736" data-name="Trazado 104736" d="M498.685,50.849a1.621,1.621,0,1,0-1.619,1.709,1.664,1.664,0,0,0,1.619-1.709" transform="translate(349.142 39.372)" fill="#fff"/>
          <path id="Trazado_104737" data-name="Trazado 104737" d="M243.108,43.658a2.432,2.432,0,1,0-2.426,2.564,2.5,2.5,0,0,0,2.426-2.564" transform="translate(168.117 32.959)" fill="#fff"/>
          <path id="Trazado_104738" data-name="Trazado 104738" d="M359.865,48.733a1.621,1.621,0,1,0-1.619,1.709,1.664,1.664,0,0,0,1.619-1.709" transform="translate(251.435 37.686)" fill="#fff"/>
          <path id="Trazado_104739" data-name="Trazado 104739" d="M133.759,157.812a3.7,3.7,0,1,0-3.692,3.9,3.8,3.8,0,0,0,3.692-3.9" transform="translate(89.373 122.868)" fill="#fff"/>
        </g>
      </g>
    </g>
    <g id="Grupo_56669" data-name="Grupo 56669" transform="translate(-69.667 -35.915)">
      <g id="Grupo_56677" data-name="Grupo 56677" clip-path="url(#clip-path-3)">
        <g id="Grupo_56676" data-name="Grupo 56676">
          <g id="Grupo_56675" data-name="Grupo 56675" clip-path="url(#clip-path-3)">
            <path id="Trazado_104740" data-name="Trazado 104740" d="M38.013,190.536c8.216.558,16.013,3.681,24.053,5.461a74.415,74.415,0,0,0,86.171-47.639c3.462-9.7,5.025-20.349,11.066-28.69,7.94-10.962,21.736-15.541,33.976-21.322,16.5-7.793,31.7-19.05,41.964-34.133s15.21-34.239,11.145-52.026c-36.6,1.2-72.818-6.605-109.27-10.056C91.793-2.16,45.983.3.965,7.1,0,35.9-.967,64.812,1.945,93.486c2.251,22.163,6.8,44.018,9.16,66.166.6,5.62,1.073,11.257,1.315,16.9.15,3.495-1.266,10.829,1.224,13.69,4.547,5.224,18.4-.116,24.369.29" fill="#80cab6"/>
            <path id="Trazado_104741" data-name="Trazado 104741" d="M109.876,46.76A77.87,77.87,0,0,0,128.37,57.885a20.3,20.3,0,0,1,4.448-6.728c3.224-2.925,6.268-3.551,7.915-1.561,1.4,2.168-.122,4.879-3.894,7.053a18.369,18.369,0,0,1-6.472,2.046,78.553,78.553,0,0,0,10.246,3.265,20.248,20.248,0,0,1,3.571-7.657c2.787-3.354,5.714-4.39,7.614-2.643,1.68,1.957.555,4.847-2.879,7.526a19.449,19.449,0,0,1-6.846,3.114c1.4.323,2.8.608,4.223.851,2.559.435,5.152.748,7.751.951a20.4,20.4,0,0,1,2.665-8.055c2.377-3.647,5.166-5.008,7.257-3.5,1.889,1.75,1.114,4.751-1.983,7.807a19.4,19.4,0,0,1-6.383,3.865,84.514,84.514,0,0,0,10.028.046,20.547,20.547,0,0,1,2.3-8.221c2.214-3.747,4.933-5.239,7.091-3.826,1.979,1.663,1.327,4.7-1.63,7.889a19.084,19.084,0,0,1-5.918,4.031c1.686-.134,3.354-.3,5.025-.524.69-.1,1.424-.208,2.156-.326a20.359,20.359,0,0,1,7.091-4.433c4.156-1.3,7.181-.6,7.831,1.907.348,2.557-2.165,4.376-6.5,4.761a19.967,19.967,0,0,1-8.079-1.311A73.709,73.709,0,0,1,163.213,65.3a19.249,19.249,0,0,1,6.049,3.944c3.022,3.137,3.725,6.164,1.777,7.852-2.131,1.463-4.882.016-7.16-3.691a20.63,20.63,0,0,1-2.453-8.079,89.969,89.969,0,0,1-12.179-.777,20.022,20.022,0,0,1,5.914,5.308c2.425,3.609,2.605,6.714.407,8.049-2.353,1.061-4.822-.82-6.431-4.873a20.741,20.741,0,0,1-1.012-8.641,83.163,83.163,0,0,1-11.56-2.527,20.656,20.656,0,0,1,6.68,5.766c2.441,3.606,2.623,6.71.408,8.041-2.345,1.081-4.811-.82-6.414-4.857a21.165,21.165,0,0,1-.978-9.038c-2.06-.61-4.079-1.31-6.074-2.091-.64-.246-1.274-.515-1.909-.778-.193.009-.316.01-.316.01s.019-.046.05-.118q-2.182-.933-4.3-1.994a17.862,17.862,0,0,1,3.684,4.9c1.874,3.922,1.584,7.015-.8,8.013-2.478.705-4.633-1.528-5.627-5.766A20.47,20.47,0,0,1,121.2,55.5a78.8,78.8,0,0,1-11.924-8.006.474.474,0,0,1,.6-.734" fill="#3a8931"/>
            <path id="Trazado_104742" data-name="Trazado 104742" d="M84.288,44.926s.492.287,1.416.832c.8.575,2.239,1.351,3.555,2.439A61.125,61.125,0,0,1,99.274,57.33a63.611,63.611,0,0,1,9.2,13.734,61.379,61.379,0,0,1,5.308,16.615,60.1,60.1,0,0,1,.383,17.429,62.643,62.643,0,0,1-4.27,15.968,67.951,67.951,0,0,1-3.236,6.638c-1.088,1.987-2.347,3.78-3.341,5.238a42.032,42.032,0,0,1-2.594,3.456c-.645.806-1.081,1.253-1.081,1.253s-.55-.277-1.426-.827c-.812-.567-2.252-1.352-3.574-2.437-1.406-1.067-3.181-2.357-4.852-3.889a68.463,68.463,0,0,1-5.2-5.241A62.4,62.4,0,0,1,75.4,111.538,60.412,60.412,0,0,1,70.146,94.9a61.215,61.215,0,0,1-.333-17.439,63.481,63.481,0,0,1,4.281-15.96,61.644,61.644,0,0,1,6.531-11.881c.9-1.452,2.008-2.659,2.585-3.451.7-.817,1.078-1.248,1.078-1.248" fill="#aed144"/>
            <path id="Trazado_104743" data-name="Trazado 104743" d="M74.553,83.207q5.9-11.751,11.778-23.488L89.79,80.643c-.1.082-.217.138-.27.247q-6.231,12.429-12.462,24.851c-.4.81.915,1.3,1.312.5Q84.262,94.5,90.142,82.751l3.467,20.928c-.1.081-.224.149-.273.257q-3.6,7.172-7.2,14.345c-.4.814.916,1.3,1.311.5q3.261-6.5,6.513-12.99l4.748,28.683,1.149-.2-4.642-28.064q5.151,4.633,10.31,9.259c.669.616,1.485-.542.806-1.131q-5.736-5.163-11.481-10.321L91.4,83.175q.444.4.9.812c2.234,2.014,4.49,4.025,6.735,6.045,3.4,3.053,6.8,6.118,10.208,9.159.667.621,1.479-.533.813-1.13q-9.516-8.541-19.018-17.088L87.579,60.132c.3.271.6.541.889.81q3.372,3.018,6.738,6.052,5.113,4.579,10.21,9.164c.671.606,1.483-.545.813-1.143q-9.5-8.542-19.016-17.081l-.994-6.026-1.157.194.914,5.5c-.1.076-.224.138-.271.248Q79.466,70.272,73.247,82.7c-.412.809.9,1.3,1.306.506" fill="#246b1a"/>
            <g id="Grupo_56671" data-name="Grupo 56671" opacity="0.1">
              <g id="Grupo_56670" data-name="Grupo 56670">
                <g id="Grupo_56669-2" data-name="Grupo 56669" clip-path="url(#clip-path-5)">
                  <path id="Trazado_104744" data-name="Trazado 104744" d="M99.649,137.663s.442-.447,1.081-1.247a42.154,42.154,0,0,0,2.6-3.456c.984-1.466,2.249-3.261,3.339-5.247a66.76,66.76,0,0,0,3.23-6.64,62.215,62.215,0,0,0,4.274-15.964,60.4,60.4,0,0,0-.381-17.432,61.785,61.785,0,0,0-5.307-16.619A63.621,63.621,0,0,0,99.28,57.331a61.5,61.5,0,0,0-10.016-9.136,41.389,41.389,0,0,0-3.556-2.436c-.917-.533-1.415-.831-1.417-.839Z" fill="#211a72"/>
                </g>
              </g>
            </g>
            <path id="Trazado_104745" data-name="Trazado 104745" d="M92.751,75.352a77.956,77.956,0,0,1,15.87,14.629,20.234,20.234,0,0,0-5.208,6.158c-1.9,3.914-1.649,7.011.725,8.035,2.471.731,4.646-1.489,5.674-5.719a18.446,18.446,0,0,0,.148-6.787,78.67,78.67,0,0,1,6.008,8.917,20.262,20.262,0,0,0-6.346,5.578c-2.436,3.616-2.61,6.715-.4,8.049,2.35,1.064,4.806-.828,6.413-4.877a19.432,19.432,0,0,0,1.067-7.444c.7,1.254,1.373,2.522,2,3.814,1.135,2.335,2.164,4.736,3.087,7.172a20.43,20.43,0,0,0-6.981,4.82c-2.834,3.306-3.355,6.365-1.324,7.948,2.211,1.321,4.875-.264,6.936-4.095a19.447,19.447,0,0,0,1.921-7.21,85.558,85.558,0,0,1,2.858,9.611,20.552,20.552,0,0,0-7.246,4.518c-2.972,3.18-3.643,6.207-1.678,7.882,2.149,1.428,4.884-.047,7.112-3.781a19.1,19.1,0,0,0,2.206-6.809c.345,1.652.658,3.3.91,4.968.1.69.2,1.425.29,2.161a20.385,20.385,0,0,0-2.261,8.051c-.086,4.356,1.442,7.06,4.026,6.979,2.554-.382,3.593-3.3,2.747-7.571a20,20,0,0,0-3.524-7.383,74.234,74.234,0,0,0-2.265-11.626,19.227,19.227,0,0,0,5.483,4.7c3.858,2.021,6.96,1.846,8.035-.5.8-2.456-1.357-4.692-5.553-5.836a20.648,20.648,0,0,0-8.442-.086,89.88,89.88,0,0,0-4.164-11.472,19.944,19.944,0,0,0,6.753,4.185c4.145,1.317,7.173.618,7.841-1.868.358-2.555-2.144-4.4-6.483-4.8a20.677,20.677,0,0,0-8.575,1.456,83.156,83.156,0,0,0-5.676-10.388,20.68,20.68,0,0,0,7.411,4.793c4.145,1.33,7.176.633,7.832-1.866.379-2.552-2.137-4.388-6.461-4.791a21.116,21.116,0,0,0-8.95,1.6c-1.165-1.806-2.4-3.548-3.713-5.244-.413-.546-.85-1.078-1.283-1.611-.043-.189-.077-.309-.077-.309l-.1.083q-1.5-1.832-3.12-3.568a17.864,17.864,0,0,0,5.736,2.162c4.293.695,7.178-.451,7.469-3.013-.018-2.577-2.769-4.019-7.116-3.783a20.45,20.45,0,0,0-8.051,2.592,78.351,78.351,0,0,0-11.031-9.195.472.472,0,0,0-.535.778" fill="#3a8931"/>
            <path id="Trazado_104746" data-name="Trazado 104746" d="M82.873,46.088s.676-.174,1.952-.507c1.19-.2,3.112-.766,5.192-.962a75.035,75.035,0,0,1,16.587-.743,77.777,77.777,0,0,1,19.876,3.93,75.175,75.175,0,0,1,18.982,9.821,73.64,73.64,0,0,1,15.426,14.779,76.715,76.715,0,0,1,10.118,17.541,81.256,81.256,0,0,1,2.937,8.561,75.047,75.047,0,0,1,1.642,7.44,48.555,48.555,0,0,1,.744,5.239c.143,1.257.148,2.02.148,2.02s-.719.235-1.95.523c-1.2.2-3.127.775-5.215.977-2.142.287-4.8.708-7.575.828a83.473,83.473,0,0,1-9.04-.041,76.613,76.613,0,0,1-19.862-3.947,74.02,74.02,0,0,1-18.952-9.872A74.565,74.565,0,0,1,98.5,86.83,77.5,77.5,0,0,1,88.39,69.282a75.741,75.741,0,0,1-4.627-15.946c-.47-2.04-.555-4.056-.742-5.235-.1-1.309-.148-2.013-.148-2.013" fill="#aed144"/>
            <path id="Trazado_104747" data-name="Trazado 104747" d="M107.568,87.708q-5.049-15.287-10.12-30.558l21.117,15.143a1,1,0,0,0-.021.449q5.358,16.176,10.71,32.343c.359,1.049,1.916.337,1.57-.7Q125.771,89.1,120.7,73.825l21.124,15.14a1.075,1.075,0,0,0-.025.464q3.1,9.332,6.18,18.672c.355,1.048,1.927.33,1.573-.695q-2.8-8.467-5.592-16.906l28.947,20.755.824-1.166L145.412,89.783q8.477-.444,16.954-.9c1.113-.043.818-1.751-.274-1.673q-9.448.479-18.9.985L122.149,73.1c.5-.021.993-.04,1.478-.071,3.687-.19,7.386-.394,11.08-.584q8.393-.447,16.779-.895c1.116-.044.823-1.749-.273-1.68q-15.645.817-31.285,1.64L98.889,56.427c.5-.027.987-.054,1.484-.077,3.689-.2,7.389-.391,11.074-.572q8.4-.46,16.789-.9c1.11-.054.818-1.751-.283-1.684Q112.314,54,96.676,54.831L90.6,50.475l-.843,1.157L95.31,55.61a.983.983,0,0,0-.026.455Q100.645,72.237,106,88.4c.342,1.057,1.9.338,1.565-.7" fill="#246b1a"/>
            <g id="Grupo_56674" data-name="Grupo 56674" opacity="0.1">
              <g id="Grupo_56673" data-name="Grupo 56673">
                <g id="Grupo_56672" data-name="Grupo 56672" clip-path="url(#clip-path-6)">
                  <path id="Trazado_104748" data-name="Trazado 104748" d="M176.481,113.208c0-.007,0-.769-.144-2.024a52.579,52.579,0,0,0-.734-5.246c-.418-2.118-.869-4.776-1.655-7.439a79.326,79.326,0,0,0-2.939-8.554A76.43,76.43,0,0,0,160.9,72.4a74.24,74.24,0,0,0-15.423-14.783A75.438,75.438,0,0,0,126.484,47.8a77.5,77.5,0,0,0-19.866-3.935,75.328,75.328,0,0,0-16.6.741,52.07,52.07,0,0,0-5.189.967c-1.257.334-1.953.508-1.959.505Z" fill="#211a72"/>
                </g>
              </g>
            </g>
          </g>
        </g>
      </g>
    </g>
    <g id="Grupo_56690" data-name="Grupo 56690" transform="translate(579.333 172.211)">
      <g id="Grupo_56689" data-name="Grupo 56689" clip-path="url(#clip-path-7)">
        <g id="Grupo_56688" data-name="Grupo 56688">
          <g id="Grupo_56687" data-name="Grupo 56687" clip-path="url(#clip-path-7)">
            <path id="Trazado_104825" data-name="Trazado 104825" d="M356.6,194.578C223.348,311.966,0,339.369,0,339.369l10.076,5.374C91,401.288,509.453,390.3,615.666,390.3c222.631,0,107.666-134.211,172.019-335.489C568.125-61.365,489.77,77.261,356.6,194.578" transform="translate(0.001 8.029)" fill="#80cab6"/>
            <path id="Trazado_104826" data-name="Trazado 104826" d="M363.489,224.212a2.8,2.8,0,0,0-1.556-1.645c-.156-.061-.318-.132-.479-.2a392.639,392.639,0,0,0-41.15-32.113,2.64,2.64,0,0,0-.42-.552C282.6,150.752,259.119,95.031,250.94,41.9c-.6-3.831-6.634-3.428-6.04.415,7.411,48.071,26.859,97.753,57.488,136.369a465.634,465.634,0,0,0-57.325-29.633c-34.6-15-72.232-27.68-109.784-32.862-3.845-.535-4.988,5.4-1.125,5.931,36.252,5.014,72.228,17.2,105.8,31.32,37.21,15.654,72.408,36.136,103.541,61.469-46.151-17.768-99.013-27.609-147.612-20.338-3.843.576-3.447,6.617.42,6.028,53.833-8.051,113.015,5.219,162,26.984a343.661,343.661,0,0,1,60.526,71.472c2.078,3.291,7.068-.107,4.99-3.405a345.049,345.049,0,0,0-60.334-71.441" transform="translate(96.227 28.646)" fill="#aed144"/>
            <path id="Trazado_104827" data-name="Trazado 104827" d="M264.751,127.08s-.9.678-2.606,1.964c-1.646,1.038-4.168,3.08-7.151,4.672a121.939,121.939,0,0,1-24.332,11.42,125.587,125.587,0,0,1-32.139,6.466,121.623,121.623,0,0,1-34.473-2.864,119.8,119.8,0,0,1-32.237-12.5A123.9,123.9,0,0,1,105.8,116.309a131.894,131.894,0,0,1-9.705-10.958c-2.829-3.5-5.158-7.182-7.093-10.095a84.024,84.024,0,0,1-4.359-7.375c-.988-1.794-1.471-2.929-1.471-2.929s.927-.8,2.606-1.981c1.646-1.057,4.175-3.1,7.163-4.708,3.019-1.76,6.734-4.04,10.814-5.944a134.336,134.336,0,0,1,13.531-5.554,123.814,123.814,0,0,1,32.139-6.444,119.633,119.633,0,0,1,34.445,2.973,120.906,120.906,0,0,1,32.211,12.6A126.059,126.059,0,0,1,242.1,95.844a122.371,122.371,0,0,1,16.819,20.968c1.974,2.744,3.35,5.686,4.366,7.349.966,1.9,1.471,2.919,1.471,2.919" transform="translate(60.74 43.888)" fill="#aed144"/>
            <path id="Trazado_104828" data-name="Trazado 104828" d="M199.439,77.2q17.055,19.7,34.115,39.371l-40.968-9.511a1.811,1.811,0,0,0-.244-.678q-18.059-20.841-36.1-41.666c-1.182-1.357-3.08.678-1.921,2.018q17.068,19.7,34.127,39.366l-40.982-9.5a1.723,1.723,0,0,0-.251-.7q-10.421-12.033-20.84-24.067c-1.182-1.344-3.068.69-1.921,2.023q9.44,10.909,18.869,21.786L87.176,82.611l-.523,2.251,54.96,12.754q-12.4,5.936-24.783,11.877c-1.63.756-.13,3.116,1.459,2.331q13.816-6.592,27.61-13.216l40.823,9.468c-.72.35-1.434.685-2.159,1.028q-8.077,3.872-16.182,7.764-12.266,5.881-24.532,11.763c-1.626.763-.133,3.116,1.462,2.341q22.848-10.942,45.723-21.892l40.809,9.463q-1.077.514-2.161,1.026-8.093,3.883-16.185,7.752-12.269,5.892-24.541,11.775c-1.616.763-.118,3.123,1.476,2.343q22.861-10.927,45.722-21.887l11.789,2.725.535-2.251L237.7,117.534a1.66,1.66,0,0,0-.246-.7Q219.4,95.995,201.348,75.172c-1.177-1.358-3.061.678-1.909,2.023" transform="translate(63.283 46.932)" fill="#3a8931"/>
            <g id="Grupo_56680" data-name="Grupo 56680" transform="translate(143.904 128.85)" opacity="0.1">
              <g id="Grupo_56679" data-name="Grupo 56679">
                <g id="Grupo_56678" data-name="Grupo 56678" clip-path="url(#clip-path-9)">
                  <path id="Trazado_104829" data-name="Trazado 104829" d="M83.167,74.467c.007.009.484,1.144,1.471,2.931A84.108,84.108,0,0,0,89,84.773c1.936,2.91,4.262,6.6,7.091,10.093a132.009,132.009,0,0,0,9.707,10.96,123.826,123.826,0,0,0,26.017,19.928,119.7,119.7,0,0,0,32.236,12.5,121.749,121.749,0,0,0,34.469,2.867,125.675,125.675,0,0,0,32.139-6.468,121.342,121.342,0,0,0,24.328-11.42c2.99-1.592,5.523-3.632,7.157-4.672,1.694-1.286,2.606-1.966,2.618-1.966Z" transform="translate(-83.167 -74.467)" fill="#211a72"/>
                </g>
              </g>
            </g>
            <path id="Trazado_104830" data-name="Trazado 104830" d="M250.081,137.042s-.384.756-1.111,2.156c-.768,1.237-1.8,3.416-3.272,5.452a91.237,91.237,0,0,1-12.591,15.5,92.8,92.8,0,0,1-19.419,14.728,90.013,90.013,0,0,1-23.994,9.242,89.1,89.1,0,0,1-25.619,2.071,92.145,92.145,0,0,1-23.859-4.918,99.681,99.681,0,0,1-10.036-4.186c-3.03-1.434-5.786-3.153-8.013-4.478a61.081,61.081,0,0,1-5.317-3.514c-1.234-.888-1.924-1.481-1.924-1.481s.36-.836,1.1-2.175c.758-1.242,1.793-3.428,3.267-5.469,1.447-2.156,3.2-4.881,5.317-7.47a95.858,95.858,0,0,1,7.257-8.094,92.4,92.4,0,0,1,19.417-14.723,88.417,88.417,0,0,1,24.017-9.145,89.592,89.592,0,0,1,25.636-2,93.277,93.277,0,0,1,23.868,4.937,90.174,90.174,0,0,1,18.037,8.586c2.2,1.2,4.084,2.72,5.3,3.507,1.267.955,1.94,1.471,1.94,1.471" transform="translate(83.93 86.417)" fill="#aed144"/>
            <path id="Trazado_104831" data-name="Trazado 104831" d="M190.575,123.461q17.784,7.664,35.568,15.306l-30.495,6.9c-.132-.144-.228-.318-.388-.379q-18.827-8.106-37.641-16.206c-1.225-.523-1.841,1.447-.632,1.976q17.789,7.654,35.584,15.3l-30.509,6.906c-.118-.144-.227-.318-.391-.384l-21.731-9.363c-1.23-.521-1.831,1.46-.638,1.976q9.852,4.244,19.679,8.478l-41.79,9.451.381,1.67,40.91-9.242q-6.382,7.971-12.745,15.955c-.846,1.038.924,2.125,1.73,1.092q7.122-8.879,14.206-17.779l30.381-6.869c-.375.469-.739.919-1.111,1.381-2.765,3.471-5.554,6.959-8.321,10.43q-6.3,7.9-12.614,15.81c-.836,1.045.927,2.137,1.737,1.1q11.755-14.727,23.517-29.451l30.377-6.876c-.372.464-.744.931-1.116,1.393-2.774,3.471-5.547,6.966-8.316,10.425q-6.325,7.916-12.626,15.822c-.827,1.033.938,2.132,1.758,1.092q11.744-14.706,23.513-29.451l8.773-1.988-.384-1.663-8.011,1.808c-.132-.156-.234-.325-.377-.384q-18.833-8.108-37.655-16.213c-1.23-.51-1.834,1.459-.621,1.981" transform="translate(85.585 88.656)" fill="#3a8931"/>
            <g id="Grupo_56683" data-name="Grupo 56683" transform="translate(198.859 223.465)" opacity="0.1">
              <g id="Grupo_56682" data-name="Grupo 56682">
                <g id="Grupo_56681" data-name="Grupo 56681" clip-path="url(#clip-path-10)">
                  <path id="Trazado_104832" data-name="Trazado 104832" d="M114.927,159.723c.007,0,.69.6,1.928,1.483a60,60,0,0,0,5.312,3.513c2.23,1.327,4.988,3.045,8.015,4.48a100.57,100.57,0,0,0,10.034,4.186,92.288,92.288,0,0,0,23.863,4.918,89.888,89.888,0,0,0,49.608-11.313,92.443,92.443,0,0,0,19.419-14.73,90.747,90.747,0,0,0,12.591-15.5c1.478-2.035,2.5-4.215,3.272-5.452l1.113-2.156Z" transform="translate(-114.927 -129.149)" fill="#211a72"/>
                </g>
              </g>
            </g>
            <path id="Trazado_104833" data-name="Trazado 104833" d="M228.548,134.82s-.763-.379-2.173-1.087c-1.244-.756-3.423-1.765-5.476-3.213A90.673,90.673,0,0,1,205.256,118.1a92.6,92.6,0,0,1-14.939-19.262,90.039,90.039,0,0,1-9.5-23.892,88.837,88.837,0,0,1-2.341-25.6,91.393,91.393,0,0,1,4.658-23.9,98.484,98.484,0,0,1,4.073-10.089c1.4-3.037,3.085-5.817,4.383-8.051a59.455,59.455,0,0,1,3.464-5.35C195.931.7,196.52,0,196.52,0s.834.355,2.185,1.087a62.462,62.462,0,0,1,5.5,3.2c2.166,1.429,4.918,3.147,7.529,5.236a94.275,94.275,0,0,1,8.172,7.182,91.987,91.987,0,0,1,14.934,19.25,88.042,88.042,0,0,1,9.4,23.916,89.745,89.745,0,0,1,2.282,25.608,93.525,93.525,0,0,1-4.677,23.923,89.6,89.6,0,0,1-8.394,18.121c-1.171,2.227-2.673,4.113-3.447,5.343-.938,1.279-1.453,1.952-1.453,1.952" transform="translate(130.238)" fill="#aed144"/>
            <path id="Trazado_104834" data-name="Trazado 104834" d="M236.508,76.982q-7.475,17.859-14.91,35.732l-7.234-30.431c.149-.126.324-.216.377-.384q7.908-18.923,15.793-37.8c.51-1.237-1.459-1.838-1.981-.619q-7.449,17.877-14.91,35.745L206.408,48.79a1.212,1.212,0,0,0,.384-.4q4.565-10.916,9.115-21.831c.51-1.232-1.472-1.813-1.983-.613q-4.124,9.9-8.255,19.772l-9.9-41.69-1.675.4,9.691,40.8q-8.043-6.286-16.1-12.574c-1.057-.834-2.12.95-1.069,1.742q8.944,7.034,17.924,14.021l7.2,30.3c-.479-.372-.936-.727-1.4-1.1-3.5-2.732-7.013-5.482-10.508-8.2q-7.978-6.214-15.953-12.448c-1.04-.817-2.12.95-1.081,1.753q14.862,11.6,29.711,23.2l7.2,30.3c-.469-.362-.938-.727-1.393-1.106-3.513-2.725-7.039-5.469-10.527-8.2q-7.978-6.224-15.948-12.453c-1.043-.817-2.125.966-1.08,1.77q14.833,11.591,29.709,23.2l2.078,8.748,1.663-.4-1.9-7.98c.144-.137.318-.239.384-.4q7.9-18.905,15.8-37.821c.491-1.232-1.478-1.82-2-.6" transform="translate(133.194 2.945)" fill="#3a8931"/>
            <g id="Grupo_56686" data-name="Grupo 56686" transform="translate(308.57)" opacity="0.1">
              <g id="Grupo_56685" data-name="Grupo 56685">
                <g id="Grupo_56684" data-name="Grupo 56684" clip-path="url(#clip-path-11)">
                  <path id="Trazado_104835" data-name="Trazado 104835" d="M196.521,0c0,.005-.6.7-1.459,1.952a59.644,59.644,0,0,0-3.471,5.35c-1.3,2.232-2.99,5.013-4.39,8.051a96.941,96.941,0,0,0-4.064,10.088,91.337,91.337,0,0,0-4.66,23.9,88.826,88.826,0,0,0,2.336,25.6,90.4,90.4,0,0,0,9.5,23.894A92.428,92.428,0,0,0,205.257,118.1,90.169,90.169,0,0,0,220.9,130.52c2.042,1.447,4.239,2.455,5.483,3.213,1.41.7,2.161,1.087,2.161,1.087Z" transform="translate(-178.333)" fill="#211a72"/>
                </g>
              </g>
            </g>
          </g>
        </g>
      </g>
    </g>
    <g id="Grupo_56694" data-name="Grupo 56694" transform="translate(965 15.853)">
      <g id="Grupo_56712" data-name="Grupo 56712" clip-path="url(#clip-path-12)">
        <g id="Grupo_56695" data-name="Grupo 56695">
          <g id="Grupo_56694-2" data-name="Grupo 56694" clip-path="url(#clip-path-12)">
            <path id="Trazado_104837" data-name="Trazado 104837" d="M366.291,232.674A144.819,144.819,0,1,1,221.47,87.857,144.819,144.819,0,0,1,366.291,232.674" transform="translate(31.244 35.811)" fill="#82cbfc"/>
          </g>
        </g>
        <g id="Grupo_56697" data-name="Grupo 56697" transform="translate(107.898 123.668)">
          <g id="Grupo_56696" data-name="Grupo 56696" clip-path="url(#clip-path-14)">
            <path id="Trazado_104838" data-name="Trazado 104838" d="M144.875,290.521s1.226,5.574-1.123,8.592-6.541,7.639-5.09,14.279,6.443,18.414,10.423,20.965c4,2.549,9.106,3.819,8.548,10.58-.566,6.741-3.688,22.216-4.069,27.462s-5.1,28.17-3.6,38.149c1.489,9.97,8.719,13.482,11.014,13.019s-2.418-13.146,0-17.332c2.414-4.166,4.851-5.725,6.83-12.314s5.568-9.076,9.276-10.029,2.735-6.17,6.834-10.1,9.822-10.322,10.374-14.645c.567-4.319,1.568-9.482,7.152-9.066s9.027-3.565,9.891-11.127,2.027-11.372,3.951-14.1c1.916-2.711,3.527-7.16-1.163-11.048s-10.467-1.364-14.346-4.914a15.84,15.84,0,0,0-9.931-4.06c-1.792-.118.7-10.717-5.314-12.388s-8.036-2.256-10.316-5.181-10.468-5.554-15.133-4.362-7.508,2.676-11.333,2.783-4.568-1.191-8.329-1.254-6.731-2.019-6.208-5.794-2.614-5.187-6.561-7.068-2.4-5.667-6.364-4.666-9.62-5.284-9.3-9.071.283-16.118,7.277-14.263,14.752,4.026,18.983,7.206-.591-9,2-11.552,10.708-3.991,10.957-7.967,2.881-13.4,8.871-17.321,12.153-3.923,14.874-6.547c2.711-2.608,9.187-13.486,7.39-17.453s-7.6-12.187-10.36-16.114c-2.78-3.933-7.122-.611-10.893-1.25s-3.316-7.455-6.735-8.026-8.823,1.691-8.671,5.774,3.356,10.888.465,13.154-4.641,5.438-9.144,1.123-13.312-6.5-15.89-10.775-3.527-8.807,3.223-13.5,14.991-10.435,15.026-13.448-3.791-7.577-6.36-7.083c-2.584.483-1.843,5.378-5.056,5.027s-6.209-10.423-9.422-11.934c-3.229-1.519-.743,10.893-4.943,11.934a29.141,29.141,0,0,1-14.957,0c-6.488-1.558-8.123-.84-12.646,0-4.538.835-5.359-.411-10.3-2.482s-6.652-3.122-16.476-2.286c-9.842.826-14.819,2.755-20,0-5.2-2.765-15.04.811-22.078.518C9.08,140.258.02,144.865,0,150.756c-.024,12.606,23.007,16.3,30.876,17.882s17.385,8.25,19.944,15.719,11.528,9.272,13.077,17.83,2.408,22.889,4.831,27.275,18.283,14.332,21.374,21.5c3.107,7.16,9.863,13.911,14.757,18.1s16.462,5.657,20.652,8.578,10.326,15.22,19.363,12.881" transform="translate(-107.898 -69.557)" fill="#3a8931"/>
            <path id="Trazado_104839" data-name="Trazado 104839" d="M50.826,123.889a8.323,8.323,0,0,0-5.588,8.885c.411,4.079,3.86,5.238,6.966,4.748,3.1-.469,8.733.8,10.344,4.4s8.71,2.213,14.176,1.661c5.485-.557,10.688-2.13,7.415-4.749s-2.921-6.476-5.017-8.557-4.01.034-8.143.522-10.107-2.013-13.413-3.854-3.107-4.259-6.741-3.053" transform="translate(-89.479 -73.302)" fill="#3a8931"/>
            <path id="Trazado_104840" data-name="Trazado 104840" d="M58.878,120.509c-1.584.918-4.323,4.782-.876,6.276s11.079,1.578,13.8-.83.854-6.595-1.2-7.9c-2.082-1.309-10.132,1.538-11.718,2.456" transform="translate(-84.933 -75.687)" fill="#3a8931"/>
            <path id="Trazado_104841" data-name="Trazado 104841" d="M136.434,99.482c-5.764-1.788-9.116-3.19-17.737-2.2s-18.42,5.58-24.368,6.219-11.9,3.385-13.683,7.366,9.746,7.694,12.193,10.765,11.542,6.155,16.808,3.761c5.26-2.373,7.419-9.711,12.343-12.666,4.9-2.955,16.389-12.636,14.445-13.247" transform="translate(-75.102 -84.149)" fill="#3a8931"/>
            <path id="Trazado_104842" data-name="Trazado 104842" d="M80.675,109.879a11.91,11.91,0,0,0-9.28,1.28c-1.685,1.07-.415,5.657-.5,8.289s-1.07,7.747,1.382,11.953c2.432,4.2,1.875,10.2,7.151,10.33s9.579-3.771,13.34-6.115c3.781-2.355,16.2-2,18.611-6.063s-1.524-3.508-8.016-3.884c-6.472-.381-10.14-4.03-14.194-7.981s-6.092-7.093-8.495-7.811" transform="translate(-79.156 -79.061)" fill="#3a8931"/>
            <path id="Trazado_104843" data-name="Trazado 104843" d="M95.477,128.332c-6.752.977-7.318,5.408-6.25,9.173s9.5-2.189,12.169,0,7.874,7.469,5.628,11.782,2.7,7.85,9.023,8.675,12.2,4.109,15.27.069,4.155-8.485-1.876-11.924-6.409-8.592-10.1-11.3-8.458-8.64-12.725-8.377a84.988,84.988,0,0,0-11.14,1.9" transform="translate(-71.702 -72.137)" fill="#3a8931"/>
            <path id="Trazado_104844" data-name="Trazado 104844" d="M139.038,101.05c-4.973,1.71-16.9,7.483-18.3,11.064-1.4,3.565-7.577,4.523-8.426,8.386s4.991,4.314,12.753,6.262,10.6,5.1,11.3,11.6,11.216,7.963,8.661,15.382-4.2,11.689-1.25,17.682,11.044,13.389,13.32,12.612,6.027-17.111,12.11-20.476,23.158-9.242,23.964-11.313c.785-2.082,4-25.014,3.39-29.26-.631-4.23,10.209-10.912,10.575-15.831s-11.426-2.09-16.921-3.111-9.97-6.3-18.024-6.84-27.868,2.038-33.157,3.84" transform="translate(-62.153 -84.076)" fill="#3a8931"/>
            <path id="Trazado_104845" data-name="Trazado 104845" d="M201.511,219.437s-9.945-1.388-11.123,0-.688,7.4-1.382,9.344-.6,5.681.771,5.956c1.388.267,3.743,2.589,4.763,2.13a48.985,48.985,0,0,1,6.717-2.907c2.056-.548,2.144-3.581,3.7-6.092s1.553-7.008,7.121-8.684c5.549-1.691,9.173-.494,10.453.977s7.973,4.547,7.953,8c0,3.435,4.416-1.046,4.107-2.217s-5.759-5.873-7.434-7.425-2.2-4.714-.728-5.207,6.286,6.286,7.5,6.854,3.366,2.725,3.1,4.527,2.917,9.79,4.235,10.049,3.775-1.5,3.233-3.083-2.911-4.235-1.246-5.408,6.027-.229,8-1.558-1.016-3.047.709-6.326,2.842-8.2,5.031-7.526c2.2.684,2.2,7.058,3.751,6.755s6.34-2.555,9.852,1.344,2.477,5.29-1.143,5.753-10.512-.825-12.235.67-8.153,2.442-8.188,4.123,1.637,6.516,3.8,6.061,10.931-1.679,11.748-1.157-2.238,11.9-4.548,12.387-4.192.6-6.351,1.032-7.58-.548-9.911-2.345-5.958.166-9.793,1.685-8.578-1.983-10.3-3.478.265-5.011,0-6.579-6.727-3.63-9.306-2.349c-2.594,1.27-10.3,2.857-12.782,3.5s-5.93-.68-6.458-.455c-.514.21-1.479,4.24-3.878,5.183s-2.414,4.479-3.791,8.167-7.846,8.958-8.793,16.721,0,15.43,3.449,21.6,8.28,8.754,14.317,8.568c6.033-.2,16.98-2.373,20.35,0s3.708,7.752,2.76,11.837,1.026,7.263,4.748,13.941c3.7,6.662,5.505,9.856,3.268,14.922-2.247,5.086-2.511,8.04-.342,13.535,2.149,5.476,1.626,7.67,1.983,12.744.332,5.08,3.277,17.121,6.98,17.716s11.034-3.38,13.959-7.659,7.332-13.047,10.611-15.729,1.675-9.672,3.435-11.9,7.746-6.116,7.321-12.183c-.41-6.077-2.569-14.034.025-19.318s13.164-13.747,14.512-17.82,4.107-9.452,1.616-9.247-4.483,1.461-9.237.983c-4.738-.488-7.512-10.308-8.964-12.169-1.47-1.857-6.848-11.537-6.8-14.3s-3.884-10.945-1.9-11.044,7.018,10.053,8.641,13.14a110.347,110.347,0,0,1,6.14,13.512c1.256,3.9,3.164,5.393,5.027,5.031s17.829-9.051,20.027-11.972,3.336-7.992.977-9.223-3.581-4.831-4.2-3.732c-.64,1.094-2.725,3.473-4.44,3.4-1.734-.079-6.6-7.327-7.431-9.774-.811-2.462,1.384-4.465,2.341-4.366.937.107,3.829,7.728,7.61,7.669s4.166,1.592,6.859,3.083,13.925-1.55,15.161,1.861,4.738,9.09,7.1,8.211c2.349-.9,1.869,3.332,3.6,8.529s4.929,17.184,6.389,17.609,5.78-6.443,5.857-10.228.073-6.243,3.449-9.042,7.552-8.343,10.444-9.672,7,5.153,7.16,8.562c.141,3.4,3.781,2.39,4.645,5.867s3.2,15.2,4.742,18.742,7.156,4.587,5.442,1.661c-1.724-2.911-6.037-13.638-4.317-15.928s7.283,7.854,10.287,6.375,2.994-10.8.787-14.556-.807-9.75,2.037-10.723c2.842-.991,13.276-2.183,15.859-5.774s7.816-10.55,6.331-14.566-7.732-12.632-4.685-15.689,10.067-1.491,11.24,2.642,4.655,7.079,6.057,5.276-.538-11.361,3.047-14.493c3.567-3.14,13.883-11.748,15.173-16.124,1.3-4.376,1.153-12.788-1.6-14.576s-4.342-3.836-3.136-5.529,6.98-11.148,15.084-10.156,10,2.613,13.54,1.353,3.884-7.322,8.71-7.127,10.4-4.894,10.888-2.891-4.181,5.612-6.994,8.714-7.884,8.786-7.694,14.766,1.817,6.571,3.5,6.033,7.239-12.539,7.947-15.895,4.4-7.987,8.113-7.514,16.579-4.058,18.552-6.569-2.379-7.186.346-7.493,10.6,4.582,13.975,2.984c3.352-1.582-3.028-7.957-6.041-8.754s-15.173-5.974-17.508-4.977-8.1-.3-10.6-1.895-10.174-3.684-15.177-3.088-7.068-3.575-10.688-4.479-14.742-3.878-19.007-1.992-11.088,2.691-13.672,2.29-6.13-4.279-8.367-6.462-11.987-1.881-14.869-1.788-10.053-1.6-13.927-.356-11.908,1.3-9.144,0,12.954-5.471,13.1-8.607-3.532-4.884-7.937-4.782-10.1-2.824-12.505-.548-12.221,3.209-16.881,6.223S353,130.17,349.3,131.073s-9.486,3.1-8.964,7.083-5.162,1.768-8.108,4.181-.352,8.07-3.36,10.649-7.356,2.286-5.965.9,5.042-4.817,4.627-9.223c-.391-4.416,1.513-10.268-2.292-10.922-3.785-.66-6.55,3.823-6.379,6.706s2.379,8.363,1.363,9.261-3.781-3.024-9.891-4.4c-6.126-1.388-5.525,3.311-8.275,3.8-2.769.5-9.49-.1-14.228,2.891-4.753,2.984-6.193,2.691-9.047,3.634s-5.383,4.8-8.256,5.675c-2.871.894-5.124,2.521-6.5-.453s-6.267-7.5-4-6.78,12.778,2.017,13.433-.083-10.194-7.694-11.938-8.651-7.4-6.027-13.086-5.06c-5.671.957-15.493,5.6-18.347,10.063s-8.333,13.472-11.376,15.391-5.857,6.146-5.212,9.873,3.532,6.31,5.1,5.49c1.544-.84,4.24-5.011,4.87-3.82s1.681,5.979,2.711,8.261,2.13,2.408,4.264.967,3.116-7.645,2.976-10.732-.152-9.575,3.364-11.934,5.408-7.714,7.787-6.545-.577,4.752-1.944,8.04-2.535,9.1-.621,9.183c1.93.073,10.033-1.871,10.306,0,.249,1.865-8.679,1.885-8.327,5.549s-2.521,4.762-4.342,6.711-10.014,7.425-14.327,6.624-10.478-.4-13.229,3.028c-2.77,3.444-4.621,7.429-8.24,9.715s-1.813,11.753-2.325,13.292" transform="translate(-35.217 -75.802)" fill="#3a8931"/>
            <path id="Trazado_104846" data-name="Trazado 104846" d="M192.281,184.876c3.346,1.226,9.832-4.376,10-6.868s-3.864-5.187-4.651-7.766-.37-6.015-1.651-7.763-7.18.108-7.077,2.145,1.149,3.839,2.78,6.569-1.046,13.091.6,13.682" transform="translate(-30.901 -57.723)" fill="#3a8931"/>
            <path id="Trazado_104847" data-name="Trazado 104847" d="M185.565,179.2c2.871,1.824,5.808-2.235,5.832-5.345s.206-6.3-2.124-6.2-6.986,9.446-3.708,11.542" transform="translate(-32.723 -55.331)" fill="#3a8931"/>
          </g>
        </g>
        <g id="Grupo_56705" data-name="Grupo 56705">
          <g id="Grupo_56704" data-name="Grupo 56704" clip-path="url(#clip-path-12)">
            <g id="Grupo_56700" data-name="Grupo 56700" transform="translate(127.813 129.232)" opacity="0.1">
              <g id="Grupo_56699" data-name="Grupo 56699">
                <g id="Grupo_56698" data-name="Grupo 56698" clip-path="url(#clip-path-16)">
                  <path id="Trazado_104849" data-name="Trazado 104849" d="M255.567,91.81A144.892,144.892,0,0,1,90.8,304.386,144.833,144.833,0,1,0,255.567,91.81" transform="translate(-90.802 -91.81)" fill="#211a72"/>
                </g>
              </g>
            </g>
            <g id="Grupo_56703" data-name="Grupo 56703" transform="translate(108.606 123.668)" opacity="0.1">
              <g id="Grupo_56702" data-name="Grupo 56702">
                <g id="Grupo_56701" data-name="Grupo 56701" clip-path="url(#clip-path-17)">
                  <path id="Trazado_104850" data-name="Trazado 104850" d="M77.157,218.312c28.3,3.385,65.826-10.184,98.168-38.237,32.493-28.155,51.285-63.525,51.807-92.085-1.954-.079-3.9-.132-5.867-.132A144.843,144.843,0,0,0,77.157,218.312" transform="translate(-77.157 -87.857)" fill="#fff"/>
                </g>
              </g>
            </g>
            <path id="Trazado_104851" data-name="Trazado 104851" d="M211.958,0c-10.546,23.586,0,49.235,0,49.235s10.556-25.649,0-49.235" transform="translate(84.484)" fill="#e6fcfa"/>
            <path id="Trazado_104852" data-name="Trazado 104852" d="M211.958,0V0c-10.546,23.587,0,49.236,0,49.236Z" transform="translate(84.484)" fill="#c8ebf3"/>
            <path id="Trazado_104853" data-name="Trazado 104853" d="M179.445,57.322C205.241,56,223.3,34.951,223.3,34.951s-27.648,2.256-43.855,22.371" transform="translate(73.142 14.246)" fill="#e6fcfa"/>
            <path id="Trazado_104854" data-name="Trazado 104854" d="M179.445,57.324h0C205.241,56,223.3,34.953,223.3,34.953v-.006Z" transform="translate(73.142 14.244)" fill="#c8ebf3"/>
            <path id="Trazado_104855" data-name="Trazado 104855" d="M254.465,57.322C228.653,56,210.6,34.951,210.6,34.951s27.647,2.256,43.864,22.371" transform="translate(85.841 14.246)" fill="#e6fcfa"/>
            <path id="Trazado_104856" data-name="Trazado 104856" d="M254.456,57.324h.01C228.655,56,210.6,34.953,210.6,34.953l.01-.006Z" transform="translate(85.841 14.244)" fill="#c8ebf3"/>
            <path id="Trazado_104857" data-name="Trazado 104857" d="M214.533,36.512h-2.715L204.3,122.57h17.76Z" transform="translate(83.271 14.882)" fill="#e6fcfa"/>
            <path id="Trazado_104858" data-name="Trazado 104858" d="M218.185,36.684a5.881,5.881,0,1,1-5.881-5.891,5.884,5.884,0,0,1,5.881,5.891" transform="translate(84.138 12.551)" fill="#e6fcfa"/>
            <path id="Trazado_104859" data-name="Trazado 104859" d="M189,14.594C165.031,32.516,161.23,64.413,161.23,64.413S186.371,44.4,189,14.594" transform="translate(65.718 5.949)" fill="#e6fcfa"/>
            <path id="Trazado_104860" data-name="Trazado 104860" d="M189,14.6c-.006,0,0,0,0,0C165.031,32.516,161.23,64.412,161.23,64.412Z" transform="translate(65.718 5.949)" fill="#c8ebf3"/>
            <path id="Trazado_104861" data-name="Trazado 104861" d="M120.757,49.771c26.85,13.208,57,2.09,57,2.09s-29.25-13.3-57-2.09" transform="translate(49.221 18.455)" fill="#e6fcfa"/>
            <path id="Trazado_104862" data-name="Trazado 104862" d="M120.757,48.47h0c26.85,13.208,57,2.09,57,2.09v0Z" transform="translate(49.221 19.756)" fill="#c8ebf3"/>
            <path id="Trazado_104863" data-name="Trazado 104863" d="M193.011,97.326c-25.357-15.883-31.771-47.37-31.771-47.37s26.711,17.878,31.771,47.37" transform="translate(65.722 20.362)" fill="#e6fcfa"/>
            <path id="Trazado_104864" data-name="Trazado 104864" d="M193,97.326h.01c-25.357-15.883-31.771-47.37-31.771-47.37h.025Z" transform="translate(65.722 20.362)" fill="#c8ebf3"/>
            <path id="Trazado_104865" data-name="Trazado 104865" d="M166.139,52.277h-3.146l-8.714,99.676h20.575Z" transform="translate(62.884 21.308)" fill="#e6fcfa"/>
            <path id="Trazado_104866" data-name="Trazado 104866" d="M170.373,52.476a6.816,6.816,0,1,1-6.814-6.824,6.819,6.819,0,0,1,6.814,6.824" transform="translate(63.887 18.608)" fill="#e6fcfa"/>
            <path id="Trazado_104867" data-name="Trazado 104867" d="M300.624,130.246a10.47,10.47,0,0,0-1.481.152,20.435,20.435,0,0,0-30.47-17.609,26.036,26.036,0,0,0-48.168,5.393,16.384,16.384,0,0,0-3.526-.4,16.782,16.782,0,1,0,12.529,27.844,25.8,25.8,0,0,0,33.777-1.192,20.287,20.287,0,0,0,28.459,2.027,10.546,10.546,0,1,0,8.881-16.217" transform="translate(81.603 40.314)" fill="#e6fcfa"/>
            <path id="Trazado_104868" data-name="Trazado 104868" d="M300.624,135.534a10.543,10.543,0,0,1-8.881-4.884,20.284,20.284,0,0,1-28.459-2.033,25.788,25.788,0,0,1-33.777,1.192,16.691,16.691,0,0,1-28.981-7.85,16.566,16.566,0,0,0-.322,3.209,16.714,16.714,0,0,0,29.3,11.064,25.8,25.8,0,0,0,33.777-1.191,20.288,20.288,0,0,0,28.459,2.026,10.5,10.5,0,0,0,18.884-8.879,10.518,10.518,0,0,1-10,7.346" transform="translate(81.603 49.711)" fill="#c8ebf3"/>
            <path id="Trazado_104869" data-name="Trazado 104869" d="M75.688,212.079a7.257,7.257,0,0,1,1.016.107,14.185,14.185,0,0,1,14.18-13.961,14.018,14.018,0,0,1,6.824,1.817,17.952,17.952,0,0,1,33.205,3.717,11.73,11.73,0,0,1,2.438-.263,11.567,11.567,0,1,1-8.645,19.187,17.785,17.785,0,0,1-23.29-.821,13.985,13.985,0,0,1-19.618,1.4,7.269,7.269,0,1,1-6.11-11.186" transform="translate(27.882 77.64)" fill="#e6fcfa"/>
            <path id="Trazado_104870" data-name="Trazado 104870" d="M75.688,215.723a7.233,7.233,0,0,0,6.11-3.361,13.991,13.991,0,0,0,19.618-1.406,17.792,17.792,0,0,0,23.29.825,11.512,11.512,0,0,0,19.982-5.412,11.114,11.114,0,0,1,.225,2.218,11.525,11.525,0,0,1-20.208,7.619,17.787,17.787,0,0,1-23.29-.819,13.987,13.987,0,0,1-19.618,1.4A7.264,7.264,0,0,1,68.4,212.875a7.45,7.45,0,0,1,.376-2.218,7.259,7.259,0,0,0,6.907,5.066" transform="translate(27.882 84.116)" fill="#c8ebf3"/>
            <path id="Trazado_104871" data-name="Trazado 104871" d="M193.59,264.054a5.989,5.989,0,0,0-.894.093,12.393,12.393,0,0,0-18.479-10.682A15.792,15.792,0,0,0,145,256.737a9.922,9.922,0,0,0-2.145-.239,10.177,10.177,0,1,0,7.6,16.886,15.66,15.66,0,0,0,20.49-.722,12.314,12.314,0,0,0,17.263,1.23,6.394,6.394,0,1,0,5.378-9.838" transform="translate(54.083 99.882)" fill="#e6fcfa"/>
            <path id="Trazado_104872" data-name="Trazado 104872" d="M193.59,267.26a6.381,6.381,0,0,1-5.378-2.964,12.3,12.3,0,0,1-17.263-1.232,15.644,15.644,0,0,1-20.49.724,10.122,10.122,0,0,1-17.575-4.758,9.842,9.842,0,0,0-.2,1.944,10.137,10.137,0,0,0,17.771,6.711,15.657,15.657,0,0,0,20.49-.723,12.312,12.312,0,0,0,17.263,1.232,6.369,6.369,0,0,0,11.449-5.388,6.382,6.382,0,0,1-6.071,4.455" transform="translate(54.083 105.581)" fill="#c8ebf3"/>
            <path id="Trazado_104873" data-name="Trazado 104873" d="M125.018,148.445H105.987L114,107.6h3.009Z" transform="translate(43.201 43.858)" fill="#e6fcfa"/>
            <path id="Trazado_104874" data-name="Trazado 104874" d="M143.063,121.873c.493,2.349-.85,4.269-3,4.269H99.091c-2.154,0-3.5-1.92-2.994-4.269l3.985-18.728a5.378,5.378,0,0,1,4.817-4.259h29.363a5.376,5.376,0,0,1,4.806,4.259Z" transform="translate(39.126 40.306)" fill="#c8ebf3"/>
            <path id="Trazado_104875" data-name="Trazado 104875" d="M139.959,120.135c.508,2.355-.845,4.273-2.994,4.273H100.8c-2.149,0-3.5-1.919-2.994-4.273l3.415-16.031a5.373,5.373,0,0,1,4.811-4.259h25.7a5.346,5.346,0,0,1,4.807,4.259Z" transform="translate(39.821 40.697)" fill="#e6fcfa"/>
          </g>
        </g>
        <g id="Grupo_56707" data-name="Grupo 56707" transform="translate(137.519 140.539)">
          <g id="Grupo_56706" data-name="Grupo 56706" clip-path="url(#clip-path-18)">
            <path id="Trazado_104876" data-name="Trazado 104876" d="M147.951,102.52v-1.969H130.71l-.358-3.751-1.954.182.338,3.57h-7.1V96.884H119.67v3.667h-7.1l.336-3.57-1.958-.182-.352,3.751H93.356v1.969h17.052l-.386,4.1H93.356v1.983h16.48l-.386,4.107H93.356v1.965h15.909l-.386,4.1H93.356v1.973h15.337l-.38,4.119H93.356v1.958h14.771l-.338,3.581,1.954.18.358-3.761h9.569v3.674h1.964v-3.674H131.2l.352,3.761,1.959-.18-.338-3.581h14.776v-1.958H132.99l-.38-4.119h15.341v-1.973H132.418l-.39-4.1h15.923v-1.965h-16.1l-.39-4.107h16.49v-1.983h-16.67l-.391-4.1Zm-28.282,4.1H112l.386-4.1h7.289Zm0,1.983v4.107h-8.246l.386-4.107Zm0,6.072v4.1h-8.817l.386-4.1Zm0,6.075v4.119h-9.383l.376-4.119Zm1.964,0h9l.391,4.119h-9.389Zm0-1.973v-4.1h8.43l.381,4.1Zm0-6.067v-4.107H129.5l.376,4.107Zm0-6.091v-4.1h7.287l.391,4.1Z" transform="translate(-99.466 -101.083)" fill="#c8e9c1"/>
          </g>
        </g>
        <g id="Grupo_56709" data-name="Grupo 56709">
          <g id="Grupo_56708" data-name="Grupo 56708" clip-path="url(#clip-path-12)">
            <path id="Trazado_104878" data-name="Trazado 104878" d="M168,220.174H141.9l10.986-56h4.127Z" transform="translate(57.84 66.916)" fill="#e6fcfa"/>
            <path id="Trazado_104879" data-name="Trazado 104879" d="M192.738,183.742c.68,3.219-1.163,5.851-4.107,5.851H132.446c-2.95,0-4.8-2.632-4.1-5.851l5.466-25.679c.69-3.2,3.65-5.837,6.6-5.837h40.26c2.931,0,5.9,2.638,6.583,5.837Z" transform="translate(52.253 62.048)" fill="#c8ebf3"/>
            <path id="Trazado_104880" data-name="Trazado 104880" d="M188.481,181.356c.694,3.229-1.158,5.861-4.1,5.861h-49.59c-2.945,0-4.8-2.632-4.1-5.861l4.684-21.981c.684-3.205,3.654-5.837,6.59-5.837H177.2c2.945,0,5.925,2.632,6.595,5.837Z" transform="translate(53.208 62.582)" fill="#e6fcfa"/>
          </g>
        </g>
        <g id="Grupo_56711" data-name="Grupo 56711" transform="translate(183.748 216.12)">
          <g id="Grupo_56710" data-name="Grupo 56710" clip-path="url(#clip-path-20)">
            <path id="Trazado_104881" data-name="Trazado 104881" d="M199.44,157.208v-2.7H175.8l-.49-5.149-2.676.249.459,4.9h-9.735v-5.036h-2.7v5.036h-9.739l.463-4.9-2.681-.249-.483,5.149H124.588v2.7h23.377l-.526,5.628H124.588v2.717h22.6l-.532,5.636H124.588v2.691H146.4l-.526,5.622H124.588v2.707h21.028l-.528,5.647h-20.5v2.686h20.247l-.459,4.91,2.676.243.494-5.153h13.115v5.036h2.7v-5.036h13.12l.479,5.153,2.686-.243-.459-4.91H199.44v-2.686H178.926l-.524-5.647H199.44V179.5h-21.3l-.532-5.622H199.44v-2.691H177.367l-.533-5.636H199.44v-2.717H176.581l-.532-5.628Zm-38.779,5.628H150.139l.533-5.628h9.988Zm0,2.717v5.636h-11.3l.528-5.636Zm0,8.327V179.5h-12.09l.533-5.622Zm0,8.329v5.647H147.8l.514-5.647Zm2.7,0h12.333l.538,5.647H163.358Zm0-2.707v-5.622h11.556l.524,5.622Zm0-8.313v-5.636h10.785l.514,5.636Zm0-8.353v-5.628h9.994l.532,5.628Z" transform="translate(-132.966 -155.24)" fill="#c8e9c1"/>
          </g>
        </g>
      </g>
    </g>
    <g id="Grupo_56750" data-name="Grupo 56750" transform="translate(1070 212.837)" clip-path="url(#clip-path-21)">
      <g id="Grupo_56749" data-name="Grupo 56749">
        <g id="Grupo_56748" data-name="Grupo 56748" clip-path="url(#clip-path-21)">
          <path id="Trazado_104906" data-name="Trazado 104906" d="M90.912,167.908a1.946,1.946,0,0,1,1.082-1.145c.108-.042.221-.091.333-.137a273.132,273.132,0,0,1,28.626-22.339,1.835,1.835,0,0,1,.292-.384c25.934-27.1,42.27-65.859,47.96-102.817.418-2.665,4.615-2.384,4.2.289-5.155,33.44-18.685,68-39.991,94.864a323.914,323.914,0,0,1,39.877-20.614c24.069-10.433,50.247-19.255,76.37-22.86,2.675-.372,3.47,3.755.782,4.126-25.218,3.488-50.245,11.967-73.6,21.788a295.758,295.758,0,0,0-72.027,42.76c32.1-12.36,68.877-19.206,102.685-14.148,2.673.4,2.4,4.6-.292,4.194-37.449-5.6-78.618,3.63-112.7,18.771a239.064,239.064,0,0,0-42.1,49.719c-1.446,2.289-4.917-.075-3.471-2.369a240.03,240.03,0,0,1,41.971-49.7" transform="translate(-48.597 7.989)" fill="#aed144"/>
          <path id="Trazado_104907" data-name="Trazado 104907" d="M0,106.692l1.813,1.366c1.145.722,2.9,2.143,4.975,3.25a84.826,84.826,0,0,0,16.926,7.944,87.363,87.363,0,0,0,22.357,4.5,84.6,84.6,0,0,0,23.979-1.992,83.328,83.328,0,0,0,22.427-8.7,86.192,86.192,0,0,0,18.1-13.863,91.565,91.565,0,0,0,6.751-7.624c1.968-2.43,3.588-5,4.934-7.021a58.452,58.452,0,0,0,3.032-5.13c.687-1.248,1.023-2.038,1.023-2.038s-.645-.556-1.813-1.378c-1.145-.735-2.9-2.159-4.983-3.275-2.1-1.224-4.685-2.811-7.523-4.135a93.452,93.452,0,0,0-9.413-3.864A86.13,86.13,0,0,0,80.23,60.252,83.222,83.222,0,0,0,56.268,62.32a84.108,84.108,0,0,0-22.407,8.768,87.659,87.659,0,0,0-18.1,13.876,85.066,85.066,0,0,0-11.7,14.586c-1.373,1.909-2.33,3.955-3.037,5.112C.355,105.981,0,106.692,0,106.692" transform="translate(135.683 12.239)" fill="#aed144"/>
          <path id="Trazado_104908" data-name="Trazado 104908" d="M37.6,73.258q-11.864,13.7-23.732,27.388l28.5-6.617a1.26,1.26,0,0,1,.17-.472Q55.1,79.06,67.647,64.574c.822-.944,2.143.472,1.336,1.4q-11.873,13.7-23.74,27.385l28.509-6.608a1.2,1.2,0,0,1,.175-.484q7.249-8.37,14.5-16.742c.822-.935,2.134.48,1.336,1.407Q83.193,78.524,76.634,86.09l39.059-9.065.364,1.566L77.824,87.464q8.628,4.129,17.24,8.262c1.134.526.09,2.168-1.015,1.621q-9.611-4.586-19.207-9.194l-28.4,6.586c.5.243,1,.477,1.5.715q5.619,2.694,11.257,5.4,8.533,4.091,17.066,8.183c1.131.53.093,2.168-1.017,1.629q-15.894-7.612-31.807-15.229l-28.388,6.583q.749.357,1.5.714,5.63,2.7,11.259,5.392,8.535,4.1,17.072,8.191c1.124.531.082,2.173-1.027,1.63q-15.9-7.6-31.806-15.225l-8.2,1.9-.372-1.566,7.494-1.733a1.155,1.155,0,0,1,.171-.485q12.561-14.5,25.119-28.983c.818-.945,2.129.472,1.328,1.407" transform="translate(141.753 13.088)" fill="#3a8931"/>
          <g id="Grupo_56741" data-name="Grupo 56741" transform="translate(135.683 89.634)" opacity="0.1">
            <g id="Grupo_56740" data-name="Grupo 56740">
              <g id="Grupo_56739" data-name="Grupo 56739" clip-path="url(#clip-path-23)">
                <path id="Trazado_104909" data-name="Trazado 104909" d="M126.322,74.467s-.337.794-1.023,2.039a58.7,58.7,0,0,1-3.033,5.129c-1.347,2.026-2.965,4.591-4.933,7.021a91.63,91.63,0,0,1-6.753,7.623,86.061,86.061,0,0,1-18.1,13.864,83.272,83.272,0,0,1-22.424,8.7,84.649,84.649,0,0,1-23.978,1.993,87.373,87.373,0,0,1-22.357-4.5A84.41,84.41,0,0,1,6.8,108.389c-2.08-1.107-3.842-2.527-4.978-3.25C.643,104.245.008,103.773,0,103.773Z" transform="translate(0 -74.467)" fill="#211a72"/>
              </g>
            </g>
          </g>
          <path id="Trazado_104910" data-name="Trazado 104910" d="M31.758,131.347s.267.526.773,1.5c.534.861,1.253,2.376,2.276,3.793a63.468,63.468,0,0,0,8.759,10.785A64.554,64.554,0,0,0,57.075,157.67,62.617,62.617,0,0,0,73.766,164.1a61.978,61.978,0,0,0,17.822,1.441,64.11,64.11,0,0,0,16.6-3.421,69.348,69.348,0,0,0,6.981-2.912c2.108-1,4.025-2.193,5.574-3.115a42.488,42.488,0,0,0,3.7-2.445c.858-.617,1.338-1.03,1.338-1.03s-.25-.581-.768-1.513c-.527-.864-1.247-2.384-2.273-3.8-1.006-1.5-2.227-3.4-3.7-5.2a66.684,66.684,0,0,0-5.048-5.631,64.28,64.28,0,0,0-13.508-10.242,61.507,61.507,0,0,0-16.707-6.361,62.323,62.323,0,0,0-17.834-1.391,64.888,64.888,0,0,0-16.6,3.434,62.729,62.729,0,0,0-12.547,5.973c-1.533.832-2.841,1.892-3.684,2.44-.881.664-1.349,1.023-1.349,1.023" transform="translate(98.002 24.1)" fill="#aed144"/>
          <path id="Trazado_104911" data-name="Trazado 104911" d="M66.753,122.831q-12.371,5.332-24.743,10.648l21.213,4.8c.091-.1.159-.221.27-.264q13.1-5.639,26.185-11.274c.852-.364,1.281,1.006.439,1.375q-12.375,5.324-24.753,10.643l21.223,4.8c.082-.1.156-.221.272-.267l15.117-6.513c.856-.362,1.273,1.016.444,1.375q-6.854,2.952-13.689,5.9l29.071,6.574-.265,1.162-28.458-6.429q4.44,5.545,8.866,11.1c.589.722-.643,1.478-1.2.76q-4.954-6.177-9.882-12.368l-21.134-4.779c.261.326.514.639.773.961,1.923,2.415,3.864,4.841,5.788,7.256q4.384,5.494,8.775,11c.581.727-.645,1.487-1.208.764q-8.177-10.244-16.359-20.488l-21.132-4.783c.259.323.518.648.776.969C45.068,138.165,47,140.6,48.923,143q4.4,5.507,8.783,11.006c.575.719-.652,1.483-1.223.76q-8.17-10.23-16.357-20.488l-6.1-1.383.267-1.157L39.864,133c.091-.108.162-.226.262-.267q13.1-5.64,26.194-11.278c.856-.355,1.276,1.015.432,1.378" transform="translate(103.251 24.724)" fill="#3a8931"/>
          <g id="Grupo_56744" data-name="Grupo 56744" transform="translate(129.76 155.45)" opacity="0.1">
            <g id="Grupo_56743" data-name="Grupo 56743">
              <g id="Grupo_56742" data-name="Grupo 56742" clip-path="url(#clip-path-24)">
                <path id="Trazado_104912" data-name="Trazado 104912" d="M125.777,150.417s-.48.414-1.341,1.032a41.736,41.736,0,0,1-3.7,2.443c-1.552.923-3.47,2.118-5.575,3.116a69.961,69.961,0,0,1-6.98,2.912,64.2,64.2,0,0,1-16.6,3.421,62.529,62.529,0,0,1-34.509-7.87,64.309,64.309,0,0,1-13.509-10.247,63.128,63.128,0,0,1-8.759-10.785c-1.028-1.416-1.742-2.932-2.276-3.793l-.774-1.5Z" transform="translate(-31.759 -129.147)" fill="#211a72"/>
              </g>
            </g>
          </g>
          <path id="Trazado_104913" data-name="Trazado 104913" d="M107.773,93.785s.531-.264,1.512-.756c.865-.526,2.381-1.228,3.81-2.235a63.077,63.077,0,0,0,10.881-8.642,64.414,64.414,0,0,0,10.392-13.4,62.634,62.634,0,0,0,6.608-16.62A61.8,61.8,0,0,0,142.6,34.326,63.526,63.526,0,0,0,139.363,17.7a68.252,68.252,0,0,0-2.832-7.019c-.973-2.112-2.146-4.047-3.049-5.6a41.624,41.624,0,0,0-2.41-3.722C130.462.484,130.053,0,130.053,0s-.58.247-1.52.756a43.451,43.451,0,0,0-3.826,2.227c-1.507.994-3.421,2.189-5.237,3.642a65.585,65.585,0,0,0-5.685,5A63.989,63.989,0,0,0,103.4,25.011a61.245,61.245,0,0,0-6.536,16.637,62.429,62.429,0,0,0-1.588,17.814A65.06,65.06,0,0,0,98.525,76.1a62.327,62.327,0,0,0,5.839,12.606c.815,1.549,1.86,2.861,2.4,3.717.652.89,1.011,1.358,1.011,1.358" transform="translate(4.753 0)" fill="#aed144"/>
          <path id="Trazado_104914" data-name="Trazado 104914" d="M100.66,54.779q5.2,12.424,10.372,24.857l5.033-21.169c-.1-.088-.225-.15-.262-.267q-5.5-13.164-10.986-26.3c-.355-.861,1.015-1.278,1.378-.431q5.182,12.436,10.372,24.865L121.6,35.167a.831.831,0,0,1-.267-.276Q118.156,27.3,114.991,19.7c-.355-.857,1.024-1.261,1.379-.426q2.869,6.884,5.743,13.754l6.884-29,1.165.28L123.42,32.695q5.6-4.373,11.2-8.747c.735-.58,1.475.661.744,1.212q-6.222,4.893-12.469,9.753L117.882,55.99c.333-.259.651-.506.977-.764,2.431-1.9,4.878-3.813,7.31-5.705q5.55-4.322,11.1-8.659c.723-.568,1.474.661.752,1.219q-10.338,8.071-20.668,16.136l-5.008,21.077c.326-.252.652-.506.969-.769,2.443-1.9,4.9-3.8,7.322-5.705q5.552-4.33,11.1-8.663c.726-.568,1.478.672.751,1.231q-10.318,8.063-20.667,16.136l-1.446,6.086-1.157-.28,1.319-5.551c-.1-.1-.221-.166-.267-.276q-5.494-13.151-10.994-26.31c-.342-.857,1.028-1.266,1.391-.414" transform="translate(4.272 0.821)" fill="#3a8931"/>
          <g id="Grupo_56747" data-name="Grupo 56747" transform="translate(112.53)" opacity="0.1">
            <g id="Grupo_56746" data-name="Grupo 56746" transform="translate(0)">
              <g id="Grupo_56745" data-name="Grupo 56745" transform="translate(0)" clip-path="url(#clip-path-25)">
                <path id="Trazado_104915" data-name="Trazado 104915" d="M117.442,0s.414.484,1.015,1.358a41.493,41.493,0,0,1,2.415,3.722c.906,1.553,2.08,3.487,3.054,5.6a67.427,67.427,0,0,1,2.827,7.017,63.537,63.537,0,0,1,3.241,16.629,61.792,61.792,0,0,1-1.625,17.806,62.886,62.886,0,0,1-6.608,16.621,64.3,64.3,0,0,1-10.4,13.4A62.725,62.725,0,0,1,100.483,90.8c-1.42,1.006-2.949,1.708-3.814,2.235-.981.489-1.5.756-1.5.756Z" transform="translate(-95.166)" fill="#211a72"/>
              </g>
            </g>
          </g>
        </g>
      </g>
    </g>
  </g>
</svg>
