<svg xmlns="http://www.w3.org/2000/svg" width="238.164" height="262.16" viewBox="0 0 238.164 262.16"><g transform="translate(5474.353 5565.58)"><g transform="translate(-5504.81 -5587.421)"><g transform="translate(63.327 225.176)"><g transform="translate(20.971)"><g transform="translate(0.591 20.724)"><path d="M128.727,422.129c-.038.047-.353-.142-.7-.423s-.6-.547-.567-.594.353.143.7.423S128.765,422.082,128.727,422.129Z" transform="translate(-127.452 -421.105)" fill="#263238"/></g><g transform="translate(1.14 0.697)"><path d="M138.728,392.163a11.064,11.064,0,0,0-.327-3.977,3.5,3.5,0,0,0-6.576-.8,11.012,11.012,0,0,0-1.373,4.333,153,153,0,0,0-1.875,31.455l6.118.858C137.382,413.053,138.24,403.456,138.728,392.163Z" transform="translate(-128.431 -385.417)" fill="#455a64"/></g><g transform="translate(3.05 0.709)"><path d="M136.335,385.439a.365.365,0,0,1-.028.1l-.1.277-.407,1.057c-.086.231-.2.48-.29.765l-.3.927-.343,1.063-.316,1.214a53.128,53.128,0,0,0-1.182,6.055c-.331,2.3-.548,4.85-.719,7.528-.313,5.361-.361,10.227-.5,13.746-.066,1.76-.126,3.184-.193,4.166q-.048.715-.077,1.131l-.025.294a.321.321,0,0,1-.016.1.378.378,0,0,1-.006-.1l0-.295q.013-.416.036-1.133c.041-.984.077-2.407.123-4.167.1-3.519.122-8.385.436-13.755.171-2.682.395-5.236.737-7.543A50.8,50.8,0,0,1,134.4,390.8q.175-.637.332-1.213l.36-1.063.315-.924c.1-.284.217-.531.309-.76l.447-1.043.121-.269C136.315,385.467,136.331,385.437,136.335,385.439Z" transform="translate(-131.834 -385.439)" fill="#263238"/></g><g transform="translate(6.684 0.712)"><path d="M139.743,385.445a4.381,4.381,0,0,1,.747,1.266,9.37,9.37,0,0,1,.558,3.958c-.163,3.381-.465,8.04-.868,13.184s-.853,9.8-1.214,13.157c-.18,1.681-.337,3.04-.452,3.979q-.088.681-.139,1.08c-.017.112-.03.2-.042.28a.307.307,0,0,1-.021.095.314.314,0,0,1,0-.1c.006-.077.012-.169.02-.283q.035-.4.1-1.084c.093-.961.223-2.317.383-3.984.322-3.365.746-8.016,1.15-13.159s.73-9.8.932-13.171a9.579,9.579,0,0,0-.483-3.922A8.231,8.231,0,0,0,139.743,385.445Z" transform="translate(-138.31 -385.445)" fill="#263238"/></g><g transform="translate(10.113 15.73)"><path d="M146.667,413.024a6.56,6.56,0,0,1-2.245-.805,6.56,6.56,0,0,1,2.245.805Z" transform="translate(-144.421 -412.206)" fill="#263238"/></g><g transform="translate(10.8 10.303)"><path d="M147.941,402.544a7.3,7.3,0,0,1-2.3,1.028,7.3,7.3,0,0,1,2.3-1.028Z" transform="translate(-145.644 -402.535)" fill="#263238"/></g><g transform="translate(10.905 5.034)"><path d="M147.641,393.336a3.813,3.813,0,1,1-.9-.172A1.984,1.984,0,0,1,147.641,393.336Z" transform="translate(-145.832 -393.147)" fill="#263238"/></g><g transform="translate(5.38 0.351)"><path d="M137.006,386.412c-.051.033-.319-.3-.6-.745s-.465-.83-.414-.863.319.3.6.746S137.057,386.38,137.006,386.412Z" transform="translate(-135.986 -384.802)" fill="#263238"/></g><g transform="translate(2.58 4.909)"><path d="M132.73,393.054a3.488,3.488,0,1,1-.864-.128A1.81,1.81,0,0,1,132.73,393.054Z" transform="translate(-130.997 -392.924)" fill="#263238"/></g><g transform="translate(1.067 10.478)"><path d="M130.05,403.566a2.118,2.118,0,0,1-.915-.251c-.483-.195-.855-.4-.833-.453a2.119,2.119,0,0,1,.915.251C129.7,403.307,130.072,403.51,130.05,403.566Z" transform="translate(-128.301 -402.847)" fill="#263238"/></g><g transform="translate(1.053 16.344)"><path d="M129.878,413.332c.012.059-.336.182-.778.275s-.811.12-.823.061.336-.182.778-.275S129.866,413.273,129.878,413.332Z" transform="translate(-128.276 -413.301)" fill="#263238"/></g><g transform="translate(0.259 24.812)"><path d="M128.552,428.424c.011.06-.359.176-.826.259a1.783,1.783,0,0,1-.865.044c-.011-.059.359-.176.827-.259A1.782,1.782,0,0,1,128.552,428.424Z" transform="translate(-126.861 -428.39)" fill="#263238"/></g><g transform="translate(0 29.51)"><path d="M127.882,436.774c.028.053-.281.272-.689.488s-.763.348-.791.3.28-.272.689-.488S127.854,436.72,127.882,436.774Z" transform="translate(-126.4 -436.762)" fill="#263238"/></g><g transform="translate(4.28 33.061)"><path d="M135.047,444.858c-.052.03-.322-.341-.6-.829a2.468,2.468,0,0,1-.411-.938c.053-.03.322.341.6.829A2.45,2.45,0,0,1,135.047,444.858Z" transform="translate(-134.026 -443.089)" fill="#263238"/></g><g transform="translate(4.907 26.005)"><path d="M136.639,430.521c.043.043-.257.406-.669.809s-.779.7-.822.653.258-.405.669-.809S136.6,430.477,136.639,430.521Z" transform="translate(-135.144 -430.516)" fill="#263238"/></g><g transform="translate(5.072 20.211)"><path d="M136.524,421.362c-.044.041-.322-.187-.621-.509s-.5-.617-.46-.658.322.187.621.509S136.568,421.321,136.524,421.362Z" transform="translate(-135.437 -420.19)" fill="#263238"/></g><g transform="translate(5.633 15.466)"><path d="M137.72,411.739c.045.04-.2.392-.557.786s-.676.681-.721.64.2-.392.558-.786S137.675,411.7,137.72,411.739Z" transform="translate(-136.437 -411.735)" fill="#263238"/></g><g transform="translate(5.935 9.795)"><path d="M138.383,403.013c-.042.043-.391-.231-.778-.612s-.667-.724-.625-.767.391.231.778.611S138.425,402.97,138.383,403.013Z" transform="translate(-136.976 -401.63)" fill="#263238"/></g><g transform="translate(7.202 5.375)"><path d="M140.211,393.756c.052.031-.123.42-.391.868s-.526.787-.579.757a2.15,2.15,0,0,1,.391-.868C139.9,394.064,140.159,393.726,140.211,393.756Z" transform="translate(-139.233 -393.755)" fill="#263238"/></g><g transform="translate(8.862)"><path d="M143.085,384.178a2.067,2.067,0,0,1-.345.869c-.244.452-.485.794-.538.765a2.064,2.064,0,0,1,.346-.869C142.791,384.491,143.032,384.149,143.085,384.178Z" transform="translate(-142.191 -384.176)" fill="#263238"/></g><g transform="translate(10.354 2.427)"><path d="M146.04,388.517c.026.054-.218.226-.547.383s-.615.24-.641.185.219-.226.547-.383S146.014,388.463,146.04,388.517Z" transform="translate(-144.851 -388.5)" fill="#263238"/></g><g transform="translate(9.35 20.789)"><path d="M145.3,422.18a3.732,3.732,0,0,1-2.235-.953,6,6,0,0,1,1.123.462A6.06,6.06,0,0,1,145.3,422.18Z" transform="translate(-143.062 -421.221)" fill="#263238"/></g><g transform="translate(9.168 25.805)"><path d="M144.425,430.193c.011.06-.357.18-.823.27a1.776,1.776,0,0,1-.865.056c-.011-.059.357-.18.823-.27A1.785,1.785,0,0,1,144.425,430.193Z" transform="translate(-142.737 -430.161)" fill="#263238"/></g><g transform="translate(8.434 30.936)"><path d="M142.952,441.215a3.464,3.464,0,0,1-1.516-1.911,219.954,219.954,0,0,0,1.516,1.911Z" transform="translate(-141.429 -439.303)" fill="#263238"/></g><g transform="translate(0.118 34.977)"><path d="M126.615,447.582c-.039-.046.209-.323.556-.618s.658-.5.7-.453-.209.323-.555.619S126.654,447.628,126.615,447.582Z" transform="translate(-126.611 -446.504)" fill="#263238"/></g></g><g transform="translate(13.48 18.041)"><path d="M117.838,419.036c-.4-1.244-1.146-2.693-2.451-2.712a2.17,2.17,0,0,0-1.836,1.229,4.533,4.533,0,0,0-.5,2.251,58.666,58.666,0,0,0,2.806,16.3h4.777A56.778,56.778,0,0,0,117.838,419.036Z" transform="translate(-113.052 -416.324)" fill="#455a64"/></g><g transform="translate(1.417 8.677)"><path d="M99.764,403.887a5.311,5.311,0,0,0-4.974-4.248c-2.112.37-2.931,2.45-3.181,4.579a15.154,15.154,0,0,0,1.063,6.29q3.145,9.834,6.289,19.669l5.943-.649C103.023,420.744,101.943,412.6,99.764,403.887Z" transform="translate(-91.555 -399.639)" fill="#455a64"/></g><g transform="translate(15.015 18.041)"><path d="M116.587,416.324a5.05,5.05,0,0,0-.405.676,4.463,4.463,0,0,0-.223,2.112c.093.908.2,2,.348,3.2s.372,2.515.64,3.887c.54,2.745,1.149,5.207,1.535,7,.2.9.343,1.625.437,2.13.04.233.072.425.1.583a.762.762,0,0,1,.02.207.728.728,0,0,1-.063-.2l-.14-.574c-.127-.533-.3-1.246-.5-2.113-.425-1.785-1.057-4.242-1.6-7-.269-1.376-.48-2.7-.626-3.9-.076-.6-.126-1.179-.175-1.718s-.1-1.036-.128-1.5a4.34,4.34,0,0,1,.3-2.158A1.886,1.886,0,0,1,116.587,416.324Z" transform="translate(-115.787 -416.324)" fill="#263238"/></g><g transform="translate(2.938 8.508)"><path d="M96.066,399.337a8,8,0,0,0-.718.965,6.781,6.781,0,0,0-.905,3.11,14.394,14.394,0,0,0,.736,4.785l1.7,5.747L99.917,424.4l.9,3.176.233.866a1.645,1.645,0,0,1,.067.306,1.75,1.75,0,0,1-.109-.294l-.273-.855-.965-3.156c-.8-2.691-1.894-6.371-3.1-10.438-.6-2.04-1.163-3.983-1.68-5.754a14.224,14.224,0,0,1-.7-4.85,6.663,6.663,0,0,1,.987-3.145A3.67,3.67,0,0,1,96.066,399.337Z" transform="translate(-94.266 -399.337)" fill="#263238"/></g><g transform="translate(4.338 8.628)"><path d="M105.893,428.854a1.641,1.641,0,0,1-.134-.285c-.079-.191-.2-.468-.339-.836-.283-.731-.646-1.806-1.022-3.156s-.749-2.978-1.108-4.794-.722-3.816-1.12-5.912c-.413-2.092-.873-4.072-1.407-5.839a32.413,32.413,0,0,0-1.733-4.58,24.321,24.321,0,0,0-1.6-2.887c-.2-.333-.39-.573-.5-.747a1.673,1.673,0,0,1-.166-.268,1.719,1.719,0,0,1,.2.241c.122.166.32.4.536.726a21.591,21.591,0,0,1,1.671,2.868,31.089,31.089,0,0,1,1.786,4.588,58.671,58.671,0,0,1,1.43,5.855c.391,2.1.763,4.095,1.1,5.916s.7,3.441,1.06,4.791.695,2.43.953,3.167c.121.371.235.653.3.849A1.72,1.72,0,0,1,105.893,428.854Z" transform="translate(-96.761 -399.552)" fill="#263238"/></g><g transform="translate(1.144 18.536)"><path d="M92.566,417.235c.014.058-.309.187-.722.288s-.759.134-.774.075.309-.187.722-.288S92.551,417.176,92.566,417.235Z" transform="translate(-91.069 -417.206)" fill="#263238"/></g><g transform="translate(0 14.394)"><path d="M91.041,409.941a7.36,7.36,0,0,1-2.01.079,3.461,3.461,0,0,1,2.01-.079Z" transform="translate(-89.031 -409.826)" fill="#263238"/></g><g transform="translate(1.376 9.694)"><path d="M92.787,402.56c-.039.046-.362-.164-.721-.469s-.619-.589-.58-.635.362.163.721.468S92.825,402.514,92.787,402.56Z" transform="translate(-91.482 -401.451)" fill="#263238"/></g><g transform="translate(4.308 7.374)"><path d="M96.893,397.317c.06.013.044.3.035.652s-.011.639-.072.649-.158-.281-.146-.655S96.836,397.3,96.893,397.317Z" transform="translate(-96.708 -397.316)" fill="#263238"/></g><g transform="translate(7.361 8.987)"><path d="M102.985,400.193c.049.035-.1.328-.324.654s-.454.563-.5.529.1-.327.324-.654S102.936,400.159,102.985,400.193Z" transform="translate(-102.147 -400.19)" fill="#263238"/></g><g transform="translate(9.144 13.15)"><path d="M106.783,407.626c.022.056-.285.235-.687.4s-.747.252-.77.2.285-.234.687-.4S106.76,407.57,106.783,407.626Z" transform="translate(-105.325 -407.609)" fill="#263238"/></g><g transform="translate(10.091 17.451)"><path d="M108.983,415.286a2.742,2.742,0,0,1-1.97.447,19.725,19.725,0,0,1,1.97-.447Z" transform="translate(-107.013 -415.273)" fill="#263238"/></g><g transform="translate(5.338 14.982)"><path d="M98.57,412.135c-.058-.018-.016-.315.093-.663s.244-.616.3-.6.016.315-.093.663S98.627,412.153,98.57,412.135Z" transform="translate(-98.544 -410.873)" fill="#263238"/></g><g transform="translate(6.285 19.939)"><path d="M100.244,421.406a2.066,2.066,0,0,1,.269-.893c.2-.469.414-.83.47-.806a2.066,2.066,0,0,1-.269.893C100.51,421.07,100.3,421.43,100.244,421.406Z" transform="translate(-100.23 -419.706)" fill="#263238"/></g><g transform="translate(2.324 22.569)"><path d="M94.839,424.94c-.023.057-.4-.046-.856-.188s-.824-.273-.81-.333a1.617,1.617,0,0,1,.875.125C94.514,424.688,94.862,424.885,94.839,424.94Z" transform="translate(-93.172 -424.392)" fill="#263238"/></g><g transform="translate(4.054 27.506)"><path d="M97.522,433.2c.035.049-.219.291-.569.54s-.661.411-.7.363.219-.291.568-.54S97.486,433.151,97.522,433.2Z" transform="translate(-96.254 -433.191)" fill="#263238"/></g><g transform="translate(4.929 31.872)"><path d="M99.273,441c.015.058-.3.185-.7.283s-.741.13-.755.071.3-.186.7-.284S99.259,440.941,99.273,441Z" transform="translate(-97.814 -440.97)" fill="#263238"/></g><g transform="translate(10.801 21.116)"><path d="M109.655,421.816c.03.05-.239.265-.631.412s-.736.165-.746.107.3-.169.669-.311S109.624,421.763,109.655,421.816Z" transform="translate(-108.277 -421.803)" fill="#263238"/></g><g transform="translate(11.664 27.306)"><path d="M111.158,433.48c-.026.054-.347-.043-.717-.217s-.649-.359-.623-.414.346.042.717.217S111.184,433.425,111.158,433.48Z" transform="translate(-109.816 -432.834)" fill="#263238"/></g><g transform="translate(12.653 32.11)"><path d="M113.391,442.118a2.246,2.246,0,0,1-.946-.253,2.27,2.27,0,0,1-.866-.457,4.386,4.386,0,0,1,1.813.71Z" transform="translate(-111.577 -441.394)" fill="#263238"/></g><g transform="translate(6.62 35.355)"><path d="M100.83,448.482c-.03-.055.36-.317.81-.672s.8-.67.845-.629-.241.433-.71.8A1.957,1.957,0,0,1,100.83,448.482Z" transform="translate(-100.828 -447.177)" fill="#263238"/></g><g transform="translate(9.924 32.753)"><path d="M107.274,443.965c-.062.007-.146-.321-.3-.7s-.3-.682-.254-.718.3.227.457.639S107.333,443.96,107.274,443.965Z" transform="translate(-106.716 -442.541)" fill="#263238"/></g><g transform="translate(8.469 27.585)"><path d="M105.112,434.051c-.035.049-.285-.07-.557-.265s-.465-.394-.43-.443.285.07.557.265S105.148,434,105.112,434.051Z" transform="translate(-104.122 -433.332)" fill="#263238"/></g><g transform="translate(17.24 19.093)"><path d="M120.971,418.208c.035.048-.208.288-.543.536s-.636.409-.672.36.207-.288.543-.536S120.935,418.159,120.971,418.208Z" transform="translate(-119.753 -418.199)" fill="#263238"/></g><g transform="translate(18.162 22.606)"><path d="M123.048,424.663c.005.058-.375.139-.846.087s-.825-.209-.807-.265.383,0,.831.048S123.043,424.6,123.048,424.663Z" transform="translate(-121.395 -424.46)" fill="#263238"/></g><g transform="translate(12.375 23.605)"><path d="M112.693,426.276c.013.058-.339.184-.794.213s-.821-.047-.816-.106.364-.082.8-.112S112.68,426.215,112.693,426.276Z" transform="translate(-111.083 -426.239)" fill="#263238"/></g><g transform="translate(13.158 19.52)"><path d="M113.805,419.576c0,.058-.36.067-.75-.113s-.615-.454-.574-.495.31.135.665.3S113.813,419.514,113.805,419.576Z" transform="translate(-112.477 -418.961)" fill="#263238"/></g><g transform="translate(18.802 25.83)"><path d="M124.048,431.164c-.032.051-.4-.12-.814-.383s-.73-.517-.7-.568.4.121.814.383S124.081,431.113,124.048,431.164Z" transform="translate(-122.535 -430.204)" fill="#263238"/></g><g transform="translate(3.185 37.195)"><g transform="translate(0.252)"><rect width="31.104" height="5.513" fill="#ff725e"/></g><g transform="translate(2.575 4.419)"><path d="M99.294,458.332l3.782,16.474h18.538l4.138-16.474Z" transform="translate(-99.294 -458.332)" fill="#ff725e"/></g><g transform="translate(0 5.41)"><path d="M126.045,460.207c0,.061-7.016.109-15.669.109s-15.67-.049-15.67-.109,7.015-.109,15.67-.109S126.045,460.147,126.045,460.207Z" transform="translate(-94.706 -460.098)" fill="#263238"/></g></g><g transform="translate(16.451 22.536)"><path d="M119.12,425.56c-.051.032-.264-.216-.474-.553s-.341-.637-.29-.669.264.215.475.553S119.172,425.528,119.12,425.56Z" transform="translate(-118.345 -424.335)" fill="#263238"/></g><g transform="translate(17.218 26.591)"><path d="M119.732,433.166c-.057-.019.015-.394.163-.837s.313-.787.37-.768-.016.393-.163.837S119.789,433.185,119.732,433.166Z" transform="translate(-119.712 -431.561)" fill="#263238"/></g><g transform="translate(17.903 31.095)"><path d="M121.786,441.345c-.054.026-.287-.346-.519-.832a2.258,2.258,0,0,1-.322-.925c.054-.026.287.346.519.831A2.269,2.269,0,0,1,121.786,441.345Z" transform="translate(-120.933 -439.587)" fill="#263238"/></g><g transform="translate(15.463 35.45)"><path d="M116.593,448.5c-.045-.04.14-.328.415-.645s.534-.54.58-.5-.14.328-.415.644S116.639,448.536,116.593,448.5Z" transform="translate(-116.586 -447.347)" fill="#263238"/></g><g transform="translate(13.482 29.526)"><path d="M114.353,437.062c-.01.06-.31.056-.668-.007s-.641-.163-.63-.222.31-.056.668.007S114.364,437,114.353,437.062Z" transform="translate(-113.054 -436.79)" fill="#263238"/></g></g><g transform="translate(30.457 21.842)"><g transform="translate(79.388 57.172)"><path d="M229.273,165.469l3.561-.01-.12-41.738-60.791.175.12,41.738,50.4-.145,6.406,6.846Z" transform="translate(-171.923 -123.72)" fill="#f5f5f5"/><g transform="translate(4.382 5.013)"><g transform="translate(0.11 0.798)"><path d="M180.113,165.7c-.074,0-.154-7.08-.178-15.812s.014-15.814.087-15.815.153,7.079.178,15.814S180.186,165.7,180.113,165.7Z" transform="translate(-179.927 -134.074)" fill="#263238"/></g><g transform="translate(0.08 27.84)"><path d="M232.833,182.34c0,.073-11.855.167-26.477.209s-26.481.017-26.481-.057,11.853-.167,26.48-.209S232.833,182.266,232.833,182.34Z" transform="translate(-179.875 -182.263)" fill="#ebebeb"/></g><g transform="translate(0.067 23.2)"><path d="M232.809,174.071c0,.074-11.855.167-26.477.209s-26.481.017-26.481-.057,11.853-.167,26.48-.209S232.809,174,232.809,174.071Z" transform="translate(-179.851 -173.994)" fill="#ebebeb"/></g><g transform="translate(0.053 18.56)"><path d="M232.786,165.8c0,.074-11.856.167-26.478.209s-26.48.016-26.481-.057,11.853-.167,26.48-.209S232.785,165.729,232.786,165.8Z" transform="translate(-179.827 -165.726)" fill="#ebebeb"/></g><g transform="translate(0.04 13.92)"><path d="M232.762,157.535c0,.073-11.856.167-26.478.209s-26.48.017-26.481-.057,11.853-.167,26.48-.209S232.761,157.461,232.762,157.535Z" transform="translate(-179.803 -157.458)" fill="#ebebeb"/></g><g transform="translate(0.026 9.28)"><path d="M232.738,149.266c0,.074-11.856.167-26.477.209s-26.481.017-26.481-.057,11.853-.167,26.48-.209S232.738,149.193,232.738,149.266Z" transform="translate(-179.779 -149.189)" fill="#ebebeb"/></g><g transform="translate(0.013 4.64)"><path d="M232.714,141c0,.074-11.855.167-26.477.209s-26.481.017-26.481-.057,11.853-.167,26.48-.209S232.714,140.924,232.714,141Z" transform="translate(-179.756 -140.921)" fill="#ebebeb"/></g><path d="M232.69,132.73c0,.073-11.855.167-26.477.209s-26.481.017-26.481-.057,11.853-.167,26.48-.209S232.69,132.656,232.69,132.73Z" transform="translate(-179.732 -132.653)" fill="#ebebeb"/><g transform="translate(3.655 25.173)"><rect width="3.797" height="7.231" transform="translate(0 0.011) rotate(-0.165)" fill="#a7bce6"/></g><g transform="translate(31.235 25.093)"><rect width="3.797" height="7.231" transform="translate(0 0.011) rotate(-0.164)" fill="#a7bce6"/></g><g transform="translate(11.087 19.833)"><rect width="3.797" height="12.549" transform="translate(0 0.011) rotate(-0.166)" fill="#a7bce6"/></g><g transform="translate(24.993 16.529)"><rect width="3.797" height="15.813" transform="translate(0 0.011) rotate(-0.164)" fill="#a7bce6"/></g><g transform="translate(18.096 6.941)"><rect width="3.797" height="25.421" transform="translate(0 0.011) rotate(-0.165)" fill="#a7bce6"/></g><g transform="translate(38.555 11.584)"><rect width="3.797" height="20.719" transform="translate(0 0.011) rotate(-0.165)" fill="#a7bce6"/></g><g transform="translate(0.388 32.208)"><path d="M226.973,190.128c0,.074-10.421.163-23.273.2s-23.276.007-23.276-.066,10.419-.163,23.275-.2S226.973,190.055,226.973,190.128Z" transform="translate(-180.424 -190.047)" fill="#263238"/></g></g></g><g transform="translate(0 35.717)"><g transform="translate(0 0.18)"><path d="M102.878,85.808l-72.421.137v57.23H93.366l6.19,6.615.412-6.615h2.865Z" transform="translate(-30.457 -85.808)" fill="#f5f5f5"/></g><g transform="translate(4.517 18.665)"><path d="M101.5,152.256s-.084.007-.249.011l-.73.01-2.809.019-10.331.031-34.082.029-14.7,0h-.095v-.094c.014-9.737.026-18.112.035-24.059.012-2.966.021-5.326.027-6.952.006-.8.012-1.427.015-1.855,0-.206.006-.364.008-.479s.008-.162.008-.162.005.055.008.162,0,.273.008.479c0,.429.008,1.051.015,1.855.006,1.626.016,3.986.027,6.952.008,5.947.021,14.322.035,24.059l-.094-.094,14.7-.005,34.082.029,10.331.031,2.809.019.73.01C101.416,152.25,101.5,152.256,101.5,152.256Z" transform="translate(-38.506 -118.749)" fill="#263238"/></g><g transform="translate(9.724 43.895)"><rect width="6.354" height="6.354" fill="#f1cc4b"/></g><g transform="translate(19.039 39.353)"><rect width="6.354" height="10.896" fill="#ff725e"/></g><g transform="translate(28.391 34.193)"><rect width="6.354" height="16.056" fill="#f1cc4b"/></g><g transform="translate(37.457 28.449)"><rect width="6.354" height="21.8" fill="#ff725e"/></g><g transform="translate(46.734 21.095)"><rect width="6.354" height="29.154" fill="#f1cc4b"/></g><g transform="translate(55.941 15.486)"><rect width="6.354" height="34.461" fill="#ff725e"/></g><g transform="translate(19.039 39.353)" opacity="0.5"><rect width="6.354" height="10.896" fill="#faedc0"/></g><g transform="translate(37.457 28.449)" opacity="0.5"><rect width="6.354" height="21.8" fill="#faedc0"/></g><g transform="translate(55.941 15.486)" opacity="0.5"><rect width="6.354" height="34.461" fill="#faedc0"/></g><g transform="translate(9.724 8.852)"><path d="M47.784,129.79a.5.5,0,0,1,.081-.063l.247-.17.968-.648,3.641-2.4,12.609-8.24.146-.1v.175c0,.9,0,1.863,0,2.844l-.151-.081L70.3,117.78,87.83,106.065l5.326-3.531,1.454-.952.38-.243a.923.923,0,0,1,.134-.077.882.882,0,0,1-.122.094l-.37.259L93.2,102.6l-5.291,3.584-17.5,11.762-4.971,3.329-.151.1v-.182c0-.981,0-1.944,0-2.844l.146.079-12.647,8.181-3.671,2.354-.985.622-.256.157A.473.473,0,0,1,47.784,129.79Z" transform="translate(-47.784 -101.262)" fill="#263238"/></g><g transform="translate(53.874 8.738)"><path d="M129.648,103.862a3.291,3.291,0,0,1-.067-.783c-.017-.487-.029-1.162-.031-1.92l.1.1H129.4c-.814,0-1.551-.011-2.084-.029a3.757,3.757,0,0,1-.863-.07,3.757,3.757,0,0,1,.863-.07c.533-.018,1.27-.029,2.084-.029h.342v.1c0,.758-.014,1.434-.031,1.92A3.29,3.29,0,0,1,129.648,103.862Z" transform="translate(-126.458 -101.059)" fill="#263238"/></g><rect width="72.421" height="5.333" fill="#263238"/><g transform="translate(2.345 1.563)"><path d="M36.444,89.179a.9.9,0,1,1-.9-.9A.9.9,0,0,1,36.444,89.179Z" transform="translate(-34.635 -88.274)" fill="#fafafa"/></g><g transform="translate(5.254 1.563)"><path d="M41.628,89.179a.9.9,0,1,1-.9-.9A.9.9,0,0,1,41.628,89.179Z" transform="translate(-39.819 -88.274)" fill="#fafafa"/></g><g transform="translate(8.163 1.564)"><circle cx="0.905" cy="0.905" r="0.905" fill="#fafafa"/></g></g><g transform="translate(100.623)"><path d="M319.58,21.842H209.763V72.609h81.5l.446,7.163,6.7-7.163h21.17Z" transform="translate(-209.763 -21.842)" fill="#f5f5f5"/><g transform="translate(7.183 8.891)"><g transform="translate(0 4.582)"><g transform="translate(0 1.648)"><g transform="translate(0 19.932)"><g transform="translate(0 0.013)"><path d="M223.106,84.33v1.6h-.165V84.477h-.378V84.33Z" transform="translate(-222.563 -84.33)" fill="#263238"/></g><g transform="translate(0.927)"><path d="M224.215,85.121c0-.511.268-.815.639-.815s.641.3.641.815-.27.815-.641.815S224.215,85.632,224.215,85.121Zm1.111,0c0-.428-.192-.664-.472-.664s-.472.236-.472.664.193.664.472.664S225.326,85.549,225.326,85.121Z" transform="translate(-224.215 -84.306)" fill="#263238"/></g></g><g transform="translate(0.021 9.967)"><path d="M223.772,68.017v.146h-1.124v-.117l.666-.653c.181-.178.215-.286.215-.4,0-.185-.131-.3-.375-.3a.545.545,0,0,0-.438.178l-.117-.1a.719.719,0,0,1,.567-.23c.325,0,.531.165.531.433a.658.658,0,0,1-.263.5l-.545.536Z" transform="translate(-222.6 -66.547)" fill="#263238"/><g transform="translate(1.372)"><path d="M225.044,67.362c0-.511.268-.815.639-.815s.641.3.641.815-.27.815-.641.815S225.044,67.873,225.044,67.362Zm1.111,0c0-.428-.192-.664-.472-.664s-.471.236-.471.664.192.664.471.664S226.155,67.791,226.155,67.362Z" transform="translate(-225.044 -66.547)" fill="#263238"/></g></g><g transform="translate(0 0.014)"><path d="M223.722,49.955c0,.268-.2.474-.581.474a.833.833,0,0,1-.577-.207l.08-.13a.7.7,0,0,0,.5.185c.265,0,.412-.123.412-.323s-.135-.318-.433-.318H223v-.121l.444-.557h-.82v-.146h1.031v.117l-.454.57C223.55,49.517,223.722,49.7,223.722,49.955Z" transform="translate(-222.563 -48.812)" fill="#263238"/></g><g transform="translate(1.392)"><path d="M225.044,49.6c0-.51.268-.815.639-.815s.641.305.641.815-.27.815-.641.815S225.044,50.113,225.044,49.6Zm1.111,0c0-.428-.192-.664-.472-.664s-.471.236-.471.664.192.664.471.664S226.155,50.031,226.155,49.6Z" transform="translate(-225.044 -48.787)" fill="#263238"/></g></g><g transform="translate(7.619 26.839)"><path d="M236.139,94.492c0-.511.268-.815.639-.815s.641.3.641.815-.27.815-.641.815S236.139,95,236.139,94.492Zm1.111,0c0-.428-.192-.664-.472-.664s-.471.236-.471.664.192.664.471.664S237.25,94.92,237.25,94.492Z" transform="translate(-236.139 -93.677)" fill="#263238"/><g transform="translate(11.321 0.013)"><path d="M256.856,93.7v1.6h-.165V93.847h-.378V93.7Z" transform="translate(-256.313 -93.701)" fill="#263238"/></g><g transform="translate(23.196)"><path d="M278.646,95.147v.146h-1.124v-.117l.666-.653c.181-.178.216-.286.216-.4,0-.186-.131-.3-.375-.3a.544.544,0,0,0-.438.179l-.117-.1a.721.721,0,0,1,.568-.229c.325,0,.531.165.531.433a.659.659,0,0,1-.263.5l-.545.536Z" transform="translate(-277.474 -93.677)" fill="#263238"/></g><g transform="translate(35.03 0.013)"><path d="M299.72,94.844c0,.268-.195.474-.581.474a.833.833,0,0,1-.577-.206l.081-.131a.7.7,0,0,0,.5.186c.266,0,.412-.123.412-.323s-.136-.318-.433-.318H299V94.4l.444-.557h-.82V93.7h1.03v.117l-.453.57C299.549,94.406,299.72,94.588,299.72,94.844Z" transform="translate(-298.561 -93.701)" fill="#263238"/></g><g transform="translate(46.956 0.013)"><path d="M321.2,94.883h-.32V95.3h-.165v-.421h-.9v-.119l.849-1.063h.184l-.82,1.035h.7v-.371h.16v.371h.32Z" transform="translate(-319.813 -93.701)" fill="#263238"/></g><g transform="translate(58.769 0.013)"><path d="M342.02,94.832c0,.273-.19.485-.581.485a.828.828,0,0,1-.575-.206l.081-.131a.693.693,0,0,0,.492.186c.272,0,.417-.133.417-.328s-.129-.334-.536-.334h-.342l.083-.8h.877v.146H341.2l-.055.511h.206C341.836,94.359,342.02,94.548,342.02,94.832Z" transform="translate(-340.863 -93.701)" fill="#263238"/></g><g transform="translate(70.692)"><path d="M363.315,94.815a.5.5,0,0,1-.547.492c-.427,0-.658-.3-.658-.8,0-.545.3-.829.733-.829a.736.736,0,0,1,.38.087l-.066.133a.562.562,0,0,0-.311-.076c-.346,0-.568.222-.568.657,0,.036,0,.082.007.131a.513.513,0,0,1,.49-.275A.486.486,0,0,1,363.315,94.815Zm-.163,0c0-.21-.155-.346-.4-.346a.371.371,0,0,0-.412.35c0,.176.146.343.424.343A.35.35,0,0,0,363.152,94.82Z" transform="translate(-362.11 -93.677)" fill="#263238"/></g><g transform="translate(82.5 0.013)"><path d="M384.329,93.7v.117l-.671,1.487h-.179l.66-1.457h-.824v.3h-.163V93.7Z" transform="translate(-383.152 -93.701)" fill="#263238"/></g></g><g transform="translate(7.449 2.283)"><g transform="translate(1.065 20.035)"><path d="M320.6,85.775c0,.086-18.553.155-41.432.155s-41.437-.07-41.437-.155,18.549-.156,41.437-.156S320.6,85.689,320.6,85.775Z" transform="translate(-237.733 -85.619)" fill="#263238"/></g><g transform="translate(1.065 10.018)"><path d="M320.6,67.924c0,.086-18.553.155-41.432.155s-41.437-.07-41.437-.155,18.549-.155,41.437-.155S320.6,67.839,320.6,67.924Z" transform="translate(-237.733 -67.769)" fill="#263238"/></g><g transform="translate(1.065)"><path d="M320.6,50.073c0,.086-18.553.155-41.432.155s-41.437-.07-41.437-.155,18.549-.155,41.437-.155S320.6,49.988,320.6,50.073Z" transform="translate(-237.733 -49.918)" fill="#263238"/></g><g transform="translate(0 19.512)"><path d="M236.9,85.22a.532.532,0,1,1-.532-.533A.532.532,0,0,1,236.9,85.22Z" transform="translate(-235.836 -84.687)" fill="#ff725e"/><g transform="translate(11.915)"><path d="M258.132,85.22a.532.532,0,1,1-.532-.533A.532.532,0,0,1,258.132,85.22Z" transform="translate(-257.068 -84.687)" fill="#ff725e"/></g><g transform="translate(23.829)"><path d="M279.363,85.22a.532.532,0,1,1-.532-.533A.532.532,0,0,1,279.363,85.22Z" transform="translate(-278.299 -84.687)" fill="#ff725e"/></g><g transform="translate(35.744)"><path d="M300.595,85.22a.532.532,0,1,1-.533-.533A.533.533,0,0,1,300.595,85.22Z" transform="translate(-299.53 -84.687)" fill="#ff725e"/></g><g transform="translate(47.658)"><path d="M321.826,85.22a.532.532,0,1,1-.533-.533A.533.533,0,0,1,321.826,85.22Z" transform="translate(-320.761 -84.687)" fill="#ff725e"/></g><g transform="translate(71.487)"><path d="M364.288,85.22a.532.532,0,1,1-.532-.533A.532.532,0,0,1,364.288,85.22Z" transform="translate(-363.223 -84.687)" fill="#ff725e"/></g><g transform="translate(59.572)"><path d="M343.057,85.22a.532.532,0,1,1-.532-.533A.532.532,0,0,1,343.057,85.22Z" transform="translate(-341.992 -84.687)" fill="#ff725e"/></g><g transform="translate(83.402)"><path d="M385.519,85.22a.532.532,0,1,1-.532-.533A.532.532,0,0,1,385.519,85.22Z" transform="translate(-384.455 -84.687)" fill="#ff725e"/></g></g><g transform="translate(5.795 19.841)"><path d="M246.862,85.624a.349.349,0,1,1-.35-.35A.35.35,0,0,1,246.862,85.624Z" transform="translate(-246.163 -85.274)" fill="#e0e0e0"/><g transform="translate(11.959)"><path d="M268.173,85.624a.349.349,0,1,1-.349-.35A.35.35,0,0,1,268.173,85.624Z" transform="translate(-267.474 -85.274)" fill="#e0e0e0"/></g><g transform="translate(23.919)"><path d="M289.484,85.624a.349.349,0,1,1-.349-.35A.349.349,0,0,1,289.484,85.624Z" transform="translate(-288.785 -85.274)" fill="#e0e0e0"/></g><g transform="translate(35.878)"><path d="M310.795,85.624a.349.349,0,1,1-.349-.35A.349.349,0,0,1,310.795,85.624Z" transform="translate(-310.096 -85.274)" fill="#e0e0e0"/></g><g transform="translate(47.837)"><path d="M332.106,85.624a.35.35,0,1,1-.35-.35A.35.35,0,0,1,332.106,85.624Z" transform="translate(-331.407 -85.274)" fill="#e0e0e0"/></g><g transform="translate(59.796)"><path d="M353.417,85.624a.35.35,0,1,1-.35-.35A.35.35,0,0,1,353.417,85.624Z" transform="translate(-352.718 -85.274)" fill="#e0e0e0"/></g><g transform="translate(71.756)"><path d="M374.728,85.624a.35.35,0,1,1-.35-.35A.35.35,0,0,1,374.728,85.624Z" transform="translate(-374.029 -85.274)" fill="#e0e0e0"/></g></g></g><g transform="translate(9.98)"><g transform="translate(8.61 16.74)"><path d="M258.3,76.985A1.305,1.305,0,1,1,257,75.68,1.306,1.306,0,0,1,258.3,76.985Z" transform="translate(-255.69 -75.68)" fill="#ff725e"/></g><g transform="translate(19.005 10.606)"><path d="M276.824,66.054a1.305,1.305,0,1,1-1.305-1.305A1.305,1.305,0,0,1,276.824,66.054Z" transform="translate(-274.214 -64.749)" fill="#ff725e"/></g><g transform="translate(31.907 11.151)"><path d="M299.815,67.025a1.305,1.305,0,1,1-1.305-1.305A1.306,1.306,0,0,1,299.815,67.025Z" transform="translate(-297.204 -65.72)" fill="#ff725e"/></g><g transform="translate(44.503)"><path d="M322.26,47.155a1.305,1.305,0,1,1-1.305-1.305A1.3,1.3,0,0,1,322.26,47.155Z" transform="translate(-319.65 -45.85)" fill="#ff725e"/></g><g transform="translate(56.268 7.092)"><path d="M343.225,59.792a1.305,1.305,0,1,1-1.3-1.305A1.3,1.3,0,0,1,343.225,59.792Z" transform="translate(-340.615 -58.487)" fill="#ff725e"/></g><g transform="translate(68.183 8.98)"><path d="M364.457,63.157a1.305,1.305,0,1,1-1.305-1.305A1.305,1.305,0,0,1,364.457,63.157Z" transform="translate(-361.846 -61.852)" fill="#ff725e"/></g><g transform="translate(0 1.158)"><path d="M322.281,64.8a1.937,1.937,0,0,1-.306,0,6.3,6.3,0,0,1-.891-.119,6.731,6.731,0,0,1-3.1-1.472,6.426,6.426,0,0,1-1.522-1.98,14.486,14.486,0,0,0-1.595-2.469,5.27,5.27,0,0,0-2.693-1.879,3.436,3.436,0,0,0-1.782.064,4.784,4.784,0,0,0-1.653.936,31.706,31.706,0,0,0-2.748,3.148A5.442,5.442,0,0,1,304.2,62.42a3.6,3.6,0,0,1-2.352.193,2.95,2.95,0,0,1-1.79-1.644,11.4,11.4,0,0,1-.773-2.379,13.747,13.747,0,0,0-.71-2.414,1.9,1.9,0,0,0-.763-.914,2.482,2.482,0,0,0-1.2-.233,20.134,20.134,0,0,0-2.62.462,7.669,7.669,0,0,1-1.382.157,3.123,3.123,0,0,1-1.4-.273,2.86,2.86,0,0,1-1.116-.934,6.939,6.939,0,0,1-.682-1.268c-.378-.882-.63-1.806-.971-2.695a6.529,6.529,0,0,0-.631-1.262,2.3,2.3,0,0,0-1.034-.861c-.109-.031-.216-.071-.326-.1l-.344-.032a1.239,1.239,0,0,0-.638.13,2.64,2.64,0,0,0-.954,1,12.2,12.2,0,0,0-1.106,2.739c-.285.961-.524,1.944-.754,2.937-.381,1.643-.721,3.282-1.144,4.886a24.48,24.48,0,0,1-.733,2.367,6.17,6.17,0,0,1-1.237,2.15,1.722,1.722,0,0,1-1.176.521,2.393,2.393,0,0,1-1.2-.365,5.73,5.73,0,0,1-1.693-1.713,20.816,20.816,0,0,1-2.044-4.149,9.636,9.636,0,0,0-2.282-3.672,4.271,4.271,0,0,0-3.83-.934,6.469,6.469,0,0,0-1.823.8,12.456,12.456,0,0,0-1.591,1.151,21.236,21.236,0,0,0-2.657,2.672l-.005.007,0,0a28.65,28.65,0,0,1-3.936,3.269,19.2,19.2,0,0,1-4.03,2.184,8.871,8.871,0,0,1-3.946.657,13.838,13.838,0,0,1-3.287-.8,30.9,30.9,0,0,1-4.268-1.952c-.472-.259-.828-.466-1.065-.611s-.351-.229-.351-.229.127.064.37.2l1.08.578a33.133,33.133,0,0,0,4.28,1.884,13.852,13.852,0,0,0,3.254.757,8.721,8.721,0,0,0,3.861-.673,19.063,19.063,0,0,0,3.974-2.183,28.552,28.552,0,0,0,3.885-3.257l-.007.008a21.4,21.4,0,0,1,2.682-2.718,12.634,12.634,0,0,1,1.62-1.179,6.69,6.69,0,0,1,1.9-.839,4.546,4.546,0,0,1,4.084.985,9.891,9.891,0,0,1,2.367,3.774,20.545,20.545,0,0,0,2.02,4.09,5.447,5.447,0,0,0,1.6,1.622,2.092,2.092,0,0,0,1.054.322,1.414,1.414,0,0,0,.959-.437,5.893,5.893,0,0,0,1.162-2.038,23.987,23.987,0,0,0,.722-2.337c.419-1.592.759-3.23,1.14-4.876.231-1,.471-1.984.759-2.956a12.461,12.461,0,0,1,1.141-2.812,2.919,2.919,0,0,1,1.08-1.111,1.551,1.551,0,0,1,.788-.162l.389.038c.127.03.252.075.377.113a2.606,2.606,0,0,1,1.177.975,6.808,6.808,0,0,1,.663,1.326c.347.908.6,1.831.964,2.687A3.579,3.579,0,0,0,291.33,55.1a4.322,4.322,0,0,0,2.608.1,20.1,20.1,0,0,1,2.664-.462,2.753,2.753,0,0,1,1.351.272,2.168,2.168,0,0,1,.879,1.044,13.9,13.9,0,0,1,.723,2.47,11.182,11.182,0,0,0,.745,2.324,2.688,2.688,0,0,0,1.624,1.515,3.36,3.36,0,0,0,2.179-.174,5.2,5.2,0,0,0,1.712-1.326,31.327,31.327,0,0,1,2.783-3.154,5,5,0,0,1,1.735-.969,3.644,3.644,0,0,1,1.888-.056A5.442,5.442,0,0,1,315,58.649,14.522,14.522,0,0,1,316.6,61.16a6.333,6.333,0,0,0,1.47,1.957,6.8,6.8,0,0,0,3.032,1.5,7.534,7.534,0,0,0,.88.149C322.178,64.791,322.281,64.794,322.281,64.8Z" transform="translate(-240.347 -47.914)" fill="#ff725e"/></g></g></g><g transform="translate(0.666)"><path d="M244.41,37.841c0,.086-4.626.155-10.33.155s-10.331-.07-10.331-.155,4.624-.156,10.331-.156S244.41,37.755,244.41,37.841Z" transform="translate(-223.749 -37.685)" fill="#263238"/></g></g></g><g transform="translate(190.075 60.239)"><path d="M414.562,129.185h-45.4V171.85h5.162v7.6l7.107-7.6h33.129Z" transform="translate(-369.164 -129.185)" fill="#f5f5f5"/><g transform="translate(8.49 4.835)"><path d="M398.3,137.8a14.008,14.008,0,1,0,14.008,14.008A14.008,14.008,0,0,0,398.3,137.8Zm.211,22.4a8.6,8.6,0,1,1,8.605-8.6A8.6,8.6,0,0,1,398.512,160.2Z" transform="translate(-384.293 -137.801)" fill="#263238"/><g transform="translate(0 0.006)"><g transform="translate(14.221)"><path d="M409.635,137.811c0,1.49,0,3.5,0,5.186a8.607,8.607,0,0,1,8.2,11.213l5.076,1.377a14,14,0,0,0-13.274-17.776Z" transform="translate(-409.634 -137.811)" fill="#ff725e"/></g><g transform="translate(0 1.094)"><path d="M389.907,152.457a8.6,8.6,0,0,1,5.1-7.859l-2.154-4.838a14.011,14.011,0,0,0-8.56,12.908c0,.2.007.393.015.588h5.637C389.921,152.993,389.907,152.727,389.907,152.457Z" transform="translate(-384.293 -139.76)" fill="#455a64"/></g><g transform="translate(11.452 16.4)"><path d="M407.467,173.031a8.648,8.648,0,0,1-1.82-.195c-.216,1.249-.625,3.667-.946,5.572a14,14,0,0,0,16.044-10l-5.076-1.377A8.607,8.607,0,0,1,407.467,173.031Z" transform="translate(-404.7 -167.035)" fill="#ff725e"/></g><g transform="translate(11.452 16.4)" opacity="0.3"><path d="M407.467,173.031a8.648,8.648,0,0,1-1.82-.195c-.216,1.249-.625,3.667-.946,5.572a14,14,0,0,0,16.044-10l-5.076-1.377A8.607,8.607,0,0,1,407.467,173.031Z" transform="translate(-404.7 -167.035)"/></g></g><g transform="translate(9.409 11.924)"><g transform="translate(0 0.054)"><path d="M404.01,161.661h-.519v.668h-.718v-.668h-1.714v-.5l1.5-2.019h.773l-1.392,1.914h.855v-.6h.7v.6h.519Z" transform="translate(-401.059 -159.146)" fill="#263238"/></g><g transform="translate(3.169)"><path d="M406.706,160.695c0-1.051.582-1.646,1.364-1.646s1.364.6,1.364,1.646-.577,1.647-1.364,1.647S406.706,161.745,406.706,160.695Zm1.987,0c0-.723-.255-1.023-.623-1.023s-.618.3-.618,1.023.255,1.024.618,1.024S408.693,161.418,408.693,160.695Z" transform="translate(-406.706 -159.049)" fill="#263238"/></g><g transform="translate(6.202 0.018)"><path d="M412.11,159.959a.793.793,0,1,1,.791.878A.792.792,0,0,1,412.11,159.959Zm1.123,0c0-.341-.132-.5-.332-.5s-.332.168-.332.5.136.5.332.5S413.233,160.3,413.233,159.959Zm1.565-.841h.541l-2.173,3.183h-.542Zm-.523,2.342a.793.793,0,1,1,.787.878A.791.791,0,0,1,414.274,161.459Zm1.118,0c0-.337-.132-.5-.332-.5s-.332.163-.332.5.136.505.332.505S415.393,161.8,415.393,161.459Z" transform="translate(-412.11 -159.081)" fill="#263238"/></g></g><g transform="translate(2.416 31.416)"><path d="M411.781,193.917c0,.074-5.19.133-11.59.133s-11.592-.059-11.592-.133,5.189-.133,11.592-.133S411.781,193.843,411.781,193.917Z" transform="translate(-388.599 -193.784)" fill="#263238"/><g transform="translate(5.162 2.129)"><path d="M410.656,197.71c0,.074-2.879.133-6.429.133s-6.429-.059-6.429-.133,2.878-.133,6.429-.133S410.656,197.636,410.656,197.71Z" transform="translate(-397.798 -197.577)" fill="#263238"/></g></g></g></g></g><g transform="translate(35.683 120.388)"><g transform="translate(0 71.551)"><g transform="translate(0 0.126)"><rect width="163.831" height="6.979" fill="#455a64"/></g><g transform="translate(0.259 0.228)"><path d="M74.678,325.358s-.015.027-.052.076-.093.12-.171.209a3.444,3.444,0,0,1-.824.643,4.7,4.7,0,0,1-1.583.517,11.508,11.508,0,0,1-2.208.095,22.167,22.167,0,0,1-2.658-.3,24.3,24.3,0,0,0-3.026-.351,19.2,19.2,0,0,0-6.811,1.286c-2.338.814-4.521,1.74-6.611,2.3a18.655,18.655,0,0,1-3.015.582,13.034,13.034,0,0,1-2.679-.005,9.265,9.265,0,0,1-3.673-1.145,5.746,5.746,0,0,1-1.136-.828.337.337,0,0,1,.079.049l.218.159a7.769,7.769,0,0,0,.878.553,9.473,9.473,0,0,0,3.649,1.073,13.129,13.129,0,0,0,2.647-.019,18.775,18.775,0,0,0,2.982-.594c2.071-.569,4.246-1.5,6.594-2.314a19.172,19.172,0,0,1,6.885-1.282,23.979,23.979,0,0,1,3.047.371,22.444,22.444,0,0,0,2.636.32,11.706,11.706,0,0,0,2.185-.064,4.731,4.731,0,0,0,1.562-.476A4.13,4.13,0,0,0,74.678,325.358Z" transform="translate(-40.232 -325.357)" fill="#263238"/></g><g transform="translate(1.798 0.314)"><path d="M57.96,325.531a4.05,4.05,0,0,1-.5.412,11.439,11.439,0,0,1-1.495.937,13.2,13.2,0,0,1-2.444.969,13.566,13.566,0,0,1-3.194.487,12.5,12.5,0,0,1-5.711-1.148,3.6,3.6,0,0,1-1.378-1.1,1.9,1.9,0,0,1-.225-.421.507.507,0,0,1-.042-.16,4.356,4.356,0,0,0,.331.536,3.729,3.729,0,0,0,1.378,1.017,12.936,12.936,0,0,0,5.64,1.076,13.386,13.386,0,0,0,7.093-2.259A4.089,4.089,0,0,1,57.96,325.531Z" transform="translate(-42.974 -325.51)" fill="#263238"/></g><g transform="translate(42.143 1.73)"><path d="M127.951,331.062a2.092,2.092,0,0,1,.254.089,4.919,4.919,0,0,0,.756.2,4.56,4.56,0,0,0,2.867-.437l-.008.089a6.933,6.933,0,0,0-3.555-1.349,7.058,7.058,0,0,0-4.624,1.171.726.726,0,0,0-.358.453.489.489,0,0,0,.307.451,2.178,2.178,0,0,0,.635.217l.7.154c.937.2,1.906.405,2.908.548a17.728,17.728,0,0,0,3.094.2,11.531,11.531,0,0,0,1.588-.149c.264-.043.529-.094.79-.161a4.022,4.022,0,0,0,.765-.241,2.508,2.508,0,0,0,.992-.7,1.08,1.08,0,0,0,.191-1.072,1.853,1.853,0,0,0-.779-.848,6.217,6.217,0,0,0-1.088-.517,15.224,15.224,0,0,0-4.55-.92A19.5,19.5,0,0,0,116.39,331.9c-.5.377-.884.674-1.13.893l-.289.24a.574.574,0,0,1-.1.076.648.648,0,0,1,.089-.091l.276-.254c.237-.23.615-.537,1.109-.924a18.775,18.775,0,0,1,4.673-2.557,19.26,19.26,0,0,1,7.829-1.224,15.329,15.329,0,0,1,4.612.921,6.459,6.459,0,0,1,1.124.534,2.038,2.038,0,0,1,.858.943,1.273,1.273,0,0,1-.219,1.259,2.707,2.707,0,0,1-1.071.759,4.192,4.192,0,0,1-.8.251c-.267.069-.536.12-.806.164a11.78,11.78,0,0,1-1.615.15,17.847,17.847,0,0,1-3.128-.212c-1.01-.146-1.982-.352-2.921-.558l-.7-.157a2.343,2.343,0,0,1-.686-.24.914.914,0,0,1-.288-.245.535.535,0,0,1-.1-.376.882.882,0,0,1,.433-.574,7.194,7.194,0,0,1,4.741-1.175,7.007,7.007,0,0,1,3.61,1.409l.066.052-.075.037a4.562,4.562,0,0,1-2.93.4A3.352,3.352,0,0,1,127.951,331.062Z" transform="translate(-114.868 -328.033)" fill="#263238"/></g><g transform="translate(70.619 0.41)"><path d="M171.3,325.681a1.036,1.036,0,0,1,.162.352,2.6,2.6,0,0,1,.108,1.047,5.113,5.113,0,0,1-1.6,3.046,7.966,7.966,0,0,1-1.49,1.234,6.71,6.71,0,0,1-1.438.68,6.912,6.912,0,0,1-1.043.254,1.453,1.453,0,0,1-.392.033c-.007-.036.55-.111,1.386-.418a7.259,7.259,0,0,0,1.384-.7,8.409,8.409,0,0,0,1.446-1.217,5.245,5.245,0,0,0,1.6-2.926A3.7,3.7,0,0,0,171.3,325.681Z" transform="translate(-165.611 -325.681)" fill="#263238"/></g><g transform="translate(81.839 2.135)"><path d="M209.494,333.358a9.359,9.359,0,0,0-.753-.713,5.4,5.4,0,0,0-2.562-1.125,5.853,5.853,0,0,0-1.951.055,8.626,8.626,0,0,1-2.286.2,4.624,4.624,0,0,1-2.276-1.088,7.813,7.813,0,0,0-2.287-1.322,8.6,8.6,0,0,0-5.08-.077,12.186,12.186,0,0,0-3.759,1.855,20.466,20.466,0,0,0-2.179,1.811l-.556.535a1.309,1.309,0,0,1-.2.18,1.393,1.393,0,0,1,.172-.207c.117-.132.295-.322.53-.562a18.1,18.1,0,0,1,2.15-1.869,12.036,12.036,0,0,1,3.792-1.918,8.71,8.71,0,0,1,5.2.066,7.943,7.943,0,0,1,2.339,1.354,4.455,4.455,0,0,0,2.178,1.061,8.6,8.6,0,0,0,2.238-.186,5.929,5.929,0,0,1,2-.031,5.32,5.32,0,0,1,2.59,1.2A3.425,3.425,0,0,1,209.494,333.358Z" transform="translate(-185.603 -328.754)" fill="#263238"/></g><g transform="translate(106.123 0.192)"><path d="M254.75,325.293a1.593,1.593,0,0,1-.179.238,8.533,8.533,0,0,1-.56.649,15.142,15.142,0,0,1-2.392,2.07,19.351,19.351,0,0,1-4.149,2.241,17.465,17.465,0,0,1-2.676.832,14.161,14.161,0,0,1-2.994.375,15.142,15.142,0,0,1-5.68-1.151,19.032,19.032,0,0,1-4.127-2.281,15.939,15.939,0,0,1-2.375-2.088c-.263-.264-.433-.5-.561-.648a1.6,1.6,0,0,1-.18-.238,1.768,1.768,0,0,1,.212.213c.137.14.316.365.587.621a17.394,17.394,0,0,0,2.4,2.029,19.469,19.469,0,0,0,4.113,2.225A15.165,15.165,0,0,0,241.8,331.5a14.116,14.116,0,0,0,2.952-.366,17.446,17.446,0,0,0,2.65-.812,19.8,19.8,0,0,0,4.136-2.186,16.391,16.391,0,0,0,2.418-2.01c.272-.254.448-.482.586-.621A1.694,1.694,0,0,1,254.75,325.293Z" transform="translate(-228.877 -325.293)" fill="#263238"/></g><g transform="translate(111.881 0.125)"><path d="M255.5,325.174c0,.006-.044.043-.139.11s-.235.166-.424.28a17.3,17.3,0,0,1-1.641.9A17.673,17.673,0,0,1,250.7,327.5a11.7,11.7,0,0,1-3.383.563,14.188,14.188,0,0,1-6.006-1.478,13.376,13.376,0,0,1-1.627-.931c-.186-.12-.32-.227-.414-.3s-.139-.11-.135-.116a5.9,5.9,0,0,1,.591.346,16.6,16.6,0,0,0,1.647.87,14.722,14.722,0,0,0,5.943,1.407,11.875,11.875,0,0,0,3.328-.54,19.1,19.1,0,0,0,2.585-.98c.715-.33,1.279-.628,1.662-.845A5.322,5.322,0,0,1,255.5,325.174Z" transform="translate(-239.138 -325.173)" fill="#263238"/></g><g transform="translate(128.305 0.645)"><g transform="translate(0)"><path d="M285,326.3a.685.685,0,0,1-.189,0l-.536-.034-.387-.028-.462,0c-.331,0-.707-.015-1.122.018l-.652.034-.7.08c-.488.041-1,.153-1.541.241a21.718,21.718,0,0,0-6.633,2.533c-.462.291-.915.547-1.3.836l-.575.4-.508.4c-.331.247-.6.5-.848.717l-.342.3-.271.271-.379.371a.7.7,0,0,1-.143.121c-.006,0,.033-.055.112-.148l.353-.4.259-.285.332-.315c.239-.227.507-.488.834-.745l.5-.414.573-.415c.389-.3.842-.561,1.306-.859a20.836,20.836,0,0,1,6.693-2.556c.548-.084,1.065-.191,1.558-.226l.711-.07.658-.021a10.925,10.925,0,0,1,1.132.011l.464.02.388.046.535.07A.662.662,0,0,1,285,326.3Z" transform="translate(-268.405 -326.1)" fill="#263238"/></g></g><g transform="translate(75.714 0.86)"><path d="M207.647,332.221a7.468,7.468,0,0,0-.9-1.044,8.389,8.389,0,0,0-3.3-1.8,18.385,18.385,0,0,0-2.576-.554c-.939-.146-1.952-.26-3.012-.438a25.687,25.687,0,0,1-3.271-.8,21.958,21.958,0,0,0-3.49-.82,14.894,14.894,0,0,0-6.8.915,25.017,25.017,0,0,0-2.765,1.21c-.847.423-1.624.84-2.329,1.228-1.41.777-2.533,1.439-3.306,1.9l-.89.531-.233.136a.329.329,0,0,1-.084.041s.022-.022.072-.058l.222-.152c.2-.132.49-.323.87-.563.762-.481,1.874-1.161,3.277-1.955.7-.4,1.477-.822,2.324-1.253a24.632,24.632,0,0,1,2.777-1.235,14.941,14.941,0,0,1,6.888-.939,21.792,21.792,0,0,1,3.521.831,26.141,26.141,0,0,0,3.246.8c1.052.182,2.064.3,3.007.456a18.093,18.093,0,0,1,2.593.583,8.242,8.242,0,0,1,3.313,1.875A4.1,4.1,0,0,1,207.647,332.221Z" transform="translate(-174.689 -326.483)" fill="#263238"/></g><g transform="translate(63.537 0.229)"><path d="M161.225,325.359a1.49,1.49,0,0,1-.024.446,5.09,5.09,0,0,1-.32,1.178,6.785,6.785,0,0,1-2.517,3.139,17.085,17.085,0,0,1-3.732,1.673c-.5.162-.907.277-1.191.349a1.978,1.978,0,0,1-.448.091,2.045,2.045,0,0,1,.425-.164l1.167-.407a19.54,19.54,0,0,0,3.67-1.707,7.014,7.014,0,0,0,2.5-3.026A9.208,9.208,0,0,0,161.225,325.359Z" transform="translate(-152.991 -325.359)" fill="#263238"/></g><g transform="translate(33.738 0.228)"><path d="M99.89,332.234a2.837,2.837,0,0,1,.4-.374c.263-.233.662-.552,1.166-.93a33.888,33.888,0,0,1,4.179-2.622c1.7-.912,3.293-1.641,4.447-2.158.577-.258,1.047-.461,1.374-.6a2.957,2.957,0,0,1,.516-.194,2.938,2.938,0,0,1-.483.264l-1.346.654c-1.138.548-2.716,1.3-4.411,2.2a41.4,41.4,0,0,0-4.19,2.562c-.513.362-.924.663-1.2.877A2.942,2.942,0,0,1,99.89,332.234Z" transform="translate(-99.889 -325.357)" fill="#263238"/></g><g transform="translate(15.98 0.437)"><path d="M93.722,325.807c0,.023-.379-.047-1.057,0a7.625,7.625,0,0,0-2.733.81,25.079,25.079,0,0,0-3.55,2.321,18.14,18.14,0,0,1-2.139,1.35,12.157,12.157,0,0,1-2.557.959,24.337,24.337,0,0,1-5.234.612c-1.62.047-3.075.015-4.294.064a21.676,21.676,0,0,0-2.872.273c-.335.061-.6.11-.77.15a1.461,1.461,0,0,1-.271.048,1.39,1.39,0,0,1,.261-.086c.172-.053.43-.115.765-.187a19.241,19.241,0,0,1,2.88-.337c1.224-.067,2.682-.049,4.295-.105a24.874,24.874,0,0,0,5.189-.622,12.085,12.085,0,0,0,2.515-.939,18.361,18.361,0,0,0,2.122-1.326,24.019,24.019,0,0,1,3.6-2.3,7.375,7.375,0,0,1,2.791-.761,5.033,5.033,0,0,1,.791.025A1.418,1.418,0,0,1,93.722,325.807Z" transform="translate(-68.246 -325.729)" fill="#263238"/></g><g transform="translate(113.05)"><path d="M271.806,325.048c0,.054-6.847.1-15.292.1s-15.292-.044-15.292-.1,6.845-.1,15.292-.1S271.806,324.994,271.806,325.048Z" transform="translate(-241.222 -324.95)" fill="#263238"/></g><g transform="translate(2.499 6.567)"><path d="M47.877,421.234H45.549l-1.326-84.582H49.2Z" transform="translate(-44.223 -336.652)" fill="#455a64"/><g transform="translate(151.422 0.241)"><path d="M316.38,421.542h-2.328l1.164-84.46h4.979Z" transform="translate(-314.052 -337.082)" fill="#455a64"/></g></g><g transform="translate(143.058 0.125)"><rect width="20.772" height="6.98" fill="#455a64"/></g></g><g transform="translate(15.15)"><g transform="translate(2.811 6.879)"><g transform="translate(0 24.72)"><path d="M74.41,254.888a1.324,1.324,0,1,0-2.619.393l5.8,35.428h2.65Z" transform="translate(-71.775 -253.757)" fill="#263238"/></g><g transform="translate(0.22)"><path d="M72.512,235.993,96.44,209.707l.174.288,1.161,1.92-23.3,25.856a1.324,1.324,0,1,1-1.963-1.778Z" transform="translate(-72.167 -209.707)" fill="#263238"/></g><g transform="translate(0.936 26.225)"><path d="M74.83,257.182c.016,0,.04-.057.031-.166a.631.631,0,0,0-.221-.407.714.714,0,0,0-.691-.131.743.743,0,0,0,0,1.408.713.713,0,0,0,.691-.131.628.628,0,0,0,.221-.407c.009-.109-.015-.166-.031-.166-.043-.01-.043.245-.3.422a.539.539,0,0,1-.492.049.507.507,0,0,1,0-.943.539.539,0,0,1,.492.049C74.787,256.936,74.787,257.191,74.83,257.182Z" transform="translate(-73.444 -256.439)" fill="#455a64"/></g><g transform="translate(0.118 24.756)"><path d="M73.825,253.823a3.578,3.578,0,0,0-.721.66,9.773,9.773,0,0,0-.718.791,1.661,1.661,0,0,0-.377,1.307,1.328,1.328,0,0,0,.974.956,1.411,1.411,0,0,0,1.1-.153,1.671,1.671,0,0,0,.708-.693c-.033-.038-.285.262-.8.525a1.262,1.262,0,0,1-.943.083,1.107,1.107,0,0,1-.779-.773,1.469,1.469,0,0,1,.314-1.106c.222-.31.471-.575.658-.809A3.539,3.539,0,0,0,73.825,253.823Z" transform="translate(-71.985 -253.821)" fill="#455a64"/></g></g><g transform="translate(0 68.21)"><path d="M88.551,322.464H66.766S69.546,319,76.8,319C83.556,319,87.58,320.984,88.551,322.464Z" transform="translate(-66.766 -318.997)" fill="#263238"/></g><g transform="translate(25.291)"><g transform="translate(0.768)"><path d="M114.31,200.159,113.2,198.5l1.368-1.05,1.176,1.671Z" transform="translate(-113.202 -197.448)" fill="#263238"/></g><g transform="translate(0 0.256)"><path d="M111.834,201.362,116.6,197.9l4.579,5.506c7.938,1.281,11.139,6.274,11.139,6.274l-14.213,10.884c-4.865-5.378-2.561-13.061-2.561-13.061Z" transform="translate(-111.834 -197.905)" fill="#0540b7"/></g><g transform="translate(3.711 5.76)"><path d="M118.448,211.813a22.732,22.732,0,0,0,2.9-1.94,22.637,22.637,0,0,0,2.738-2.157,22.711,22.711,0,0,0-2.9,1.94A22.776,22.776,0,0,0,118.448,211.813Z" transform="translate(-118.447 -207.713)" fill="#263238"/></g></g></g><g transform="translate(48.692 40.439)"><path d="M200.01,271.058,187.519,298.69a4.1,4.1,0,0,1-3.343,2.09l-57.638-.078h0a2.445,2.445,0,0,1,2.374-2.156l21.87-.48L161.977,271.2a2.316,2.316,0,0,1,2.12-1.425L199,269.51A1.1,1.1,0,0,1,200.01,271.058Z" transform="translate(-126.538 -269.51)" fill="#263238"/><g transform="translate(25.314 0.26)"><path d="M171.648,301.22a1.282,1.282,0,0,0,.167-.3l.416-.892,1.463-3.31c1.218-2.8,2.873-6.686,4.653-11s3.35-8.231,4.44-11.087c.543-1.428.976-2.586,1.255-3.4l.316-.932a1.256,1.256,0,0,0,.088-.333,1.264,1.264,0,0,0-.155.308l-.379.908-1.361,3.352-4.535,11.043-4.555,11.033-1.358,3.354-.354.919A1.227,1.227,0,0,0,171.648,301.22Z" transform="translate(-171.646 -269.973)" fill="#455a64"/></g><g transform="translate(47.917 13.158)"><path d="M211.925,294.743a1.786,1.786,0,1,0,1.786-1.786A1.787,1.787,0,0,0,211.925,294.743Z" transform="translate(-211.925 -292.957)" fill="#fff"/></g></g></g><g transform="translate(172.173 80.809)"><g transform="translate(3.11)"><g transform="translate(0 5.941)"><path d="M296.26,143.077a4.2,4.2,0,0,0-1.3-4.491,4.393,4.393,0,0,0-4.58-.743,3.119,3.119,0,0,0-1.571,1.344,2.984,2.984,0,0,0,.482,3.195,5.571,5.571,0,0,0,2.919,1.686,4.979,4.979,0,0,0,2.411.136,2.508,2.508,0,0,0,1.813-1.481" transform="translate(-288.531 -137.505)" fill="#263238"/></g><g transform="translate(3.476)"><path d="M329.9,158.508a2.211,2.211,0,0,1-2.593-1.747,5.318,5.318,0,0,1,.645-3.366,9.723,9.723,0,0,0,1.158-3.276c.145-1.979-1.159-3.745-1.728-5.648-1.181-3.956.811-8.589-1.262-12.171a8.655,8.655,0,0,0-4.276-3.823,7.56,7.56,0,0,0-6.246.2,11.473,11.473,0,0,0-8.946-1.4,11.311,11.311,0,0,0-7.065,5.591c-.962,1.832-1.4,3.919-2.54,5.649-.872,1.322-2.176,2.5-2.306,4.076-.164,1.992,1.642,3.664,1.824,5.654.216,2.351-1.863,4.69-1,6.891.6,1.52,2.464,2.432,2.655,4.051a3.484,3.484,0,0,0,.2,1.358,2.992,2.992,0,0,0,2.479,1.191c9.932-.6,18.348.879,27.213-1.4a3.349,3.349,0,0,0,1.319-.568A1.235,1.235,0,0,0,329.9,158.508Z" transform="translate(-294.726 -126.919)" fill="#263238"/></g><g transform="translate(11.284 4.299)"><path d="M308.745,139.484l-.106-2.084,12.45-2.771c3.849-.529,8.144,3.212,8.509,7.08.405,4.3.73,9.56.319,12.788-.825,6.492-5.751,7.468-5.751,7.468l.172,7.9-14.265-.509Z" transform="translate(-308.639 -134.58)" fill="#ffbe9d"/></g><g transform="translate(28.875 15.5)"><path d="M341.638,155.263a.829.829,0,0,1-.773.861.793.793,0,0,1-.877-.721.829.829,0,0,1,.772-.861A.794.794,0,0,1,341.638,155.263Z" transform="translate(-339.986 -154.539)" fill="#263238"/></g><g transform="translate(27.686 13.393)"><path d="M341.142,151.607c-.1.111-.741-.333-1.633-.3s-1.531.5-1.631.39c-.049-.047.049-.245.328-.461a2.276,2.276,0,0,1,1.3-.446,2.185,2.185,0,0,1,1.3.377C341.092,151.365,341.192,151.557,341.142,151.607Z" transform="translate(-337.867 -150.786)" fill="#263238"/></g><g transform="translate(20.572 15.883)"><path d="M326.841,155.946a.829.829,0,0,1-.773.86.792.792,0,0,1-.877-.721.829.829,0,0,1,.772-.861A.794.794,0,0,1,326.841,155.946Z" transform="translate(-325.19 -155.221)" fill="#263238"/></g><g transform="translate(18.928 13.832)"><path d="M325.536,152.388c-.1.111-.742-.333-1.633-.3s-1.531.5-1.631.39c-.048-.047.049-.245.328-.461a2.274,2.274,0,0,1,1.3-.446,2.19,2.19,0,0,1,1.3.377C325.486,152.146,325.585,152.338,325.536,152.388Z" transform="translate(-322.26 -151.567)" fill="#263238"/></g><g transform="translate(24.998 13.749)"><path d="M333.723,158.834a5.9,5.9,0,0,1,1.44-.306c.227-.031.441-.083.474-.239a1.163,1.163,0,0,0-.173-.67l-.727-1.712a29.776,29.776,0,0,1-1.652-4.488,29.907,29.907,0,0,1,2.01,4.344c.244.6.477,1.175.7,1.723a1.322,1.322,0,0,1,.146.89.573.573,0,0,1-.364.345,1.553,1.553,0,0,1-.385.066A5.776,5.776,0,0,1,333.723,158.834Z" transform="translate(-333.076 -151.419)" fill="#263238"/></g><g transform="translate(17.864 29.655)"><path d="M329.309,181.809a17.11,17.11,0,0,1-8.944-2.045s2.323,4.455,8.99,3.657Z" transform="translate(-320.365 -179.764)" fill="#eb996e"/></g><g transform="translate(22.691 22.757)"><path d="M331.609,168.039a1.607,1.607,0,0,0-1.459-.552,1.469,1.469,0,0,0-1,.575.929.929,0,0,0-.038,1.065,1.079,1.079,0,0,0,1.178.259,3.389,3.389,0,0,0,1.118-.715.994.994,0,0,0,.246-.272.3.3,0,0,0-.012-.332" transform="translate(-328.967 -167.471)" fill="#eb996e"/></g><g transform="translate(22.909 21.863)"><path d="M329.486,165.878c.145-.013.176.955,1.026,1.616s1.877.522,1.888.658c.015.06-.224.195-.659.221a2.415,2.415,0,0,1-1.575-.494,2.1,2.1,0,0,1-.8-1.357C329.318,166.117,329.419,165.874,329.486,165.878Z" transform="translate(-329.354 -165.878)" fill="#263238"/></g><g transform="translate(18.27 11.512)"><path d="M325.143,148.051c-.08.245-.974.158-2.016.316-1.045.138-1.879.47-2.025.257-.065-.1.075-.334.409-.58a3.545,3.545,0,0,1,3.078-.437C324.978,147.751,325.178,147.935,325.143,148.051Z" transform="translate(-321.087 -147.434)" fill="#263238"/></g><g transform="translate(27.799 10.282)"><path d="M341.109,146.118c-.15.208-.771.016-1.51.029-.739-.012-1.359.178-1.51-.029-.066-.1.026-.307.293-.507a2.188,2.188,0,0,1,2.433,0C341.083,145.812,341.175,146.017,341.109,146.118Z" transform="translate(-338.068 -145.242)" fill="#263238"/></g><g transform="translate(9.6 3.229)"><path d="M318.378,133.024a81.5,81.5,0,0,0-10.518,2.528,2.521,2.521,0,0,0-1.41.82,2.622,2.622,0,0,0-.265,1.637,54.423,54.423,0,0,1-.435,10.169,13.433,13.433,0,0,0,.207,4.624c.612,2.878.177,11.493,2.463,11.362,8.566-1.824,2.656-8.149,1.776-11.11a3.19,3.19,0,0,1,.722-2.919c.517-.588,1.245-.951,1.792-1.51a3.456,3.456,0,0,0,.232-4.512,2.972,2.972,0,0,1-.762-1.69c-.105-1.634,1.511-1.9,2.743-2.295,2.583-.823,6.112-4.9,5.371-7.455Z" transform="translate(-305.637 -132.673)" fill="#263238"/></g><g transform="translate(10.685 9.723)"><path d="M307.571,144.246" transform="translate(-307.571 -144.246)" fill="none" stroke="#4e585d" stroke-miterlimit="10" stroke-width="1"/></g><g transform="translate(6.575 3.003)"><path d="M300.248,139.649a11.33,11.33,0,0,0,2.875.493,14.6,14.6,0,0,0,6.771-1.693,25.66,25.66,0,0,0,5.716-4.131c.667-.616,1.18-1.143,1.541-1.5a4.063,4.063,0,0,1,.573-.547,4.133,4.133,0,0,1-.49.623c-.336.384-.829.934-1.481,1.574a23.6,23.6,0,0,1-5.727,4.243,14.065,14.065,0,0,1-6.911,1.639,8.122,8.122,0,0,1-2.136-.386,4.823,4.823,0,0,1-.55-.214C300.306,139.693,300.244,139.659,300.248,139.649Z" transform="translate(-300.248 -132.27)" fill="#455a64"/></g><g transform="translate(7.151 1.827)"><path d="M317.348,130.176a3.114,3.114,0,0,1-.4.6,14.773,14.773,0,0,1-1.3,1.482,17.039,17.039,0,0,1-11.694,5.01,14.736,14.736,0,0,1-1.967-.082,3.055,3.055,0,0,1-.712-.123c0-.054,1.025.082,2.671,0a18.017,18.017,0,0,0,11.558-4.951C316.7,130.975,317.306,130.142,317.348,130.176Z" transform="translate(-301.275 -130.175)" fill="#455a64"/></g><g transform="translate(25.054 2.472)"><path d="M343.714,136.085a1.446,1.446,0,0,1-.467.02A10.807,10.807,0,0,1,341.98,136a13.971,13.971,0,0,1-4.019-1.2,17.2,17.2,0,0,1-3.525-2.273c-.412-.344-.735-.634-.947-.845s-.325-.333-.312-.348a14.776,14.776,0,0,1,1.387,1.031,20.965,20.965,0,0,0,3.522,2.171,16.247,16.247,0,0,0,3.927,1.264C343.057,135.985,343.718,136.035,343.714,136.085Z" transform="translate(-333.176 -131.324)" fill="#455a64"/></g><g transform="translate(3.286 8.01)"><path d="M296.033,156.93a3.863,3.863,0,0,1,.135-.665,5.545,5.545,0,0,0,.139-1.8,3.461,3.461,0,0,0-.359-1.178c-.2-.4-.475-.8-.75-1.247a5.309,5.309,0,0,1-.777-3.3,3.557,3.557,0,0,1,.677-1.657c.336-.467.7-.863,1-1.277a16.305,16.305,0,0,0,1.39-2.336c.346-.7.6-1.272.791-1.667a3.117,3.117,0,0,1,.313-.6,2.98,2.98,0,0,1-.208.648c-.154.41-.384,1-.709,1.713a14.861,14.861,0,0,1-1.358,2.4c-.595.854-1.491,1.64-1.6,2.815a5.145,5.145,0,0,0,.72,3.127,14.655,14.655,0,0,1,.736,1.277,3.579,3.579,0,0,1,.347,1.262,5.064,5.064,0,0,1-.235,1.854A2.484,2.484,0,0,1,296.033,156.93Z" transform="translate(-294.387 -141.194)" fill="#455a64"/></g></g><g transform="translate(36.999 51.531)"><g transform="translate(1.241 15.04)"><path d="M359.853,245.547l-7.993,5.183-.727,8.078s2.352,1.1,5.8-2.039,7.945-9.5,7.945-9.5Z" transform="translate(-351.132 -245.547)" fill="#ffbe9d"/></g><g transform="translate(0 5.073)"><path d="M358.527,241.07l-2.62-13.284-6.987,2.767,1.786,17.5Z" transform="translate(-348.921 -227.786)" fill="#ffbe9d"/></g><g transform="translate(6.458)"><path d="M382.514,220.288a.858.858,0,0,0-.644-.548l-5.023-.97a1.579,1.579,0,0,0-1.251.314l-15.168,11.932.621.689,5.363,1.635,16.19-12.814Z" transform="translate(-360.428 -218.746)" fill="#263238"/><g transform="translate(17.987 1.919)"><path d="M392.508,222.624a.361.361,0,1,0,.17-.4A.313.313,0,0,0,392.508,222.624Z" transform="translate(-392.481 -222.166)" fill="#fff"/></g><g transform="translate(0.951 0.551)"><path d="M383.346,220.957a6.252,6.252,0,0,1-.99-.132l-2.677-.47-1.846-.339a1.052,1.052,0,0,0-.89.185l-.867.688-3.877,3.058c-2.757,2.164-5.263,4.109-7.085,5.505l-2.169,1.641a6.286,6.286,0,0,1-.821.569,6.192,6.192,0,0,1,.747-.663l2.109-1.717c1.79-1.439,4.274-3.411,7.031-5.575l3.892-3.04.879-.681a1.311,1.311,0,0,1,1.093-.221l1.841.377,2.662.566A6.205,6.205,0,0,1,383.346,220.957Z" transform="translate(-362.123 -219.729)" fill="#455a64"/></g></g><g transform="translate(8.529 5.429)"><path d="M377.038,228.439s-.4-.222-1.033.868-2.526,4.191-2.526,4.191l-1.837-1.952-2.928-.587s-.8.357-.46.816a10.5,10.5,0,0,0,2.01,1.378l.668,2.323-3.137-3.083s-1.362-.1-1.255.79a25.689,25.689,0,0,0,1.825,4.137l-1.831-.781-1.774-2.116s-.7-.2-.639.469a22.108,22.108,0,0,0,1.665,3.57l2.354,2.324s1.579.4,1.88,0a5.6,5.6,0,0,0,.557-1.033s.892.057,1.178-.287a2.591,2.591,0,0,0,.4-1s1.206.661,1.608,0a8.6,8.6,0,0,0,.8-2.708c.057-.594,2.468-5.473,2.468-5.645S377.957,228.374,377.038,228.439Z" transform="translate(-364.119 -228.421)" fill="#ffbe9d"/><g transform="translate(1.542 9.609)"><path d="M371.324,248.342a1.628,1.628,0,0,1-.813-.021,5.249,5.249,0,0,1-3.267-2.052c-.292-.412-.4-.705-.371-.723a7.482,7.482,0,0,0,4.451,2.8Z" transform="translate(-366.868 -245.543)" fill="#eb996e"/></g><g transform="translate(4.282 8.954)"><path d="M373.143,246.592c-.066.051-.476-.381-.861-1s-.591-1.177-.517-1.214.4.447.776,1.053S373.211,246.541,373.143,246.592Z" transform="translate(-371.75 -244.376)" fill="#eb996e"/></g><g transform="translate(6.746 7.002)"><path d="M377.377,243.139c-.065.051-.474-.373-.816-1.006a2.22,2.22,0,0,1-.4-1.232c.081-.029.335.478.668,1.087S377.446,243.086,377.377,243.139Z" transform="translate(-376.139 -240.899)" fill="#eb996e"/></g><g transform="translate(9.283 5.126)"><path d="M381.586,240.242a66.968,66.968,0,0,0-.913-2.684,3.3,3.3,0,0,1,.913,2.684Z" transform="translate(-380.662 -237.556)" fill="#eb996e"/></g></g></g><g transform="translate(34.074 37.984)"><path d="M343.709,194.6s4.741,2.124,6.372,4.809,6.042,18.049,6.042,18.049l-6.207,1.229Z" transform="translate(-343.709 -194.605)" fill="#80cab6"/></g><g transform="translate(0 35.862)"><g transform="translate(15.685)"><path d="M326.146,191.993l-15.206-1.17L312.9,199.2l13.619,4.54,1.807-3.057Z" transform="translate(-310.94 -190.824)" fill="#ffbe9d"/></g><g transform="translate(0 0)"><g transform="translate(0.285)"><path d="M323.764,210.09c-1.224-4.218-6.477-17.144-6.477-17.144l-4.043-1.209s0,4.217-1.492,4.489-8.68.318-12.206-4.232l-.648-1.169-10.038,6.429h0c-1.668,1.027-4.136,3.43-4.493,8.34-.325,4.482-.869,16.371-.869,16.371l9.805-.344.8,4.387-.68,5.17s-1.361,7.312-.544,8.418a3.368,3.368,0,0,0,2.177,1.242l26.4-2.04.874-14.529S324.988,214.308,323.764,210.09Z" transform="translate(-283.497 -190.824)" fill="#80cab6"/></g><g transform="translate(1.802 28.434)"><path d="M286.59,244.2s-.941,9.085.105,13.254c1.083,4.312,3.218,4.248,5.02,4.377S321.9,247.085,321.9,247.085l-3.15-5.592-21.367,6.436.2-4.171Z" transform="translate(-286.201 -241.493)" fill="#ffbe9d"/></g><g transform="translate(34.17 20.989)"><g transform="translate(0 0.129)"><path d="M343.881,235.939,349,229.525l4.623-1.071,5.637.62a1.146,1.146,0,0,1-.676,1.3l1.973.113a1.122,1.122,0,0,1-.733,1.466l1.409.247a2.026,2.026,0,0,1-2.2,1.162,30.656,30.656,0,0,0-4.171-.282L352.1,234.6l4.116-.169,2.988.563s.395.764-.282.946a19.162,19.162,0,0,1-3.269,0l-3.946,1.027a15.562,15.562,0,0,1-1.353,3.1c-.507.564-3.326,1.3-3.326,1.3Z" transform="translate(-343.881 -228.454)" fill="#ffbe9d"/><g transform="translate(6.421 1.171)"><path d="M365.582,231.4a7.619,7.619,0,0,1-1.533-.057c-.943-.074-2.244-.2-3.677-.352L359,230.837l.057-.005c-1.067.3-1.994.551-2.657.717a4.651,4.651,0,0,1-1.071.214,4.638,4.638,0,0,1,1.019-.393c.649-.215,1.565-.5,2.627-.82l.027-.008.03,0,1.378.143c1.434.154,2.731.311,3.668.441A7.679,7.679,0,0,1,365.582,231.4Z" transform="translate(-355.324 -230.541)" fill="#eb996e"/></g><g transform="translate(7.849 2.657)"><path d="M367.039,234.215a6.319,6.319,0,0,1-1.389-.094c-.853-.1-2.028-.252-3.323-.442l-1.289-.195.076-.009a23.5,23.5,0,0,1-3.245,1.142A23.7,23.7,0,0,1,361,233.2l.036-.015.04.006,1.291.183c1.295.19,2.465.378,3.309.53A6.354,6.354,0,0,1,367.039,234.215Z" transform="translate(-357.868 -233.189)" fill="#eb996e"/></g></g><path d="M347.031,241.263a3.418,3.418,0,0,1,.451-.153c.3-.1.739-.233,1.3-.436.28-.1.592-.222.919-.377a3.108,3.108,0,0,0,.486-.278,1.382,1.382,0,0,0,.35-.469,19.982,19.982,0,0,0,1.077-2.716l.017-.05.052-.014,3.941-1.047.019,0h.02c.672.04,1.384.072,2.12.072a5.826,5.826,0,0,0,1.1-.077.359.359,0,0,0,.3-.275.862.862,0,0,0-.092-.484l.094.07-2.989-.556.032,0-4.115.176-.631.027.554-.306,2.76-1.524.035-.019h.039c1.043.008,2.143.044,3.26.156.307.033.613.072.918.124a2.013,2.013,0,0,0,.836-.021,1.948,1.948,0,0,0,1.217-1.047l.113.208L359.8,232l-.519-.091.489-.2a1.128,1.128,0,0,0,.611-.508,1.012,1.012,0,0,0,.039-.765l.13.094-1.973-.116-.539-.032.482-.243a1.146,1.146,0,0,0,.511-.472,1,1,0,0,0,.093-.658l.122.1-5.635-.635.043,0-4.627,1.051.059-.036L345.3,234.16l-1.038,1.255-.276.321a.545.545,0,0,1-.1.1.525.525,0,0,1,.078-.122l.252-.34.994-1.29,3.716-4.729.022-.029.036-.009,4.618-1.091.02-.005.022,0,5.639.6.1.011.02.094a1.274,1.274,0,0,1-.113.865,1.437,1.437,0,0,1-.636.6l-.057-.275,1.973.11.1.005.03.089a1.3,1.3,0,0,1-.049,1.006,1.427,1.427,0,0,1-.767.653l-.03-.287,1.41.246.2.035-.085.174a2.243,2.243,0,0,1-1.418,1.222,2.318,2.318,0,0,1-.966.027c-.3-.05-.595-.089-.9-.121-1.1-.11-2.2-.147-3.228-.156l.073-.019-2.764,1.519-.077-.278,4.115-.163h.017l.016,0,2.986.571.068.013.026.058a1.1,1.1,0,0,1,.114.659.628.628,0,0,1-.495.478,5.907,5.907,0,0,1-1.161.078c-.747,0-1.459-.042-2.138-.089l.039,0-3.951,1.007.068-.065a19.476,19.476,0,0,1-1.13,2.728,1.512,1.512,0,0,1-.4.509,3.169,3.169,0,0,1-.515.282c-.338.152-.655.263-.94.36-.571.188-1.019.309-1.322.387l-.346.082A.388.388,0,0,1,347.031,241.263Z" transform="translate(-343.88 -228.225)" fill="#eb996e"/></g><g transform="translate(0 8.074)"><path d="M282.99,228.28a1.121,1.121,0,0,1,.276-.035l.8-.052,2.989-.143,10.241-.392-.143.143c.038-1.435.013-2.966-.067-4.539-.13-2.6-.356-5.072-.5-7.327-.079-1.129-.111-2.2-.2-3.2a18.9,18.9,0,0,0-.425-2.74,10.365,10.365,0,0,0-1.6-3.652c-.556-.77-.969-1.11-.946-1.132a1.585,1.585,0,0,1,.3.243,6.645,6.645,0,0,1,.742.819,10.014,10.014,0,0,1,1.713,3.671,18.469,18.469,0,0,1,.467,2.769c.1,1.005.144,2.077.23,3.2.16,2.25.4,4.723.526,7.332.081,1.579.1,3.118.059,4.564l0,.139-.139,0-10.244.286-2.992.056-.8,0A1.111,1.111,0,0,1,282.99,228.28Z" transform="translate(-282.99 -205.212)" fill="#263238"/></g></g></g><g transform="translate(4.365 83.836)"><g transform="translate(54.195 83.046)"><path d="M401.132,424.3l10.092,24.06L401.042,453.3l-13.7-23.409Z" transform="translate(-387.342 -424.297)" fill="#ffbe9d"/><g transform="translate(11.739 20.85)"><path d="M419.16,461.452l.339.672s13.707-1.114,14.91.992l-22.73,11.2-3.418-7.716A14.5,14.5,0,0,0,419.16,461.452Z" transform="translate(-408.261 -461.452)" fill="#455a64"/><g transform="translate(3.166 6.204)" opacity="0.6"><path d="M414.23,472.737a1.035,1.035,0,0,0-.12,1.375.994.994,0,0,0,1.363.131,1.091,1.091,0,0,0,.12-1.457,1.032,1.032,0,0,0-1.433.021" transform="translate(-413.903 -472.508)" fill="#fff"/></g><g transform="translate(2.596 0.952)" opacity="0.6"><path d="M413.709,475.062l-.822-1.856,22.086-10.056s1.228-.058,1.466.711Z" transform="translate(-412.887 -463.148)" fill="#fff"/></g><g transform="translate(9.823 0.667)"><path d="M427.291,462.67c.051.113-.479.437-.849,1.063-.387.616-.432,1.236-.555,1.242-.113.029-.274-.716.187-1.466S427.265,462.556,427.291,462.67Z" transform="translate(-425.765 -462.64)" fill="#263238"/></g><g transform="translate(13.291 0.49)"><path d="M432.873,462.343c.078.095-.31.52-.455,1.176-.165.651-.01,1.205-.123,1.255-.1.069-.493-.543-.3-1.354S432.818,462.238,432.873,462.343Z" transform="translate(-431.945 -462.326)" fill="#263238"/></g><g transform="translate(16.447 0.357)"><path d="M438.1,464.425c-.089.073-.517-.405-.531-1.153s.386-1.246.478-1.177-.069.553-.048,1.167S438.206,464.36,438.1,464.425Z" transform="translate(-437.569 -462.089)" fill="#263238"/></g></g></g><g transform="translate(47.821 51.321)"><path d="M375.984,389.461l9.128,25.449,16.19-7.788-16.607-39.357Z" transform="translate(-375.984 -367.764)" fill="#263238"/></g><g transform="translate(27.16 70.657)"><path d="M364.278,409.081l-14.364,33.182-10.746-3.556,10.669-36.486Z" transform="translate(-339.168 -402.221)" fill="#ffbe9d"/></g><g transform="translate(24.92 103.623)"><path d="M349.507,464.874l-.226.718s10.6,8.758,10,11.106l-24.1-7.818,2.929-7.914A14.5,14.5,0,0,0,349.507,464.874Z" transform="translate(-335.175 -460.966)" fill="#455a64"/><g transform="translate(3.49 3.347)" opacity="0.6"><path d="M342.442,466.939a1.035,1.035,0,0,0-1.045.9.994.994,0,0,0,.886,1.043,1.091,1.091,0,0,0,1.1-.961c-.012-.508-.542-1.074-1.042-.984" transform="translate(-341.394 -466.931)" fill="#fff"/></g><g transform="translate(0 6.011)" opacity="0.6"><path d="M335.175,473.581l.7-1.9,22.844,8.19s.922.815.556,1.531Z" transform="translate(-335.175 -471.677)" fill="#fff"/></g><g transform="translate(11.541 4.403)"><path d="M358.368,469.13c-.042.116-.648-.021-1.35.169-.707.172-1.171.585-1.264.5-.1-.058.3-.7,1.157-.921S358.429,469.03,358.368,469.13Z" transform="translate(-355.74 -468.812)" fill="#263238"/></g><g transform="translate(14.213 6.456)"><path d="M362.647,472.6c-.01.123-.585.158-1.146.526-.572.351-.847.857-.963.814-.117-.018.025-.733.732-1.178S362.682,472.488,362.647,472.6Z" transform="translate(-360.502 -472.471)" fill="#263238"/></g><g transform="translate(16.757 8.324)"><path d="M365.091,477.554c-.115-.01-.088-.651.423-1.2s1.145-.625,1.163-.51c.035.118-.434.348-.847.8S365.212,477.58,365.091,477.554Z" transform="translate(-365.035 -475.8)" fill="#263238"/></g></g><g transform="translate(0 0.424)"><path d="M322.136,289.671a6.014,6.014,0,0,0-2.823-2.51l-.157-10.093-20.91,1.616s-7.477,10.2-7.477,14.28,0,12.227,9.019,18.1L320.725,296.1S323.234,291.554,322.136,289.671Z" transform="translate(-290.769 -277.069)" fill="#263238"/></g><g transform="translate(23.541)"><path d="M357,315.371l-18.112-18.407-6.168-19.853,10.334-.8,1.264,10.753" transform="translate(-332.718 -276.313)" fill="#263238"/></g><g transform="translate(8.059 1.637)"><path d="M313.676,279.23a2.446,2.446,0,0,1,.172.638,12.632,12.632,0,0,1,.221,1.789,10.682,10.682,0,0,1-.194,2.676,8.132,8.132,0,0,1-1.291,3.029,6.341,6.341,0,0,1-2.507,2.138,5.516,5.516,0,0,1-2.649.481,4.579,4.579,0,0,1-1.75-.477,2.987,2.987,0,0,1-.419-.26c-.091-.067-.135-.106-.129-.114a5.793,5.793,0,0,0,2.31.636,5.482,5.482,0,0,0,2.519-.521,6.227,6.227,0,0,0,2.377-2.058,9.3,9.3,0,0,0,1.518-5.521C313.82,280.161,313.621,279.238,313.676,279.23Z" transform="translate(-305.129 -279.23)" fill="#263238"/></g><g transform="translate(23.279 8.925)"><path d="M340.258,292.222a3.769,3.769,0,0,1-.992.768,11.2,11.2,0,0,1-5.766,1.671,3.743,3.743,0,0,1-1.249-.118,15.627,15.627,0,0,0,8.007-2.321Z" transform="translate(-332.251 -292.217)" fill="#455a64"/></g><g transform="translate(29.334 1.684)"><path d="M343.834,279.35c-.016-.029.361-.131.814.211a1.077,1.077,0,0,1,.416.867,1.12,1.12,0,0,1-.64,1,1.045,1.045,0,0,1-1.158-.264.851.851,0,0,1-.133-.959.832.832,0,0,1,.471-.438c.148-.047.234-.024.235-.006.018.043-.345.089-.507.528a.633.633,0,0,0,.139.683.785.785,0,0,0,.832.176.865.865,0,0,0,.481-.728.891.891,0,0,0-.278-.694C344.167,279.4,343.825,279.4,343.834,279.35Z" transform="translate(-343.041 -279.313)" fill="#455a64"/></g><g transform="translate(33.246 11.042)"><path d="M350.057,299.455a3.932,3.932,0,0,1,1.685-3.46c.063.066-.562.686-1.02,1.643S350.148,299.464,350.057,299.455Z" transform="translate(-350.013 -295.99)" fill="#455a64"/></g><g transform="translate(40.09 43.643)"><path d="M374.033,354.085c.056.063-2.547,2.456-5.812,5.344s-5.958,5.18-6.014,5.117,2.545-2.456,5.812-5.345S373.977,354.022,374.033,354.085Z" transform="translate(-362.207 -354.084)" fill="#455a64"/></g><g transform="translate(45.285 44.661)"><path d="M377.595,355.9a4.99,4.99,0,0,1-.681,1.15,23.849,23.849,0,0,1-4.357,4.732,4.983,4.983,0,0,1-1.09.773c-.058-.072,1.517-1.357,3.2-3.2S377.518,355.846,377.595,355.9Z" transform="translate(-371.465 -355.897)" fill="#455a64"/></g><g transform="translate(9.019 2.613)"><path d="M315.546,280.97a1.526,1.526,0,0,1-.086.488,7.672,7.672,0,0,1-.44,1.277,10.4,10.4,0,0,1-.97,1.758,11.118,11.118,0,0,1-3.585,3.328,10.448,10.448,0,0,1-1.826.837,7.715,7.715,0,0,1-1.306.344,1.551,1.551,0,0,1-.493.049c-.011-.056.681-.183,1.724-.6a11.857,11.857,0,0,0,1.757-.877,11.892,11.892,0,0,0,3.5-3.248,11.848,11.848,0,0,0,1-1.686C315.313,281.635,315.492,280.954,315.546,280.97Z" transform="translate(-306.84 -280.97)" fill="#455a64"/></g><g transform="translate(9.019 19.553)"><path d="M306.84,326.026l29.69,25.748-9.375,34.836,18.053,5.423S356.571,352.371,357,345.709s-3.958-8.341-5.939-11.017-23.871-23.536-23.871-23.536l-20.349,14.87" transform="translate(-306.84 -311.156)" fill="#263238"/></g><g transform="translate(21.379 15.532)"><path d="M328.865,304a4.026,4.026,0,0,1,1.039.078,10.611,10.611,0,0,1,2.806,1.029,14.835,14.835,0,0,1,3.851,2.737l4.511,4.337,11.695,11.337,6.863,6.74c1.183,1.177,2.388,2.372,3.588,3.612a11.511,11.511,0,0,1,2.833,4.424,12.168,12.168,0,0,1,.578,2.6,15.855,15.855,0,0,1,.022,2.626,31.373,31.373,0,0,1-.954,5.017l-2.434,9.309-4.2,15.739-2.866,10.6-.795,2.878-.214.747c-.049.168-.083.251-.083.251s.013-.089.054-.259l.186-.754.742-2.892,2.776-10.625L363,357.776c.77-2.968,1.579-6.081,2.417-9.31a31.289,31.289,0,0,0,.942-4.97,15.571,15.571,0,0,0-.023-2.572,11.907,11.907,0,0,0-.564-2.537,11.226,11.226,0,0,0-2.767-4.318c-1.194-1.237-2.4-2.433-3.579-3.611l-6.849-6.751-11.651-11.381-4.48-4.368a14.926,14.926,0,0,0-3.79-2.754,11.017,11.017,0,0,0-2.764-1.072,6.218,6.218,0,0,0-.764-.112C328.954,304.009,328.865,304,328.865,304Z" transform="translate(-328.865 -303.99)" fill="#455a64"/></g></g></g></g></g></svg>