<svg xmlns="http://www.w3.org/2000/svg" width="185.458" height="253.692" viewBox="0 0 185.458 253.692"><g transform="translate(5454.345 7587.949)"><g transform="translate(-5454.345 -7587.949)"><g transform="translate(0 13.742)"><g transform="translate(0.158 0.157)"><rect width="162.337" height="224.413" rx="10.737" fill="#e0e0e0"/></g><path d="M273.618,298s.169-.013.5-.032a7.3,7.3,0,0,0,1.461-.276,6.824,6.824,0,0,0,2.145-1.134,6.419,6.419,0,0,0,1.969-2.641,5.939,5.939,0,0,0,.426-1.931c.038-.7.009-1.439.016-2.213q0-2.325-.007-5.081c0-3.673-.009-7.91-.015-12.68-.012-19.082-.029-46.691-.05-80.805-.005-17.058-.012-35.743-.019-55.8q0-15.043-.008-31.086,0-8.013,0-16.256-.006-4.118-.012-8.291A6.167,6.167,0,0,0,278.576,76a6.5,6.5,0,0,0-3.538-2.124,9.286,9.286,0,0,0-2.13-.159H257.5l-17.985,0-37.1,0-78.007,0a6.512,6.512,0,0,0-4.427,1.721,6.143,6.143,0,0,0-1.977,4.206c-.032,3.219-.009,6.455-.016,9.665q0,9.641,0,19.151,0,19.016,0,37.443c0,24.548-.006,48.226-.009,70.783s-.01,43.991-.015,64.05q0,3.761,0,7.457c.006,1.23-.015,2.464.013,3.674a6.1,6.1,0,0,0,1.164,3.338,6.475,6.475,0,0,0,2.8,2.185,7.064,7.064,0,0,0,1.744.435c.594.051,1.208.039,1.818.04l7.242,0,27.49.01,82.959.048,22.555.029,5.865.015c1.322.005,2,.015,2,.015s-.677.011-2,.016l-5.865.015-22.555.029-82.959.049-27.49.01-7.242,0c-.608,0-1.218.012-1.845-.041a7.282,7.282,0,0,1-1.812-.45,6.727,6.727,0,0,1-2.912-2.268,6.344,6.344,0,0,1-1.212-3.468c-.029-1.231-.009-2.45-.015-3.684q0-3.7,0-7.457c0-20.06-.009-41.494-.014-64.05s-.006-46.235-.009-70.783q0-18.411,0-37.443,0-9.508,0-19.151c.007-3.217-.017-6.431.016-9.68a6.446,6.446,0,0,1,2.074-4.412,6.83,6.83,0,0,1,4.643-1.806l78.007,0,37.1,0,17.985,0h15.4a9.582,9.582,0,0,1,2.193.167,6.8,6.8,0,0,1,3.7,2.221,6.441,6.441,0,0,1,1.511,3.937q0,4.177.009,8.3,0,8.241,0,16.256,0,16.027-.008,31.086c-.007,20.059-.013,38.743-.019,55.8-.021,34.114-.038,61.723-.05,80.805-.006,4.77-.01,9.007-.015,12.68q0,2.754-.007,5.081c-.01.776.017,1.512-.023,2.217a6.009,6.009,0,0,1-.437,1.95,6.471,6.471,0,0,1-2,2.655,6.816,6.816,0,0,1-2.166,1.127,7.031,7.031,0,0,1-1.47.262C273.787,298,273.618,298,273.618,298Z" transform="translate(-117.681 -73.427)" fill="#263238"/><g transform="translate(14.321 175.941)" opacity="0.3"><path d="M142.365,414.2l136.125-.744,1.56-26.3-4.171-15.862L141.128,392.35Z" transform="translate(-141.128 -371.295)"/></g><g transform="translate(121.894 0.627)" opacity="0.3"><path d="M317.637,74.454l3.1,9.182v4.5h-3.491Z" transform="translate(-317.242 -74.454)"/></g><g transform="translate(7.126 9.431)"><g transform="translate(0.145 0.129)"><path d="M129.584,89.077V294.735H277.44V89.077Z" transform="translate(-129.584 -89.077)" fill="#fff"/></g><path d="M129.492,88.992l147.856-.125h.128v.125c.009,57.156.02,128.483.031,205.648v.172h-.159L129.492,294.8h-.145v-.141c.086-121.432.144-204.413.145-205.665,0,1.252.059,84.233.145,205.665l-.145-.141,147.856-.014-.159.154v-.017c.012-77.165.022-148.492.031-205.648l.128.125Z" transform="translate(-129.347 -88.867)" fill="#263238"/></g></g><g transform="translate(47.478)"><g transform="translate(0 8.16)"><path d="M6.326,0h62.16a6.326,6.326,0,0,1,6.326,6.326V21.7a0,0,0,0,1,0,0H0a0,0,0,0,1,0,0V6.326A6.326,6.326,0,0,1,6.326,0Z" fill="#263238"/></g><g transform="translate(27.885)"><path d="M260.1,50.928H241.063l2.225,16.321h14.342Z" transform="translate(-241.063 -50.928)" fill="#263238"/></g><g transform="translate(4.806 8.003)"><path d="M268.478,64.188c0,.087-14.6.157-32.6.157s-32.6-.07-32.6-.157,14.594-.157,32.6-.157S268.478,64.1,268.478,64.188Z" transform="translate(-203.279 -64.031)" fill="#455a64"/></g><g transform="translate(1.517 12.648)"><path d="M198.052,85.346c-.087,0-.157-3.069-.157-6.855s.07-6.855.157-6.855.157,3.068.157,6.855S198.139,85.346,198.052,85.346Z" transform="translate(-197.895 -71.636)" fill="#455a64"/></g><g transform="translate(72.232 12.287)"><path d="M313.824,83.492a61.811,61.811,0,0,1-.157-6.224,61.8,61.8,0,0,1,.157-6.224,61.8,61.8,0,0,1,.157,6.224A61.811,61.811,0,0,1,313.824,83.492Z" transform="translate(-313.667 -71.045)" fill="#455a64"/></g><g transform="translate(1.855 27.464)"><path d="M265.374,96.048c0,.087-14.983.158-33.461.158s-33.465-.07-33.465-.158,14.98-.156,33.465-.156S265.374,95.962,265.374,96.048Z" transform="translate(-198.447 -95.892)" fill="#455a64"/></g></g><g transform="translate(52.099 40.259)"><g transform="translate(38.608 8.722)"><path d="M274.7,138.1c0,3.566-2.136,5.555-5.261,5.555a5.509,5.509,0,0,1-2.858-.707l.884-1.753a3.338,3.338,0,0,0,1.93.516c1.71,0,2.829-1.017,2.9-3.006a3.523,3.523,0,0,1-2.564.928,3.272,3.272,0,0,1-3.552-3.212c0-2.107,1.724-3.433,3.9-3.433C272.945,132.99,274.7,134.774,274.7,138.1Zm-2.667-1.8c0-.884-.663-1.532-1.8-1.532a1.551,1.551,0,1,0,.03,3.08A1.6,1.6,0,0,0,272.032,136.305Z" transform="translate(-266.182 -132.99)" fill="#0540b7"/><path d="M282.011,138.325c0-3.4,1.886-5.335,4.421-5.335s4.42,1.931,4.42,5.335-1.872,5.334-4.42,5.334S282.011,141.728,282.011,138.325Zm6.44,0c0-2.343-.825-3.316-2.019-3.316s-2,.973-2,3.316.825,3.315,2,3.315S288.451,140.667,288.451,138.325Z" transform="translate(-272.342 -132.99)" fill="#0540b7"/><path d="M298.395,138.325c0-3.4,1.886-5.335,4.42-5.335,2.55,0,4.421,1.931,4.421,5.335s-1.872,5.334-4.421,5.334C300.281,143.658,298.395,141.728,298.395,138.325Zm6.44,0c0-2.343-.825-3.316-2.019-3.316-1.178,0-2,.973-2,3.316s.825,3.315,2,3.315C304.01,141.64,304.835,140.667,304.835,138.325Z" transform="translate(-278.719 -132.99)" fill="#0540b7"/><path d="M318.313,133.28v10.315h-2.387v-8.4h-2.063V133.28Z" transform="translate(-284.739 -133.103)" fill="#0540b7"/></g><path d="M279.6,145.857H202.975V118.711H279.6Zm-76.015-.611h75.4V119.322h-75.4Z" transform="translate(-202.975 -118.711)" fill="#0540b7"/><g transform="translate(0.305 0.305)"><rect width="34.387" height="26.536" fill="#0540b7"/></g><g transform="translate(6.285 9.166)"><path d="M213.264,133.995h2.286v9.878h-2.286Z" transform="translate(-213.264 -133.826)" fill="#fff"/><path d="M219.57,142.792l.776-1.722a5.808,5.808,0,0,0,3.26,1.03c1.355,0,1.9-.451,1.9-1.059,0-1.848-5.743-.578-5.743-4.247,0-1.68,1.355-3.077,4.163-3.077a6.622,6.622,0,0,1,3.429.875l-.705,1.735a5.585,5.585,0,0,0-2.738-.776c-1.355,0-1.877.508-1.877,1.129,0,1.82,5.743.564,5.743,4.191,0,1.651-1.369,3.062-4.191,3.062A7.038,7.038,0,0,1,219.57,142.792Z" transform="translate(-215.718 -133.718)" fill="#fff"/><path d="M234.561,138.826a5.413,5.413,0,1,1,5.4,5.108A5.112,5.112,0,0,1,234.561,138.826Zm8.5,0a3.091,3.091,0,1,0-3.091,3.161A3.013,3.013,0,0,0,243.056,138.826Z" transform="translate(-221.553 -133.718)" fill="#fff"/></g></g><g transform="translate(23.692 91.746)"><path d="M201.63,205.076c0,.087-10.111.159-22.58.159s-22.582-.071-22.582-.159,10.108-.159,22.582-.159S201.63,204.988,201.63,205.076Z" transform="translate(-156.468 -204.917)" fill="#263238"/></g><g transform="translate(24.456 99.456)"><path d="M275.613,218.016c0,.088-26.394.159-58.944.159s-58.949-.071-58.949-.159,26.388-.159,58.949-.159S275.613,217.928,275.613,218.016Z" transform="translate(-157.72 -217.857)" fill="#263238"/></g><g transform="translate(24.456 106.551)"><path d="M275.613,229.925c0,.088-26.394.159-58.944.159s-58.949-.071-58.949-.159,26.388-.159,58.949-.159S275.613,229.837,275.613,229.925Z" transform="translate(-157.72 -229.766)" fill="#263238"/></g><g transform="translate(24.456 113.646)"><path d="M275.613,241.833c0,.088-26.394.159-58.944.159s-58.949-.071-58.949-.159,26.388-.159,58.949-.159S275.613,241.745,275.613,241.833Z" transform="translate(-157.72 -241.674)" fill="#263238"/></g><g transform="translate(24.456 120.741)"><path d="M275.613,253.742c0,.088-26.394.159-58.944.159s-58.949-.071-58.949-.159,26.388-.159,58.949-.159S275.613,253.654,275.613,253.742Z" transform="translate(-157.72 -253.583)" fill="#263238"/></g><g transform="translate(24.456 127.837)"><path d="M275.613,265.651c0,.088-26.394.159-58.944.159s-58.949-.071-58.949-.159,26.388-.159,58.949-.159S275.613,265.563,275.613,265.651Z" transform="translate(-157.72 -265.492)" fill="#263238"/></g><g transform="translate(26.182 138.274)"><path d="M173.5,296.258a1.755,1.755,0,0,1-.015-.25c0-.182-.009-.412-.016-.7-.009-.633-.021-1.509-.036-2.609-.017-2.254-.042-5.421-.07-9.209l.137.138-12.762.021c-.036.034.3-.3.158-.157v3.441c0,1.126,0,2.228,0,3.3-.006,2.142-.011,4.163-.016,6.021l-.137-.137,9.209.07,2.609.036.7.016a1.665,1.665,0,0,1,.249.016,1.067,1.067,0,0,1-.219.015l-.669.016-2.578.036-9.3.07H160.6v-.139c0-1.857-.01-3.879-.016-6.021,0-1.072,0-2.174,0-3.3q0-.845,0-1.707V283.5c-.142.141.194-.2.161-.161l12.762.021h.139v.137c-.029,3.825-.053,7.022-.07,9.3-.015,1.087-.027,1.952-.036,2.578-.007.274-.012.495-.016.67A1.045,1.045,0,0,1,173.5,296.258Z" transform="translate(-160.546 -283.333)" fill="#263238"/></g><g transform="translate(47.166 141.367)"><rect width="89.029" height="7.427" fill="#e0e0e0"/></g><g transform="translate(26.182 159.84)"><path d="M173.5,332.5a1.731,1.731,0,0,1-.015-.249c0-.182-.009-.412-.016-.7-.009-.632-.021-1.509-.036-2.609-.017-2.254-.042-5.42-.07-9.209l.137.137-12.762.021c-.036.034.3-.3.158-.157v3.441q0,1.69,0,3.3c-.006,2.142-.011,4.163-.016,6.021l-.137-.137,9.209.07,2.609.036.7.016a1.727,1.727,0,0,1,.249.015,1.034,1.034,0,0,1-.219.016l-.669.016-2.578.036-9.3.07H160.6V332.5c0-1.857-.01-3.879-.016-6.021q0-1.608,0-3.3,0-.844,0-1.706v-1.735c-.142.141.194-.2.161-.161l12.762.022h.139v.137c-.029,3.824-.053,7.021-.07,9.3-.015,1.087-.027,1.953-.036,2.578-.007.274-.012.5-.016.67A1.032,1.032,0,0,1,173.5,332.5Z" transform="translate(-160.546 -319.579)" fill="#263238"/></g><g transform="translate(47.166 162.947)"><rect width="89.029" height="7.427" fill="#e0e0e0"/></g><g transform="translate(26.182 181.405)"><path d="M173.5,368.751a1.756,1.756,0,0,1-.015-.25c0-.182-.009-.412-.016-.7-.009-.633-.021-1.509-.036-2.609-.017-2.254-.042-5.421-.07-9.209l.137.138-12.762.021c-.036.034.3-.3.158-.157v3.441c0,1.126,0,2.228,0,3.3-.006,2.142-.011,4.163-.016,6.021l-.137-.137,9.209.07,2.609.036.7.016a1.665,1.665,0,0,1,.249.016,1.069,1.069,0,0,1-.219.015l-.669.016-2.578.036-9.3.07H160.6v-.139c0-1.857-.01-3.879-.016-6.021,0-1.072,0-2.174,0-3.3q0-.845,0-1.707V355.99c-.142.141.194-.2.161-.161l12.762.021h.139v.137c-.029,3.825-.053,7.022-.07,9.3-.015,1.087-.027,1.952-.036,2.578-.007.274-.012.495-.016.67A1.046,1.046,0,0,1,173.5,368.751Z" transform="translate(-160.546 -355.826)" fill="#263238"/></g><g transform="translate(47.166 184.526)"><rect width="89.029" height="7.427" fill="#e0e0e0"/></g><g transform="translate(28.431 139.231)"><path d="M164.227,289.887l1.72-1.72,3.318,2.949,6.512-6.267,1.6,1.72-8.356,7.864Z" transform="translate(-164.227 -284.849)" fill="#0540b7"/></g><g transform="translate(28.431 160.084)"><path d="M164.227,324.921l1.72-1.72,3.318,2.949,6.512-6.267,1.6,1.72-8.356,7.864Z" transform="translate(-164.227 -319.883)" fill="#0540b7"/></g><g transform="translate(28.431 181.464)"><path d="M164.227,360.842l1.72-1.72,3.318,2.949,6.512-6.267,1.6,1.72-8.356,7.864Z" transform="translate(-164.227 -355.804)" fill="#0540b7"/></g><g transform="translate(26.377 208.624)"><path d="M194.511,402.462c0,.088-7.533.159-16.822.159s-16.824-.071-16.824-.159,7.531-.159,16.824-.159S194.511,402.374,194.511,402.462Z" transform="translate(-160.864 -402.303)" fill="#263238"/></g><g transform="translate(64.423 208.365)"><path d="M235.575,402.038a60.675,60.675,0,0,1-6.211.159,60.682,60.682,0,0,1-6.212-.159,61.01,61.01,0,0,1,6.212-.159A61,61,0,0,1,235.575,402.038Z" transform="translate(-223.152 -401.879)" fill="#263238"/></g><g transform="translate(103.161 203.505)"><path d="M316.854,394.081c0,.088-6.779.159-15.14.159s-15.142-.071-15.142-.159,6.778-.159,15.142-.159S316.854,393.993,316.854,394.081Z" transform="translate(-286.572 -393.922)" fill="#263238"/></g><g transform="translate(99.141 208.66)"><path d="M303.058,415.346c-.017-.01.108-.189.273-.558a4.016,4.016,0,0,0,.292-1.732,16.074,16.074,0,0,0-.456-2.78,8.774,8.774,0,0,1-.227-3.761,5.58,5.58,0,0,1,2.769-3.571,5.287,5.287,0,0,1,5.131.18,5.141,5.141,0,0,1,2,2.063,2.468,2.468,0,0,1,.247,1.511,1.326,1.326,0,0,1-1.148,1.059,11.267,11.267,0,0,1-1.54.036l-1.54-.024c-1.035-.025-2.087-.069-3.148-.164a22.8,22.8,0,0,1-6.073-1.317,3.793,3.793,0,0,0-2.759-.159,9.532,9.532,0,0,0-2.088,1.809,2.646,2.646,0,0,1-1.24.693,1.939,1.939,0,0,1-1.372-.246,12.38,12.38,0,0,1-1.886-1.729,2.708,2.708,0,0,0-.955-.627,1.519,1.519,0,0,0-1.049.029,5.936,5.936,0,0,0-1.623,1.366,4.013,4.013,0,0,1-3.532,1.108,3.776,3.776,0,0,1-2.391-1.5,3.877,3.877,0,0,1-.709-1.651,2.437,2.437,0,0,1-.037-.626c.017,0,.016.216.1.614a3.99,3.99,0,0,0,.745,1.589,3.669,3.669,0,0,0,2.321,1.4,3.829,3.829,0,0,0,3.346-1.093,6.006,6.006,0,0,1,1.688-1.432,1.771,1.771,0,0,1,1.222-.044,2.956,2.956,0,0,1,1.052.674,12.525,12.525,0,0,0,1.846,1.68,1.655,1.655,0,0,0,1.177.208,2.37,2.37,0,0,0,1.1-.63,9.52,9.52,0,0,1,2.159-1.868,2.85,2.85,0,0,1,1.505-.213,7.174,7.174,0,0,1,1.476.354,22.632,22.632,0,0,0,6,1.3c1.052.094,2.1.139,3.128.164l1.536.026a11.287,11.287,0,0,0,1.484-.029,1.007,1.007,0,0,0,.9-.814,2.181,2.181,0,0,0-.22-1.319,4.862,4.862,0,0,0-1.875-1.939,5.019,5.019,0,0,0-4.86-.2,5.357,5.357,0,0,0-2.673,3.391,8.7,8.7,0,0,0,.183,3.672,15.341,15.341,0,0,1,.406,2.815,3.889,3.889,0,0,1-.357,1.76A2.8,2.8,0,0,1,303.058,415.346Z" transform="translate(-279.991 -402.363)" fill="#263238"/></g><g transform="translate(99.095 215.423)"><path d="M320.47,413.58a1.986,1.986,0,0,1-.412.029l-1.183.021-4.348.037c-3.672.031-8.742.1-14.341.263s-10.667.39-14.333.573l-4.343.216-1.181.048a.207.207,0,1,1,0-.064l1.178-.107c1.023-.089,2.5-.2,4.338-.318,3.665-.24,8.733-.5,14.337-.666s10.676-.2,14.349-.17c1.837.013,3.322.035,4.349.064l1.183.039A2.028,2.028,0,0,1,320.47,413.58Z" transform="translate(-279.916 -413.434)" fill="#263238"/></g></g><g transform="translate(-5334.021 -7530.082)"><g transform="translate(11.181 85.192)"><g transform="translate(24.796 83.372)"><path d="M399.051,431.455l12.173,11.134L397.449,457.8c-1.373-1.4,2.835-11.919,2.835-11.919l-7.605-7.355Z" transform="translate(-392.679 -431.455)" fill="#455a64"/><g transform="translate(10.853 9.01)"><path d="M410.8,446.325a.839.839,0,0,1,1.1.213.806.806,0,0,1-.2,1.09.884.884,0,0,1-1.162-.231.836.836,0,0,1,.335-1.111" transform="translate(-410.447 -446.206)" fill="#fff"/></g><g transform="translate(4.497 9.958)"><path d="M414.089,448.934l-1.271-1.176L400.13,462.9s-.312.946.236,1.3Z" transform="translate(-400.041 -447.758)" fill="#263238"/></g><g transform="translate(7.291 13.781)"><path d="M404.629,454.844c.077.065.447-.275,1.017-.425s1.058-.061,1.09-.156c.048-.082-.5-.373-1.183-.18S404.546,454.8,404.629,454.844Z" transform="translate(-404.616 -454.017)" fill="#fff"/></g><g transform="translate(6.513 16.362)"><path d="M403.349,458.682c.056.082.474-.125,1.017-.093.544.016.941.26,1,.183.075-.059-.279-.5-.955-.528S403.279,458.616,403.349,458.682Z" transform="translate(-403.342 -458.242)" fill="#fff"/></g><g transform="translate(5.804 18.694)"><path d="M403.986,462.8c.095-.065-.125-.47-.78-.671-.578-.181-1.056.024-1.023.111s.446.069.92.222S403.912,462.871,403.986,462.8Z" transform="translate(-402.181 -462.06)" fill="#fff"/></g><g transform="translate(5.599 11.32)"><path d="M401.879,451.518c.1.031.3-.4.711-.8s.837-.6.809-.7-.578-.022-1.054.449S401.788,451.5,401.879,451.518Z" transform="translate(-401.846 -449.988)" fill="#fff"/></g><g transform="translate(4.022 7.632)"><path d="M399.4,447.171c.03.029.341-.224.686-.765a4.618,4.618,0,0,0,.476-1.019,4.883,4.883,0,0,0,.164-.648,1.255,1.255,0,0,0,.029-.393.436.436,0,0,0-.364-.392.55.55,0,0,0-.465.172,1.351,1.351,0,0,0-.219.321,3.709,3.709,0,0,0-.266.621,3.637,3.637,0,0,0-.175,1.12,1.718,1.718,0,0,0,.213,1.008c.055-.012-.022-.394.033-1a4.1,4.1,0,0,1,.233-1.026,3.829,3.829,0,0,1,.261-.56c.1-.2.227-.338.336-.315.041.01.053.018.07.094a1.043,1.043,0,0,1-.023.288,5.474,5.474,0,0,1-.134.611,5.736,5.736,0,0,1-.384.993A7.047,7.047,0,0,0,399.4,447.171Z" transform="translate(-399.263 -443.95)" fill="#fff"/></g><g transform="translate(1.287 9.063)"><path d="M397.848,448.083c.035-.016-.1-.4-.554-.867a3.336,3.336,0,0,0-.928-.652,3.372,3.372,0,0,0-.638-.225.85.85,0,0,0-.825.138.479.479,0,0,0-.076.511,1.407,1.407,0,0,0,.208.331,2.3,2.3,0,0,0,.513.465,2.368,2.368,0,0,0,1.082.387,1.328,1.328,0,0,0,1.013-.2,8.481,8.481,0,0,1-.977-.045,2.363,2.363,0,0,1-.935-.407,2.11,2.11,0,0,1-.428-.412c-.14-.17-.216-.349-.144-.395a.587.587,0,0,1,.49-.041,3.438,3.438,0,0,1,.584.186,3.683,3.683,0,0,1,.894.541C397.594,447.782,397.8,448.113,397.848,448.083Z" transform="translate(-394.785 -446.293)" fill="#fff"/></g></g><g transform="translate(13.421 94.086)"><g transform="translate(0.006)"><path d="M394.747,449.012l-.155,16.5-20.525-.087c.128-1.961,10.764-5.852,10.764-5.852L384.5,449Z" transform="translate(-374.067 -448.996)" fill="#455a64"/></g><g transform="translate(16.115 9.676)"><path d="M401.445,464.872a.838.838,0,0,1,.575.959.805.805,0,0,1-.946.578.883.883,0,0,1-.6-1.019.836.836,0,0,1,1.05-.493" transform="translate(-400.44 -464.837)" fill="#fff"/></g><g transform="translate(0 14.78)"><path d="M394.59,474.96l.024-1.766-19.74.669s-.913.4-.808,1.043Z" transform="translate(-374.057 -473.194)" fill="#263238"/></g><g transform="translate(10.437 10.376)"><path d="M391.145,466.075c0,.1.5.148,1,.472s.753.747.845.708c.093-.02-.054-.619-.657-1S391.123,465.983,391.145,466.075Z" transform="translate(-391.144 -465.984)" fill="#263238"/></g><g transform="translate(8.28 11.309)"><path d="M387.613,467.551c-.023.1.41.269.749.694s.435.874.534.87c.094.016.166-.57-.265-1.092S387.616,467.455,387.613,467.551Z" transform="translate(-387.613 -467.511)" fill="#263238"/></g><g transform="translate(6.252 12.188)"><path d="M385.088,470.682c.09.022.232-.478-.023-1.029s-.723-.77-.766-.687.246.378.449.833S384.989,470.671,385.088,470.682Z" transform="translate(-384.293 -468.949)" fill="#263238"/></g><g transform="translate(10.625 7.693)"><path d="M391.456,461.947c.042.092.5-.045,1.068,0s1.007.222,1.06.136-.371-.445-1.038-.484S391.407,461.868,391.456,461.947Z" transform="translate(-391.452 -461.591)" fill="#263238"/></g></g><g transform="translate(13.9)"><path d="M394.016,294.962a29.277,29.277,0,0,1,4.288,6.031c1.413,2.951,3.585,9.238,3.585,9.238s2.7,9.6,2.1,14.129-4.649,35.483-4.649,35.483.8,24.541-2.665,35.459l-.639,2.9-11.571-2.054h0L381.9,335.4l-7.061-40.166Z" transform="translate(-374.841 -294.962)" fill="#263238"/></g><g transform="translate(18.263 1.538)"><path d="M382.017,298.531c.049.017.033-.378.446-.666a.854.854,0,0,1,.793-.08.822.822,0,0,1-.027,1.536.855.855,0,0,1-.789-.108c-.4-.3-.373-.7-.423-.681-.016,0-.045.084-.027.244a.946.946,0,0,0,.327.592,1.037,1.037,0,0,0,1,.2,1.069,1.069,0,0,0,.035-2.021,1.038,1.038,0,0,0-1,.162.944.944,0,0,0-.348.581C381.975,298.444,382,298.531,382.017,298.531Z" transform="translate(-381.984 -297.48)" fill="#455a64"/></g><g transform="translate(0 0.232)"><path d="M356.95,303.46s-4.244,38.512-4.854,45.126,23.4,41.885,23.4,41.885L385.621,378.5l-15.454-28.728,5.2-28.615-6.851-25.818-10.653.128Z" transform="translate(-352.084 -295.342)" fill="#263238"/></g><g transform="translate(18.321 21.985)"><path d="M401.263,400.04a7.9,7.9,0,0,1-.082.842c-.071.552-.206,1.364-.4,2.412-.385,2.1-1.009,5.135-1.847,8.932l-.018.079-.08-.014-11.575-2.029-.087-.015,0-.089c-.322-7.942-.707-17.434-1.119-27.614-.427-10.953-.823-21.109-1.148-29.441v.009c-.867-6.693-1.585-12.228-2.087-16.1-.242-1.924-.432-3.435-.564-4.476-.06-.507-.107-.9-.14-1.176s-.037-.4-.037-.4.029.135.07.4l.171,1.172c.145,1.04.354,2.548.622,4.469.523,3.87,1.272,9.4,2.178,16.089v.01c.338,8.332.75,18.487,1.195,29.439.4,10.18.768,19.673,1.078,27.615l-.091-.1,11.566,2.08-.1.065c.86-3.79,1.509-6.824,1.922-8.913.206-1.044.356-1.853.442-2.4.048-.274.075-.483.093-.624S401.263,400.04,401.263,400.04Z" transform="translate(-382.078 -330.955)" fill="#455a64"/></g><g transform="translate(16.155 2.032)"><path d="M382.359,311.919a4.083,4.083,0,0,0-.633.031,2.9,2.9,0,0,1-1.628-.278,1.5,1.5,0,0,1-.654-.876,6.087,6.087,0,0,1-.2-1.325c-.082-.961-.164-2.018-.238-3.128-.148-2.221-.23-4.234-.28-5.693-.024-.685-.045-1.263-.062-1.727a2.865,2.865,0,0,0-.054-.633,2.837,2.837,0,0,0-.053.634c-.015.409-.026,1-.024,1.73,0,1.461.052,3.481.2,5.707.074,1.113.164,2.171.26,3.133a6.053,6.053,0,0,0,.235,1.374,1.7,1.7,0,0,0,.771.971,2.159,2.159,0,0,0,.983.257,4.238,4.238,0,0,0,.753-.039A2.2,2.2,0,0,0,382.359,311.919Z" transform="translate(-378.532 -298.289)" fill="#455a64"/></g><g transform="translate(5.329 2.118)"><path d="M360.81,304.69a4.049,4.049,0,0,0,1.106-.586,11.467,11.467,0,0,0,3.953-4.5,4.027,4.027,0,0,0,.437-1.172,15.513,15.513,0,0,1-5.5,6.26Z" transform="translate(-360.809 -298.429)" fill="#455a64"/></g></g><g transform="translate(9.297)"><g transform="translate(2.107 7.769)"><path d="M361.47,168.208a8.389,8.389,0,0,0-2.579,7.321c.2,1.294.668,2.752-.105,3.809s-2.412,1.14-3.14,2.212c-.857,1.262.067,2.976-.161,4.484a3.02,3.02,0,0,1-3.036,2.476,11.78,11.78,0,0,0,6.014,2.093l1.474-2.214a2.166,2.166,0,0,0,.343,2.638,4.941,4.941,0,0,0,2.543,1.265,14.951,14.951,0,0,0,12.909-3.1" transform="translate(-352.45 -168.208)" fill="#263238"/></g><g transform="translate(9.019)"><path d="M391.2,172.931a30.013,30.013,0,0,1-1.312-2.867c-.636-2.17.253-4.734-.965-6.64-.867-1.357-2.542-1.928-4.111-2.286s-3.246-.636-4.474-1.677c-.9-.764-1.464-1.865-2.361-2.632a7.1,7.1,0,0,0-4.752-1.34,10.072,10.072,0,0,0-4.984,1.2,5.53,5.53,0,0,0-2.818,4.117,16.285,16.285,0,0,1-.108,2.519,17.246,17.246,0,0,1-1.225,2.486,4.432,4.432,0,0,0,1.5,5.215l12.946,14.372c2.55.752,8.476-.829,10.257-2.8S392.208,175.391,391.2,172.931Z" transform="translate(-363.766 -155.489)" fill="#263238"/></g><g transform="translate(10.761 6.138)"><path d="M366.864,172.972c.228-3.5,2.557-7.788,6.043-7.411l10.883,2.777a2.052,2.052,0,0,1,1.831,2.085L384.4,196.678l.076.017s-4.337,10.325-11.534,8.062c-1.427-.449-.222-4.929-.5-6.534l-.123-4.146c-.02-2.12-.018-2.989-.02-2.969,0,0-4.469-.753-5.382-6.589A62.325,62.325,0,0,1,366.864,172.972Z" transform="translate(-366.618 -165.538)" fill="#ffbf9d"/><g transform="translate(0.956 5.896)"><g transform="translate(0 3.222)"><g transform="translate(0.123 2.628)"><path d="M368.386,185.441a.748.748,0,0,0,.72.756.715.715,0,0,0,.773-.672.748.748,0,0,0-.719-.757A.716.716,0,0,0,368.386,185.441Z" transform="translate(-368.385 -184.767)" fill="#263238"/></g><g transform="translate(7.359 2.872)"><path d="M380.232,185.841a.748.748,0,0,0,.72.757.715.715,0,0,0,.773-.673.749.749,0,0,0-.719-.757A.716.716,0,0,0,380.232,185.841Z" transform="translate(-380.231 -185.167)" fill="#263238"/></g><path d="M368.194,181.357c.091.131.751-.359,1.627-.3.876.046,1.476.614,1.581.5.051-.053-.034-.282-.294-.538a1.982,1.982,0,0,0-2.561-.159C368.258,181.082,368.148,181.3,368.194,181.357Z" transform="translate(-368.184 -180.465)" fill="#263238"/><g transform="translate(7.791 0.181)"><path d="M380.953,181.8c.112.118.756-.428,1.691-.457.934-.045,1.635.448,1.733.321.048-.056-.067-.271-.373-.494a2.267,2.267,0,0,0-1.391-.408,2.209,2.209,0,0,0-1.341.516C380.991,181.526,380.9,181.749,380.953,181.8Z" transform="translate(-380.939 -180.762)" fill="#263238"/></g><g transform="translate(3.243 0.219)"><path d="M375.544,187.53a5.308,5.308,0,0,0-1.307-.239c-.206-.022-.4-.064-.434-.2a1.039,1.039,0,0,1,.139-.609l.611-1.564a27.011,27.011,0,0,0,1.375-4.091,26.854,26.854,0,0,0-1.7,3.971q-.307.824-.586,1.573a1.187,1.187,0,0,0-.109.807.518.518,0,0,0,.337.3,1.426,1.426,0,0,0,.349.049A5.237,5.237,0,0,0,375.544,187.53Z" transform="translate(-373.493 -180.823)" fill="#263238"/></g><g transform="translate(4.715 14.385)"><path d="M375.9,206.082a14.841,14.841,0,0,0,7.818-2.066s-1.974,4.09-7.81,3.531Z" transform="translate(-375.903 -204.016)" fill="#ff9a6c"/></g><g transform="translate(5.597 8.607)"><path d="M377.469,194.873a1.45,1.45,0,0,1,1.388-.235,1.324,1.324,0,0,1,.782.682.839.839,0,0,1-.152.95.973.973,0,0,1-1.088.024,3.05,3.05,0,0,1-.866-.828.9.9,0,0,1-.171-.283.268.268,0,0,1,.068-.292" transform="translate(-377.346 -194.557)" fill="#ff9a6c"/></g><g transform="translate(5.09 7.965)"><path d="M379.088,193.5c-.131-.007-.134.866-.884,1.485s-1.679.52-1.686.643c-.012.054.207.17.6.181a2.173,2.173,0,0,0,1.407-.487,1.893,1.893,0,0,0,.685-1.245C379.245,193.717,379.148,193.5,379.088,193.5Z" transform="translate(-376.517 -193.505)" fill="#263238"/></g></g><g transform="translate(7.676 1.674)"><path d="M380.755,178.532c.079.219.883.117,1.828.233.947.1,1.707.375,1.833.179.056-.094-.076-.3-.384-.513a3.207,3.207,0,0,0-2.789-.314C380.9,178.256,380.722,178.428,380.755,178.532Z" transform="translate(-380.751 -177.932)" fill="#263238"/></g><g transform="translate(0.574)"><path d="M369.148,176.021c.161.183.8-.005,1.558-.013.762-.03,1.407.126,1.556-.065.065-.092-.036-.275-.318-.45a2.387,2.387,0,0,0-1.266-.3,2.358,2.358,0,0,0-1.244.365C369.165,175.743,369.076,175.931,369.148,176.021Z" transform="translate(-369.124 -175.191)" fill="#263238"/></g></g></g><g transform="translate(15.115 5.96)"><path d="M388.973,168.884a4.772,4.772,0,0,0-2.534-1.423,53.635,53.635,0,0,0-12.53-2.215,2.177,2.177,0,0,0,.95,2.609,9.686,9.686,0,0,0,2.842,1.025,3.774,3.774,0,0,1,2.44,1.658c.488.96.226,2.159.665,3.141.756,1.691,3.223,2.07,3.968,3.765.564,1.282-.094,2.741-.181,4.139a5,5,0,0,0,5.325,5.317q-.126-7.511-.252-15.022A5,5,0,0,0,388.973,168.884Z" transform="translate(-373.746 -165.247)" fill="#263238"/></g><g transform="translate(25.844 8.538)"><path d="M406.793,182.374c-.84-.647-1.873-1.184-2.262-2.17-.567-1.437.486-3.253-.375-4.536-.784-1.17-2.824-.956-3.562-2.156-.577-.937-.062-1.843-.318-2.685a2.341,2.341,0,0,0-2.389-1.335l-6.073,10.376c-.385,3.358-.891,5.167-.035,7.051a15.761,15.761,0,0,1,1.291,3.14,3.225,3.225,0,0,1-.823,3.133c4.095.015,7.751-2.4,11.123-4.723l3.569-2.459a2.728,2.728,0,0,0,.961-.931C408.381,184.136,407.634,183.021,406.793,182.374Z" transform="translate(-391.311 -169.467)" fill="#263238"/></g><g transform="translate(14.757 2.09)"><path d="M396.334,183.357a1.955,1.955,0,0,1-.429.116,3.716,3.716,0,0,1-1.275,0,3.944,3.944,0,0,1-1.84-.82,3.875,3.875,0,0,1-1.342-2.293,4,4,0,0,1,.017-1.572,6.367,6.367,0,0,1,.643-1.569,6.01,6.01,0,0,0,.663-1.628,2.029,2.029,0,0,0-.346-1.71,3.691,3.691,0,0,0-1.762-.749,1.861,1.861,0,0,1-.916-.578,1.827,1.827,0,0,1-.36-1.047,11.592,11.592,0,0,1,.3-2.155,2.325,2.325,0,0,0-.071-1.04,1.452,1.452,0,0,0-.649-.782,4.077,4.077,0,0,0-2.1-.4,4.421,4.421,0,0,1-2.144-.461,3.965,3.965,0,0,1-1.553-1.449,6.529,6.529,0,0,1-.675-1.912,9.166,9.166,0,0,0-.536-1.8,4.081,4.081,0,0,0-1.065-1.372,4.585,4.585,0,0,0-5.394-.352,5.59,5.59,0,0,0-1.479,1.311,7.456,7.456,0,0,0-.866,1.461.407.407,0,0,1,.031-.108c.026-.07.057-.177.118-.309a5.334,5.334,0,0,1,.643-1.1,5.548,5.548,0,0,1,1.482-1.368,4.791,4.791,0,0,1,2.553-.768,4.868,4.868,0,0,1,3.037,1.082,4.266,4.266,0,0,1,1.129,1.435,9.252,9.252,0,0,1,.56,1.839,6.36,6.36,0,0,0,.657,1.845,3.735,3.735,0,0,0,1.465,1.36,4.2,4.2,0,0,0,2.041.431,4.28,4.28,0,0,1,2.219.43,1.693,1.693,0,0,1,.75.907,2.542,2.542,0,0,1,.082,1.146,11.745,11.745,0,0,0-.307,2.114,1.6,1.6,0,0,0,.307.916,1.639,1.639,0,0,0,.807.506c.313.106.647.169.972.28a1.941,1.941,0,0,1,.881.539,2.234,2.234,0,0,1,.388,1.893,6.164,6.164,0,0,1-.694,1.682,6.246,6.246,0,0,0-.639,1.518,3.835,3.835,0,0,0-.031,1.5,3.748,3.748,0,0,0,1.261,2.221,3.892,3.892,0,0,0,1.771.831A4.415,4.415,0,0,0,396.334,183.357Z" transform="translate(-373.16 -158.91)" fill="#455a64"/></g><g transform="translate(23.864 1.76)"><path d="M407.044,175.726a.865.865,0,0,1,.159.323,1.465,1.465,0,0,1-.1,1.023,1.551,1.551,0,0,1-.48.586,1.626,1.626,0,0,1-.853.3,2.038,2.038,0,0,1-1.867-1,2.727,2.727,0,0,1-.383-1.219,3.814,3.814,0,0,1,.186-1.367,8.4,8.4,0,0,0,.716-2.838,1.883,1.883,0,0,0-.577-1.364,2.062,2.062,0,0,0-1.515-.352,4.985,4.985,0,0,1-1.776-.051,1.534,1.534,0,0,1-.77-.556,2.182,2.182,0,0,1-.365-.876,7.217,7.217,0,0,1,.012-1.821,3.991,3.991,0,0,0-.219-1.671,4.247,4.247,0,0,0-2.08-2.346,6.012,6.012,0,0,0-2.871-.434,8.362,8.362,0,0,1-2.607-.214,5.486,5.486,0,0,1-3-2.22,3.867,3.867,0,0,1-.581-1.256,7.385,7.385,0,0,0,.657,1.2,5.423,5.423,0,0,0,1.1,1.157,5.329,5.329,0,0,0,1.873.953,8.306,8.306,0,0,0,2.557.179,6.152,6.152,0,0,1,2.972.434,4.457,4.457,0,0,1,2.2,2.463,4.224,4.224,0,0,1,.236,1.763,7.122,7.122,0,0,0-.015,1.762,1.523,1.523,0,0,0,.975,1.253,4.869,4.869,0,0,0,1.69.043,2.282,2.282,0,0,1,1.675.412,2.1,2.1,0,0,1,.647,1.526,4.009,4.009,0,0,1-.26,1.545c-.162.476-.351.921-.486,1.362a3.645,3.645,0,0,0-.192,1.3,2.578,2.578,0,0,0,.343,1.145,1.9,1.9,0,0,0,1.716.953,1.52,1.52,0,0,0,.795-.256,1.476,1.476,0,0,0,.462-.535,1.461,1.461,0,0,0,.136-.97C407.1,175.837,407.032,175.732,407.044,175.726Z" transform="translate(-388.069 -158.37)" fill="#263238"/></g><g transform="translate(0 7.547)"><path d="M349.113,185.045a1.616,1.616,0,0,0,.093,1.063,1.407,1.407,0,0,0,.91.8,1.477,1.477,0,0,0,1.464-.52,1.359,1.359,0,0,0,.286-.879,2.823,2.823,0,0,0-.233-1.019,6.006,6.006,0,0,1-.764-2.294,3.3,3.3,0,0,1,1.063-2.446,3.868,3.868,0,0,1,1.219-.762,5.677,5.677,0,0,1,1.435-.317,7.648,7.648,0,0,0,1.4-.252,1.876,1.876,0,0,0,1.045-.763,2.3,2.3,0,0,0,.306-1.234,4.61,4.61,0,0,0-.2-1.248,9.537,9.537,0,0,1-.543-2.355,3.626,3.626,0,0,1,.58-2.033,4.664,4.664,0,0,1,1.244-1.219,8.813,8.813,0,0,0,1.006-.812,2.739,2.739,0,0,0,.6-.907s0,.026-.012.073a1.2,1.2,0,0,1-.067.206,2.189,2.189,0,0,1-.458.693,8.152,8.152,0,0,1-.992.854,4.608,4.608,0,0,0-1.182,1.2,3.468,3.468,0,0,0-.525,1.936,9.581,9.581,0,0,0,.556,2.3,4.8,4.8,0,0,1,.215,1.306,2.52,2.52,0,0,1-.336,1.359,2.106,2.106,0,0,1-1.168.864,7.763,7.763,0,0,1-1.441.263,5.483,5.483,0,0,0-1.378.3,3.64,3.64,0,0,0-1.146.713,3.079,3.079,0,0,0-1,2.272,5.93,5.93,0,0,0,.728,2.224,2.988,2.988,0,0,1,.233,1.092,1.525,1.525,0,0,1-.339.984,1.614,1.614,0,0,1-1.628.542,1.555,1.555,0,0,1-1.062-1.712A.853.853,0,0,1,349.113,185.045Z" transform="translate(-349 -167.844)" fill="#263238"/></g></g><g transform="translate(0 32.56)"><g transform="translate(16.24 3.714)"><path d="M389.53,224.541l-3,39.925-14.785-.441-11.375,2.3,3.027-43.3,6.1-6.883,4.208,8.3,8.282-9.566Z" transform="translate(-360.367 -214.875)" fill="#fff"/></g><g transform="translate(32.079)"><path d="M392.275,208.795l3.118,2.611,12.95,3.989-4.7,34.908,3.825,16.833,4.051,15.849s-11.937,3.25-15.008,1.477-6.825-19.023-7.963-23.118-2.844-16.267-2.048-22.751,2.162-16.039,2.844-19.338S392.275,208.795,392.275,208.795Z" transform="translate(-386.298 -208.795)" fill="#a7bce6"/></g><g transform="translate(41.37 6.6)"><g transform="translate(0.128)"><path d="M414.345,219.6a24.8,24.8,0,0,1,3.981,7.955c1.486,6.585,7.227,24.555,6.885,28.764s-22.583,11.846-22.583,11.846l-.91-11.717L412.065,251l-2.839-11.04" transform="translate(-401.718 -219.601)" fill="#a7bce6"/></g><path d="M409.144,239.955a1.114,1.114,0,0,0,.036.192l.131.563c.125.508.3,1.236.534,2.175.481,1.909,1.176,4.669,2.047,8.133l.046-.1-10.361,5.426-.071.037.006.081c.271,3.559.574,7.517.894,11.718l.013.18.17-.06c4.358-1.533,9.052-3.323,13.781-5.517,1.555-.732,3.078-1.487,4.526-2.335a13.593,13.593,0,0,0,3.914-3.051,2.77,2.77,0,0,0,.319-.549,1.2,1.2,0,0,0,.093-.313,1,1,0,0,0,.045-.316,9.318,9.318,0,0,0-.044-1.215c-.068-.8-.212-1.575-.339-2.346q-.452-2.3-.991-4.464c-1.434-5.775-2.955-10.909-4.149-15.242-.607-2.165-1.114-4.128-1.542-5.866a19.276,19.276,0,0,0-1.795-4.221,27.934,27.934,0,0,0-1.539-2.455c-.191-.271-.341-.473-.445-.608s-.164-.2-.164-.2.045.075.14.215l.42.624c.362.553.894,1.372,1.489,2.477a19.57,19.57,0,0,1,1.737,4.208c.41,1.733.906,3.712,1.5,5.878,1.169,4.342,2.67,9.482,4.087,15.251q.535,2.162.978,4.451c.125.765.267,1.536.332,2.32a9.075,9.075,0,0,1,.042,1.173,1.837,1.837,0,0,1-.408,1.03,13.423,13.423,0,0,1-3.827,2.966c-1.437.84-2.954,1.591-4.5,2.32-4.712,2.187-9.4,3.981-13.748,5.519l.184.12c-.332-4.2-.645-8.157-.927-11.715l-.065.118,10.332-5.48.065-.034-.018-.071c-.907-3.454-1.63-6.208-2.13-8.112l-.581-2.163c-.066-.236-.118-.42-.156-.556A1.15,1.15,0,0,0,409.144,239.955Z" transform="translate(-401.508 -219.601)" fill="#263238"/></g><g transform="translate(10.313 0.814)"><path d="M366.082,210.128l-1.655,2.187-9.3,3.556s-.737,8.536-.737,11.153,1.079,31.619,1.079,32.984-5.233,19.906-4.778,21.044,5.915,1.934,5.915,1.934,2.048-16.039,2.048-21.5.227-18.883,1.365-25.481,6.1-21.075,6.1-21.075Z" transform="translate(-350.663 -210.128)" fill="#a7bce6"/></g><g transform="translate(6.275 6.558)"><path d="M352.554,219.531s-2.486,1.072-2.768,6.806-.753,18.709-.753,18.709a10.246,10.246,0,0,0-1.786,3.948c-.188,1.787-3.2,12.222-3.2,12.222l6.769,2.256,1.733-3.2,1.463-31.682Z" transform="translate(-344.052 -219.531)" fill="#a7bce6"/></g><g transform="translate(17.316 3.714)"><path d="M362.994,266.383a.483.483,0,0,0,.01-.136l0-.4c-.006-.374-.013-.886-.022-1.532-.031-1.355-.075-3.273-.128-5.632-.111-4.755-.3-11.325-.421-18.58-.009-.906-.021-1.8-.013-2.685s.092-1.739.158-2.594c.137-1.706.272-3.35.432-4.913s.338-3.046.572-4.419a18.864,18.864,0,0,1,1.06-3.712,48.127,48.127,0,0,1,2.383-5.089l.732-1.344.191-.349a.5.5,0,0,0,.058-.124.463.463,0,0,0-.083.109l-.216.335c-.186.3-.453.74-.781,1.319a43.147,43.147,0,0,0-2.476,5.069,18.74,18.74,0,0,0-1.107,3.745c-.247,1.382-.435,2.868-.6,4.433s-.309,3.212-.45,4.918c-.067.85-.167,1.719-.164,2.614s0,1.784.012,2.692c.118,7.259.343,13.827.507,18.581.092,2.358.167,4.275.221,5.63.032.646.057,1.157.076,1.53.011.161.02.291.027.4A.487.487,0,0,0,362.994,266.383Z" transform="translate(-362.128 -214.875)" fill="#263238"/></g><g transform="translate(32.737 2.611)"><path d="M387.478,253.778a2.361,2.361,0,0,0,.058-.426c.027-.28.059-.7.09-1.231.06-1.07.118-2.622.09-4.54-.013-.958-.05-2.009-.115-3.135a15.633,15.633,0,0,1,.385-3.521,64.052,64.052,0,0,1,2.363-7.781c.988-2.707,2.012-5.247,2.961-7.551a33.391,33.391,0,0,0,1.264-3.325c.3-1.083.5-2.113.669-3.054.33-1.884.508-3.424.625-4.488.056-.532.094-.946.115-1.227a2.459,2.459,0,0,0,.018-.431,2.806,2.806,0,0,0-.071.423c-.041.306-.1.712-.164,1.219-.148,1.057-.355,2.59-.706,4.462-.179.934-.386,1.957-.7,3.022a33.968,33.968,0,0,1-1.277,3.286c-.961,2.3-1.993,4.841-2.984,7.554a61.821,61.821,0,0,0-2.355,7.828,15.7,15.7,0,0,0-.366,3.6c.075,1.121.122,2.167.147,3.122.052,1.911.021,3.46-.007,4.53q-.026.769-.042,1.231A2.992,2.992,0,0,0,387.478,253.778Z" transform="translate(-387.375 -213.07)" fill="#263238"/></g><g transform="translate(0 35.013)"><path d="M334,273.527l6.211,8.394a1.133,1.133,0,0,0,1.12.439l26.863-5.077a1.132,1.132,0,0,0,.867-1.463l-2.9-8.922a1.132,1.132,0,0,0-1.284-.764l-30.176,5.6A1.133,1.133,0,0,0,334,273.527Z" transform="translate(-333.779 -266.117)" fill="#263238"/></g><g transform="translate(50.856 37.251)"><path d="M424.288,271.259a2.589,2.589,0,0,0-.9-.729,5.529,5.529,0,0,0-5.425-.074,2.579,2.579,0,0,0-.922.7c.029.038.38-.23,1.015-.521a5.981,5.981,0,0,1,5.235.071C423.915,271.02,424.258,271.3,424.288,271.259Z" transform="translate(-417.038 -269.781)" fill="#263238"/></g><g transform="translate(34.327 51.514)" opacity="0.3"><path d="M408.013,296.044l-11.225,4.128-1.106-4.4-5.027,1.015-.678-2.545,7.889-1.106.078,3.651,9.42-3.555Z" transform="translate(-389.977 -293.132)"/></g><g transform="translate(22.036 40.458)"><path d="M389.39,278.959s-2.123-1.794-2.78-2.2-2.881-1.87-3.893-1.719l-1.011.152.91,2.679s-8.139-1.213-9.251.1,1.213,1.567,2.426,1.719,5.112.809,5.112.809-10.167-1.112-10.875,0,.987,1.365.987,1.365l6.734,2.679.772.3.773,1.011s2.766,1.921,3.625,1.668,6.89-1.441,6.89-1.441Z" transform="translate(-369.855 -275.031)" fill="#ffbf9d"/><g transform="translate(1.373 6.925)"><path d="M383.194,287.967a7.944,7.944,0,0,0-1.577-.481,39.521,39.521,0,0,0-7.868-1.1,8.011,8.011,0,0,0-1.648.029,10.886,10.886,0,0,0,1.635.177c1.01.086,2.4.222,3.934.436s2.907.467,3.9.661A10.968,10.968,0,0,0,383.194,287.967Z" transform="translate(-372.102 -286.369)" fill="#ff9a6c"/></g><g transform="translate(8.553 9.68)"><path d="M386.846,291.68a8.238,8.238,0,0,0-2.987-.776,8.271,8.271,0,0,0,2.987.776Z" transform="translate(-383.858 -290.879)" fill="#ff9a6c"/></g></g><g transform="translate(4.927 37.823)"><path d="M345.481,272.113s-1.223-1.4-2.152-1.4c-.834,0-1.483.484-1.483,1.125v.946Z" transform="translate(-341.846 -270.717)" fill="#ffbf9d"/></g><g transform="translate(13.931 13.729)"><path d="M356.879,231.271a1.859,1.859,0,0,0-.047.373l-.079,1.073c-.071.933-.121,2.284-.153,3.956-.062,3.343.094,7.962.429,13.048s.621,9.689.685,13.027c.037,1.668.05,3.019.038,3.952,0,.443,0,.8,0,1.075a1.863,1.863,0,0,0,.02.376,1.766,1.766,0,0,0,.038-.374c.014-.275.032-.632.054-1.074.047-.934.066-2.286.055-3.957-.012-3.344-.268-7.956-.6-13.042s-.522-9.691-.513-13.028c.006-1.668.024-3.019.06-3.951.01-.443.018-.8.025-1.075A1.772,1.772,0,0,0,356.879,231.271Z" transform="translate(-356.586 -231.271)" fill="#263238"/></g><g transform="translate(48.107 7.656)"><path d="M412.626,239.465a3.715,3.715,0,0,0,.048-.748c.007-.481.037-1.176.1-2.033a34.763,34.763,0,0,1,3.442-12.873c.376-.771.7-1.389.931-1.809a3.694,3.694,0,0,0,.332-.672,3.648,3.648,0,0,0-.43.615c-.264.4-.615,1.009-1.017,1.774a30.963,30.963,0,0,0-3.463,12.954c-.034.863-.032,1.562,0,2.044A3.671,3.671,0,0,0,412.626,239.465Z" transform="translate(-412.539 -221.329)" fill="#263238"/></g><g transform="translate(0.61 43.829)"><path d="M335.431,280.551a2.9,2.9,0,0,0-.584,2.173c.321.962,2.605,2.725,2.605,2.725s.881,1.042,1.282,1.042,2.313.346,2.178-.789-1.817-1.336-1.817-1.336-.04-.411-.762-.927-1.6-1.133-1.6-1.133Z" transform="translate(-334.778 -280.551)" fill="#ffbf9d"/><g transform="translate(2.282 3.628)"><path d="M338.517,287.448c-.023.029.087.175.343.321a1.371,1.371,0,0,0,1.147.1,1.083,1.083,0,0,0,.526-.414.938.938,0,0,0,.152-.523c-.01-.32-.172-.462-.2-.439s.035.18-.008.425a.878.878,0,0,1-.577.679,1.425,1.425,0,0,1-.959-.016C338.695,287.5,338.542,287.413,338.517,287.448Z" transform="translate(-338.514 -286.491)" fill="#ff9a6c"/></g></g><g transform="translate(12.091 32.696)"><path d="M356.1,266.99a8.321,8.321,0,0,0-2.523-4.664c-.067.057.7.977,1.387,2.264S356.016,267.014,356.1,266.99Z" transform="translate(-353.573 -262.323)" fill="#263238"/></g></g></g></g></svg>