<svg xmlns="http://www.w3.org/2000/svg" width="229.887" height="230.313" viewBox="0 0 229.887 230.313"><g transform="translate(5473.886 6538.19)"><g transform="translate(-5516.156 -6579.74)"><g transform="translate(139.361 168.378)"><rect width="25.486" height="25.486" rx="9.615" fill="#e0e0e0"/><g transform="translate(6.538 6.537)"><path d="M235.584,302.02a.566.566,0,0,1-.4-.966l3.028-3.029a5.218,5.218,0,0,1,.377-6.9,5.18,5.18,0,1,1,.423,7.7l-3.027,3.028A.564.564,0,0,1,235.584,302.02Zm6.667-11.281a4.045,4.045,0,1,0,2.861,1.185A4.022,4.022,0,0,0,242.252,290.74Z" transform="translate(-235.018 -289.608)" fill="#fff"/></g></g><g transform="translate(118.312 41.55)"><g transform="translate(62.039 35.483)"><path d="M299.24,127.721c-.077,0-.14-4.517-.14-10.086s.063-10.087.14-10.087.14,4.515.14,10.087S299.317,127.721,299.24,127.721Z" transform="translate(-299.1 -107.548)" fill="#263238"/></g><g transform="translate(22.109 65.579)"><path d="M249.309,177.515a1.884,1.884,0,0,1-.372.028l-1.068.026-3.925.045-12.951.041H229.12a7.038,7.038,0,0,1-.934-.035,3.3,3.3,0,0,1-.9-.261,4.2,4.2,0,0,1-2.223-2.632,5.316,5.316,0,0,1-.233-1.616q.009-.778.017-1.51c.013-.972.025-1.879.035-2.711.03-1.633.054-2.966.072-3.925.014-.44.025-.795.033-1.067a1.872,1.872,0,0,1,.031-.372,1.863,1.863,0,0,1,.026.372c0,.273.011.627.019,1.068,0,.96.011,2.292.018,3.925,0,.831,0,1.739,0,2.711a10.017,10.017,0,0,0,.23,3.048,3.947,3.947,0,0,0,2.088,2.458,3.03,3.03,0,0,0,.827.238,6.861,6.861,0,0,0,.9.031h1.873l12.951.041,3.925.044,1.068.026A1.845,1.845,0,0,1,249.309,177.515Z" transform="translate(-224.83 -163.526)" fill="#263238"/></g><g transform="translate(44.726 2.465)"><g transform="translate(0.139 0.14)"><rect width="32.766" height="32.766" rx="10.384" fill="#fff"/></g><path d="M294.219,79.042a9.867,9.867,0,0,0,1.218-.167,5.565,5.565,0,0,0,2.951-1.792,5.376,5.376,0,0,0,1.16-2.221,11.81,11.81,0,0,0,.176-3.009c-.006-2.185-.013-4.67-.021-7.417s-.011-5.758-.017-8.988q0-1.212,0-2.464a9.487,9.487,0,0,0-.184-2.5,5.452,5.452,0,0,0-3.331-3.718,5.3,5.3,0,0,0-1.3-.32,11.84,11.84,0,0,0-1.37-.042l-2.822,0-5.82,0-12.239,0a5.483,5.483,0,0,0-2.889.834,5.19,5.19,0,0,0-1.151.967,5.135,5.135,0,0,0-.84,1.234,5.346,5.346,0,0,0-.471,1.405,7.627,7.627,0,0,0-.1,1.483q0,1.508,0,2.991c0,3.954-.005,7.768-.008,11.4q0,2.725-.006,5.31a13.883,13.883,0,0,0,.107,2.512,5.5,5.5,0,0,0,4.862,4.355c1.48.052,2.934.019,4.3.034l13.016.044,3.539.026.92.014c.207,0,.313.015.313.015s-.106.01-.313.014l-.92.014-3.539.026-13.016.045c-1.377-.009-2.8.032-4.322-.017a5.661,5.661,0,0,1-4.045-2.25,5.737,5.737,0,0,1-1.033-2.272,14.052,14.052,0,0,1-.118-2.56q0-2.582-.006-5.31c0-3.633-.005-7.448-.008-11.4q0-1.483,0-2.991a7.928,7.928,0,0,1,.1-1.533,5.583,5.583,0,0,1,.495-1.478,5.362,5.362,0,0,1,.882-1.3,5.467,5.467,0,0,1,1.21-1.017,5.764,5.764,0,0,1,3.038-.877l12.239,0,5.82,0,2.822,0a12.027,12.027,0,0,1,1.4.046,5.578,5.578,0,0,1,1.357.339,5.7,5.7,0,0,1,3.477,3.9,9.69,9.69,0,0,1,.185,2.558q0,1.252,0,2.464c-.006,3.23-.012,6.24-.017,8.988s-.014,5.232-.02,7.417a11.845,11.845,0,0,1-.2,3.042,5.466,5.466,0,0,1-1.207,2.259,5.555,5.555,0,0,1-3.021,1.776,5.013,5.013,0,0,1-.916.11C294.325,79.046,294.219,79.042,294.219,79.042Z" transform="translate(-266.897 -46.135)" fill="#263238"/></g><g transform="translate(85.182 13.712)"><g transform="translate(0.139 0.14)"><rect width="32.766" height="32.766" rx="10.384" fill="#fff"/></g><path d="M369.467,99.96a9.892,9.892,0,0,0,1.217-.166A5.565,5.565,0,0,0,373.635,98,5.367,5.367,0,0,0,374.8,95.78a11.812,11.812,0,0,0,.175-3.009c-.006-2.184-.013-4.67-.02-7.416s-.011-5.759-.017-8.989q0-1.211,0-2.464a9.481,9.481,0,0,0-.184-2.5,5.452,5.452,0,0,0-3.331-3.718,5.293,5.293,0,0,0-1.3-.321,11.728,11.728,0,0,0-1.37-.041l-2.822,0-5.82,0-12.239,0a5.489,5.489,0,0,0-2.889.834,5.192,5.192,0,0,0-1.151.967,5.1,5.1,0,0,0-.839,1.234,5.315,5.315,0,0,0-.471,1.4,7.627,7.627,0,0,0-.1,1.483q0,1.509,0,2.991c0,3.954-.006,7.768-.008,11.4q0,2.725-.006,5.309a13.944,13.944,0,0,0,.106,2.513,5.51,5.51,0,0,0,.984,2.18,5.442,5.442,0,0,0,3.879,2.174c1.479.053,2.933.02,4.3.034l13.016.045,3.539.026.92.014c.208,0,.314.014.314.014s-.106.01-.314.015l-.92.014-3.539.026-13.016.045c-1.378-.008-2.8.032-4.322-.017a5.662,5.662,0,0,1-4.045-2.25,5.734,5.734,0,0,1-1.033-2.272,14.009,14.009,0,0,1-.118-2.561q0-2.581-.006-5.309c0-3.634-.005-7.448-.008-11.4q0-1.482,0-2.991a7.924,7.924,0,0,1,.1-1.533,5.584,5.584,0,0,1,.495-1.478,5.381,5.381,0,0,1,.882-1.3,5.451,5.451,0,0,1,1.21-1.017,5.758,5.758,0,0,1,3.038-.877l12.239,0,5.82,0,2.822,0a12.02,12.02,0,0,1,1.4.046,5.548,5.548,0,0,1,1.357.339,5.7,5.7,0,0,1,3.477,3.9,9.672,9.672,0,0,1,.185,2.558q0,1.252,0,2.464c-.006,3.23-.012,6.24-.017,8.989s-.015,5.232-.021,7.416a11.844,11.844,0,0,1-.2,3.042,5.463,5.463,0,0,1-1.208,2.259,5.555,5.555,0,0,1-3.021,1.776,4.961,4.961,0,0,1-.916.11C369.573,99.964,369.467,99.96,369.467,99.96Z" transform="translate(-342.144 -67.054)" fill="#263238"/></g><g transform="translate(120.818 53.278)"><g transform="translate(0.139 0.14)"><rect width="32.766" height="32.766" rx="10.384" fill="#fff"/></g><path d="M435.749,173.553a9.911,9.911,0,0,0,1.218-.166,5.567,5.567,0,0,0,2.951-1.793,5.371,5.371,0,0,0,1.16-2.221,11.808,11.808,0,0,0,.176-3.009c-.006-2.184-.013-4.67-.021-7.416s-.011-5.758-.017-8.989q0-1.211,0-2.464a9.461,9.461,0,0,0-.184-2.5,5.451,5.451,0,0,0-3.331-3.718,5.283,5.283,0,0,0-1.3-.321,11.727,11.727,0,0,0-1.37-.041l-2.822,0-5.82,0-12.239,0a5.488,5.488,0,0,0-2.889.834,5.193,5.193,0,0,0-1.151.967,5.1,5.1,0,0,0-.84,1.234,5.31,5.31,0,0,0-.471,1.405,7.611,7.611,0,0,0-.1,1.482q0,1.509,0,2.991c0,3.954-.005,7.768-.008,11.4q0,2.725-.006,5.309a13.893,13.893,0,0,0,.107,2.513,5.5,5.5,0,0,0,.984,2.18,5.442,5.442,0,0,0,3.879,2.174c1.48.053,2.933.02,4.3.034l13.016.045,3.539.026.92.013c.207,0,.313.015.313.015s-.106.01-.313.015l-.92.014-3.539.026-13.016.045c-1.377-.008-2.8.032-4.322-.017a5.662,5.662,0,0,1-4.045-2.25,5.742,5.742,0,0,1-1.033-2.271,14.064,14.064,0,0,1-.118-2.561q0-2.581-.006-5.309c0-3.634-.005-7.448-.008-11.4q0-1.483,0-2.991a7.93,7.93,0,0,1,.1-1.533,5.586,5.586,0,0,1,.495-1.478,5.373,5.373,0,0,1,.882-1.3,5.465,5.465,0,0,1,1.21-1.017,5.759,5.759,0,0,1,3.038-.877l12.239,0,5.82,0,2.822,0a12.14,12.14,0,0,1,1.4.046,5.553,5.553,0,0,1,1.357.339,5.7,5.7,0,0,1,3.477,3.9,9.694,9.694,0,0,1,.185,2.558q0,1.252,0,2.464c-.006,3.231-.012,6.24-.017,8.989s-.015,5.232-.02,7.416a11.849,11.849,0,0,1-.2,3.043A5.457,5.457,0,0,1,440,171.665a5.553,5.553,0,0,1-3.021,1.776,4.956,4.956,0,0,1-.916.11C435.855,173.557,435.749,173.553,435.749,173.553Z" transform="translate(-408.427 -140.647)" fill="#263238"/></g><g transform="translate(0 30.095)"><g transform="translate(0.139 0.14)"><rect width="32.766" height="32.766" rx="10.384" fill="#fff"/></g><path d="M211.029,130.433a10,10,0,0,0,1.218-.167,5.565,5.565,0,0,0,2.951-1.792,5.372,5.372,0,0,0,1.16-2.221,11.811,11.811,0,0,0,.176-3.009c-.006-2.185-.013-4.67-.021-7.417s-.011-5.758-.017-8.988q0-1.212,0-2.464a9.487,9.487,0,0,0-.184-2.5,5.452,5.452,0,0,0-3.331-3.718,5.329,5.329,0,0,0-1.3-.321,11.962,11.962,0,0,0-1.37-.041l-2.822,0-5.82,0-12.239,0a5.483,5.483,0,0,0-2.889.834,5.19,5.19,0,0,0-1.151.967,5.118,5.118,0,0,0-.84,1.234,5.325,5.325,0,0,0-.471,1.405,7.667,7.667,0,0,0-.1,1.483q0,1.508,0,2.991c0,3.954-.005,7.768-.008,11.4q0,2.725-.006,5.31a13.889,13.889,0,0,0,.107,2.512,5.5,5.5,0,0,0,4.862,4.355c1.48.052,2.933.019,4.3.034l13.016.044,3.539.026.92.014c.207,0,.313.015.313.015s-.106.009-.313.014l-.92.014-3.539.026-13.016.045c-1.377-.009-2.8.032-4.322-.017a5.663,5.663,0,0,1-4.045-2.25,5.747,5.747,0,0,1-1.033-2.272,14.052,14.052,0,0,1-.118-2.56q0-2.582-.006-5.31c0-3.633-.005-7.448-.008-11.4q0-1.483,0-2.991a7.93,7.93,0,0,1,.1-1.533,5.584,5.584,0,0,1,.495-1.478,5.362,5.362,0,0,1,.882-1.3,5.467,5.467,0,0,1,1.21-1.017,5.764,5.764,0,0,1,3.038-.877l12.239,0,5.82,0,2.822,0a12.026,12.026,0,0,1,1.4.046,5.578,5.578,0,0,1,1.357.339,5.7,5.7,0,0,1,3.477,3.9,9.693,9.693,0,0,1,.185,2.558q0,1.252,0,2.464c-.006,3.23-.012,6.24-.017,8.988s-.015,5.232-.02,7.417a11.848,11.848,0,0,1-.2,3.042,5.464,5.464,0,0,1-1.208,2.259,5.556,5.556,0,0,1-3.021,1.776,5,5,0,0,1-.916.11C211.135,130.437,211.029,130.433,211.029,130.433Z" transform="translate(-183.707 -97.526)" fill="#263238"/></g><g transform="translate(105.104 70.326)"><path d="M395.814,172.5c0,.077-3.719.14-8.307.14s-8.307-.063-8.307-.14,3.718-.14,8.307-.14S395.814,172.419,395.814,172.5Z" transform="translate(-379.2 -172.356)" fill="#263238"/></g><g transform="translate(5.092 35.707)"><g transform="translate(0.269 17.437)"><rect width="4.134" height="3.165" fill="#80cab6"/></g><g transform="translate(5.502 10.137)"><rect width="4.134" height="10.465" fill="#80cab6"/></g><g transform="translate(11.251 14.643)"><rect width="4.134" height="5.96" fill="#80cab6"/></g><g transform="translate(16.742 7.101)"><rect width="4.134" height="13.502" fill="#80cab6"/></g><g transform="translate(0 10.061)"><path d="M195.237,130.793a2.058,2.058,0,1,1,2.058-2.058A2.061,2.061,0,0,1,195.237,130.793Zm0-3.579a1.52,1.52,0,1,0,1.52,1.52A1.522,1.522,0,0,0,195.237,127.215Z" transform="translate(-193.179 -126.677)" fill="#80cab6"/></g><g transform="translate(5.915 2.231)"><path d="M206.238,116.229a2.058,2.058,0,1,1,2.058-2.058A2.06,2.06,0,0,1,206.238,116.229Zm0-3.578a1.52,1.52,0,1,0,1.52,1.52A1.522,1.522,0,0,0,206.238,112.651Z" transform="translate(-204.18 -112.113)" fill="#80cab6"/></g><g transform="translate(11.263 7.19)"><path d="M216.187,125.453a2.058,2.058,0,1,1,2.058-2.058A2.061,2.061,0,0,1,216.187,125.453Zm0-3.578a1.52,1.52,0,1,0,1.52,1.52A1.522,1.522,0,0,0,216.187,121.875Z" transform="translate(-214.129 -121.337)" fill="#80cab6"/></g><g transform="translate(16.98)"><path d="M226.819,112.08a2.058,2.058,0,1,1,2.058-2.058A2.061,2.061,0,0,1,226.819,112.08Zm0-3.579a1.52,1.52,0,1,0,1.52,1.52A1.522,1.522,0,0,0,226.819,108.5Z" transform="translate(-224.761 -107.964)" fill="#80cab6"/></g><g transform="translate(14.281 3.21)"><rect width="5.775" height="0.538" transform="matrix(0.575, -0.818, 0.818, 0.575, 0, 4.725)" fill="#80cab6"/></g><g transform="translate(9.154 5.541)"><rect width="0.538" height="3.658" transform="matrix(0.723, -0.691, 0.691, 0.723, 0, 0.372)" fill="#80cab6"/></g><g transform="translate(2.836 5.663)"><rect width="6.077" height="0.538" transform="translate(0 4.801) rotate(-52.177)" fill="#80cab6"/></g></g><g transform="translate(21.347 61.821)"><path d="M226.546,158.1a1.567,1.567,0,1,1-1.567-1.567A1.567,1.567,0,0,1,226.546,158.1Z" transform="translate(-223.413 -156.536)" fill="#263238"/></g><g transform="translate(60.585 33.805)"><path d="M299.529,105.994a1.567,1.567,0,1,1-1.567-1.567A1.567,1.567,0,0,1,299.529,105.994Z" transform="translate(-296.395 -104.427)" fill="#263238"/></g><g transform="translate(119.273 68.9)"><path d="M408.687,171.27a1.567,1.567,0,1,1-1.567-1.567A1.567,1.567,0,0,1,408.687,171.27Z" transform="translate(-405.554 -169.703)" fill="#263238"/></g><g transform="translate(100.545 45.284)"><path d="M373.853,127.345a1.567,1.567,0,1,1-1.567-1.567A1.567,1.567,0,0,1,373.853,127.345Z" transform="translate(-370.72 -125.778)" fill="#263238"/></g><g transform="translate(13.371)"><g transform="translate(0.137 0.14)"><rect width="21.245" height="21.245" rx="10.384" fill="#fff"/></g><path d="M224.375,62.934c0-.018.266-.013.759-.086a5.336,5.336,0,0,0,2.037-.733,5.5,5.5,0,0,0,2.69-4.606c.012-.762,0-1.579,0-2.43,0-1.706-.011-3.574-.017-5.578q0-.752,0-1.529a9.2,9.2,0,0,0-.077-1.555,5.03,5.03,0,0,0-.474-1.509,5.134,5.134,0,0,0-.918-1.34,5.489,5.489,0,0,0-2.9-1.634,8.755,8.755,0,0,0-1.754-.109l-1.824,0-7.6,0a5.447,5.447,0,0,0-5.327,4.309,8.379,8.379,0,0,0-.122,1.787q0,.9,0,1.789,0,1.77,0,3.463t-.006,3.3a13.424,13.424,0,0,0,.044,1.562,5.755,5.755,0,0,0,.378,1.444,5.51,5.51,0,0,0,4.1,3.272,16.67,16.67,0,0,0,2.411.1l2.17.011,3.475.024,2.2.026.571.013a1,1,0,0,1,.195.015,1,1,0,0,1-.195.015l-.571.014-2.2.026-3.475.024-2.17.011a16.631,16.631,0,0,1-2.444-.079,5.714,5.714,0,0,1-4.28-3.377,6,6,0,0,1-.4-1.5,13.561,13.561,0,0,1-.052-1.591q0-1.6-.006-3.3t0-3.463q0-.885,0-1.789a8.673,8.673,0,0,1,.125-1.844,5.718,5.718,0,0,1,5.6-4.531l7.6,0,1.824,0a9,9,0,0,1,1.808.118,5.749,5.749,0,0,1,3.033,1.72,5.4,5.4,0,0,1,.956,1.406,5.292,5.292,0,0,1,.49,1.58,9.326,9.326,0,0,1,.074,1.594q0,.777,0,1.529c-.006,2-.012,3.872-.017,5.578-.007.854,0,1.662-.018,2.435a5.609,5.609,0,0,1-2.813,4.7,5.212,5.212,0,0,1-2.084.7A4.182,4.182,0,0,1,224.375,62.934Z" transform="translate(-208.577 -41.55)" fill="#263238"/><g transform="translate(6.292 5.604)"><path d="M225.681,57.034a2.61,2.61,0,0,0,1.555-2.414,2.452,2.452,0,1,0-4.894-.023,2.606,2.606,0,0,0,1.559,2.437c-3.766.567-3.595,4.66-3.595,4.66l8.9.041S229.414,57.6,225.681,57.034Z" transform="translate(-220.291 -51.986)" fill="#455a64"/><path d="M229.212,61.736H229.2l-8.918-.041v-.013a5.864,5.864,0,0,1,.386-2.123,4.118,4.118,0,0,1,1.063-1.581,4.034,4.034,0,0,1,2.111-.963,2.608,2.608,0,0,1-1.524-2.431,2.692,2.692,0,0,1,.728-1.851,2.366,2.366,0,0,1,1.732-.761h.011a2.55,2.55,0,0,1,2.45,2.634,2.615,2.615,0,0,1-1.52,2.408,3.924,3.924,0,0,1,2.087.969,4.109,4.109,0,0,1,1.042,1.595,6,6,0,0,1,.366,2.145Zm-8.9-.068,8.879.041a6.007,6.007,0,0,0-.365-2.122A4.075,4.075,0,0,0,227.786,58a3.909,3.909,0,0,0-2.119-.968l-.047-.008.045-.018a2.587,2.587,0,0,0,1.546-2.4A2.523,2.523,0,0,0,224.788,52h-.011a2.34,2.34,0,0,0-1.712.752,2.663,2.663,0,0,0-.721,1.832,2.579,2.579,0,0,0,1.551,2.425l.045.018-.048.008a4.018,4.018,0,0,0-2.143.963,4.093,4.093,0,0,0-1.056,1.569A5.874,5.874,0,0,0,220.307,61.669Z" transform="translate(-220.28 -51.974)" fill="#263238"/></g></g><g transform="translate(12.593 90.502)"><g transform="translate(0.137 0.14)"><rect width="24.186" height="24.186" rx="10.384" fill="#fff"/></g><path d="M225.869,234.208c0-.024.308,0,.877-.1a5.608,5.608,0,0,0,2.3-.961,5.55,5.55,0,0,0,2.165-3.224,10.178,10.178,0,0,0,.148-2.477q0-1.333-.01-2.812c0-1.973-.011-4.132-.017-6.448q0-.869,0-1.768a9.361,9.361,0,0,0-.1-1.8,5.453,5.453,0,0,0-1.829-3.158,5.52,5.52,0,0,0-3.6-1.3l-4.176,0-8.78,0a5.454,5.454,0,0,0-5.448,5.457c0,2.837-.006,5.573-.008,8.18q0,1.955-.006,3.809a12.919,12.919,0,0,0,.06,1.8,5.09,5.09,0,0,0,.51,1.645,5.507,5.507,0,0,0,2.227,2.349,5.669,5.669,0,0,0,2.92.7l9.338.045,2.539.026.66.013a1.334,1.334,0,0,1,.225.014,1.327,1.327,0,0,1-.225.015l-.66.014-2.539.026-9.338.045a5.865,5.865,0,0,1-3.026-.712,5.722,5.722,0,0,1-2.33-2.434,5.341,5.341,0,0,1-.539-1.714,13.127,13.127,0,0,1-.069-1.839q0-1.852-.006-3.809c0-2.608-.005-5.344-.008-8.18a5.726,5.726,0,0,1,5.722-5.737l8.78,0,4.176,0a5.779,5.779,0,0,1,3.766,1.374,5.7,5.7,0,0,1,1.9,3.31,9.569,9.569,0,0,1,.095,1.841q0,.9,0,1.768c-.006,2.317-.012,4.476-.017,6.448q-.006,1.478-.01,2.812a10.259,10.259,0,0,1-.174,2.513,5.636,5.636,0,0,1-2.254,3.276,5.51,5.51,0,0,1-2.358.928,3.972,3.972,0,0,1-.66.051A1.3,1.3,0,0,1,225.869,234.208Z" transform="translate(-207.13 -209.883)" fill="#263238"/><g transform="translate(7.159 6.376)"><path d="M226.566,227.474a2.971,2.971,0,0,0,1.77-2.748,2.792,2.792,0,1,0-5.572-.026,2.966,2.966,0,0,0,1.775,2.774c-4.287.646-4.092,5.305-4.092,5.305l10.138.047S230.816,228.116,226.566,227.474Z" transform="translate(-220.445 -221.742)" fill="#f1cc4b"/></g></g><g transform="translate(54.041 11.22)"><path d="M290.193,74.369a5.974,5.974,0,1,1,5.69-4.14h0A5.986,5.986,0,0,1,290.193,74.369ZM290.2,63.5a4.9,4.9,0,1,0,4.658,6.4h0a4.9,4.9,0,0,0-4.658-6.4Z" transform="translate(-284.222 -62.42)" fill="#263238"/><g transform="translate(8.9 9.627)"><path d="M305.754,86.235a.538.538,0,0,1-.4-.174l-4.44-4.836a.537.537,0,1,1,.791-.727l4.44,4.835a.537.537,0,0,1-.4.9Z" transform="translate(-300.776 -80.325)" fill="#263238"/></g></g><g transform="translate(127.795 59.824)"><path d="M431.37,172.751a9.965,9.965,0,1,1,9.965-9.965A9.976,9.976,0,0,1,431.37,172.751Zm0-19.391a9.427,9.427,0,1,0,9.427,9.427A9.438,9.438,0,0,0,431.37,153.36Z" transform="translate(-421.405 -152.822)" fill="#ff725e"/><g transform="translate(4.768 0.027)"><path d="M435.17,172.741a9.324,9.324,0,0,1-2.555-2.352,11.774,11.774,0,0,1-2.332-7.782,12.207,12.207,0,0,1,2.73-7.578,8.82,8.82,0,0,1,2.558-2.156l.238.482c-.047.024-4.736,2.424-4.988,9.272s4.562,9.617,4.611,9.645Z" transform="translate(-430.274 -152.873)" fill="#ff725e"/></g><g transform="translate(9.495 0.026)"><path d="M439.677,172.734l-.283-.458a11.2,11.2,0,0,0,4.457-9.855c-.251-6.842-4.74-9.043-4.785-9.065l.229-.486c.2.092,4.83,2.346,5.094,9.531A11.734,11.734,0,0,1,439.677,172.734Z" transform="translate(-439.066 -152.87)" fill="#ff725e"/></g><g transform="translate(1.988 3.862)"><path d="M433.211,162.948a12.852,12.852,0,0,1-8.108-2.519l.331-.424a12.327,12.327,0,0,0,7.777,2.405,11.5,11.5,0,0,0,7.475-2.393l.34.416A12.023,12.023,0,0,1,433.211,162.948Z" transform="translate(-425.103 -160.005)" fill="#ff725e"/></g><g transform="translate(2.003 12.9)"><path d="M440.724,179.688a12.579,12.579,0,0,0-7.781-2.335,11.726,11.726,0,0,0-7.478,2.323l-.334-.421a12.256,12.256,0,0,1,7.812-2.439,13.105,13.105,0,0,1,8.105,2.444Z" transform="translate(-425.131 -176.815)" fill="#ff725e"/></g><g transform="translate(0.51 9.725)"><rect width="19.164" height="0.538" fill="#ff725e"/></g></g><g transform="translate(88.498 132.458)"><g transform="translate(3.723 12.955)"><rect width="13.634" height="13.634" fill="#e0e0e0"/><g transform="translate(17.072 0.828)"><rect width="14.041" height="1.167" fill="#e0e0e0"/></g><g transform="translate(17.072 3.525)"><rect width="14.041" height="1.167" fill="#e0e0e0"/></g><g transform="translate(17.072 6.222)"><rect width="14.041" height="1.167" fill="#e0e0e0"/></g><g transform="translate(17.072 8.918)"><rect width="14.041" height="1.167" fill="#e0e0e0"/></g><g transform="translate(17.072 11.615)"><rect width="14.041" height="1.167" fill="#e0e0e0"/></g></g><g transform="translate(0.141 0.14)"><path d="M6.951,0H30.185a7.051,7.051,0,0,1,7.051,7.051V9.117a0,0,0,0,1,0,0H0a0,0,0,0,1,0,0V6.951A6.951,6.951,0,0,1,6.951,0Z" fill="#e0e0e0"/></g><path d="M382.215,320.828a4.032,4.032,0,0,0,1.316-.29,3.5,3.5,0,0,0,1.3-.966,3.4,3.4,0,0,0,.794-2.032c-.009-3.4-.02-8.3-.035-14.356-.005-3.032-.011-6.352-.017-9.916q0-.669,0-1.348a3.968,3.968,0,0,0-.149-1.321,3.4,3.4,0,0,0-3.009-2.4c-.463-.025-.961-.006-1.445-.011l-2.968,0-26.078.011a3.283,3.283,0,0,0-2.8,1.5,3.263,3.263,0,0,0-.52,1.534c-.026.545-.008,1.126-.013,1.684q0,3.379,0,6.654c0,4.362-.005,8.569-.008,12.578q0,1.5,0,2.968,0,.732,0,1.455a7.054,7.054,0,0,0,.068,1.405,3.423,3.423,0,0,0,2.708,2.671,7.073,7.073,0,0,0,1.322.063l9.916.017,14.359.044,3.9.026,1.015.014c.229,0,.346.014.346.014s-.117.01-.346.014l-1.015.014-3.9.026-14.359.045-9.916.017a7.28,7.28,0,0,1-1.366-.064,3.661,3.661,0,0,1-2.905-2.854,7.261,7.261,0,0,1-.076-1.454q0-.723,0-1.455,0-1.465,0-2.968c0-4.009-.005-8.216-.008-12.578q0-3.272,0-6.654c.006-.568-.014-1.118.014-1.706a3.538,3.538,0,0,1,.564-1.665,3.561,3.561,0,0,1,3.03-1.625l26.078.011,2.968,0c.492.006.964-.012,1.463.015a3.644,3.644,0,0,1,3.22,2.58,4.23,4.23,0,0,1,.155,1.39q0,.68,0,1.348c-.006,3.563-.012,6.884-.017,9.916-.017,6.063-.018,10.966-.054,14.362a3.476,3.476,0,0,1-.839,2.08,3.444,3.444,0,0,1-2.333,1.2C382.332,320.832,382.215,320.828,382.215,320.828Z" transform="translate(-348.312 -287.922)" fill="#263238"/></g><g transform="translate(90.648 23.349)"><path d="M375.755,93.158a4.3,4.3,0,0,1-4,5.7H356.225a3.88,3.88,0,0,1-3.763-4.877,3.832,3.832,0,0,1,.133-.38,4.107,4.107,0,0,1,4.455-2.419,7.049,7.049,0,0,1,13.647-1.5S374.7,89.463,375.755,93.158Z" transform="translate(-352.311 -84.978)" fill="#0540b7"/><g transform="translate(7.64 4.572)"><path d="M369.194,105.543V99.582h-2.335a.338.338,0,0,1-.275-.533l3.844-5.425a.337.337,0,0,1,.55,0l3.839,5.381a.337.337,0,0,1-.275.533H372.27v6Z" transform="translate(-366.522 -93.482)" fill="#fff"/></g></g></g><g transform="translate(156.657 96.298)"><g transform="translate(0)"><g transform="translate(0 39.481)"><path d="M331.5,241.517l-7.018-24.7H263.137l-7.993,24.619a2.3,2.3,0,0,0,2.167,3.029h28.018l1.134-1.134H299.7l1.134,1.134h28.475A2.3,2.3,0,0,0,331.5,241.517Z" transform="translate(-255.028 -216.815)" fill="#e0e0e0"/></g><g transform="translate(0 39.481)" opacity="0.3"><path d="M331.5,241.517l-7.018-24.7H263.137l-7.993,24.619a2.3,2.3,0,0,0,2.167,3.029h28.018l1.134-1.134H299.7l1.134,1.134h28.475A2.3,2.3,0,0,0,331.5,241.517Z" transform="translate(-255.028 -216.815)"/></g><g transform="translate(8.082)"><path d="M270.061,182.226V145.982a2.593,2.593,0,0,1,2.586-2.6h56.371a2.594,2.594,0,0,1,2.587,2.6v36.244Z" transform="translate(-270.061 -143.381)" fill="#e0e0e0"/><g transform="translate(3.581 3.446)"><g transform="translate(0.14 0.14)"><rect width="54.101" height="32.229" fill="#fff"/></g><path d="M330.962,182.159s-.008-.2-.011-.586-.007-.955-.012-1.692c-.006-1.488-.016-3.666-.027-6.459-.013-5.587-.033-13.63-.057-23.491l.109.109-54.1.031h0l.14-.14c0,11.415-.007,22.311-.01,32.229l-.13-.13,38.911.063,11.172.035,2.98.016.771.008c.174,0,.267.008.267.008s-.082,0-.251.008l-.756.008-2.953.016-11.143.035-39,.063h-.13v-.13c0-9.918-.006-20.815-.01-32.229v-.14h.145l54.1.032h.109v.109c-.024,9.89-.044,17.956-.057,23.559-.012,2.783-.021,4.952-.027,6.435-.005.729-.009,1.287-.012,1.673S330.962,182.159,330.962,182.159Z" transform="translate(-276.721 -149.79)" fill="#263238"/></g><g transform="translate(29.774 0.908)"><path d="M327.435,146.048a1,1,0,1,1-1-.978A.988.988,0,0,1,327.435,146.048Z" transform="translate(-325.441 -145.07)" fill="#263238"/></g></g><g transform="translate(0 38.567)"><path d="M331.5,239.818l-7.018-24.7H263.137l-7.993,24.619a2.3,2.3,0,0,0,2.167,3.028h28.018l1.134-1.134H299.7l1.134,1.134h28.475A2.3,2.3,0,0,0,331.5,239.818Z" transform="translate(-255.028 -215.116)" fill="#e0e0e0"/></g><g transform="translate(6.095 39.971)"><path d="M325.371,217.908l-53.463-.181a1.246,1.246,0,0,0-1.208.745l-4.285,12.158c-.233.661.368,1.322,1.2,1.322h61.865c.831,0,1.431-.655,1.2-1.315l-4.117-11.977A1.24,1.24,0,0,0,325.371,217.908Z" transform="translate(-266.365 -217.727)" fill="#ebebeb"/></g><g transform="translate(26.07 55.6)" opacity="0.1"><path d="M325.944,254.676h-21.1a1.422,1.422,0,0,1-1.28-1.81l1.192-4.99a1.349,1.349,0,0,1,1.281-1.08h18.85a1.353,1.353,0,0,1,1.289,1.118l1.06,4.99A1.419,1.419,0,0,1,325.944,254.676Z" transform="translate(-303.518 -246.796)"/></g><g transform="translate(7.649 41.154)"><g transform="translate(36.185)"><path d="M341.149,222.77l-.549-2.544a.379.379,0,0,0-.371-.3h-3.291a.379.379,0,0,0-.375.433l.363,2.549a.379.379,0,0,0,.376.326l3.477,0A.38.38,0,0,0,341.149,222.77Z" transform="translate(-336.558 -219.927)" fill="#263238"/></g><g transform="translate(26.503)"><path d="M322.9,222.829l-.234-2.558a.38.38,0,0,0-.378-.345h-3.363a.379.379,0,0,0-.379.393l.094,2.563a.38.38,0,0,0,.38.366l3.5,0A.38.38,0,0,0,322.9,222.829Z" transform="translate(-318.549 -219.927)" fill="#263238"/></g><g transform="translate(31.086)"><path d="M332.064,222.8l-.363-2.551a.38.38,0,0,0-.376-.326h-3.87a.379.379,0,0,0-.378.414l.234,2.556a.38.38,0,0,0,.379.345l4-.006A.379.379,0,0,0,332.064,222.8Z" transform="translate(-327.075 -219.927)" fill="#263238"/></g><g transform="translate(7.188)"><path d="M286.967,222.872l.52-2.323a.511.511,0,0,0-.5-.622H283.8a.51.51,0,0,0-.491.37l-.665,2.328a.51.51,0,0,0,.491.651l3.333,0A.511.511,0,0,0,286.967,222.872Z" transform="translate(-282.625 -219.927)" fill="#263238"/></g><g transform="translate(50.015)"><path d="M370.239,222.69l-.968-2.52a.378.378,0,0,0-.354-.243h-6.255a.38.38,0,0,0-.356.512l.941,2.529a.38.38,0,0,0,.356.247l6.283-.009A.38.38,0,0,0,370.239,222.69Z" transform="translate(-362.281 -219.927)" fill="#263238"/></g><g transform="translate(21.525)"><path d="M313.432,219.927h-3.638a.379.379,0,0,0-.379.361l-.124,2.57a.38.38,0,0,0,.38.4l3.856-.005a.379.379,0,0,0,.378-.394l-.094-2.565A.379.379,0,0,0,313.432,219.927Z" transform="translate(-309.29 -219.927)" fill="#263238"/></g><g transform="translate(2.943)"><path d="M278.613,219.927h-2.537a.511.511,0,0,0-.481.338l-.837,2.334a.51.51,0,0,0,.481.683l2.708,0a.512.512,0,0,0,.49-.37l.666-2.33A.511.511,0,0,0,278.613,219.927Z" transform="translate(-274.728 -219.927)" fill="#263238"/></g><g transform="translate(12.003)"><path d="M295.813,222.933l.337-2.578a.379.379,0,0,0-.376-.428h-3.236a.379.379,0,0,0-.37.3l-.579,2.583a.38.38,0,0,0,.371.462l3.477-.005A.379.379,0,0,0,295.813,222.933Z" transform="translate(-291.58 -219.927)" fill="#263238"/></g><g transform="translate(16.706)"><path d="M300.668,220.257l-.337,2.576a.38.38,0,0,0,.377.429l3.6-.005a.379.379,0,0,0,.379-.361l.124-2.571a.38.38,0,0,0-.38-.4h-3.389A.378.378,0,0,0,300.668,220.257Z" transform="translate(-300.328 -219.927)" fill="#263238"/></g><g transform="translate(40.719)"><path d="M350,222.736l-.752-2.537a.38.38,0,0,0-.364-.272h-3.509a.379.379,0,0,0-.371.459l.549,2.542a.38.38,0,0,0,.372.3l3.712-.005A.379.379,0,0,0,350,222.736Z" transform="translate(-344.992 -219.927)" fill="#263238"/></g><g transform="translate(45.495)"><path d="M358.775,222.7l-.942-2.531a.38.38,0,0,0-.356-.247h-3.222a.379.379,0,0,0-.364.487l.752,2.535a.38.38,0,0,0,.365.272l3.412,0A.38.38,0,0,0,358.775,222.7Z" transform="translate(-353.875 -219.927)" fill="#263238"/></g><g transform="translate(21.333 3.901)"><path d="M313.41,227.184h-3.969a.379.379,0,0,0-.379.361l-.128,2.652a.379.379,0,0,0,.38.4l4.195-.005a.379.379,0,0,0,.379-.394l-.1-2.645A.379.379,0,0,0,313.41,227.184Z" transform="translate(-308.933 -227.183)" fill="#263238"/></g><g transform="translate(46.653 3.904)"><path d="M361.253,230.045l-.971-2.609a.38.38,0,0,0-.355-.247h-3.518a.38.38,0,0,0-.364.488l.775,2.614a.38.38,0,0,0,.365.271l3.713,0A.38.38,0,0,0,361.253,230.045Z" transform="translate(-356.029 -227.189)" fill="#263238"/></g><g transform="translate(41.562 3.904)"><path d="M351.9,230.076l-.776-2.616a.38.38,0,0,0-.364-.272H346.94a.379.379,0,0,0-.371.46l.566,2.622a.381.381,0,0,0,.372.3l4.033-.005A.379.379,0,0,0,351.9,230.076Z" transform="translate(-346.56 -227.188)" fill="#263238"/></g><g transform="translate(16.186 3.9)"><path d="M299.74,230.6l3.93-.005a.379.379,0,0,0,.378-.361l.128-2.654a.379.379,0,0,0-.379-.4h-3.71a.379.379,0,0,0-.376.331l-.348,2.659A.38.38,0,0,0,299.74,230.6Z" transform="translate(-299.36 -227.181)" fill="#263238"/></g><g transform="translate(26.646 3.902)"><path d="M319.294,230.587l3.722,0a.379.379,0,0,0,.377-.414l-.242-2.639a.379.379,0,0,0-.378-.345H319.2a.379.379,0,0,0-.379.394l.1,2.644A.38.38,0,0,0,319.294,230.587Z" transform="translate(-318.816 -227.184)" fill="#263238"/></g><g transform="translate(31.444 3.902)"><path d="M327.743,227.6l.241,2.637a.379.379,0,0,0,.379.345l4.2-.005a.379.379,0,0,0,.375-.433l-.375-2.631a.379.379,0,0,0-.375-.326h-4.069A.379.379,0,0,0,327.743,227.6Z" transform="translate(-327.741 -227.185)" fill="#263238"/></g><g transform="translate(36.741 3.903)"><path d="M342.488,230.11l-.567-2.623a.379.379,0,0,0-.371-.3h-3.577a.38.38,0,0,0-.376.433l.375,2.629a.379.379,0,0,0,.376.326l3.769,0A.38.38,0,0,0,342.488,230.11Z" transform="translate(-337.593 -227.187)" fill="#263238"/></g><g transform="translate(1.505 3.898)"><path d="M281.391,227.179h-7.926a.38.38,0,0,0-.354.243l-1.032,2.68a.38.38,0,0,0,.355.516l8.361-.011a.379.379,0,0,0,.37-.3l.6-2.668A.38.38,0,0,0,281.391,227.179Z" transform="translate(-272.053 -227.178)" fill="#263238"/></g><g transform="translate(11.111 3.899)"><path d="M290.3,230.605l3.848,0a.379.379,0,0,0,.376-.33l.348-2.661a.38.38,0,0,0-.376-.429h-3.6a.38.38,0,0,0-.37.3l-.6,2.666A.379.379,0,0,0,290.3,230.605Z" transform="translate(-289.922 -227.18)" fill="#263238"/></g><g transform="translate(55.384 3.906)"><path d="M373.493,230.552l2.478,0a.38.38,0,0,0,.352-.521l-1.044-2.6a.379.379,0,0,0-.352-.238h-2.277a.379.379,0,0,0-.361.5l.844,2.6A.38.38,0,0,0,373.493,230.552Z" transform="translate(-372.269 -227.192)" fill="#263238"/></g><g transform="translate(51.468 3.905)"><path d="M369.208,230.057l-.844-2.6a.379.379,0,0,0-.361-.262h-2.639a.379.379,0,0,0-.355.512l.97,2.606a.38.38,0,0,0,.356.247l2.512,0A.379.379,0,0,0,369.208,230.057Z" transform="translate(-364.985 -227.191)" fill="#263238"/></g><g transform="translate(15.629 7.881)"><path d="M298.894,238.492l3.9.006a.572.572,0,0,0,.572-.544l.133-2.769a.571.571,0,0,0-.57-.6h-3.668a.571.571,0,0,0-.567.5l-.361,2.762A.571.571,0,0,0,298.894,238.492Z" transform="translate(-298.324 -234.586)" fill="#263238"/></g><g transform="translate(53.032 7.881)"><path d="M374.448,234.586h-5.982a.572.572,0,0,0-.536.771l1.052,2.825a.572.572,0,0,0,.534.372l6.036.01a.572.572,0,0,0,.533-.779l-1.1-2.835A.572.572,0,0,0,374.448,234.586Z" transform="translate(-367.893 -234.586)" fill="#263238"/></g><g transform="translate(10.163 7.881)"><path d="M288.787,235.033l-.616,2.754a.571.571,0,0,0,.556.7l3.854.006a.571.571,0,0,0,.568-.5l.361-2.76a.572.572,0,0,0-.567-.646h-3.6A.572.572,0,0,0,288.787,235.033Z" transform="translate(-288.157 -234.586)" fill="#263238"/></g><g transform="translate(4.73 7.89)"><path d="M278.884,235.009l-.813,2.844a.493.493,0,0,0,.473.628l3.936.006a.494.494,0,0,0,.482-.385l.649-2.9a.493.493,0,0,0-.488-.6l-3.772.049A.494.494,0,0,0,278.884,235.009Z" transform="translate(-278.052 -234.602)" fill="#263238"/></g><g transform="translate(42.467 7.881)"><path d="M348.257,235.278l.606,2.807a.572.572,0,0,0,.558.451l3.99.006a.572.572,0,0,0,.549-.734L353.125,235a.571.571,0,0,0-.548-.409h-3.762A.572.572,0,0,0,348.257,235.278Z" transform="translate(-348.244 -234.586)" fill="#263238"/></g><g transform="translate(21.125 7.881)"><path d="M308.682,235.13l-.134,2.772a.572.572,0,0,0,.57.6l20.311.033a.572.572,0,0,0,.56-.692l-.606-2.8a.572.572,0,0,0-.559-.451H309.253A.572.572,0,0,0,308.682,235.13Z" transform="translate(-308.548 -234.586)" fill="#263238"/></g><g transform="translate(0 7.881)"><path d="M270.377,234.883l-1.094,2.974a.454.454,0,0,0,.425.61l3.3.005a.454.454,0,0,0,.437-.329l.851-2.979a.453.453,0,0,0-.435-.578H270.8A.454.454,0,0,0,270.377,234.883Z" transform="translate(-269.255 -234.586)" fill="#263238"/></g><g transform="translate(47.898 7.881)"><path d="M358.368,235.32l.835,2.816a.571.571,0,0,0,.547.409l3.643.006a.572.572,0,0,0,.537-.771l-1.051-2.822a.571.571,0,0,0-.535-.373h-3.427A.572.572,0,0,0,358.368,235.32Z" transform="translate(-358.344 -234.586)" fill="#263238"/></g></g><g transform="translate(8.244 38.52)"><path d="M331.789,215.168c0,.077-13.752.14-30.713.14s-30.715-.063-30.715-.14,13.749-.14,30.715-.14S331.789,215.09,331.789,215.168Z" transform="translate(-270.361 -215.028)" fill="#263238"/></g><g transform="translate(22.126 5.936)"><g transform="translate(0 3.173)"><path d="M301.014,164.058a8.2,8.2,0,0,1,1.854-1.158l.115-2.023,3.306-.554.768,1.875a8.192,8.192,0,0,1,2.13.491l1.511-1.349,2.73,1.947-.782,1.868a8.2,8.2,0,0,1,1.158,1.854l2.023.115.554,3.306-1.875.768a8.208,8.208,0,0,1-.49,2.13l1.348,1.512-1.946,2.73-1.868-.783a8.213,8.213,0,0,1-1.854,1.158l-.116,2.023-3.306.554-.768-1.875a8.241,8.241,0,0,1-2.13-.491l-1.511,1.349-2.73-1.947.783-1.868a8.217,8.217,0,0,1-1.158-1.854l-2.023-.115-.554-3.306,1.875-.768a8.208,8.208,0,0,1,.491-2.13L297.2,166l1.946-2.73,1.869.783Zm2.427,4.152a3.6,3.6,0,1,0,5.016-.84A3.6,3.6,0,0,0,303.442,168.21Z" transform="translate(-296.182 -160.323)" fill="#f5f5f5"/></g><g transform="translate(19.781 12.801)"><path d="M336.246,180.758a5.562,5.562,0,0,1,1.255-.784l.078-1.37,2.239-.375.52,1.269a5.579,5.579,0,0,1,1.442.332l1.023-.913,1.848,1.318-.53,1.265a5.527,5.527,0,0,1,.784,1.255l1.37.078.375,2.239-1.269.52a5.557,5.557,0,0,1-.332,1.442l.913,1.024-1.318,1.848-1.265-.53a5.578,5.578,0,0,1-1.255.784l-.078,1.369-2.239.375-.52-1.27a5.556,5.556,0,0,1-1.442-.332l-1.023.913-1.848-1.318.53-1.265a5.546,5.546,0,0,1-.784-1.255l-1.37-.078-.375-2.238,1.269-.52a5.582,5.582,0,0,1,.332-1.442l-.913-1.023,1.318-1.848,1.265.53Zm1.644,2.811a2.435,2.435,0,1,0,3.4-.569A2.434,2.434,0,0,0,337.889,183.57Z" transform="translate(-332.974 -178.23)" fill="#f5f5f5"/></g><g transform="translate(19.106)"><path d="M334.615,156.659a4.927,4.927,0,0,1,1.111-.694l.069-1.212,1.982-.332.46,1.124a4.918,4.918,0,0,1,1.276.294l.906-.809,1.635,1.167-.469,1.12a4.923,4.923,0,0,1,.694,1.111l1.212.069.332,1.981-1.124.461a4.924,4.924,0,0,1-.294,1.276l.808.905-1.166,1.636-1.12-.469a4.906,4.906,0,0,1-1.111.694l-.069,1.213-1.982.332-.46-1.124a4.962,4.962,0,0,1-1.276-.294l-.906.808-1.635-1.167.469-1.119a4.927,4.927,0,0,1-.694-1.111l-1.212-.069-.332-1.982,1.124-.46a4.934,4.934,0,0,1,.294-1.276l-.808-.906,1.167-1.636,1.119.469Zm1.455,2.488a2.155,2.155,0,1,0,3.007-.5A2.156,2.156,0,0,0,336.07,159.147Z" transform="translate(-331.719 -154.421)" fill="#f5f5f5"/></g></g></g></g><g transform="translate(42.27 94.826)"><g transform="translate(10.627)"><g transform="translate(17.166)"><path d="M103.442,153.187c-2.458-1.51-3.1-5.087-1.816-7.671a9.408,9.408,0,0,1,6.9-4.683,13.276,13.276,0,0,1,11.492,3.623c1.6,1.6,2.9,3.688,5.04,4.4,1.882.624,3.946.005,5.916.232a8.923,8.923,0,0,1,6.313,4.413,19.265,19.265,0,0,1,2.333,7.566c.322,2.419.55,5.075,2.257,6.819,1.665,1.7,4.259,2.027,6.315,3.224a8.579,8.579,0,0,1,2.719,11.68c-.79,1.189-1.932,2.285-2,3.711-.067,1.3.79,2.447,1.2,3.683a5.791,5.791,0,0,1-4.849,7.262c-1.689.122-3.511-.511-5.015.268s-2.028,2.6-2.971,3.99a7.241,7.241,0,0,1-8.794,2.409c-1.253-.592-2.442-1.581-3.823-1.468s-2.447,1.307-3.8,1.589c-1.772.37-3.478-.915-4.556-2.368s-1.839-3.174-3.209-4.357c-1.793-1.549-4.286-1.9-6.538-2.64A18.332,18.332,0,0,1,95.83,169.34" transform="translate(-93.965 -140.644)" fill="#263238"/></g><g transform="translate(51.939 42.509)"><path d="M159.575,221.207a4.976,4.976,0,0,1,1.958-1.329l-.151-.007a2.913,2.913,0,0,1,.422-.078,1.968,1.968,0,0,1,1.547.168h-.015a3.655,3.655,0,0,1,2.025,1.711,4.327,4.327,0,0,1-.444,4.465,3.307,3.307,0,0,1-6.084-1.047A4.1,4.1,0,0,1,159.575,221.207Z" transform="translate(-158.642 -219.711)" fill="#455a64"/></g><g transform="translate(17.897 13.034)"><path d="M98.614,223l-3.282-47.461a4.033,4.033,0,0,1,3.429-4.241l21.147-6.325c6.816-1.019,11.732,7.216,12.46,14.069.81,7.613,1.5,16.941.839,22.676-1.326,11.532-10.731,13.413-10.731,13.413,0-.039.1,11.722.233,15.887l2.805,12.874Z" transform="translate(-95.324 -164.886)" fill="#ffbf9d"/><g transform="translate(29.96 22.75)"><path d="M153.977,208.469a1.469,1.469,0,0,1-1.353,1.542,1.405,1.405,0,0,1-1.571-1.259,1.47,1.47,0,0,1,1.351-1.544A1.407,1.407,0,0,1,153.977,208.469Z" transform="translate(-151.049 -207.201)" fill="#263238"/></g><g transform="translate(29.352 16.902)"><path d="M155.728,197.748c-.174.2-1.322-.576-2.9-.5-1.58.049-2.7.912-2.884.726-.088-.082.083-.435.571-.825a4.039,4.039,0,0,1,2.3-.819,3.875,3.875,0,0,1,2.32.641C155.635,197.319,155.815,197.659,155.728,197.748Z" transform="translate(-149.919 -196.324)" fill="#263238"/></g><g transform="translate(15.727 23.233)"><path d="M127.5,209.367a1.469,1.469,0,0,1-1.352,1.543,1.407,1.407,0,0,1-1.572-1.259,1.471,1.471,0,0,1,1.352-1.544A1.406,1.406,0,0,1,127.5,209.367Z" transform="translate(-124.576 -208.099)" fill="#263238"/></g><g transform="translate(13.826 17.866)"><path d="M126.851,199.541c-.175.2-1.324-.576-2.9-.5-1.58.049-2.7.912-2.884.726-.088-.082.081-.435.572-.825a4.037,4.037,0,0,1,2.3-.819,3.882,3.882,0,0,1,2.321.64C126.755,199.112,126.937,199.452,126.851,199.541Z" transform="translate(-121.041 -198.117)" fill="#263238"/></g><g transform="translate(24.573 17.626)"><path d="M142.334,210.811a10.488,10.488,0,0,1,2.548-.574c.4-.059.78-.155.837-.434a2.053,2.053,0,0,0-.321-1.185l-1.326-3.022c-1.846-4.3-3.2-7.852-3.027-7.924s1.812,3.357,3.658,7.662q.668,1.593,1.276,3.043a2.336,2.336,0,0,1,.278,1.575,1.017,1.017,0,0,1-.639.619,2.722,2.722,0,0,1-.681.124A10.327,10.327,0,0,1,142.334,210.811Z" transform="translate(-141.029 -197.671)" fill="#263238"/></g><g transform="translate(12.259 45.994)"><path d="M132.953,253.911a27.524,27.524,0,0,1-14.828-3.477s3.442,8.475,14.86,6.909Z" transform="translate(-118.125 -250.434)" fill="#ff9a6c"/></g><g transform="translate(20.209 32.964)"><path d="M138.509,227.77a3.894,3.894,0,0,0-3.275-1.561,2.535,2.535,0,0,0-2.031,1.222,2.323,2.323,0,0,0,2.753,3.365,5.772,5.772,0,0,0,2.266-1.54,1.8,1.8,0,0,0,.475-.613.805.805,0,0,0-.1-.8" transform="translate(-132.912 -226.2)" fill="#ff9a6c"/></g><g transform="translate(21.05 32.06)"><path d="M134.7,224.518c.256-.026.334,1.689,1.855,2.844s3.339.888,3.363,1.126c.029.107-.393.351-1.164.405a4.277,4.277,0,0,1-2.8-.844,3.721,3.721,0,0,1-1.445-2.389C134.409,224.946,134.583,224.513,134.7,224.518Z" transform="translate(-134.477 -224.517)" fill="#263238"/></g><g transform="translate(12.87 11.693)"><path d="M126.447,187.695c-.137.437-1.724.3-3.569.6-1.852.266-3.324.873-3.587.5-.117-.18.126-.6.713-1.038a6.293,6.293,0,0,1,5.451-.84C126.148,187.165,126.5,187.488,126.447,187.695Z" transform="translate(-119.263 -186.635)" fill="#263238"/></g><g transform="translate(28.975 11.388)"><path d="M154.613,187.59c-.262.37-1.367.045-2.677.084-1.311-.007-2.408.345-2.68-.019-.12-.177.04-.545.51-.905a3.88,3.88,0,0,1,4.316-.052C154.56,187.046,154.729,187.41,154.613,187.59Z" transform="translate(-149.218 -186.068)" fill="#263238"/></g></g><g transform="translate(27.021 6.577)"><path d="M147.84,170.194a7.873,7.873,0,0,0-3.086-4.292,29.081,29.081,0,0,1-2.573-1.447c-1.676-1.312-2.093-3.634-3.143-5.485a8.655,8.655,0,0,0-6.657-4.277c-2.274-.2-4.6.516-6.825-.009-1.642-.389-3.087-1.43-4.749-1.72-3.237-.567-6.2,1.794-8.51,4.134.025,2.311,1.889,3.829,3.682,5.286A8.016,8.016,0,0,0,122.492,164c1.759-.348,3.679-1.268,5.219-.351,1.62.965,1.722,3.384,3.163,4.6,2.061,1.737,5.272.032,7.867.76,2,.562,3.277,2.451,4.626,4.036s3.356,3.081,5.342,2.46A23.4,23.4,0,0,0,147.84,170.194Z" transform="translate(-112.296 -152.878)" fill="#263238"/></g><g transform="translate(0 7.626)"><path d="M100.221,161.684c-1.453-.393-4.428-1.287-5.223-2.53a8.847,8.847,0,0,0-7.759-4.309,7.3,7.3,0,0,0-6.489,5.867,10.5,10.5,0,0,0-8.937,5.94,11.01,11.01,0,0,0-.553,1.355,7.989,7.989,0,0,0-.437,6.713c.52,1.3,1.394,2.741.74,3.979-.666,1.259-2.395,1.324-3.735,1.808a5.3,5.3,0,0,0-3.254,5.972,6.464,6.464,0,0,1,.46,2.6,5.682,5.682,0,0,1-1.527,2.277,6.6,6.6,0,0,0,4.027,10.686,8.512,8.512,0,0,1,3.047.648c1.031.614,1.5,1.837,2.231,2.785a5.693,5.693,0,0,0,6.2,1.841,5.207,5.207,0,0,0,1.231-.641,4.085,4.085,0,0,0,3.645,1.551l-.779-24.156A2,2,0,0,0,84.59,185.2c3.89.82,4.34-7.179,3.444-9.333a22.56,22.56,0,0,0,3.832-4.148,16.271,16.271,0,0,0,1.67-7.866C94.934,163.91,100.86,161.857,100.221,161.684Z" transform="translate(-62.037 -154.828)" fill="#263238"/></g><g transform="translate(14.983 36.469)"><path d="M97.09,210.824c-.159-2.454-3.172-2.936-5.282-1.674-1.159.693-2.033,2.064-1.887,4.67.388,6.949,7.284,5.126,7.286,4.926C97.206,218.622,97.276,213.7,97.09,210.824Z" transform="translate(-89.904 -208.476)" fill="#ffbf9d"/></g><g transform="translate(16.76 38.799)"><path d="M96.465,218.236c-.032-.02-.117.092-.316.2a1.212,1.212,0,0,1-.9.069,3,3,0,0,1-1.536-2.61,4,4,0,0,1,.242-1.752,1.4,1.4,0,0,1,.859-.98.617.617,0,0,1,.733.292c.1.189.068.33.105.34.02.017.142-.125.07-.409a.773.773,0,0,0-.3-.42.916.916,0,0,0-.679-.14,1.7,1.7,0,0,0-1.2,1.148,4.116,4.116,0,0,0-.312,1.961c.123,1.4.913,2.668,1.933,2.9a1.3,1.3,0,0,0,1.1-.245C96.461,218.4,96.489,218.247,96.465,218.236Z" transform="translate(-93.211 -212.809)" fill="#ff9a6c"/></g><g transform="translate(12.434 12.742)"><path d="M101.314,164.346a4.133,4.133,0,0,0-1.37,1.182,6.413,6.413,0,0,0-.441,4.816l.04.175-.17.045a6.724,6.724,0,0,0-4.422,4.012,5.222,5.222,0,0,0-.335,1.7,10.211,10.211,0,0,0,.245,1.834,13.809,13.809,0,0,1,.294,1.975,3.267,3.267,0,0,1-.521,2.06,8.43,8.43,0,0,1-3.411,2.642,11.692,11.692,0,0,0-3.2,2.161,8.693,8.693,0,0,0-2.512,5.864,9.075,9.075,0,0,0,.979,4.284c.476.942.87,1.389.832,1.419-.013.011-.116-.1-.3-.309a7.361,7.361,0,0,1-.7-1.02,8.826,8.826,0,0,1-1.158-4.378,8.945,8.945,0,0,1,2.535-6.176,11.967,11.967,0,0,1,3.3-2.27,8.1,8.1,0,0,0,3.221-2.479c.755-1.067.39-2.44.169-3.682a10.578,10.578,0,0,1-.242-1.927,5.654,5.654,0,0,1,.38-1.861,7.047,7.047,0,0,1,4.758-4.2l-.131.22a6.46,6.46,0,0,1,.628-5.02,2.927,2.927,0,0,1,1.075-.9A1.656,1.656,0,0,1,101.314,164.346Z" transform="translate(-85.164 -164.343)" fill="#455a64"/></g><g transform="translate(16.522 45.37)"><path d="M93.7,226.527a4.973,4.973,0,0,1,1.958-1.329l-.152-.007a2.907,2.907,0,0,1,.423-.078,1.962,1.962,0,0,1,1.547.168h-.015a3.654,3.654,0,0,1,2.025,1.711,4.328,4.328,0,0,1-.445,4.466,3.307,3.307,0,0,1-6.084-1.047A4.105,4.105,0,0,1,93.7,226.527Z" transform="translate(-92.767 -225.031)" fill="#455a64"/></g></g><g transform="translate(128.852 80.474)"><path d="M281.933,309.138l4.738-1.816a31.037,31.037,0,0,1,2.151-5.345,43.08,43.08,0,0,1,5.7-5.028c.268-.1,3.273-6.839,4.642-6.62a2.249,2.249,0,0,1,1.931,3.009c-.383,1.829-3.416,5.476-2.576,6.082a6.146,6.146,0,0,0,2.209.826s.372-2.1,1.525-2.78,2.467.448,2.467.448l.035.906,1.139-1.042s1.2-4.219,3.012-4.2a7.379,7.379,0,0,1,1.791-2.407,1.561,1.561,0,0,1,2.406.7h0l-3.258,9.56-8.961,9.872s-4.2,1.613-5.27,2.109-5.928,3.858-8.077,4.576-4.646,1.813-4.646,1.813Z" transform="translate(-281.933 -290.324)" fill="#ffbf9d"/><g transform="translate(3.926 15.696)"><path d="M297.877,319.694a5.447,5.447,0,0,0-1.7-.174,7.866,7.866,0,0,0-4.056.891,4.934,4.934,0,0,0-1.681,1.619,7.706,7.706,0,0,0-.8,1.7,5.066,5.066,0,0,0-.39,1.666,8.429,8.429,0,0,0,.692-1.549,6.069,6.069,0,0,1,2.411-3.04,8.72,8.72,0,0,1,3.832-.963A7.526,7.526,0,0,0,297.877,319.694Z" transform="translate(-289.235 -319.519)" fill="#ff9a6c"/></g><g transform="translate(14.117 8.431)"><path d="M310.779,306.913c.07-.1-.418-.544-1.18-.77s-1.412-.129-1.409-.005.588.236,1.277.446S310.709,307.023,310.779,306.913Z" transform="translate(-308.19 -306.005)" fill="#ff9a6c"/></g><g transform="translate(23.213 3.133)"><path d="M328.756,304.145a9.741,9.741,0,0,1,.209-2.074c.187-1.289.479-3.092.837-5.163l.134.27a10.777,10.777,0,0,0-.981-.462,1.255,1.255,0,0,0-.955.122,2.762,2.762,0,0,0-1.108,1.339,9.967,9.967,0,0,0-.587,1.653c-.259,1.105-.432,2.132-.591,2.985a17.194,17.194,0,0,1-.58,2.763,13.7,13.7,0,0,1,.216-2.819c.114-.867.247-1.894.488-3.038a9.746,9.746,0,0,1,.591-1.758,3.2,3.2,0,0,1,1.331-1.588,1.767,1.767,0,0,1,1.338-.156,9.427,9.427,0,0,1,1.065.508l.171.08-.036.19c-.385,2.066-.741,3.858-1.015,5.131A9.66,9.66,0,0,1,328.756,304.145Z" transform="translate(-325.108 -296.151)" fill="#ff9a6c"/></g><g transform="translate(15.08 6.8)"><path d="M309.992,315.456c-.022,0-.008-.145.04-.411a5.669,5.669,0,0,1,.386-1.1,14.012,14.012,0,0,1,2.351-3.427l-.051.086c.62-1.835.056-4.492,1.719-6.865a2.18,2.18,0,0,1,1.726-.767,3.192,3.192,0,0,1,1.673.586l.12.082-.019.148c-.333,2.685-.641,5-.881,6.65a4.32,4.32,0,0,1-.6,1.872c-.233.4-.4.585-.425.57a3.471,3.471,0,0,1,.273-.647,4.692,4.692,0,0,0,.441-1.848c.152-1.655.394-3.975.7-6.651l.1.23a2.742,2.742,0,0,0-1.392-.476,1.664,1.664,0,0,0-1.324.6,3.937,3.937,0,0,0-.774,1.607,15.279,15.279,0,0,0-.374,1.756c-.1.584-.127,1.122-.195,1.7a10.2,10.2,0,0,1-.35,1.584l-.015.048-.037.038a16.076,16.076,0,0,0-2.44,3.238C310.159,314.914,310.051,315.47,309.992,315.456Z" transform="translate(-309.982 -302.971)" fill="#ff9a6c"/></g></g><g transform="translate(0 65.9)"><g transform="translate(28.761)"><path d="M95.765,267.3c.285-.412,2.187-4.084,2.187-4.084l10.783,9.3s10.57,8.853,10.57,8.281l1.687-8.517,2.077-7.748,3.878,5.86s12.185,23.889,12.185,24.176,7.541,25.011,7.541,25.011L145.051,329.6l-.191,35.512-22.72-.955L117.654,357l-7.733-45.535Z" transform="translate(-95.765 -263.218)" fill="#fff"/></g><g transform="translate(47.918 94.867)"><path d="M140.581,439.671h24.206l3.835,16.268H131.4Z" transform="translate(-131.397 -439.671)" fill="#263238"/></g><g transform="translate(13.113 3.172)"><path d="M109.888,353.947c-.762-11.664-.443-33.666-4.907-45.145s-22.387-39.684-22.387-39.684l-4.4,6.84L66.66,280.286l15.648,63.431s-6.026,14.191-8.9,22.482c-.858,2.477-2.015,6.684-3.283,10.881h39.6C110.077,367.856,110.248,359.457,109.888,353.947Z" transform="translate(-66.66 -269.118)" fill="#a7bce6"/></g><g transform="translate(71.048 8.732)"><path d="M235.538,300.625l-30.526,16.969-21.154-30.187q-.086-.117-.182-.245c-2.407-3.186-4.773-6.694-8.668-7.569l-.59-.133,1.132,36.133s15.041,16.581,23.475,23.437c2.511,2.041,8.876.766,11.908-.907,12.15-6.7,32.9-23.9,32.9-23.9Z" transform="translate(-174.418 -279.46)" fill="#a7bce6"/></g><g transform="translate(56.728 1.983)"><path d="M172.15,342.969s2.224-17.248,2.953-21.58c3.817-22.67-13-47.733-13-47.733l-7.688-1.272-6.632-5.477,2.93,8.183s9.633,26.95,11.546,35.559,2.87,35.076,3.168,34.439c.176-.376,1.335,15.979,2.79,30.971h16.318Z" transform="translate(-147.784 -266.907)" fill="#a7bce6"/></g><g transform="translate(63.359 7.461)"><path d="M176.429,328.474a3.176,3.176,0,0,1,0-.562q.033-.6.087-1.6.033-.526.072-1.155,0-.638,0-1.377c0-.988.024-2.112-.073-3.353a69.862,69.862,0,0,0-3.776-18.986,65.564,65.564,0,0,0-3.063-7.537l0-.009,0-.006A64.634,64.634,0,0,0,166.141,287c-1.167-2.029-2.244-3.8-3.145-5.258l-2.131-3.41-.567-.912a1.777,1.777,0,0,1-.181-.325,1.661,1.661,0,0,1,.232.291l.616.88c.53.774,1.289,1.911,2.219,3.357s2.03,3.2,3.219,5.223a62.224,62.224,0,0,1,3.6,6.907l-.006-.014a63.684,63.684,0,0,1,3.1,7.58,67.131,67.131,0,0,1,3.687,19.095c.08,1.247.04,2.377.018,3.368-.012.493-.023.954-.033,1.381q-.057.629-.1,1.157c-.065.667-.118,1.2-.157,1.6A3.2,3.2,0,0,1,176.429,328.474Z" transform="translate(-160.118 -277.095)" fill="#263238"/></g><g transform="translate(37.518 14.226)"><path d="M126.638,293.158a1.661,1.661,0,0,1-.429-.188l-1.165-.615-4.1-2.272.241-.121c-.2,1.845-.54,4-.879,6.3-.137.935-.266,1.847-.372,2.719l-.041.337-.258-.219c-2.2-1.868-4.1-3.512-5.458-4.7l-1.578-1.4a3.451,3.451,0,0,1-.542-.542,3.541,3.541,0,0,1,.624.445l1.648,1.323c1.395,1.137,3.333,2.745,5.541,4.6l-.3.118c.1-.879.227-1.794.365-2.731.34-2.3.7-4.45.926-6.281l.031-.246.21.124,4.038,2.388,1.12.693A1.686,1.686,0,0,1,126.638,293.158Z" transform="translate(-112.053 -289.679)" fill="#263238"/></g><g transform="translate(52.297 7.171)"><path d="M145.621,276.556a4.934,4.934,0,0,1,.033.972c-.013.7-.028,1.585-.048,2.645-.056,2.233-.16,5.317-.3,8.722,0,.084-.007.167-.01.248l-.024.6-.318-.5-4.081-6.433.255-.031c-.451,1.239-.826,2.273-1.118,3.073a6.785,6.785,0,0,1-.466,1.116,6.687,6.687,0,0,1,.315-1.168l1-3.113.091-.284.165.253,4.154,6.387-.342.093c0-.081.006-.165.01-.248.137-3.4.282-6.487.406-8.717.066-1.059.122-1.945.166-2.641A4.829,4.829,0,0,1,145.621,276.556Z" transform="translate(-139.543 -276.556)" fill="#263238"/></g><g transform="translate(0 14.34)"><path d="M55.383,289.891a17.242,17.242,0,0,0-2.678,2.06A18.244,18.244,0,0,0,48.04,299.3c-1.089,3.11-2.168,6.938-2.795,9.348l-2.919,44.275a26.051,26.051,0,0,0,1.861,11.523l9.041,22.241H72.721L62.2,356.929,65.8,324.1Z" transform="translate(-42.27 -289.891)" fill="#a7bce6"/></g><g transform="translate(25.12 9.275)"><g transform="translate(0.001 0)"><path d="M89,280.469l4.288,12.86h4.568l-2.964,1.887,23.442,44.8" transform="translate(-88.996 -280.469)" fill="#8ca3d1"/></g><path d="M118.328,340.019a.72.72,0,0,1-.1-.156l-.27-.476-1.006-1.848-3.64-6.827L101.426,308.12,94.734,295.3l-.073-.14.133-.084,2.969-1.879.087.3-4.568-.017h-.106l-.032-.1-3.069-9.406-.82-2.586-.2-.678a1.015,1.015,0,0,1-.055-.237,1.029,1.029,0,0,1,.1.223l.244.665.9,2.561,3.19,9.366-.139-.1,4.568-.017.558,0-.471.3-2.959,1.895.06-.224,6.72,12.809,11.785,22.643,3.534,6.883.944,1.88.237.494A.684.684,0,0,1,118.328,340.019Z" transform="translate(-88.993 -280.469)" fill="#263238"/></g><g transform="translate(16.471 20.608)"><g transform="translate(0.003 0.001)"><path d="M72.911,301.551a28.592,28.592,0,0,1,6.325,24.33" transform="translate(-72.911 -301.551)" fill="#a7bce6"/></g><path d="M79.234,325.881c-.075-.014.246-1.442.38-3.783a29.762,29.762,0,0,0-.06-4.11,29.531,29.531,0,0,0-2.522-9.7,29.746,29.746,0,0,0-1.949-3.619c-1.258-1.98-2.233-3.07-2.174-3.119a5.375,5.375,0,0,1,.705.745,11.258,11.258,0,0,1,.76.934c.279.377.618.793.931,1.3a26.861,26.861,0,0,1,2.041,3.62A28.011,28.011,0,0,1,79.9,317.96a26.985,26.985,0,0,1-.02,4.155c-.028.591-.122,1.12-.182,1.586a11.163,11.163,0,0,1-.209,1.186A5.358,5.358,0,0,1,79.234,325.881Z" transform="translate(-72.906 -301.55)" fill="#263238"/></g></g></g></g></g></svg>